<?xml version="1.0" encoding="utf-8" standalone="no"?>
<!DOCTYPE svg PUBLIC "-//W3C//DTD SVG 1.1//EN"
  "http://www.w3.org/Graphics/SVG/1.1/DTD/svg11.dtd">
<svg xmlns:xlink="http://www.w3.org/1999/xlink" width="720pt" height="432pt" viewBox="0 0 720 432" xmlns="http://www.w3.org/2000/svg" version="1.1">
 <metadata>
  <rdf:RDF xmlns:dc="http://purl.org/dc/elements/1.1/" xmlns:cc="http://creativecommons.org/ns#" xmlns:rdf="http://www.w3.org/1999/02/22-rdf-syntax-ns#">
   <cc:Work>
    <dc:type rdf:resource="http://purl.org/dc/dcmitype/StillImage"/>
    <dc:date>2025-05-10T19:49:12.355185</dc:date>
    <dc:format>image/svg+xml</dc:format>
    <dc:creator>
     <cc:Agent>
      <dc:title>Matplotlib v3.8.0, https://matplotlib.org/</dc:title>
     </cc:Agent>
    </dc:creator>
   </cc:Work>
  </rdf:RDF>
 </metadata>
 <defs>
  <style type="text/css">*{stroke-linejoin: round; stroke-linecap: butt}</style>
 </defs>
 <g id="figure_1">
  <g id="patch_1">
   <path d="M 0 432 
L 720 432 
L 720 0 
L 0 0 
z
" style="fill: #ffffff"/>
  </g>
  <g id="axes_1">
   <g id="patch_2">
    <path d="M 54.02 390.04 
L 709.2 390.04 
L 709.2 26.88 
L 54.02 26.88 
z
" style="fill: #ffffff"/>
   </g>
   <g id="matplotlib.axis_1">
    <g id="xtick_1">
     <g id="line2d_1">
      <path d="M 81.808875 390.04 
L 81.808875 26.88 
" clip-path="url(#p99b7387917)" style="fill: none; stroke: #b0b0b0; stroke-width: 0.8; stroke-linecap: square"/>
     </g>
     <g id="line2d_2">
      <defs>
       <path id="mfc4319389d" d="M 0 0 
L 0 3.5 
" style="stroke: #000000; stroke-width: 0.8"/>
      </defs>
      <g>
       <use xlink:href="#mfc4319389d" x="81.808875" y="390.04" style="stroke: #000000; stroke-width: 0.8"/>
      </g>
     </g>
     <g id="text_1">
      <!-- 0 -->
      <g transform="translate(78.627625 404.638438) scale(0.1 -0.1)">
       <defs>
        <path id="DejaVuSans-30" d="M 2034 4250 
Q 1547 4250 1301 3770 
Q 1056 3291 1056 2328 
Q 1056 1369 1301 889 
Q 1547 409 2034 409 
Q 2525 409 2770 889 
Q 3016 1369 3016 2328 
Q 3016 3291 2770 3770 
Q 2525 4250 2034 4250 
z
M 2034 4750 
Q 2819 4750 3233 4129 
Q 3647 3509 3647 2328 
Q 3647 1150 3233 529 
Q 2819 -91 2034 -91 
Q 1250 -91 836 529 
Q 422 1150 422 2328 
Q 422 3509 836 4129 
Q 1250 4750 2034 4750 
z
" transform="scale(0.015625)"/>
       </defs>
       <use xlink:href="#DejaVuSans-30"/>
      </g>
     </g>
    </g>
    <g id="xtick_2">
     <g id="line2d_3">
      <path d="M 181.410578 390.04 
L 181.410578 26.88 
" clip-path="url(#p99b7387917)" style="fill: none; stroke: #b0b0b0; stroke-width: 0.8; stroke-linecap: square"/>
     </g>
     <g id="line2d_4">
      <g>
       <use xlink:href="#mfc4319389d" x="181.410578" y="390.04" style="stroke: #000000; stroke-width: 0.8"/>
      </g>
     </g>
     <g id="text_2">
      <!-- 50 -->
      <g transform="translate(175.048078 404.638438) scale(0.1 -0.1)">
       <defs>
        <path id="DejaVuSans-35" d="M 691 4666 
L 3169 4666 
L 3169 4134 
L 1269 4134 
L 1269 2991 
Q 1406 3038 1543 3061 
Q 1681 3084 1819 3084 
Q 2600 3084 3056 2656 
Q 3513 2228 3513 1497 
Q 3513 744 3044 326 
Q 2575 -91 1722 -91 
Q 1428 -91 1123 -41 
Q 819 9 494 109 
L 494 744 
Q 775 591 1075 516 
Q 1375 441 1709 441 
Q 2250 441 2565 725 
Q 2881 1009 2881 1497 
Q 2881 1984 2565 2268 
Q 2250 2553 1709 2553 
Q 1456 2553 1204 2497 
Q 953 2441 691 2322 
L 691 4666 
z
" transform="scale(0.015625)"/>
       </defs>
       <use xlink:href="#DejaVuSans-35"/>
       <use xlink:href="#DejaVuSans-30" x="63.623047"/>
      </g>
     </g>
    </g>
    <g id="xtick_3">
     <g id="line2d_5">
      <path d="M 281.01228 390.04 
L 281.01228 26.88 
" clip-path="url(#p99b7387917)" style="fill: none; stroke: #b0b0b0; stroke-width: 0.8; stroke-linecap: square"/>
     </g>
     <g id="line2d_6">
      <g>
       <use xlink:href="#mfc4319389d" x="281.01228" y="390.04" style="stroke: #000000; stroke-width: 0.8"/>
      </g>
     </g>
     <g id="text_3">
      <!-- 100 -->
      <g transform="translate(271.46853 404.638438) scale(0.1 -0.1)">
       <defs>
        <path id="DejaVuSans-31" d="M 794 531 
L 1825 531 
L 1825 4091 
L 703 3866 
L 703 4441 
L 1819 4666 
L 2450 4666 
L 2450 531 
L 3481 531 
L 3481 0 
L 794 0 
L 794 531 
z
" transform="scale(0.015625)"/>
       </defs>
       <use xlink:href="#DejaVuSans-31"/>
       <use xlink:href="#DejaVuSans-30" x="63.623047"/>
       <use xlink:href="#DejaVuSans-30" x="127.246094"/>
      </g>
     </g>
    </g>
    <g id="xtick_4">
     <g id="line2d_7">
      <path d="M 380.613983 390.04 
L 380.613983 26.88 
" clip-path="url(#p99b7387917)" style="fill: none; stroke: #b0b0b0; stroke-width: 0.8; stroke-linecap: square"/>
     </g>
     <g id="line2d_8">
      <g>
       <use xlink:href="#mfc4319389d" x="380.613983" y="390.04" style="stroke: #000000; stroke-width: 0.8"/>
      </g>
     </g>
     <g id="text_4">
      <!-- 150 -->
      <g transform="translate(371.070233 404.638438) scale(0.1 -0.1)">
       <use xlink:href="#DejaVuSans-31"/>
       <use xlink:href="#DejaVuSans-35" x="63.623047"/>
       <use xlink:href="#DejaVuSans-30" x="127.246094"/>
      </g>
     </g>
    </g>
    <g id="xtick_5">
     <g id="line2d_9">
      <path d="M 480.215686 390.04 
L 480.215686 26.88 
" clip-path="url(#p99b7387917)" style="fill: none; stroke: #b0b0b0; stroke-width: 0.8; stroke-linecap: square"/>
     </g>
     <g id="line2d_10">
      <g>
       <use xlink:href="#mfc4319389d" x="480.215686" y="390.04" style="stroke: #000000; stroke-width: 0.8"/>
      </g>
     </g>
     <g id="text_5">
      <!-- 200 -->
      <g transform="translate(470.671936 404.638438) scale(0.1 -0.1)">
       <defs>
        <path id="DejaVuSans-32" d="M 1228 531 
L 3431 531 
L 3431 0 
L 469 0 
L 469 531 
Q 828 903 1448 1529 
Q 2069 2156 2228 2338 
Q 2531 2678 2651 2914 
Q 2772 3150 2772 3378 
Q 2772 3750 2511 3984 
Q 2250 4219 1831 4219 
Q 1534 4219 1204 4116 
Q 875 4013 500 3803 
L 500 4441 
Q 881 4594 1212 4672 
Q 1544 4750 1819 4750 
Q 2544 4750 2975 4387 
Q 3406 4025 3406 3419 
Q 3406 3131 3298 2873 
Q 3191 2616 2906 2266 
Q 2828 2175 2409 1742 
Q 1991 1309 1228 531 
z
" transform="scale(0.015625)"/>
       </defs>
       <use xlink:href="#DejaVuSans-32"/>
       <use xlink:href="#DejaVuSans-30" x="63.623047"/>
       <use xlink:href="#DejaVuSans-30" x="127.246094"/>
      </g>
     </g>
    </g>
    <g id="xtick_6">
     <g id="line2d_11">
      <path d="M 579.817388 390.04 
L 579.817388 26.88 
" clip-path="url(#p99b7387917)" style="fill: none; stroke: #b0b0b0; stroke-width: 0.8; stroke-linecap: square"/>
     </g>
     <g id="line2d_12">
      <g>
       <use xlink:href="#mfc4319389d" x="579.817388" y="390.04" style="stroke: #000000; stroke-width: 0.8"/>
      </g>
     </g>
     <g id="text_6">
      <!-- 250 -->
      <g transform="translate(570.273638 404.638438) scale(0.1 -0.1)">
       <use xlink:href="#DejaVuSans-32"/>
       <use xlink:href="#DejaVuSans-35" x="63.623047"/>
       <use xlink:href="#DejaVuSans-30" x="127.246094"/>
      </g>
     </g>
    </g>
    <g id="xtick_7">
     <g id="line2d_13">
      <path d="M 679.419091 390.04 
L 679.419091 26.88 
" clip-path="url(#p99b7387917)" style="fill: none; stroke: #b0b0b0; stroke-width: 0.8; stroke-linecap: square"/>
     </g>
     <g id="line2d_14">
      <g>
       <use xlink:href="#mfc4319389d" x="679.419091" y="390.04" style="stroke: #000000; stroke-width: 0.8"/>
      </g>
     </g>
     <g id="text_7">
      <!-- 300 -->
      <g transform="translate(669.875341 404.638438) scale(0.1 -0.1)">
       <defs>
        <path id="DejaVuSans-33" d="M 2597 2516 
Q 3050 2419 3304 2112 
Q 3559 1806 3559 1356 
Q 3559 666 3084 287 
Q 2609 -91 1734 -91 
Q 1441 -91 1130 -33 
Q 819 25 488 141 
L 488 750 
Q 750 597 1062 519 
Q 1375 441 1716 441 
Q 2309 441 2620 675 
Q 2931 909 2931 1356 
Q 2931 1769 2642 2001 
Q 2353 2234 1838 2234 
L 1294 2234 
L 1294 2753 
L 1863 2753 
Q 2328 2753 2575 2939 
Q 2822 3125 2822 3475 
Q 2822 3834 2567 4026 
Q 2313 4219 1838 4219 
Q 1578 4219 1281 4162 
Q 984 4106 628 3988 
L 628 4550 
Q 988 4650 1302 4700 
Q 1616 4750 1894 4750 
Q 2613 4750 3031 4423 
Q 3450 4097 3450 3541 
Q 3450 3153 3228 2886 
Q 3006 2619 2597 2516 
z
" transform="scale(0.015625)"/>
       </defs>
       <use xlink:href="#DejaVuSans-33"/>
       <use xlink:href="#DejaVuSans-30" x="63.623047"/>
       <use xlink:href="#DejaVuSans-30" x="127.246094"/>
      </g>
     </g>
    </g>
    <g id="text_8">
     <!-- Epoch -->
     <g transform="translate(366.299062 418.316562) scale(0.1 -0.1)">
      <defs>
       <path id="DejaVuSans-45" d="M 628 4666 
L 3578 4666 
L 3578 4134 
L 1259 4134 
L 1259 2753 
L 3481 2753 
L 3481 2222 
L 1259 2222 
L 1259 531 
L 3634 531 
L 3634 0 
L 628 0 
L 628 4666 
z
" transform="scale(0.015625)"/>
       <path id="DejaVuSans-70" d="M 1159 525 
L 1159 -1331 
L 581 -1331 
L 581 3500 
L 1159 3500 
L 1159 2969 
Q 1341 3281 1617 3432 
Q 1894 3584 2278 3584 
Q 2916 3584 3314 3078 
Q 3713 2572 3713 1747 
Q 3713 922 3314 415 
Q 2916 -91 2278 -91 
Q 1894 -91 1617 61 
Q 1341 213 1159 525 
z
M 3116 1747 
Q 3116 2381 2855 2742 
Q 2594 3103 2138 3103 
Q 1681 3103 1420 2742 
Q 1159 2381 1159 1747 
Q 1159 1113 1420 752 
Q 1681 391 2138 391 
Q 2594 391 2855 752 
Q 3116 1113 3116 1747 
z
" transform="scale(0.015625)"/>
       <path id="DejaVuSans-6f" d="M 1959 3097 
Q 1497 3097 1228 2736 
Q 959 2375 959 1747 
Q 959 1119 1226 758 
Q 1494 397 1959 397 
Q 2419 397 2687 759 
Q 2956 1122 2956 1747 
Q 2956 2369 2687 2733 
Q 2419 3097 1959 3097 
z
M 1959 3584 
Q 2709 3584 3137 3096 
Q 3566 2609 3566 1747 
Q 3566 888 3137 398 
Q 2709 -91 1959 -91 
Q 1206 -91 779 398 
Q 353 888 353 1747 
Q 353 2609 779 3096 
Q 1206 3584 1959 3584 
z
" transform="scale(0.015625)"/>
       <path id="DejaVuSans-63" d="M 3122 3366 
L 3122 2828 
Q 2878 2963 2633 3030 
Q 2388 3097 2138 3097 
Q 1578 3097 1268 2742 
Q 959 2388 959 1747 
Q 959 1106 1268 751 
Q 1578 397 2138 397 
Q 2388 397 2633 464 
Q 2878 531 3122 666 
L 3122 134 
Q 2881 22 2623 -34 
Q 2366 -91 2075 -91 
Q 1284 -91 818 406 
Q 353 903 353 1747 
Q 353 2603 823 3093 
Q 1294 3584 2113 3584 
Q 2378 3584 2631 3529 
Q 2884 3475 3122 3366 
z
" transform="scale(0.015625)"/>
       <path id="DejaVuSans-68" d="M 3513 2113 
L 3513 0 
L 2938 0 
L 2938 2094 
Q 2938 2591 2744 2837 
Q 2550 3084 2163 3084 
Q 1697 3084 1428 2787 
Q 1159 2491 1159 1978 
L 1159 0 
L 581 0 
L 581 4863 
L 1159 4863 
L 1159 2956 
Q 1366 3272 1645 3428 
Q 1925 3584 2291 3584 
Q 2894 3584 3203 3211 
Q 3513 2838 3513 2113 
z
" transform="scale(0.015625)"/>
      </defs>
      <use xlink:href="#DejaVuSans-45"/>
      <use xlink:href="#DejaVuSans-70" x="63.183594"/>
      <use xlink:href="#DejaVuSans-6f" x="126.660156"/>
      <use xlink:href="#DejaVuSans-63" x="187.841797"/>
      <use xlink:href="#DejaVuSans-68" x="242.822266"/>
     </g>
    </g>
   </g>
   <g id="matplotlib.axis_2">
    <g id="ytick_1">
     <g id="line2d_15">
      <path d="M 54.02 350.914925 
L 709.2 350.914925 
" clip-path="url(#p99b7387917)" style="fill: none; stroke: #b0b0b0; stroke-width: 0.8; stroke-linecap: square"/>
     </g>
     <g id="line2d_16">
      <defs>
       <path id="mfd315db4c0" d="M 0 0 
L -3.5 0 
" style="stroke: #000000; stroke-width: 0.8"/>
      </defs>
      <g>
       <use xlink:href="#mfd315db4c0" x="54.02" y="350.914925" style="stroke: #000000; stroke-width: 0.8"/>
      </g>
     </g>
     <g id="text_9">
      <!-- 0.10 -->
      <g transform="translate(24.754375 354.714144) scale(0.1 -0.1)">
       <defs>
        <path id="DejaVuSans-2e" d="M 684 794 
L 1344 794 
L 1344 0 
L 684 0 
L 684 794 
z
" transform="scale(0.015625)"/>
       </defs>
       <use xlink:href="#DejaVuSans-30"/>
       <use xlink:href="#DejaVuSans-2e" x="63.623047"/>
       <use xlink:href="#DejaVuSans-31" x="95.410156"/>
       <use xlink:href="#DejaVuSans-30" x="159.033203"/>
      </g>
     </g>
    </g>
    <g id="ytick_2">
     <g id="line2d_17">
      <path d="M 54.02 304.376237 
L 709.2 304.376237 
" clip-path="url(#p99b7387917)" style="fill: none; stroke: #b0b0b0; stroke-width: 0.8; stroke-linecap: square"/>
     </g>
     <g id="line2d_18">
      <g>
       <use xlink:href="#mfd315db4c0" x="54.02" y="304.376237" style="stroke: #000000; stroke-width: 0.8"/>
      </g>
     </g>
     <g id="text_10">
      <!-- 0.15 -->
      <g transform="translate(24.754375 308.175455) scale(0.1 -0.1)">
       <use xlink:href="#DejaVuSans-30"/>
       <use xlink:href="#DejaVuSans-2e" x="63.623047"/>
       <use xlink:href="#DejaVuSans-31" x="95.410156"/>
       <use xlink:href="#DejaVuSans-35" x="159.033203"/>
      </g>
     </g>
    </g>
    <g id="ytick_3">
     <g id="line2d_19">
      <path d="M 54.02 257.837548 
L 709.2 257.837548 
" clip-path="url(#p99b7387917)" style="fill: none; stroke: #b0b0b0; stroke-width: 0.8; stroke-linecap: square"/>
     </g>
     <g id="line2d_20">
      <g>
       <use xlink:href="#mfd315db4c0" x="54.02" y="257.837548" style="stroke: #000000; stroke-width: 0.8"/>
      </g>
     </g>
     <g id="text_11">
      <!-- 0.20 -->
      <g transform="translate(24.754375 261.636767) scale(0.1 -0.1)">
       <use xlink:href="#DejaVuSans-30"/>
       <use xlink:href="#DejaVuSans-2e" x="63.623047"/>
       <use xlink:href="#DejaVuSans-32" x="95.410156"/>
       <use xlink:href="#DejaVuSans-30" x="159.033203"/>
      </g>
     </g>
    </g>
    <g id="ytick_4">
     <g id="line2d_21">
      <path d="M 54.02 211.29886 
L 709.2 211.29886 
" clip-path="url(#p99b7387917)" style="fill: none; stroke: #b0b0b0; stroke-width: 0.8; stroke-linecap: square"/>
     </g>
     <g id="line2d_22">
      <g>
       <use xlink:href="#mfd315db4c0" x="54.02" y="211.29886" style="stroke: #000000; stroke-width: 0.8"/>
      </g>
     </g>
     <g id="text_12">
      <!-- 0.25 -->
      <g transform="translate(24.754375 215.098079) scale(0.1 -0.1)">
       <use xlink:href="#DejaVuSans-30"/>
       <use xlink:href="#DejaVuSans-2e" x="63.623047"/>
       <use xlink:href="#DejaVuSans-32" x="95.410156"/>
       <use xlink:href="#DejaVuSans-35" x="159.033203"/>
      </g>
     </g>
    </g>
    <g id="ytick_5">
     <g id="line2d_23">
      <path d="M 54.02 164.760172 
L 709.2 164.760172 
" clip-path="url(#p99b7387917)" style="fill: none; stroke: #b0b0b0; stroke-width: 0.8; stroke-linecap: square"/>
     </g>
     <g id="line2d_24">
      <g>
       <use xlink:href="#mfd315db4c0" x="54.02" y="164.760172" style="stroke: #000000; stroke-width: 0.8"/>
      </g>
     </g>
     <g id="text_13">
      <!-- 0.30 -->
      <g transform="translate(24.754375 168.55939) scale(0.1 -0.1)">
       <use xlink:href="#DejaVuSans-30"/>
       <use xlink:href="#DejaVuSans-2e" x="63.623047"/>
       <use xlink:href="#DejaVuSans-33" x="95.410156"/>
       <use xlink:href="#DejaVuSans-30" x="159.033203"/>
      </g>
     </g>
    </g>
    <g id="ytick_6">
     <g id="line2d_25">
      <path d="M 54.02 118.221483 
L 709.2 118.221483 
" clip-path="url(#p99b7387917)" style="fill: none; stroke: #b0b0b0; stroke-width: 0.8; stroke-linecap: square"/>
     </g>
     <g id="line2d_26">
      <g>
       <use xlink:href="#mfd315db4c0" x="54.02" y="118.221483" style="stroke: #000000; stroke-width: 0.8"/>
      </g>
     </g>
     <g id="text_14">
      <!-- 0.35 -->
      <g transform="translate(24.754375 122.020702) scale(0.1 -0.1)">
       <use xlink:href="#DejaVuSans-30"/>
       <use xlink:href="#DejaVuSans-2e" x="63.623047"/>
       <use xlink:href="#DejaVuSans-33" x="95.410156"/>
       <use xlink:href="#DejaVuSans-35" x="159.033203"/>
      </g>
     </g>
    </g>
    <g id="ytick_7">
     <g id="line2d_27">
      <path d="M 54.02 71.682795 
L 709.2 71.682795 
" clip-path="url(#p99b7387917)" style="fill: none; stroke: #b0b0b0; stroke-width: 0.8; stroke-linecap: square"/>
     </g>
     <g id="line2d_28">
      <g>
       <use xlink:href="#mfd315db4c0" x="54.02" y="71.682795" style="stroke: #000000; stroke-width: 0.8"/>
      </g>
     </g>
     <g id="text_15">
      <!-- 0.40 -->
      <g transform="translate(24.754375 75.482014) scale(0.1 -0.1)">
       <defs>
        <path id="DejaVuSans-34" d="M 2419 4116 
L 825 1625 
L 2419 1625 
L 2419 4116 
z
M 2253 4666 
L 3047 4666 
L 3047 1625 
L 3713 1625 
L 3713 1100 
L 3047 1100 
L 3047 0 
L 2419 0 
L 2419 1100 
L 313 1100 
L 313 1709 
L 2253 4666 
z
" transform="scale(0.015625)"/>
       </defs>
       <use xlink:href="#DejaVuSans-30"/>
       <use xlink:href="#DejaVuSans-2e" x="63.623047"/>
       <use xlink:href="#DejaVuSans-34" x="95.410156"/>
       <use xlink:href="#DejaVuSans-30" x="159.033203"/>
      </g>
     </g>
    </g>
    <g id="text_16">
     <!-- Bitwise-error -->
     <g transform="translate(18.674688 240.305312) rotate(-90) scale(0.1 -0.1)">
      <defs>
       <path id="DejaVuSans-42" d="M 1259 2228 
L 1259 519 
L 2272 519 
Q 2781 519 3026 730 
Q 3272 941 3272 1375 
Q 3272 1813 3026 2020 
Q 2781 2228 2272 2228 
L 1259 2228 
z
M 1259 4147 
L 1259 2741 
L 2194 2741 
Q 2656 2741 2882 2914 
Q 3109 3088 3109 3444 
Q 3109 3797 2882 3972 
Q 2656 4147 2194 4147 
L 1259 4147 
z
M 628 4666 
L 2241 4666 
Q 2963 4666 3353 4366 
Q 3744 4066 3744 3513 
Q 3744 3084 3544 2831 
Q 3344 2578 2956 2516 
Q 3422 2416 3680 2098 
Q 3938 1781 3938 1306 
Q 3938 681 3513 340 
Q 3088 0 2303 0 
L 628 0 
L 628 4666 
z
" transform="scale(0.015625)"/>
       <path id="DejaVuSans-69" d="M 603 3500 
L 1178 3500 
L 1178 0 
L 603 0 
L 603 3500 
z
M 603 4863 
L 1178 4863 
L 1178 4134 
L 603 4134 
L 603 4863 
z
" transform="scale(0.015625)"/>
       <path id="DejaVuSans-74" d="M 1172 4494 
L 1172 3500 
L 2356 3500 
L 2356 3053 
L 1172 3053 
L 1172 1153 
Q 1172 725 1289 603 
Q 1406 481 1766 481 
L 2356 481 
L 2356 0 
L 1766 0 
Q 1100 0 847 248 
Q 594 497 594 1153 
L 594 3053 
L 172 3053 
L 172 3500 
L 594 3500 
L 594 4494 
L 1172 4494 
z
" transform="scale(0.015625)"/>
       <path id="DejaVuSans-77" d="M 269 3500 
L 844 3500 
L 1563 769 
L 2278 3500 
L 2956 3500 
L 3675 769 
L 4391 3500 
L 4966 3500 
L 4050 0 
L 3372 0 
L 2619 2869 
L 1863 0 
L 1184 0 
L 269 3500 
z
" transform="scale(0.015625)"/>
       <path id="DejaVuSans-73" d="M 2834 3397 
L 2834 2853 
Q 2591 2978 2328 3040 
Q 2066 3103 1784 3103 
Q 1356 3103 1142 2972 
Q 928 2841 928 2578 
Q 928 2378 1081 2264 
Q 1234 2150 1697 2047 
L 1894 2003 
Q 2506 1872 2764 1633 
Q 3022 1394 3022 966 
Q 3022 478 2636 193 
Q 2250 -91 1575 -91 
Q 1294 -91 989 -36 
Q 684 19 347 128 
L 347 722 
Q 666 556 975 473 
Q 1284 391 1588 391 
Q 1994 391 2212 530 
Q 2431 669 2431 922 
Q 2431 1156 2273 1281 
Q 2116 1406 1581 1522 
L 1381 1569 
Q 847 1681 609 1914 
Q 372 2147 372 2553 
Q 372 3047 722 3315 
Q 1072 3584 1716 3584 
Q 2034 3584 2315 3537 
Q 2597 3491 2834 3397 
z
" transform="scale(0.015625)"/>
       <path id="DejaVuSans-65" d="M 3597 1894 
L 3597 1613 
L 953 1613 
Q 991 1019 1311 708 
Q 1631 397 2203 397 
Q 2534 397 2845 478 
Q 3156 559 3463 722 
L 3463 178 
Q 3153 47 2828 -22 
Q 2503 -91 2169 -91 
Q 1331 -91 842 396 
Q 353 884 353 1716 
Q 353 2575 817 3079 
Q 1281 3584 2069 3584 
Q 2775 3584 3186 3129 
Q 3597 2675 3597 1894 
z
M 3022 2063 
Q 3016 2534 2758 2815 
Q 2500 3097 2075 3097 
Q 1594 3097 1305 2825 
Q 1016 2553 972 2059 
L 3022 2063 
z
" transform="scale(0.015625)"/>
       <path id="DejaVuSans-2d" d="M 313 2009 
L 1997 2009 
L 1997 1497 
L 313 1497 
L 313 2009 
z
" transform="scale(0.015625)"/>
       <path id="DejaVuSans-72" d="M 2631 2963 
Q 2534 3019 2420 3045 
Q 2306 3072 2169 3072 
Q 1681 3072 1420 2755 
Q 1159 2438 1159 1844 
L 1159 0 
L 581 0 
L 581 3500 
L 1159 3500 
L 1159 2956 
Q 1341 3275 1631 3429 
Q 1922 3584 2338 3584 
Q 2397 3584 2469 3576 
Q 2541 3569 2628 3553 
L 2631 2963 
z
" transform="scale(0.015625)"/>
      </defs>
      <use xlink:href="#DejaVuSans-42"/>
      <use xlink:href="#DejaVuSans-69" x="68.603516"/>
      <use xlink:href="#DejaVuSans-74" x="96.386719"/>
      <use xlink:href="#DejaVuSans-77" x="135.595703"/>
      <use xlink:href="#DejaVuSans-69" x="217.382812"/>
      <use xlink:href="#DejaVuSans-73" x="245.166016"/>
      <use xlink:href="#DejaVuSans-65" x="297.265625"/>
      <use xlink:href="#DejaVuSans-2d" x="358.789062"/>
      <use xlink:href="#DejaVuSans-65" x="394.873047"/>
      <use xlink:href="#DejaVuSans-72" x="456.396484"/>
      <use xlink:href="#DejaVuSans-72" x="495.759766"/>
      <use xlink:href="#DejaVuSans-6f" x="534.623047"/>
      <use xlink:href="#DejaVuSans-72" x="595.804688"/>
     </g>
    </g>
   </g>
   <g id="line2d_29">
    <path d="M 83.800909 43.387273 
L 85.792943 68.983551 
L 87.784977 75.7782 
L 89.777011 79.128985 
L 91.769045 86.389021 
L 93.761079 90.856735 
L 95.753113 94.20752 
L 97.745147 96.813687 
L 99.737182 98.675234 
L 101.729216 102.02602 
L 103.72125 103.701413 
L 105.713284 107.052198 
L 107.705318 111.054525 
L 109.697352 118.128406 
L 111.689386 119.152257 
L 113.68142 124.178436 
L 115.673454 131.81078 
L 117.665488 138.419274 
L 123.64159 156.476285 
L 125.633624 161.595541 
L 127.625658 168.669422 
L 129.617692 182.165641 
L 131.609726 192.776462 
L 133.60176 200.129575 
L 135.593794 204.131902 
L 137.585829 206.738069 
L 139.577863 212.695021 
L 141.569897 220.327366 
L 143.561931 154.800892 
L 145.553965 154.89397 
L 147.545999 157.779368 
L 149.538033 159.827071 
L 151.530067 164.667094 
L 153.522101 165.597868 
L 155.514135 171.55482 
L 157.506169 176.860231 
L 159.498203 183.28257 
L 161.490237 187.471052 
L 167.466339 202.0842 
L 169.458373 202.642664 
L 171.450407 207.948074 
L 173.442441 209.902699 
L 175.434476 213.625794 
L 177.42651 216.790425 
L 179.418544 219.024282 
L 181.410578 219.955056 
L 183.402612 228.704329 
L 185.394646 238.384377 
L 187.38668 250.949822 
L 189.378714 261.095256 
L 191.370748 266.866054 
L 193.362782 268.448369 
L 195.354816 272.357619 
L 197.34685 279.710732 
L 199.338884 280.548428 
L 201.330918 283.247672 
L 203.322952 285.10922 
L 205.314986 288.180773 
L 207.30702 291.531559 
L 209.299054 295.347731 
L 211.291088 295.906195 
L 213.283123 295.906195 
L 215.275157 297.209279 
L 217.267191 297.674665 
L 219.259225 298.326207 
L 221.251259 299.163903 
L 223.243293 300.746219 
L 225.235327 303.53854 
L 227.227361 308.937028 
L 229.219395 309.402415 
L 231.211429 310.98473 
L 233.203463 313.963206 
L 235.195497 317.779379 
L 237.187531 320.013236 
L 239.179565 320.757855 
L 243.163633 321.874783 
L 245.155667 322.898634 
L 247.147701 323.550176 
L 249.139735 323.364021 
L 251.13177 324.10864 
L 253.123804 325.597878 
L 257.107872 334.533307 
L 259.099906 336.022545 
L 263.083974 339.37333 
L 265.076008 342.724116 
L 267.068042 343.654889 
L 271.05211 347.843371 
L 275.036178 354.63802 
L 277.028212 354.172633 
L 279.020246 356.127258 
L 281.01228 356.685722 
L 283.004314 345.330282 
L 284.996348 343.934122 
L 286.988382 344.957973 
L 288.980417 345.609514 
L 292.964485 347.750294 
L 294.956519 349.053377 
L 296.948553 350.821847 
L 298.940587 351.566466 
L 300.932621 353.148782 
L 302.924655 354.172633 
L 304.916689 356.40649 
L 306.908723 357.058032 
L 308.900757 356.592645 
L 310.892791 355.568794 
L 312.884825 356.313413 
L 314.876859 356.592645 
L 316.868893 353.707246 
L 318.860927 354.544942 
L 320.852961 354.731097 
L 322.844995 337.418705 
L 324.837029 341.048723 
L 326.829064 342.444884 
L 328.821098 343.375657 
L 332.805166 344.213354 
L 336.789234 346.354133 
L 338.781268 345.144127 
L 340.773302 345.144127 
L 342.765336 345.795669 
L 344.75737 346.167979 
L 346.749404 350.821847 
L 348.741438 350.542615 
L 350.733472 353.334937 
L 352.725506 353.521091 
L 354.71754 351.752621 
L 356.709574 352.031853 
L 358.701608 351.659544 
L 360.693642 352.031853 
L 362.685676 351.473389 
L 364.677711 352.311085 
L 366.669745 350.356461 
L 368.661779 350.72877 
L 370.653813 348.9603 
L 372.645847 347.750294 
L 374.637881 348.029526 
L 376.629915 347.471062 
L 378.621949 348.867222 
L 380.613983 348.215681 
L 382.606017 348.774145 
L 384.598051 351.008002 
L 386.590085 350.356461 
L 380.613983 348.681068 
L 382.606017 347.005675 
L 384.598051 347.471062 
L 386.590085 348.867222 
L 388.582119 348.029526 
L 390.574153 349.146455 
L 392.566187 348.58799 
L 394.558221 349.518764 
L 396.550255 351.10108 
L 398.542289 349.518764 
L 400.534324 350.914925 
L 402.526358 350.170306 
L 404.518392 348.681068 
L 406.510426 349.704919 
L 408.50246 349.611842 
L 410.494494 351.473389 
L 412.486528 351.659544 
L 414.478562 352.031853 
L 416.470596 350.170306 
L 418.46263 351.380312 
L 420.454664 350.72877 
L 422.446698 352.124931 
L 424.438732 351.380312 
L 426.430766 351.938776 
L 428.4228 351.752621 
L 430.414834 350.821847 
L 432.406868 350.72877 
L 434.398902 352.124931 
L 436.390936 352.683395 
L 438.382971 352.683395 
L 440.375005 353.521091 
L 442.367039 352.86955 
L 444.359073 353.334937 
L 446.351107 352.776472 
L 448.343141 352.404163 
L 452.327209 353.800323 
L 454.319243 353.148782 
L 456.311277 353.055704 
L 458.303311 354.26571 
L 462.287379 353.614169 
L 466.271447 353.800323 
L 468.263481 354.451865 
L 470.255515 353.893401 
L 472.247549 354.358788 
L 474.239583 354.63802 
L 476.231618 353.986478 
L 478.223652 355.475716 
L 480.215686 353.800323 
L 482.20772 354.451865 
L 484.199754 354.731097 
L 486.191788 355.289561 
L 488.183822 353.428014 
L 490.175856 354.824175 
L 492.16789 355.754948 
L 494.159924 356.03418 
L 496.151958 356.127258 
L 498.143992 355.103407 
L 500.136026 355.661871 
L 502.12806 355.754948 
L 504.120094 355.661871 
L 506.112128 354.917252 
L 508.104162 356.03418 
L 510.096196 356.40649 
L 512.08823 354.917252 
L 514.080265 356.03418 
L 516.072299 355.475716 
L 518.064333 355.941103 
L 520.056367 355.475716 
L 522.048401 355.568794 
L 524.040435 356.499567 
L 526.032469 354.731097 
L 528.024503 356.40649 
L 530.016537 356.03418 
L 532.008571 357.151109 
L 534.000605 356.685722 
L 535.992639 357.244186 
L 537.984673 358.826502 
L 539.976707 359.571121 
L 541.968741 359.664198 
L 545.952809 362.735752 
L 547.944843 363.294216 
L 549.936877 364.969609 
L 551.928912 365.062686 
L 553.920946 364.318067 
L 557.905014 364.318067 
L 561.889082 366.086537 
L 563.881116 365.99346 
L 565.87315 365.434996 
L 567.865184 365.714228 
L 569.857218 366.831156 
L 571.849252 366.365769 
L 573.841286 366.458847 
L 575.83332 366.179615 
L 577.825354 366.179615 
L 579.817388 365.155763 
L 581.809422 365.248841 
L 583.801456 365.900382 
L 585.79349 365.900382 
L 587.785524 366.924234 
L 589.777559 366.738079 
L 591.769593 367.203466 
L 593.761627 366.924234 
L 595.753661 367.482698 
L 597.745695 366.924234 
L 599.737729 366.645001 
L 601.729763 367.668853 
L 603.721797 366.831156 
L 605.713831 366.272692 
L 607.705865 367.668853 
L 611.689933 366.831156 
L 613.681967 366.738079 
L 617.666035 367.203466 
L 619.658069 367.110388 
L 621.650103 366.458847 
L 625.634171 368.041162 
L 627.626206 367.38962 
L 629.61824 367.948085 
L 631.610274 367.296543 
L 633.602308 367.482698 
L 635.594342 368.134239 
L 637.586376 367.482698 
L 639.57841 368.785781 
L 641.570444 367.668853 
L 643.562478 367.296543 
L 647.546546 368.134239 
L 651.530614 367.203466 
L 653.522648 366.551924 
L 655.514682 367.668853 
L 657.506716 367.017311 
L 659.49875 367.948085 
L 663.482818 367.668853 
L 667.466887 368.227317 
L 669.458921 368.971936 
L 671.450955 367.203466 
L 673.442989 368.599626 
L 675.435023 367.017311 
L 677.427057 368.227317 
L 679.419091 368.041162 
L 679.419091 368.041162 
" clip-path="url(#p99b7387917)" style="fill: none; stroke: #0000ff; stroke-width: 1.5; stroke-linecap: square"/>
   </g>
   <g id="line2d_30">
    <path d="M 83.800909 68.518164 
L 87.784977 88.622878 
L 89.777011 90.112116 
L 91.769045 89.274419 
L 93.761079 95.789836 
L 95.753113 101.188324 
L 97.745147 102.212175 
L 99.737182 102.212175 
L 101.729216 104.539109 
L 103.72125 114.591466 
L 105.713284 112.078377 
L 107.705318 120.083031 
L 109.697352 126.691525 
L 111.689386 125.481519 
L 113.68142 138.419274 
L 117.665488 148.657786 
L 119.657522 153.311654 
L 121.649556 158.43091 
L 123.64159 157.127827 
L 125.633624 163.364011 
L 127.625658 164.294785 
L 129.617692 174.160987 
L 131.609726 174.719451 
L 133.60176 185.05104 
L 135.593794 185.888736 
L 137.585829 189.146444 
L 139.577863 193.614158 
L 141.569897 192.12492 
L 143.561931 146.051619 
L 145.553965 139.070816 
L 147.545999 137.395423 
L 149.538033 154.52166 
L 151.530067 151.263952 
L 153.522101 157.686291 
L 155.514135 167.180184 
L 157.506169 160.664767 
L 159.498203 179.466397 
L 161.490237 175.46407 
L 163.482271 189.797986 
L 165.474305 194.731087 
L 167.466339 194.079545 
L 169.458373 202.177277 
L 171.450407 190.170296 
L 173.442441 206.365759 
L 175.434476 205.99345 
L 177.42651 211.391937 
L 179.418544 210.368086 
L 181.410578 208.878848 
L 183.402612 221.444294 
L 185.394646 235.126668 
L 187.38668 247.971346 
L 189.378714 251.694441 
L 191.370748 254.393685 
L 193.362782 252.625215 
L 195.354816 262.39834 
L 197.34685 274.498399 
L 199.338884 275.894559 
L 201.330918 275.708405 
L 203.322952 270.589149 
L 205.314986 280.362273 
L 207.30702 282.316898 
L 209.299054 283.154595 
L 211.291088 281.293047 
L 213.283123 290.41463 
L 215.275157 288.739237 
L 217.267191 292.369255 
L 219.259225 285.574606 
L 221.251259 292.369255 
L 223.243293 296.557737 
L 225.235327 298.512362 
L 227.227361 302.328534 
L 229.219395 307.07548 
L 231.211429 304.934701 
L 233.203463 307.913177 
L 235.195497 312.194736 
L 237.187531 307.820099 
L 239.179565 314.521671 
L 241.171599 315.26629 
L 243.163633 317.965533 
L 245.155667 319.920158 
L 247.147701 318.244766 
L 249.139735 317.500147 
L 251.13177 321.595551 
L 253.123804 322.71248 
L 255.115838 323.457099 
L 257.107872 329.693283 
L 259.099906 328.855587 
L 261.09194 340.490259 
L 263.083974 339.094098 
L 265.076008 334.347152 
L 267.068042 334.812539 
L 269.060076 345.516437 
L 271.05211 343.375657 
L 273.044144 344.399508 
L 275.036178 248.250578 
L 277.028212 344.864895 
L 279.020246 344.585663 
L 281.01228 350.72877 
L 283.004314 332.764836 
L 284.996348 340.397181 
L 286.988382 330.624057 
L 288.980417 342.072574 
L 290.972451 340.583336 
L 292.964485 340.117949 
L 294.956519 346.074901 
L 296.948553 338.070247 
L 298.940587 345.42336 
L 300.932621 347.843371 
L 302.924655 345.609514 
L 304.916689 347.657217 
L 306.908723 347.657217 
L 308.900757 347.098752 
L 310.892791 350.356461 
L 312.884825 347.005675 
L 314.876859 351.752621 
L 316.868893 347.471062 
L 318.860927 351.752621 
L 320.852961 349.425687 
L 322.844995 337.418705 
L 324.837029 341.51411 
L 326.829064 337.046396 
L 328.821098 340.769491 
L 330.813132 335.091771 
L 332.805166 333.69561 
L 334.7972 341.327955 
L 336.789234 339.001021 
L 340.773302 337.791015 
L 342.765336 341.700265 
L 344.75737 347.005675 
L 346.749404 351.752621 
L 348.741438 351.566466 
L 350.733472 350.821847 
L 352.725506 348.774145 
L 354.71754 349.891074 
L 356.709574 353.334937 
L 360.693642 352.86955 
L 362.685676 350.72877 
L 364.677711 346.261056 
L 366.669745 353.428014 
L 368.661779 348.308758 
L 372.645847 345.795669 
L 374.637881 344.957973 
L 376.629915 343.934122 
L 378.621949 339.838717 
L 380.613983 342.537961 
L 382.606017 348.122603 
L 384.598051 343.375657 
L 380.613983 344.399508 
L 382.606017 350.077228 
L 384.598051 344.957973 
L 386.590085 349.146455 
L 388.582119 346.074901 
L 390.574153 352.683395 
L 392.566187 348.9603 
L 394.558221 353.334937 
L 396.550255 351.938776 
L 400.534324 346.354133 
L 402.526358 352.124931 
L 404.518392 350.72877 
L 406.510426 344.399508 
L 408.50246 350.356461 
L 410.494494 350.263383 
L 412.486528 354.172633 
L 414.478562 352.49724 
L 416.470596 351.659544 
L 418.46263 351.566466 
L 420.454664 351.008002 
L 422.446698 348.9603 
L 424.438732 354.26571 
L 426.430766 349.053377 
L 428.4228 350.263383 
L 430.414834 352.404163 
L 432.406868 347.19183 
L 434.398902 350.914925 
L 436.390936 350.263383 
L 438.382971 352.311085 
L 440.375005 353.893401 
L 442.367039 351.752621 
L 444.359073 354.731097 
L 446.351107 356.03418 
L 448.343141 352.218008 
L 450.335175 356.313413 
L 452.327209 357.709573 
L 454.319243 354.544942 
L 456.311277 353.241859 
L 458.303311 359.94343 
L 460.295345 356.871877 
L 462.287379 357.244186 
L 464.279413 360.688049 
L 466.271447 357.523419 
L 468.263481 356.964954 
L 470.255515 359.850353 
L 472.247549 352.683395 
L 474.239583 361.7119 
L 476.231618 359.384966 
L 478.223652 359.105734 
L 480.215686 360.874204 
L 482.20772 356.964954 
L 484.199754 359.850353 
L 486.191788 357.151109 
L 488.183822 358.826502 
L 490.175856 357.430341 
L 492.16789 357.244186 
L 494.159924 359.384966 
L 496.151958 361.246514 
L 498.143992 357.895728 
L 500.136026 356.499567 
L 502.12806 359.384966 
L 504.120094 355.941103 
L 506.112128 357.523419 
L 508.104162 357.802651 
L 510.096196 358.454192 
L 512.08823 361.804978 
L 514.080265 360.594972 
L 516.072299 357.430341 
L 518.064333 357.523419 
L 520.056367 359.664198 
L 522.048401 358.826502 
L 524.040435 357.151109 
L 526.032469 359.291889 
L 528.024503 357.616496 
L 530.016537 359.291889 
L 532.008571 361.246514 
L 534.000605 361.618823 
L 535.992639 362.270365 
L 537.984673 361.7119 
L 539.976707 365.155763 
L 541.968741 363.108061 
L 543.960775 363.85268 
L 545.952809 365.714228 
L 547.944843 366.458847 
L 549.936877 365.714228 
L 551.928912 365.714228 
L 553.920946 367.203466 
L 555.91298 369.065013 
L 557.905014 369.158091 
L 559.897048 365.807305 
L 561.889082 367.855007 
L 563.881116 365.99346 
L 565.87315 368.599626 
L 567.865184 366.365769 
L 569.857218 370.833483 
L 571.849252 367.948085 
L 573.841286 369.437323 
L 575.83332 368.878858 
L 577.825354 367.948085 
L 579.817388 370.740406 
L 581.809422 369.995787 
L 583.801456 363.387293 
L 585.79349 369.90271 
L 587.785524 367.76193 
L 589.777559 367.482698 
L 591.769593 365.248841 
L 593.761627 368.971936 
L 595.753661 365.99346 
L 597.745695 365.434996 
L 599.737729 372.322721 
L 601.729763 368.320394 
L 603.721797 369.716555 
L 605.713831 370.275019 
L 607.705865 370.275019 
L 609.697899 367.76193 
L 611.689933 371.019638 
L 613.681967 369.90271 
L 615.674001 368.413472 
L 619.658069 369.90271 
L 621.650103 367.110388 
L 623.642137 371.950412 
L 625.634171 369.5304 
L 627.626206 366.365769 
L 629.61824 370.926561 
L 631.610274 367.203466 
L 633.602308 368.506549 
L 635.594342 370.181942 
L 637.586376 365.99346 
L 639.57841 366.831156 
L 641.570444 368.320394 
L 643.562478 368.785781 
L 645.554512 373.532727 
L 647.546546 368.041162 
L 649.53858 367.110388 
L 651.530614 369.716555 
L 653.522648 368.599626 
L 655.514682 370.740406 
L 657.506716 369.251168 
L 659.49875 368.227317 
L 661.490784 370.740406 
L 663.482818 370.647329 
L 665.474853 366.458847 
L 667.466887 367.017311 
L 669.458921 364.969609 
L 671.450955 368.227317 
L 673.442989 370.926561 
L 675.435023 369.5304 
L 677.427057 366.365769 
L 679.419091 368.041162 
L 679.419091 368.041162 
" clip-path="url(#p99b7387917)" style="fill: none; stroke: #ffa500; stroke-width: 1.5; stroke-linecap: square"/>
   </g>
   <g id="patch_3">
    <path d="M 54.02 390.04 
L 54.02 26.88 
" style="fill: none; stroke: #000000; stroke-width: 0.8; stroke-linejoin: miter; stroke-linecap: square"/>
   </g>
   <g id="patch_4">
    <path d="M 709.2 390.04 
L 709.2 26.88 
" style="fill: none; stroke: #000000; stroke-width: 0.8; stroke-linejoin: miter; stroke-linecap: square"/>
   </g>
   <g id="patch_5">
    <path d="M 54.02 390.04 
L 709.2 390.04 
" style="fill: none; stroke: #000000; stroke-width: 0.8; stroke-linejoin: miter; stroke-linecap: square"/>
   </g>
   <g id="patch_6">
    <path d="M 54.02 26.88 
L 709.2 26.88 
" style="fill: none; stroke: #000000; stroke-width: 0.8; stroke-linejoin: miter; stroke-linecap: square"/>
   </g>
   <g id="text_17">
    <!-- Bitwise-error for Dropout_30_v2 -->
    <g transform="translate(286.070312 20.88) scale(0.12 -0.12)">
     <defs>
      <path id="DejaVuSans-20" transform="scale(0.015625)"/>
      <path id="DejaVuSans-66" d="M 2375 4863 
L 2375 4384 
L 1825 4384 
Q 1516 4384 1395 4259 
Q 1275 4134 1275 3809 
L 1275 3500 
L 2222 3500 
L 2222 3053 
L 1275 3053 
L 1275 0 
L 697 0 
L 697 3053 
L 147 3053 
L 147 3500 
L 697 3500 
L 697 3744 
Q 697 4328 969 4595 
Q 1241 4863 1831 4863 
L 2375 4863 
z
" transform="scale(0.015625)"/>
      <path id="DejaVuSans-44" d="M 1259 4147 
L 1259 519 
L 2022 519 
Q 2988 519 3436 956 
Q 3884 1394 3884 2338 
Q 3884 3275 3436 3711 
Q 2988 4147 2022 4147 
L 1259 4147 
z
M 628 4666 
L 1925 4666 
Q 3281 4666 3915 4102 
Q 4550 3538 4550 2338 
Q 4550 1131 3912 565 
Q 3275 0 1925 0 
L 628 0 
L 628 4666 
z
" transform="scale(0.015625)"/>
      <path id="DejaVuSans-75" d="M 544 1381 
L 544 3500 
L 1119 3500 
L 1119 1403 
Q 1119 906 1312 657 
Q 1506 409 1894 409 
Q 2359 409 2629 706 
Q 2900 1003 2900 1516 
L 2900 3500 
L 3475 3500 
L 3475 0 
L 2900 0 
L 2900 538 
Q 2691 219 2414 64 
Q 2138 -91 1772 -91 
Q 1169 -91 856 284 
Q 544 659 544 1381 
z
M 1991 3584 
L 1991 3584 
z
" transform="scale(0.015625)"/>
      <path id="DejaVuSans-5f" d="M 3263 -1063 
L 3263 -1509 
L -63 -1509 
L -63 -1063 
L 3263 -1063 
z
" transform="scale(0.015625)"/>
      <path id="DejaVuSans-76" d="M 191 3500 
L 800 3500 
L 1894 563 
L 2988 3500 
L 3597 3500 
L 2284 0 
L 1503 0 
L 191 3500 
z
" transform="scale(0.015625)"/>
     </defs>
     <use xlink:href="#DejaVuSans-42"/>
     <use xlink:href="#DejaVuSans-69" x="68.603516"/>
     <use xlink:href="#DejaVuSans-74" x="96.386719"/>
     <use xlink:href="#DejaVuSans-77" x="135.595703"/>
     <use xlink:href="#DejaVuSans-69" x="217.382812"/>
     <use xlink:href="#DejaVuSans-73" x="245.166016"/>
     <use xlink:href="#DejaVuSans-65" x="297.265625"/>
     <use xlink:href="#DejaVuSans-2d" x="358.789062"/>
     <use xlink:href="#DejaVuSans-65" x="394.873047"/>
     <use xlink:href="#DejaVuSans-72" x="456.396484"/>
     <use xlink:href="#DejaVuSans-72" x="495.759766"/>
     <use xlink:href="#DejaVuSans-6f" x="534.623047"/>
     <use xlink:href="#DejaVuSans-72" x="595.804688"/>
     <use xlink:href="#DejaVuSans-20" x="636.917969"/>
     <use xlink:href="#DejaVuSans-66" x="668.705078"/>
     <use xlink:href="#DejaVuSans-6f" x="703.910156"/>
     <use xlink:href="#DejaVuSans-72" x="765.091797"/>
     <use xlink:href="#DejaVuSans-20" x="806.205078"/>
     <use xlink:href="#DejaVuSans-44" x="837.992188"/>
     <use xlink:href="#DejaVuSans-72" x="914.994141"/>
     <use xlink:href="#DejaVuSans-6f" x="953.857422"/>
     <use xlink:href="#DejaVuSans-70" x="1015.039062"/>
     <use xlink:href="#DejaVuSans-6f" x="1078.515625"/>
     <use xlink:href="#DejaVuSans-75" x="1139.697266"/>
     <use xlink:href="#DejaVuSans-74" x="1203.076172"/>
     <use xlink:href="#DejaVuSans-5f" x="1242.285156"/>
     <use xlink:href="#DejaVuSans-33" x="1292.285156"/>
     <use xlink:href="#DejaVuSans-30" x="1355.908203"/>
     <use xlink:href="#DejaVuSans-5f" x="1419.53125"/>
     <use xlink:href="#DejaVuSans-76" x="1469.53125"/>
     <use xlink:href="#DejaVuSans-32" x="1528.710938"/>
    </g>
   </g>
   <g id="legend_1">
    <g id="patch_7">
     <path d="M 620.81875 64.23625 
L 702.2 64.23625 
Q 704.2 64.23625 704.2 62.23625 
L 704.2 33.88 
Q 704.2 31.88 702.2 31.88 
L 620.81875 31.88 
Q 618.81875 31.88 618.81875 33.88 
L 618.81875 62.23625 
Q 618.81875 64.23625 620.81875 64.23625 
z
" style="fill: #ffffff; opacity: 0.8; stroke: #cccccc; stroke-linejoin: miter"/>
    </g>
    <g id="line2d_31">
     <path d="M 622.81875 39.978437 
L 632.81875 39.978437 
L 642.81875 39.978437 
" style="fill: none; stroke: #0000ff; stroke-width: 1.5; stroke-linecap: square"/>
    </g>
    <g id="text_18">
     <!-- Train -->
     <g transform="translate(650.81875 43.478437) scale(0.1 -0.1)">
      <defs>
       <path id="DejaVuSans-54" d="M -19 4666 
L 3928 4666 
L 3928 4134 
L 2272 4134 
L 2272 0 
L 1638 0 
L 1638 4134 
L -19 4134 
L -19 4666 
z
" transform="scale(0.015625)"/>
       <path id="DejaVuSans-61" d="M 2194 1759 
Q 1497 1759 1228 1600 
Q 959 1441 959 1056 
Q 959 750 1161 570 
Q 1363 391 1709 391 
Q 2188 391 2477 730 
Q 2766 1069 2766 1631 
L 2766 1759 
L 2194 1759 
z
M 3341 1997 
L 3341 0 
L 2766 0 
L 2766 531 
Q 2569 213 2275 61 
Q 1981 -91 1556 -91 
Q 1019 -91 701 211 
Q 384 513 384 1019 
Q 384 1609 779 1909 
Q 1175 2209 1959 2209 
L 2766 2209 
L 2766 2266 
Q 2766 2663 2505 2880 
Q 2244 3097 1772 3097 
Q 1472 3097 1187 3025 
Q 903 2953 641 2809 
L 641 3341 
Q 956 3463 1253 3523 
Q 1550 3584 1831 3584 
Q 2591 3584 2966 3190 
Q 3341 2797 3341 1997 
z
" transform="scale(0.015625)"/>
       <path id="DejaVuSans-6e" d="M 3513 2113 
L 3513 0 
L 2938 0 
L 2938 2094 
Q 2938 2591 2744 2837 
Q 2550 3084 2163 3084 
Q 1697 3084 1428 2787 
Q 1159 2491 1159 1978 
L 1159 0 
L 581 0 
L 581 3500 
L 1159 3500 
L 1159 2956 
Q 1366 3272 1645 3428 
Q 1925 3584 2291 3584 
Q 2894 3584 3203 3211 
Q 3513 2838 3513 2113 
z
" transform="scale(0.015625)"/>
      </defs>
      <use xlink:href="#DejaVuSans-54"/>
      <use xlink:href="#DejaVuSans-72" x="46.333984"/>
      <use xlink:href="#DejaVuSans-61" x="87.447266"/>
      <use xlink:href="#DejaVuSans-69" x="148.726562"/>
      <use xlink:href="#DejaVuSans-6e" x="176.509766"/>
     </g>
    </g>
    <g id="line2d_32">
     <path d="M 622.81875 54.656563 
L 632.81875 54.656563 
L 642.81875 54.656563 
" style="fill: none; stroke: #ffa500; stroke-width: 1.5; stroke-linecap: square"/>
    </g>
    <g id="text_19">
     <!-- Validation -->
     <g transform="translate(650.81875 58.156563) scale(0.1 -0.1)">
      <defs>
       <path id="DejaVuSans-56" d="M 1831 0 
L 50 4666 
L 709 4666 
L 2188 738 
L 3669 4666 
L 4325 4666 
L 2547 0 
L 1831 0 
z
" transform="scale(0.015625)"/>
       <path id="DejaVuSans-6c" d="M 603 4863 
L 1178 4863 
L 1178 0 
L 603 0 
L 603 4863 
z
" transform="scale(0.015625)"/>
       <path id="DejaVuSans-64" d="M 2906 2969 
L 2906 4863 
L 3481 4863 
L 3481 0 
L 2906 0 
L 2906 525 
Q 2725 213 2448 61 
Q 2172 -91 1784 -91 
Q 1150 -91 751 415 
Q 353 922 353 1747 
Q 353 2572 751 3078 
Q 1150 3584 1784 3584 
Q 2172 3584 2448 3432 
Q 2725 3281 2906 2969 
z
M 947 1747 
Q 947 1113 1208 752 
Q 1469 391 1925 391 
Q 2381 391 2643 752 
Q 2906 1113 2906 1747 
Q 2906 2381 2643 2742 
Q 2381 3103 1925 3103 
Q 1469 3103 1208 2742 
Q 947 2381 947 1747 
z
" transform="scale(0.015625)"/>
      </defs>
      <use xlink:href="#DejaVuSans-56"/>
      <use xlink:href="#DejaVuSans-61" x="60.658203"/>
      <use xlink:href="#DejaVuSans-6c" x="121.9375"/>
      <use xlink:href="#DejaVuSans-69" x="149.720703"/>
      <use xlink:href="#DejaVuSans-64" x="177.503906"/>
      <use xlink:href="#DejaVuSans-61" x="240.980469"/>
      <use xlink:href="#DejaVuSans-74" x="302.259766"/>
      <use xlink:href="#DejaVuSans-69" x="341.46875"/>
      <use xlink:href="#DejaVuSans-6f" x="369.251953"/>
      <use xlink:href="#DejaVuSans-6e" x="430.433594"/>
     </g>
    </g>
   </g>
  </g>
 </g>
 <defs>
  <clipPath id="p99b7387917">
   <rect x="54.02" y="26.88" width="655.18" height="363.16"/>
  </clipPath>
 </defs>
</svg>
