<?xml version="1.0" encoding="utf-8" standalone="no"?>
<!DOCTYPE svg PUBLIC "-//W3C//DTD SVG 1.1//EN"
  "http://www.w3.org/Graphics/SVG/1.1/DTD/svg11.dtd">
<svg xmlns:xlink="http://www.w3.org/1999/xlink" width="720pt" height="432pt" viewBox="0 0 720 432" xmlns="http://www.w3.org/2000/svg" version="1.1">
 <metadata>
  <rdf:RDF xmlns:dc="http://purl.org/dc/elements/1.1/" xmlns:cc="http://creativecommons.org/ns#" xmlns:rdf="http://www.w3.org/1999/02/22-rdf-syntax-ns#">
   <cc:Work>
    <dc:type rdf:resource="http://purl.org/dc/dcmitype/StillImage"/>
    <dc:date>2025-05-10T19:49:54.852749</dc:date>
    <dc:format>image/svg+xml</dc:format>
    <dc:creator>
     <cc:Agent>
      <dc:title>Matplotlib v3.8.0, https://matplotlib.org/</dc:title>
     </cc:Agent>
    </dc:creator>
   </cc:Work>
  </rdf:RDF>
 </metadata>
 <defs>
  <style type="text/css">*{stroke-linejoin: round; stroke-linecap: butt}</style>
 </defs>
 <g id="figure_1">
  <g id="patch_1">
   <path d="M 0 432 
L 720 432 
L 720 0 
L 0 0 
z
" style="fill: #ffffff"/>
  </g>
  <g id="axes_1">
   <g id="patch_2">
    <path d="M 54.12125 390.04 
L 709.2 390.04 
L 709.2 26.88 
L 54.12125 26.88 
z
" style="fill: #ffffff"/>
   </g>
   <g id="matplotlib.axis_1">
    <g id="xtick_1">
     <g id="line2d_1">
      <path d="M 81.905831 390.04 
L 81.905831 26.88 
" clip-path="url(#pf6156f719c)" style="fill: none; stroke: #b0b0b0; stroke-width: 0.8; stroke-linecap: square"/>
     </g>
     <g id="line2d_2">
      <defs>
       <path id="m274018125f" d="M 0 0 
L 0 3.5 
" style="stroke: #000000; stroke-width: 0.8"/>
      </defs>
      <g>
       <use xlink:href="#m274018125f" x="81.905831" y="390.04" style="stroke: #000000; stroke-width: 0.8"/>
      </g>
     </g>
     <g id="text_1">
      <!-- 0 -->
      <g transform="translate(78.724581 404.638438) scale(0.1 -0.1)">
       <defs>
        <path id="DejaVuSans-30" d="M 2034 4250 
Q 1547 4250 1301 3770 
Q 1056 3291 1056 2328 
Q 1056 1369 1301 889 
Q 1547 409 2034 409 
Q 2525 409 2770 889 
Q 3016 1369 3016 2328 
Q 3016 3291 2770 3770 
Q 2525 4250 2034 4250 
z
M 2034 4750 
Q 2819 4750 3233 4129 
Q 3647 3509 3647 2328 
Q 3647 1150 3233 529 
Q 2819 -91 2034 -91 
Q 1250 -91 836 529 
Q 422 1150 422 2328 
Q 422 3509 836 4129 
Q 1250 4750 2034 4750 
z
" transform="scale(0.015625)"/>
       </defs>
       <use xlink:href="#DejaVuSans-30"/>
      </g>
     </g>
    </g>
    <g id="xtick_2">
     <g id="line2d_3">
      <path d="M 181.492141 390.04 
L 181.492141 26.88 
" clip-path="url(#pf6156f719c)" style="fill: none; stroke: #b0b0b0; stroke-width: 0.8; stroke-linecap: square"/>
     </g>
     <g id="line2d_4">
      <g>
       <use xlink:href="#m274018125f" x="181.492141" y="390.04" style="stroke: #000000; stroke-width: 0.8"/>
      </g>
     </g>
     <g id="text_2">
      <!-- 50 -->
      <g transform="translate(175.129641 404.638438) scale(0.1 -0.1)">
       <defs>
        <path id="DejaVuSans-35" d="M 691 4666 
L 3169 4666 
L 3169 4134 
L 1269 4134 
L 1269 2991 
Q 1406 3038 1543 3061 
Q 1681 3084 1819 3084 
Q 2600 3084 3056 2656 
Q 3513 2228 3513 1497 
Q 3513 744 3044 326 
Q 2575 -91 1722 -91 
Q 1428 -91 1123 -41 
Q 819 9 494 109 
L 494 744 
Q 775 591 1075 516 
Q 1375 441 1709 441 
Q 2250 441 2565 725 
Q 2881 1009 2881 1497 
Q 2881 1984 2565 2268 
Q 2250 2553 1709 2553 
Q 1456 2553 1204 2497 
Q 953 2441 691 2322 
L 691 4666 
z
" transform="scale(0.015625)"/>
       </defs>
       <use xlink:href="#DejaVuSans-35"/>
       <use xlink:href="#DejaVuSans-30" x="63.623047"/>
      </g>
     </g>
    </g>
    <g id="xtick_3">
     <g id="line2d_5">
      <path d="M 281.078451 390.04 
L 281.078451 26.88 
" clip-path="url(#pf6156f719c)" style="fill: none; stroke: #b0b0b0; stroke-width: 0.8; stroke-linecap: square"/>
     </g>
     <g id="line2d_6">
      <g>
       <use xlink:href="#m274018125f" x="281.078451" y="390.04" style="stroke: #000000; stroke-width: 0.8"/>
      </g>
     </g>
     <g id="text_3">
      <!-- 100 -->
      <g transform="translate(271.534701 404.638438) scale(0.1 -0.1)">
       <defs>
        <path id="DejaVuSans-31" d="M 794 531 
L 1825 531 
L 1825 4091 
L 703 3866 
L 703 4441 
L 1819 4666 
L 2450 4666 
L 2450 531 
L 3481 531 
L 3481 0 
L 794 0 
L 794 531 
z
" transform="scale(0.015625)"/>
       </defs>
       <use xlink:href="#DejaVuSans-31"/>
       <use xlink:href="#DejaVuSans-30" x="63.623047"/>
       <use xlink:href="#DejaVuSans-30" x="127.246094"/>
      </g>
     </g>
    </g>
    <g id="xtick_4">
     <g id="line2d_7">
      <path d="M 380.664762 390.04 
L 380.664762 26.88 
" clip-path="url(#pf6156f719c)" style="fill: none; stroke: #b0b0b0; stroke-width: 0.8; stroke-linecap: square"/>
     </g>
     <g id="line2d_8">
      <g>
       <use xlink:href="#m274018125f" x="380.664762" y="390.04" style="stroke: #000000; stroke-width: 0.8"/>
      </g>
     </g>
     <g id="text_4">
      <!-- 150 -->
      <g transform="translate(371.121012 404.638438) scale(0.1 -0.1)">
       <use xlink:href="#DejaVuSans-31"/>
       <use xlink:href="#DejaVuSans-35" x="63.623047"/>
       <use xlink:href="#DejaVuSans-30" x="127.246094"/>
      </g>
     </g>
    </g>
    <g id="xtick_5">
     <g id="line2d_9">
      <path d="M 480.251072 390.04 
L 480.251072 26.88 
" clip-path="url(#pf6156f719c)" style="fill: none; stroke: #b0b0b0; stroke-width: 0.8; stroke-linecap: square"/>
     </g>
     <g id="line2d_10">
      <g>
       <use xlink:href="#m274018125f" x="480.251072" y="390.04" style="stroke: #000000; stroke-width: 0.8"/>
      </g>
     </g>
     <g id="text_5">
      <!-- 200 -->
      <g transform="translate(470.707322 404.638438) scale(0.1 -0.1)">
       <defs>
        <path id="DejaVuSans-32" d="M 1228 531 
L 3431 531 
L 3431 0 
L 469 0 
L 469 531 
Q 828 903 1448 1529 
Q 2069 2156 2228 2338 
Q 2531 2678 2651 2914 
Q 2772 3150 2772 3378 
Q 2772 3750 2511 3984 
Q 2250 4219 1831 4219 
Q 1534 4219 1204 4116 
Q 875 4013 500 3803 
L 500 4441 
Q 881 4594 1212 4672 
Q 1544 4750 1819 4750 
Q 2544 4750 2975 4387 
Q 3406 4025 3406 3419 
Q 3406 3131 3298 2873 
Q 3191 2616 2906 2266 
Q 2828 2175 2409 1742 
Q 1991 1309 1228 531 
z
" transform="scale(0.015625)"/>
       </defs>
       <use xlink:href="#DejaVuSans-32"/>
       <use xlink:href="#DejaVuSans-30" x="63.623047"/>
       <use xlink:href="#DejaVuSans-30" x="127.246094"/>
      </g>
     </g>
    </g>
    <g id="xtick_6">
     <g id="line2d_11">
      <path d="M 579.837383 390.04 
L 579.837383 26.88 
" clip-path="url(#pf6156f719c)" style="fill: none; stroke: #b0b0b0; stroke-width: 0.8; stroke-linecap: square"/>
     </g>
     <g id="line2d_12">
      <g>
       <use xlink:href="#m274018125f" x="579.837383" y="390.04" style="stroke: #000000; stroke-width: 0.8"/>
      </g>
     </g>
     <g id="text_6">
      <!-- 250 -->
      <g transform="translate(570.293633 404.638438) scale(0.1 -0.1)">
       <use xlink:href="#DejaVuSans-32"/>
       <use xlink:href="#DejaVuSans-35" x="63.623047"/>
       <use xlink:href="#DejaVuSans-30" x="127.246094"/>
      </g>
     </g>
    </g>
    <g id="xtick_7">
     <g id="line2d_13">
      <path d="M 679.423693 390.04 
L 679.423693 26.88 
" clip-path="url(#pf6156f719c)" style="fill: none; stroke: #b0b0b0; stroke-width: 0.8; stroke-linecap: square"/>
     </g>
     <g id="line2d_14">
      <g>
       <use xlink:href="#m274018125f" x="679.423693" y="390.04" style="stroke: #000000; stroke-width: 0.8"/>
      </g>
     </g>
     <g id="text_7">
      <!-- 300 -->
      <g transform="translate(669.879943 404.638438) scale(0.1 -0.1)">
       <defs>
        <path id="DejaVuSans-33" d="M 2597 2516 
Q 3050 2419 3304 2112 
Q 3559 1806 3559 1356 
Q 3559 666 3084 287 
Q 2609 -91 1734 -91 
Q 1441 -91 1130 -33 
Q 819 25 488 141 
L 488 750 
Q 750 597 1062 519 
Q 1375 441 1716 441 
Q 2309 441 2620 675 
Q 2931 909 2931 1356 
Q 2931 1769 2642 2001 
Q 2353 2234 1838 2234 
L 1294 2234 
L 1294 2753 
L 1863 2753 
Q 2328 2753 2575 2939 
Q 2822 3125 2822 3475 
Q 2822 3834 2567 4026 
Q 2313 4219 1838 4219 
Q 1578 4219 1281 4162 
Q 984 4106 628 3988 
L 628 4550 
Q 988 4650 1302 4700 
Q 1616 4750 1894 4750 
Q 2613 4750 3031 4423 
Q 3450 4097 3450 3541 
Q 3450 3153 3228 2886 
Q 3006 2619 2597 2516 
z
" transform="scale(0.015625)"/>
       </defs>
       <use xlink:href="#DejaVuSans-33"/>
       <use xlink:href="#DejaVuSans-30" x="63.623047"/>
       <use xlink:href="#DejaVuSans-30" x="127.246094"/>
      </g>
     </g>
    </g>
    <g id="text_8">
     <!-- Epoch -->
     <g transform="translate(366.349687 418.316562) scale(0.1 -0.1)">
      <defs>
       <path id="DejaVuSans-45" d="M 628 4666 
L 3578 4666 
L 3578 4134 
L 1259 4134 
L 1259 2753 
L 3481 2753 
L 3481 2222 
L 1259 2222 
L 1259 531 
L 3634 531 
L 3634 0 
L 628 0 
L 628 4666 
z
" transform="scale(0.015625)"/>
       <path id="DejaVuSans-70" d="M 1159 525 
L 1159 -1331 
L 581 -1331 
L 581 3500 
L 1159 3500 
L 1159 2969 
Q 1341 3281 1617 3432 
Q 1894 3584 2278 3584 
Q 2916 3584 3314 3078 
Q 3713 2572 3713 1747 
Q 3713 922 3314 415 
Q 2916 -91 2278 -91 
Q 1894 -91 1617 61 
Q 1341 213 1159 525 
z
M 3116 1747 
Q 3116 2381 2855 2742 
Q 2594 3103 2138 3103 
Q 1681 3103 1420 2742 
Q 1159 2381 1159 1747 
Q 1159 1113 1420 752 
Q 1681 391 2138 391 
Q 2594 391 2855 752 
Q 3116 1113 3116 1747 
z
" transform="scale(0.015625)"/>
       <path id="DejaVuSans-6f" d="M 1959 3097 
Q 1497 3097 1228 2736 
Q 959 2375 959 1747 
Q 959 1119 1226 758 
Q 1494 397 1959 397 
Q 2419 397 2687 759 
Q 2956 1122 2956 1747 
Q 2956 2369 2687 2733 
Q 2419 3097 1959 3097 
z
M 1959 3584 
Q 2709 3584 3137 3096 
Q 3566 2609 3566 1747 
Q 3566 888 3137 398 
Q 2709 -91 1959 -91 
Q 1206 -91 779 398 
Q 353 888 353 1747 
Q 353 2609 779 3096 
Q 1206 3584 1959 3584 
z
" transform="scale(0.015625)"/>
       <path id="DejaVuSans-63" d="M 3122 3366 
L 3122 2828 
Q 2878 2963 2633 3030 
Q 2388 3097 2138 3097 
Q 1578 3097 1268 2742 
Q 959 2388 959 1747 
Q 959 1106 1268 751 
Q 1578 397 2138 397 
Q 2388 397 2633 464 
Q 2878 531 3122 666 
L 3122 134 
Q 2881 22 2623 -34 
Q 2366 -91 2075 -91 
Q 1284 -91 818 406 
Q 353 903 353 1747 
Q 353 2603 823 3093 
Q 1294 3584 2113 3584 
Q 2378 3584 2631 3529 
Q 2884 3475 3122 3366 
z
" transform="scale(0.015625)"/>
       <path id="DejaVuSans-68" d="M 3513 2113 
L 3513 0 
L 2938 0 
L 2938 2094 
Q 2938 2591 2744 2837 
Q 2550 3084 2163 3084 
Q 1697 3084 1428 2787 
Q 1159 2491 1159 1978 
L 1159 0 
L 581 0 
L 581 4863 
L 1159 4863 
L 1159 2956 
Q 1366 3272 1645 3428 
Q 1925 3584 2291 3584 
Q 2894 3584 3203 3211 
Q 3513 2838 3513 2113 
z
" transform="scale(0.015625)"/>
      </defs>
      <use xlink:href="#DejaVuSans-45"/>
      <use xlink:href="#DejaVuSans-70" x="63.183594"/>
      <use xlink:href="#DejaVuSans-6f" x="126.660156"/>
      <use xlink:href="#DejaVuSans-63" x="187.841797"/>
      <use xlink:href="#DejaVuSans-68" x="242.822266"/>
     </g>
    </g>
   </g>
   <g id="matplotlib.axis_2">
    <g id="ytick_1">
     <g id="line2d_15">
      <path d="M 54.12125 380.709802 
L 709.2 380.709802 
" clip-path="url(#pf6156f719c)" style="fill: none; stroke: #b0b0b0; stroke-width: 0.8; stroke-linecap: square"/>
     </g>
     <g id="line2d_16">
      <defs>
       <path id="m6a4e25b4ae" d="M 0 0 
L -3.5 0 
" style="stroke: #000000; stroke-width: 0.8"/>
      </defs>
      <g>
       <use xlink:href="#m6a4e25b4ae" x="54.12125" y="380.709802" style="stroke: #000000; stroke-width: 0.8"/>
      </g>
     </g>
     <g id="text_9">
      <!-- 0.00 -->
      <g transform="translate(24.855625 384.509021) scale(0.1 -0.1)">
       <defs>
        <path id="DejaVuSans-2e" d="M 684 794 
L 1344 794 
L 1344 0 
L 684 0 
L 684 794 
z
" transform="scale(0.015625)"/>
       </defs>
       <use xlink:href="#DejaVuSans-30"/>
       <use xlink:href="#DejaVuSans-2e" x="63.623047"/>
       <use xlink:href="#DejaVuSans-30" x="95.410156"/>
       <use xlink:href="#DejaVuSans-30" x="159.033203"/>
      </g>
     </g>
    </g>
    <g id="ytick_2">
     <g id="line2d_17">
      <path d="M 54.12125 332.862635 
L 709.2 332.862635 
" clip-path="url(#pf6156f719c)" style="fill: none; stroke: #b0b0b0; stroke-width: 0.8; stroke-linecap: square"/>
     </g>
     <g id="line2d_18">
      <g>
       <use xlink:href="#m6a4e25b4ae" x="54.12125" y="332.862635" style="stroke: #000000; stroke-width: 0.8"/>
      </g>
     </g>
     <g id="text_10">
      <!-- 0.01 -->
      <g transform="translate(24.855625 336.661854) scale(0.1 -0.1)">
       <use xlink:href="#DejaVuSans-30"/>
       <use xlink:href="#DejaVuSans-2e" x="63.623047"/>
       <use xlink:href="#DejaVuSans-30" x="95.410156"/>
       <use xlink:href="#DejaVuSans-31" x="159.033203"/>
      </g>
     </g>
    </g>
    <g id="ytick_3">
     <g id="line2d_19">
      <path d="M 54.12125 285.015468 
L 709.2 285.015468 
" clip-path="url(#pf6156f719c)" style="fill: none; stroke: #b0b0b0; stroke-width: 0.8; stroke-linecap: square"/>
     </g>
     <g id="line2d_20">
      <g>
       <use xlink:href="#m6a4e25b4ae" x="54.12125" y="285.015468" style="stroke: #000000; stroke-width: 0.8"/>
      </g>
     </g>
     <g id="text_11">
      <!-- 0.02 -->
      <g transform="translate(24.855625 288.814686) scale(0.1 -0.1)">
       <use xlink:href="#DejaVuSans-30"/>
       <use xlink:href="#DejaVuSans-2e" x="63.623047"/>
       <use xlink:href="#DejaVuSans-30" x="95.410156"/>
       <use xlink:href="#DejaVuSans-32" x="159.033203"/>
      </g>
     </g>
    </g>
    <g id="ytick_4">
     <g id="line2d_21">
      <path d="M 54.12125 237.1683 
L 709.2 237.1683 
" clip-path="url(#pf6156f719c)" style="fill: none; stroke: #b0b0b0; stroke-width: 0.8; stroke-linecap: square"/>
     </g>
     <g id="line2d_22">
      <g>
       <use xlink:href="#m6a4e25b4ae" x="54.12125" y="237.1683" style="stroke: #000000; stroke-width: 0.8"/>
      </g>
     </g>
     <g id="text_12">
      <!-- 0.03 -->
      <g transform="translate(24.855625 240.967519) scale(0.1 -0.1)">
       <use xlink:href="#DejaVuSans-30"/>
       <use xlink:href="#DejaVuSans-2e" x="63.623047"/>
       <use xlink:href="#DejaVuSans-30" x="95.410156"/>
       <use xlink:href="#DejaVuSans-33" x="159.033203"/>
      </g>
     </g>
    </g>
    <g id="ytick_5">
     <g id="line2d_23">
      <path d="M 54.12125 189.321133 
L 709.2 189.321133 
" clip-path="url(#pf6156f719c)" style="fill: none; stroke: #b0b0b0; stroke-width: 0.8; stroke-linecap: square"/>
     </g>
     <g id="line2d_24">
      <g>
       <use xlink:href="#m6a4e25b4ae" x="54.12125" y="189.321133" style="stroke: #000000; stroke-width: 0.8"/>
      </g>
     </g>
     <g id="text_13">
      <!-- 0.04 -->
      <g transform="translate(24.855625 193.120352) scale(0.1 -0.1)">
       <defs>
        <path id="DejaVuSans-34" d="M 2419 4116 
L 825 1625 
L 2419 1625 
L 2419 4116 
z
M 2253 4666 
L 3047 4666 
L 3047 1625 
L 3713 1625 
L 3713 1100 
L 3047 1100 
L 3047 0 
L 2419 0 
L 2419 1100 
L 313 1100 
L 313 1709 
L 2253 4666 
z
" transform="scale(0.015625)"/>
       </defs>
       <use xlink:href="#DejaVuSans-30"/>
       <use xlink:href="#DejaVuSans-2e" x="63.623047"/>
       <use xlink:href="#DejaVuSans-30" x="95.410156"/>
       <use xlink:href="#DejaVuSans-34" x="159.033203"/>
      </g>
     </g>
    </g>
    <g id="ytick_6">
     <g id="line2d_25">
      <path d="M 54.12125 141.473966 
L 709.2 141.473966 
" clip-path="url(#pf6156f719c)" style="fill: none; stroke: #b0b0b0; stroke-width: 0.8; stroke-linecap: square"/>
     </g>
     <g id="line2d_26">
      <g>
       <use xlink:href="#m6a4e25b4ae" x="54.12125" y="141.473966" style="stroke: #000000; stroke-width: 0.8"/>
      </g>
     </g>
     <g id="text_14">
      <!-- 0.05 -->
      <g transform="translate(24.855625 145.273184) scale(0.1 -0.1)">
       <use xlink:href="#DejaVuSans-30"/>
       <use xlink:href="#DejaVuSans-2e" x="63.623047"/>
       <use xlink:href="#DejaVuSans-30" x="95.410156"/>
       <use xlink:href="#DejaVuSans-35" x="159.033203"/>
      </g>
     </g>
    </g>
    <g id="ytick_7">
     <g id="line2d_27">
      <path d="M 54.12125 93.626798 
L 709.2 93.626798 
" clip-path="url(#pf6156f719c)" style="fill: none; stroke: #b0b0b0; stroke-width: 0.8; stroke-linecap: square"/>
     </g>
     <g id="line2d_28">
      <g>
       <use xlink:href="#m6a4e25b4ae" x="54.12125" y="93.626798" style="stroke: #000000; stroke-width: 0.8"/>
      </g>
     </g>
     <g id="text_15">
      <!-- 0.06 -->
      <g transform="translate(24.855625 97.426017) scale(0.1 -0.1)">
       <defs>
        <path id="DejaVuSans-36" d="M 2113 2584 
Q 1688 2584 1439 2293 
Q 1191 2003 1191 1497 
Q 1191 994 1439 701 
Q 1688 409 2113 409 
Q 2538 409 2786 701 
Q 3034 994 3034 1497 
Q 3034 2003 2786 2293 
Q 2538 2584 2113 2584 
z
M 3366 4563 
L 3366 3988 
Q 3128 4100 2886 4159 
Q 2644 4219 2406 4219 
Q 1781 4219 1451 3797 
Q 1122 3375 1075 2522 
Q 1259 2794 1537 2939 
Q 1816 3084 2150 3084 
Q 2853 3084 3261 2657 
Q 3669 2231 3669 1497 
Q 3669 778 3244 343 
Q 2819 -91 2113 -91 
Q 1303 -91 875 529 
Q 447 1150 447 2328 
Q 447 3434 972 4092 
Q 1497 4750 2381 4750 
Q 2619 4750 2861 4703 
Q 3103 4656 3366 4563 
z
" transform="scale(0.015625)"/>
       </defs>
       <use xlink:href="#DejaVuSans-30"/>
       <use xlink:href="#DejaVuSans-2e" x="63.623047"/>
       <use xlink:href="#DejaVuSans-30" x="95.410156"/>
       <use xlink:href="#DejaVuSans-36" x="159.033203"/>
      </g>
     </g>
    </g>
    <g id="ytick_8">
     <g id="line2d_29">
      <path d="M 54.12125 45.779631 
L 709.2 45.779631 
" clip-path="url(#pf6156f719c)" style="fill: none; stroke: #b0b0b0; stroke-width: 0.8; stroke-linecap: square"/>
     </g>
     <g id="line2d_30">
      <g>
       <use xlink:href="#m6a4e25b4ae" x="54.12125" y="45.779631" style="stroke: #000000; stroke-width: 0.8"/>
      </g>
     </g>
     <g id="text_16">
      <!-- 0.07 -->
      <g transform="translate(24.855625 49.57885) scale(0.1 -0.1)">
       <defs>
        <path id="DejaVuSans-37" d="M 525 4666 
L 3525 4666 
L 3525 4397 
L 1831 0 
L 1172 0 
L 2766 4134 
L 525 4134 
L 525 4666 
z
" transform="scale(0.015625)"/>
       </defs>
       <use xlink:href="#DejaVuSans-30"/>
       <use xlink:href="#DejaVuSans-2e" x="63.623047"/>
       <use xlink:href="#DejaVuSans-30" x="95.410156"/>
       <use xlink:href="#DejaVuSans-37" x="159.033203"/>
      </g>
     </g>
    </g>
    <g id="text_17">
     <!-- Encoder_mse -->
     <g transform="translate(18.497813 241.954531) rotate(-90) scale(0.1 -0.1)">
      <defs>
       <path id="DejaVuSans-6e" d="M 3513 2113 
L 3513 0 
L 2938 0 
L 2938 2094 
Q 2938 2591 2744 2837 
Q 2550 3084 2163 3084 
Q 1697 3084 1428 2787 
Q 1159 2491 1159 1978 
L 1159 0 
L 581 0 
L 581 3500 
L 1159 3500 
L 1159 2956 
Q 1366 3272 1645 3428 
Q 1925 3584 2291 3584 
Q 2894 3584 3203 3211 
Q 3513 2838 3513 2113 
z
" transform="scale(0.015625)"/>
       <path id="DejaVuSans-64" d="M 2906 2969 
L 2906 4863 
L 3481 4863 
L 3481 0 
L 2906 0 
L 2906 525 
Q 2725 213 2448 61 
Q 2172 -91 1784 -91 
Q 1150 -91 751 415 
Q 353 922 353 1747 
Q 353 2572 751 3078 
Q 1150 3584 1784 3584 
Q 2172 3584 2448 3432 
Q 2725 3281 2906 2969 
z
M 947 1747 
Q 947 1113 1208 752 
Q 1469 391 1925 391 
Q 2381 391 2643 752 
Q 2906 1113 2906 1747 
Q 2906 2381 2643 2742 
Q 2381 3103 1925 3103 
Q 1469 3103 1208 2742 
Q 947 2381 947 1747 
z
" transform="scale(0.015625)"/>
       <path id="DejaVuSans-65" d="M 3597 1894 
L 3597 1613 
L 953 1613 
Q 991 1019 1311 708 
Q 1631 397 2203 397 
Q 2534 397 2845 478 
Q 3156 559 3463 722 
L 3463 178 
Q 3153 47 2828 -22 
Q 2503 -91 2169 -91 
Q 1331 -91 842 396 
Q 353 884 353 1716 
Q 353 2575 817 3079 
Q 1281 3584 2069 3584 
Q 2775 3584 3186 3129 
Q 3597 2675 3597 1894 
z
M 3022 2063 
Q 3016 2534 2758 2815 
Q 2500 3097 2075 3097 
Q 1594 3097 1305 2825 
Q 1016 2553 972 2059 
L 3022 2063 
z
" transform="scale(0.015625)"/>
       <path id="DejaVuSans-72" d="M 2631 2963 
Q 2534 3019 2420 3045 
Q 2306 3072 2169 3072 
Q 1681 3072 1420 2755 
Q 1159 2438 1159 1844 
L 1159 0 
L 581 0 
L 581 3500 
L 1159 3500 
L 1159 2956 
Q 1341 3275 1631 3429 
Q 1922 3584 2338 3584 
Q 2397 3584 2469 3576 
Q 2541 3569 2628 3553 
L 2631 2963 
z
" transform="scale(0.015625)"/>
       <path id="DejaVuSans-5f" d="M 3263 -1063 
L 3263 -1509 
L -63 -1509 
L -63 -1063 
L 3263 -1063 
z
" transform="scale(0.015625)"/>
       <path id="DejaVuSans-6d" d="M 3328 2828 
Q 3544 3216 3844 3400 
Q 4144 3584 4550 3584 
Q 5097 3584 5394 3201 
Q 5691 2819 5691 2113 
L 5691 0 
L 5113 0 
L 5113 2094 
Q 5113 2597 4934 2840 
Q 4756 3084 4391 3084 
Q 3944 3084 3684 2787 
Q 3425 2491 3425 1978 
L 3425 0 
L 2847 0 
L 2847 2094 
Q 2847 2600 2669 2842 
Q 2491 3084 2119 3084 
Q 1678 3084 1418 2786 
Q 1159 2488 1159 1978 
L 1159 0 
L 581 0 
L 581 3500 
L 1159 3500 
L 1159 2956 
Q 1356 3278 1631 3431 
Q 1906 3584 2284 3584 
Q 2666 3584 2933 3390 
Q 3200 3197 3328 2828 
z
" transform="scale(0.015625)"/>
       <path id="DejaVuSans-73" d="M 2834 3397 
L 2834 2853 
Q 2591 2978 2328 3040 
Q 2066 3103 1784 3103 
Q 1356 3103 1142 2972 
Q 928 2841 928 2578 
Q 928 2378 1081 2264 
Q 1234 2150 1697 2047 
L 1894 2003 
Q 2506 1872 2764 1633 
Q 3022 1394 3022 966 
Q 3022 478 2636 193 
Q 2250 -91 1575 -91 
Q 1294 -91 989 -36 
Q 684 19 347 128 
L 347 722 
Q 666 556 975 473 
Q 1284 391 1588 391 
Q 1994 391 2212 530 
Q 2431 669 2431 922 
Q 2431 1156 2273 1281 
Q 2116 1406 1581 1522 
L 1381 1569 
Q 847 1681 609 1914 
Q 372 2147 372 2553 
Q 372 3047 722 3315 
Q 1072 3584 1716 3584 
Q 2034 3584 2315 3537 
Q 2597 3491 2834 3397 
z
" transform="scale(0.015625)"/>
      </defs>
      <use xlink:href="#DejaVuSans-45"/>
      <use xlink:href="#DejaVuSans-6e" x="63.183594"/>
      <use xlink:href="#DejaVuSans-63" x="126.5625"/>
      <use xlink:href="#DejaVuSans-6f" x="181.542969"/>
      <use xlink:href="#DejaVuSans-64" x="242.724609"/>
      <use xlink:href="#DejaVuSans-65" x="306.201172"/>
      <use xlink:href="#DejaVuSans-72" x="367.724609"/>
      <use xlink:href="#DejaVuSans-5f" x="408.837891"/>
      <use xlink:href="#DejaVuSans-6d" x="458.837891"/>
      <use xlink:href="#DejaVuSans-73" x="556.25"/>
      <use xlink:href="#DejaVuSans-65" x="608.349609"/>
     </g>
    </g>
   </g>
   <g id="line2d_31">
    <path d="M 83.897557 63.961555 
L 85.889283 98.889987 
L 87.881009 96.497628 
L 89.872735 74.966403 
L 91.864462 70.660158 
L 93.856188 60.612253 
L 95.847914 60.133781 
L 97.83964 67.789328 
L 99.831366 73.052516 
L 101.823093 88.842082 
L 103.814819 95.062213 
L 105.806545 95.540685 
L 107.798271 82.62195 
L 109.789998 97.933043 
L 111.781724 96.019157 
L 113.77345 84.057365 
L 115.765176 76.88029 
L 117.756902 64.440026 
L 119.748629 66.832385 
L 121.740355 59.65531 
L 123.732081 71.13863 
L 125.723807 77.358762 
L 127.715533 69.703215 
L 129.70726 59.176838 
L 131.698986 58.698366 
L 133.690712 59.65531 
L 135.682438 68.746271 
L 137.674164 71.617101 
L 139.665891 87.406667 
L 141.657617 72.574045 
L 143.649343 304.632806 
L 145.641069 320.422372 
L 147.632795 323.771673 
L 149.624522 327.599447 
L 151.616248 330.470277 
L 153.607974 336.690408 
L 155.5997 341.475125 
L 157.591427 341.475125 
L 159.583153 349.130672 
L 161.574879 352.001502 
L 163.566605 353.915389 
L 165.558331 354.872332 
L 167.550058 356.307747 
L 169.541784 357.26469 
L 171.53351 357.743162 
L 173.525236 358.700105 
L 175.516962 359.178577 
L 177.508689 359.178577 
L 179.500415 361.092464 
L 181.492141 361.092464 
L 183.483867 314.20224 
L 185.475593 298.891146 
L 187.46732 260.613412 
L 189.459046 233.340527 
L 191.450772 221.857207 
L 193.442498 219.464848 
L 195.434224 214.680132 
L 197.425951 198.890567 
L 199.417677 199.369038 
L 203.401129 194.584321 
L 205.392856 184.536416 
L 207.384582 175.923926 
L 209.376308 177.359341 
L 211.368034 177.837813 
L 213.35976 181.665586 
L 215.351487 178.794756 
L 217.343213 183.579473 
L 219.334939 183.101001 
L 221.326665 183.101001 
L 223.318391 180.708643 
L 225.310118 165.397549 
L 227.301844 159.655889 
L 229.29357 162.048248 
L 231.285296 163.005191 
L 233.277022 160.612833 
L 235.268749 161.569776 
L 237.260475 159.177418 
L 239.252201 161.091304 
L 241.243927 159.655889 
L 243.235654 162.526719 
L 245.22738 163.962134 
L 247.219106 163.483663 
L 249.210832 163.483663 
L 251.202558 161.569776 
L 253.194285 157.742003 
L 255.186011 141.952437 
L 257.177737 138.124664 
L 259.169463 135.253834 
L 261.161189 131.904532 
L 263.152916 129.512174 
L 265.144642 125.684401 
L 267.136368 124.727457 
L 269.128094 119.94274 
L 271.11982 118.985797 
L 273.111547 115.158024 
L 275.103273 116.114967 
L 277.094999 106.545534 
L 279.086725 112.287194 
L 281.078451 113.244137 
L 283.070178 108.937892 
L 285.061904 110.851779 
L 287.05363 111.808722 
L 289.045356 115.158024 
L 291.037083 114.679552 
L 293.028809 118.028854 
L 297.012261 123.770514 
L 299.003987 129.512174 
L 300.995714 132.383004 
L 302.98744 139.560079 
L 304.979166 145.301739 
L 306.970892 153.914229 
L 308.962618 164.440606 
L 310.954345 172.574625 
L 312.946071 182.144058 
L 314.937797 194.10585 
L 316.929523 207.024585 
L 318.921249 216.115547 
L 320.912976 227.120395 
L 322.904702 283.101581 
L 324.896428 304.154335 
L 326.888154 311.33141 
L 328.87988 313.245296 
L 330.871607 318.508485 
L 332.863333 319.465428 
L 334.855059 321.379315 
L 336.846785 322.336258 
L 338.838512 322.81473 
L 340.830238 323.771673 
L 342.821964 325.68556 
L 344.81369 324.728617 
L 346.805416 327.599447 
L 348.797143 328.077918 
L 350.788869 329.991805 
L 352.780595 330.470277 
L 354.772321 330.470277 
L 356.764047 331.42722 
L 358.755774 331.905692 
L 360.7475 331.905692 
L 362.739226 332.862635 
L 364.730952 332.384163 
L 366.722678 332.862635 
L 368.714405 332.862635 
L 370.706131 330.948748 
L 372.697857 331.905692 
L 374.689583 330.470277 
L 376.681309 330.948748 
L 378.673036 330.948748 
L 380.664762 331.42722 
L 382.656488 324.728617 
L 386.639941 321.857787 
L 380.664762 330.948748 
L 384.648214 332.862635 
L 386.639941 331.42722 
L 388.631667 333.341107 
L 390.623393 333.819578 
L 392.615119 332.384163 
L 394.606845 333.819578 
L 396.598572 333.341107 
L 400.582024 334.29805 
L 402.57375 335.254993 
L 404.565476 335.254993 
L 406.557203 336.211937 
L 408.548929 335.733465 
L 410.540655 335.733465 
L 412.532381 335.254993 
L 414.524107 336.690408 
L 418.50756 337.647352 
L 420.499286 337.647352 
L 422.491012 339.561238 
L 424.482738 339.082767 
L 426.474465 339.561238 
L 432.449643 339.561238 
L 434.44137 340.518182 
L 436.433096 340.03971 
L 438.424822 340.518182 
L 440.416548 340.03971 
L 442.408274 340.03971 
L 444.400001 341.475125 
L 446.391727 340.996653 
L 448.383453 340.03971 
L 450.375179 341.953597 
L 452.366905 341.475125 
L 454.358632 342.432069 
L 456.350358 341.953597 
L 458.342084 342.432069 
L 460.33381 342.432069 
L 462.325536 343.389012 
L 464.317263 342.91054 
L 466.308989 341.953597 
L 468.300715 342.91054 
L 470.292441 342.91054 
L 472.284167 343.389012 
L 476.26762 343.389012 
L 478.259346 343.867484 
L 480.251072 343.389012 
L 482.242799 344.345955 
L 484.234525 342.91054 
L 486.226251 343.867484 
L 488.217977 345.302899 
L 490.209703 344.824427 
L 492.20143 343.867484 
L 496.184882 345.78137 
L 498.176608 344.824427 
L 500.168334 344.824427 
L 502.160061 346.259842 
L 504.151787 345.302899 
L 508.135239 347.216785 
L 512.118692 346.259842 
L 514.110418 346.259842 
L 516.102144 346.738314 
L 518.09387 346.738314 
L 520.085596 346.259842 
L 522.077323 346.259842 
L 526.060775 347.216785 
L 528.052501 346.738314 
L 530.044228 347.216785 
L 534.02768 347.216785 
L 536.019406 346.738314 
L 538.011132 345.78137 
L 540.002859 346.259842 
L 541.994585 346.259842 
L 543.986311 345.78137 
L 545.978037 345.78137 
L 547.969763 346.259842 
L 549.96149 346.259842 
L 551.953216 345.78137 
L 555.936668 346.738314 
L 557.928394 346.738314 
L 559.920121 347.216785 
L 561.911847 347.216785 
L 563.903573 346.738314 
L 565.895299 346.738314 
L 567.887026 347.216785 
L 571.870478 347.216785 
L 573.862204 348.6522 
L 579.837383 348.6522 
L 583.820835 349.609144 
L 587.804288 349.609144 
L 589.796014 349.130672 
L 593.779466 350.087615 
L 597.762919 350.087615 
L 599.754645 350.566087 
L 601.746371 350.566087 
L 603.738097 351.52303 
L 605.729823 350.087615 
L 607.72155 350.566087 
L 609.713276 350.566087 
L 611.705002 352.001502 
L 613.696728 352.001502 
L 615.688455 351.52303 
L 621.663633 352.958445 
L 623.655359 350.087615 
L 625.647086 352.479974 
L 627.638812 351.52303 
L 629.630538 352.001502 
L 631.622264 351.044559 
L 633.61399 352.001502 
L 635.605717 351.044559 
L 639.589169 352.001502 
L 641.580895 352.958445 
L 645.564348 352.958445 
L 647.556074 353.436917 
L 649.5478 353.436917 
L 651.539526 353.915389 
L 653.531252 352.479974 
L 655.522979 353.436917 
L 657.514705 353.915389 
L 659.506431 353.915389 
L 661.498157 352.479974 
L 663.489884 352.958445 
L 665.48161 353.915389 
L 667.473336 353.915389 
L 669.465062 354.39386 
L 673.448515 354.39386 
L 675.440241 352.479974 
L 679.423693 354.39386 
L 679.423693 354.39386 
" clip-path="url(#pf6156f719c)" style="fill: none; stroke: #0000ff; stroke-width: 1.5; stroke-linecap: square"/>
   </g>
   <g id="line2d_32">
    <path d="M 83.897557 122.335099 
L 85.889283 81.665007 
L 87.881009 108.937892 
L 89.872735 123.770514 
L 91.864462 107.024005 
L 93.856188 117.07191 
L 95.847914 111.808722 
L 97.83964 107.502477 
L 99.831366 109.416364 
L 101.823093 119.464269 
L 103.814819 90.755968 
L 105.806545 103.674704 
L 107.798271 78.794177 
L 109.789998 101.760817 
L 111.781724 140.995494 
L 113.77345 65.875441 
L 115.765176 69.703215 
L 117.756902 60.133781 
L 119.748629 82.143478 
L 121.740355 89.799025 
L 123.732081 101.760817 
L 125.723807 73.052516 
L 127.715533 93.626798 
L 129.70726 54.392121 
L 131.698986 43.387273 
L 133.690712 61.090725 
L 135.682438 109.894835 
L 137.674164 109.894835 
L 139.665891 94.583742 
L 141.657617 109.416364 
L 143.649343 361.092464 
L 147.632795 363.963294 
L 149.624522 365.877181 
L 153.607974 367.791067 
L 157.591427 367.791067 
L 159.583153 367.312596 
L 161.574879 367.791067 
L 163.566605 370.183426 
L 165.558331 367.312596 
L 167.550058 369.226482 
L 169.541784 368.748011 
L 171.53351 371.140369 
L 175.516962 370.183426 
L 177.508689 372.097312 
L 179.500415 370.183426 
L 181.492141 373.532727 
L 183.483867 324.728617 
L 185.475593 289.800184 
L 187.46732 250.087036 
L 189.459046 233.818999 
L 191.450772 224.249565 
L 193.442498 231.905112 
L 195.434224 213.244717 
L 197.425951 197.933623 
L 199.417677 200.325982 
L 201.409403 184.536416 
L 203.401129 203.196812 
L 205.392856 183.101001 
L 207.384582 176.402398 
L 209.376308 190.756548 
L 211.368034 176.88087 
L 213.35976 178.316285 
L 215.351487 190.278076 
L 217.343213 193.627378 
L 219.334939 190.756548 
L 221.326665 175.445455 
L 223.318391 185.014888 
L 225.310118 148.651041 
L 227.301844 163.483663 
L 229.29357 157.742003 
L 231.285296 170.660738 
L 233.277022 168.746851 
L 235.268749 164.919078 
L 237.260475 159.655889 
L 239.252201 164.440606 
L 241.243927 163.962134 
L 243.235654 153.914229 
L 245.22738 168.746851 
L 247.219106 153.914229 
L 249.210832 163.005191 
L 251.202558 154.392701 
L 253.194285 132.861476 
L 255.186011 140.038551 
L 257.177737 126.162872 
L 259.169463 141.473966 
L 261.161189 137.167721 
L 263.152916 129.512174 
L 265.144642 119.464269 
L 267.136368 114.20108 
L 269.128094 115.158024 
L 271.11982 119.464269 
L 273.111547 104.631647 
L 275.103273 85.971252 
L 277.094999 105.58859 
L 279.086725 109.416364 
L 281.078451 112.287194 
L 283.070178 112.765665 
L 285.061904 112.765665 
L 287.05363 118.507325 
L 289.045356 106.067062 
L 291.037083 109.416364 
L 293.028809 129.990646 
L 295.020535 121.856627 
L 297.012261 139.081607 
L 299.003987 136.689249 
L 300.995714 132.383004 
L 302.98744 145.780211 
L 304.979166 152.000343 
L 306.970892 157.263531 
L 308.962618 176.402398 
L 310.954345 183.101001 
L 312.946071 196.019736 
L 314.937797 198.412095 
L 316.929523 215.158603 
L 318.921249 219.94332 
L 320.912976 238.603715 
L 322.904702 312.288353 
L 324.896428 316.594598 
L 326.888154 318.986957 
L 328.87988 320.422372 
L 330.871607 326.642503 
L 332.863333 328.55639 
L 334.855059 328.077918 
L 336.846785 329.991805 
L 338.838512 328.55639 
L 340.830238 329.034862 
L 342.821964 331.42722 
L 344.81369 336.211937 
L 346.805416 334.776522 
L 348.797143 335.254993 
L 350.788869 336.690408 
L 352.780595 337.16888 
L 354.772321 339.082767 
L 356.764047 335.733465 
L 358.755774 340.03971 
L 360.7475 339.082767 
L 362.739226 340.03971 
L 364.730952 339.082767 
L 370.706131 339.082767 
L 372.697857 335.733465 
L 376.681309 339.561238 
L 378.673036 340.03971 
L 380.664762 339.561238 
L 382.656488 329.991805 
L 384.648214 328.55639 
L 380.664762 338.125823 
L 382.656488 339.082767 
L 384.648214 337.16888 
L 388.631667 341.953597 
L 390.623393 342.432069 
L 392.615119 340.996653 
L 394.606845 340.03971 
L 396.598572 340.03971 
L 398.590298 340.518182 
L 400.582024 341.475125 
L 402.57375 341.475125 
L 404.565476 340.03971 
L 406.557203 340.518182 
L 408.548929 343.867484 
L 410.540655 344.345955 
L 412.532381 341.953597 
L 414.524107 343.867484 
L 416.515834 344.824427 
L 418.50756 344.345955 
L 420.499286 344.345955 
L 424.482738 346.259842 
L 426.474465 344.824427 
L 428.466191 345.78137 
L 430.457917 345.78137 
L 432.449643 347.695257 
L 434.44137 345.302899 
L 436.433096 347.695257 
L 438.424822 344.824427 
L 440.416548 347.216785 
L 442.408274 348.173729 
L 444.400001 347.216785 
L 446.391727 346.738314 
L 448.383453 349.609144 
L 450.375179 347.695257 
L 452.366905 348.173729 
L 456.350358 347.216785 
L 458.342084 348.173729 
L 460.33381 343.389012 
L 462.325536 348.6522 
L 464.317263 349.130672 
L 466.308989 350.566087 
L 468.300715 349.130672 
L 470.292441 349.130672 
L 472.284167 349.609144 
L 474.275894 350.566087 
L 476.26762 350.087615 
L 478.259346 352.001502 
L 480.251072 349.130672 
L 482.242799 347.695257 
L 484.234525 347.216785 
L 486.226251 349.609144 
L 488.217977 348.6522 
L 490.209703 351.044559 
L 492.20143 351.044559 
L 494.193156 349.130672 
L 496.184882 350.087615 
L 498.176608 350.566087 
L 500.168334 353.436917 
L 502.160061 351.52303 
L 504.151787 351.52303 
L 506.143513 353.436917 
L 508.135239 353.436917 
L 510.126965 349.609144 
L 512.118692 352.479974 
L 514.110418 352.001502 
L 516.102144 352.479974 
L 518.09387 350.566087 
L 520.085596 351.52303 
L 522.077323 352.958445 
L 524.069049 354.872332 
L 526.060775 351.044559 
L 528.052501 351.52303 
L 530.044228 352.479974 
L 532.035954 352.479974 
L 538.011132 351.044559 
L 540.002859 352.479974 
L 541.994585 351.52303 
L 543.986311 351.52303 
L 545.978037 352.001502 
L 547.969763 351.044559 
L 549.96149 351.52303 
L 551.953216 349.130672 
L 553.944942 351.52303 
L 555.936668 351.044559 
L 557.928394 353.915389 
L 559.920121 352.479974 
L 561.911847 352.479974 
L 563.903573 351.52303 
L 567.887026 351.52303 
L 569.878752 352.479974 
L 571.870478 350.566087 
L 573.862204 354.872332 
L 575.85393 353.436917 
L 577.845657 354.39386 
L 579.837383 354.39386 
L 581.829109 354.872332 
L 583.820835 350.087615 
L 585.812561 354.872332 
L 587.804288 353.915389 
L 589.796014 353.915389 
L 591.78774 353.436917 
L 593.779466 354.39386 
L 595.771192 354.872332 
L 597.762919 352.479974 
L 599.754645 354.39386 
L 601.746371 354.872332 
L 603.738097 355.829275 
L 605.729823 353.436917 
L 607.72155 355.829275 
L 609.713276 354.39386 
L 611.705002 355.829275 
L 613.696728 355.350804 
L 615.688455 355.350804 
L 617.680181 352.479974 
L 619.671907 354.39386 
L 621.663633 355.350804 
L 623.655359 354.39386 
L 625.647086 355.350804 
L 627.638812 354.872332 
L 629.630538 353.915389 
L 631.622264 352.001502 
L 633.61399 354.872332 
L 635.605717 354.872332 
L 637.597443 352.958445 
L 639.589169 356.307747 
L 641.580895 356.786219 
L 643.572621 354.39386 
L 645.564348 356.307747 
L 647.556074 357.26469 
L 649.5478 357.26469 
L 651.539526 355.829275 
L 653.531252 355.829275 
L 655.522979 356.786219 
L 657.514705 357.26469 
L 659.506431 356.786219 
L 661.498157 353.915389 
L 663.489884 356.307747 
L 665.48161 357.743162 
L 667.473336 357.26469 
L 669.465062 355.829275 
L 671.456788 357.743162 
L 673.448515 357.26469 
L 675.440241 353.436917 
L 677.431967 357.743162 
L 679.423693 356.786219 
L 679.423693 356.786219 
" clip-path="url(#pf6156f719c)" style="fill: none; stroke: #ffa500; stroke-width: 1.5; stroke-linecap: square"/>
   </g>
   <g id="patch_3">
    <path d="M 54.12125 390.04 
L 54.12125 26.88 
" style="fill: none; stroke: #000000; stroke-width: 0.8; stroke-linejoin: miter; stroke-linecap: square"/>
   </g>
   <g id="patch_4">
    <path d="M 709.2 390.04 
L 709.2 26.88 
" style="fill: none; stroke: #000000; stroke-width: 0.8; stroke-linejoin: miter; stroke-linecap: square"/>
   </g>
   <g id="patch_5">
    <path d="M 54.12125 390.04 
L 709.2 390.04 
" style="fill: none; stroke: #000000; stroke-width: 0.8; stroke-linejoin: miter; stroke-linecap: square"/>
   </g>
   <g id="patch_6">
    <path d="M 54.12125 26.88 
L 709.2 26.88 
" style="fill: none; stroke: #000000; stroke-width: 0.8; stroke-linejoin: miter; stroke-linecap: square"/>
   </g>
   <g id="text_18">
    <!-- Encoder_mse for Dropout_30_v2 -->
    <g transform="translate(284.141875 20.88) scale(0.12 -0.12)">
     <defs>
      <path id="DejaVuSans-20" transform="scale(0.015625)"/>
      <path id="DejaVuSans-66" d="M 2375 4863 
L 2375 4384 
L 1825 4384 
Q 1516 4384 1395 4259 
Q 1275 4134 1275 3809 
L 1275 3500 
L 2222 3500 
L 2222 3053 
L 1275 3053 
L 1275 0 
L 697 0 
L 697 3053 
L 147 3053 
L 147 3500 
L 697 3500 
L 697 3744 
Q 697 4328 969 4595 
Q 1241 4863 1831 4863 
L 2375 4863 
z
" transform="scale(0.015625)"/>
      <path id="DejaVuSans-44" d="M 1259 4147 
L 1259 519 
L 2022 519 
Q 2988 519 3436 956 
Q 3884 1394 3884 2338 
Q 3884 3275 3436 3711 
Q 2988 4147 2022 4147 
L 1259 4147 
z
M 628 4666 
L 1925 4666 
Q 3281 4666 3915 4102 
Q 4550 3538 4550 2338 
Q 4550 1131 3912 565 
Q 3275 0 1925 0 
L 628 0 
L 628 4666 
z
" transform="scale(0.015625)"/>
      <path id="DejaVuSans-75" d="M 544 1381 
L 544 3500 
L 1119 3500 
L 1119 1403 
Q 1119 906 1312 657 
Q 1506 409 1894 409 
Q 2359 409 2629 706 
Q 2900 1003 2900 1516 
L 2900 3500 
L 3475 3500 
L 3475 0 
L 2900 0 
L 2900 538 
Q 2691 219 2414 64 
Q 2138 -91 1772 -91 
Q 1169 -91 856 284 
Q 544 659 544 1381 
z
M 1991 3584 
L 1991 3584 
z
" transform="scale(0.015625)"/>
      <path id="DejaVuSans-74" d="M 1172 4494 
L 1172 3500 
L 2356 3500 
L 2356 3053 
L 1172 3053 
L 1172 1153 
Q 1172 725 1289 603 
Q 1406 481 1766 481 
L 2356 481 
L 2356 0 
L 1766 0 
Q 1100 0 847 248 
Q 594 497 594 1153 
L 594 3053 
L 172 3053 
L 172 3500 
L 594 3500 
L 594 4494 
L 1172 4494 
z
" transform="scale(0.015625)"/>
      <path id="DejaVuSans-76" d="M 191 3500 
L 800 3500 
L 1894 563 
L 2988 3500 
L 3597 3500 
L 2284 0 
L 1503 0 
L 191 3500 
z
" transform="scale(0.015625)"/>
     </defs>
     <use xlink:href="#DejaVuSans-45"/>
     <use xlink:href="#DejaVuSans-6e" x="63.183594"/>
     <use xlink:href="#DejaVuSans-63" x="126.5625"/>
     <use xlink:href="#DejaVuSans-6f" x="181.542969"/>
     <use xlink:href="#DejaVuSans-64" x="242.724609"/>
     <use xlink:href="#DejaVuSans-65" x="306.201172"/>
     <use xlink:href="#DejaVuSans-72" x="367.724609"/>
     <use xlink:href="#DejaVuSans-5f" x="408.837891"/>
     <use xlink:href="#DejaVuSans-6d" x="458.837891"/>
     <use xlink:href="#DejaVuSans-73" x="556.25"/>
     <use xlink:href="#DejaVuSans-65" x="608.349609"/>
     <use xlink:href="#DejaVuSans-20" x="669.873047"/>
     <use xlink:href="#DejaVuSans-66" x="701.660156"/>
     <use xlink:href="#DejaVuSans-6f" x="736.865234"/>
     <use xlink:href="#DejaVuSans-72" x="798.046875"/>
     <use xlink:href="#DejaVuSans-20" x="839.160156"/>
     <use xlink:href="#DejaVuSans-44" x="870.947266"/>
     <use xlink:href="#DejaVuSans-72" x="947.949219"/>
     <use xlink:href="#DejaVuSans-6f" x="986.8125"/>
     <use xlink:href="#DejaVuSans-70" x="1047.994141"/>
     <use xlink:href="#DejaVuSans-6f" x="1111.470703"/>
     <use xlink:href="#DejaVuSans-75" x="1172.652344"/>
     <use xlink:href="#DejaVuSans-74" x="1236.03125"/>
     <use xlink:href="#DejaVuSans-5f" x="1275.240234"/>
     <use xlink:href="#DejaVuSans-33" x="1325.240234"/>
     <use xlink:href="#DejaVuSans-30" x="1388.863281"/>
     <use xlink:href="#DejaVuSans-5f" x="1452.486328"/>
     <use xlink:href="#DejaVuSans-76" x="1502.486328"/>
     <use xlink:href="#DejaVuSans-32" x="1561.666016"/>
    </g>
   </g>
   <g id="legend_1">
    <g id="patch_7">
     <path d="M 620.81875 64.23625 
L 702.2 64.23625 
Q 704.2 64.23625 704.2 62.23625 
L 704.2 33.88 
Q 704.2 31.88 702.2 31.88 
L 620.81875 31.88 
Q 618.81875 31.88 618.81875 33.88 
L 618.81875 62.23625 
Q 618.81875 64.23625 620.81875 64.23625 
z
" style="fill: #ffffff; opacity: 0.8; stroke: #cccccc; stroke-linejoin: miter"/>
    </g>
    <g id="line2d_33">
     <path d="M 622.81875 39.978437 
L 632.81875 39.978437 
L 642.81875 39.978437 
" style="fill: none; stroke: #0000ff; stroke-width: 1.5; stroke-linecap: square"/>
    </g>
    <g id="text_19">
     <!-- Train -->
     <g transform="translate(650.81875 43.478437) scale(0.1 -0.1)">
      <defs>
       <path id="DejaVuSans-54" d="M -19 4666 
L 3928 4666 
L 3928 4134 
L 2272 4134 
L 2272 0 
L 1638 0 
L 1638 4134 
L -19 4134 
L -19 4666 
z
" transform="scale(0.015625)"/>
       <path id="DejaVuSans-61" d="M 2194 1759 
Q 1497 1759 1228 1600 
Q 959 1441 959 1056 
Q 959 750 1161 570 
Q 1363 391 1709 391 
Q 2188 391 2477 730 
Q 2766 1069 2766 1631 
L 2766 1759 
L 2194 1759 
z
M 3341 1997 
L 3341 0 
L 2766 0 
L 2766 531 
Q 2569 213 2275 61 
Q 1981 -91 1556 -91 
Q 1019 -91 701 211 
Q 384 513 384 1019 
Q 384 1609 779 1909 
Q 1175 2209 1959 2209 
L 2766 2209 
L 2766 2266 
Q 2766 2663 2505 2880 
Q 2244 3097 1772 3097 
Q 1472 3097 1187 3025 
Q 903 2953 641 2809 
L 641 3341 
Q 956 3463 1253 3523 
Q 1550 3584 1831 3584 
Q 2591 3584 2966 3190 
Q 3341 2797 3341 1997 
z
" transform="scale(0.015625)"/>
       <path id="DejaVuSans-69" d="M 603 3500 
L 1178 3500 
L 1178 0 
L 603 0 
L 603 3500 
z
M 603 4863 
L 1178 4863 
L 1178 4134 
L 603 4134 
L 603 4863 
z
" transform="scale(0.015625)"/>
      </defs>
      <use xlink:href="#DejaVuSans-54"/>
      <use xlink:href="#DejaVuSans-72" x="46.333984"/>
      <use xlink:href="#DejaVuSans-61" x="87.447266"/>
      <use xlink:href="#DejaVuSans-69" x="148.726562"/>
      <use xlink:href="#DejaVuSans-6e" x="176.509766"/>
     </g>
    </g>
    <g id="line2d_34">
     <path d="M 622.81875 54.656563 
L 632.81875 54.656563 
L 642.81875 54.656563 
" style="fill: none; stroke: #ffa500; stroke-width: 1.5; stroke-linecap: square"/>
    </g>
    <g id="text_20">
     <!-- Validation -->
     <g transform="translate(650.81875 58.156563) scale(0.1 -0.1)">
      <defs>
       <path id="DejaVuSans-56" d="M 1831 0 
L 50 4666 
L 709 4666 
L 2188 738 
L 3669 4666 
L 4325 4666 
L 2547 0 
L 1831 0 
z
" transform="scale(0.015625)"/>
       <path id="DejaVuSans-6c" d="M 603 4863 
L 1178 4863 
L 1178 0 
L 603 0 
L 603 4863 
z
" transform="scale(0.015625)"/>
      </defs>
      <use xlink:href="#DejaVuSans-56"/>
      <use xlink:href="#DejaVuSans-61" x="60.658203"/>
      <use xlink:href="#DejaVuSans-6c" x="121.9375"/>
      <use xlink:href="#DejaVuSans-69" x="149.720703"/>
      <use xlink:href="#DejaVuSans-64" x="177.503906"/>
      <use xlink:href="#DejaVuSans-61" x="240.980469"/>
      <use xlink:href="#DejaVuSans-74" x="302.259766"/>
      <use xlink:href="#DejaVuSans-69" x="341.46875"/>
      <use xlink:href="#DejaVuSans-6f" x="369.251953"/>
      <use xlink:href="#DejaVuSans-6e" x="430.433594"/>
     </g>
    </g>
   </g>
  </g>
 </g>
 <defs>
  <clipPath id="pf6156f719c">
   <rect x="54.12125" y="26.88" width="655.07875" height="363.16"/>
  </clipPath>
 </defs>
</svg>
