<?xml version="1.0" encoding="utf-8" standalone="no"?>
<!DOCTYPE svg PUBLIC "-//W3C//DTD SVG 1.1//EN"
  "http://www.w3.org/Graphics/SVG/1.1/DTD/svg11.dtd">
<svg xmlns:xlink="http://www.w3.org/1999/xlink" width="720pt" height="432pt" viewBox="0 0 720 432" xmlns="http://www.w3.org/2000/svg" version="1.1">
 <metadata>
  <rdf:RDF xmlns:dc="http://purl.org/dc/elements/1.1/" xmlns:cc="http://creativecommons.org/ns#" xmlns:rdf="http://www.w3.org/1999/02/22-rdf-syntax-ns#">
   <cc:Work>
    <dc:type rdf:resource="http://purl.org/dc/dcmitype/StillImage"/>
    <dc:date>2025-05-10T19:48:13.606230</dc:date>
    <dc:format>image/svg+xml</dc:format>
    <dc:creator>
     <cc:Agent>
      <dc:title>Matplotlib v3.8.0, https://matplotlib.org/</dc:title>
     </cc:Agent>
    </dc:creator>
   </cc:Work>
  </rdf:RDF>
 </metadata>
 <defs>
  <style type="text/css">*{stroke-linejoin: round; stroke-linecap: butt}</style>
 </defs>
 <g id="figure_1">
  <g id="patch_1">
   <path d="M 0 432 
L 720 432 
L 720 0 
L 0 0 
z
" style="fill: #ffffff"/>
  </g>
  <g id="axes_1">
   <g id="patch_2">
    <path d="M 54.02 390.04 
L 709.2 390.04 
L 709.2 26.88 
L 54.02 26.88 
z
" style="fill: #ffffff"/>
   </g>
   <g id="matplotlib.axis_1">
    <g id="xtick_1">
     <g id="line2d_1">
      <path d="M 80.807853 390.04 
L 80.807853 26.88 
" clip-path="url(#pdb40fcc385)" style="fill: none; stroke: #b0b0b0; stroke-width: 0.8; stroke-linecap: square"/>
     </g>
     <g id="line2d_2">
      <defs>
       <path id="mc64ef385f0" d="M 0 0 
L 0 3.5 
" style="stroke: #000000; stroke-width: 0.8"/>
      </defs>
      <g>
       <use xlink:href="#mc64ef385f0" x="80.807853" y="390.04" style="stroke: #000000; stroke-width: 0.8"/>
      </g>
     </g>
     <g id="text_1">
      <!-- 0 -->
      <g transform="translate(77.626603 404.638438) scale(0.1 -0.1)">
       <defs>
        <path id="DejaVuSans-30" d="M 2034 4250 
Q 1547 4250 1301 3770 
Q 1056 3291 1056 2328 
Q 1056 1369 1301 889 
Q 1547 409 2034 409 
Q 2525 409 2770 889 
Q 3016 1369 3016 2328 
Q 3016 3291 2770 3770 
Q 2525 4250 2034 4250 
z
M 2034 4750 
Q 2819 4750 3233 4129 
Q 3647 3509 3647 2328 
Q 3647 1150 3233 529 
Q 2819 -91 2034 -91 
Q 1250 -91 836 529 
Q 422 1150 422 2328 
Q 422 3509 836 4129 
Q 1250 4750 2034 4750 
z
" transform="scale(0.015625)"/>
       </defs>
       <use xlink:href="#DejaVuSans-30"/>
      </g>
     </g>
    </g>
    <g id="xtick_2">
     <g id="line2d_3">
      <path d="M 155.634258 390.04 
L 155.634258 26.88 
" clip-path="url(#pdb40fcc385)" style="fill: none; stroke: #b0b0b0; stroke-width: 0.8; stroke-linecap: square"/>
     </g>
     <g id="line2d_4">
      <g>
       <use xlink:href="#mc64ef385f0" x="155.634258" y="390.04" style="stroke: #000000; stroke-width: 0.8"/>
      </g>
     </g>
     <g id="text_2">
      <!-- 25 -->
      <g transform="translate(149.271758 404.638438) scale(0.1 -0.1)">
       <defs>
        <path id="DejaVuSans-32" d="M 1228 531 
L 3431 531 
L 3431 0 
L 469 0 
L 469 531 
Q 828 903 1448 1529 
Q 2069 2156 2228 2338 
Q 2531 2678 2651 2914 
Q 2772 3150 2772 3378 
Q 2772 3750 2511 3984 
Q 2250 4219 1831 4219 
Q 1534 4219 1204 4116 
Q 875 4013 500 3803 
L 500 4441 
Q 881 4594 1212 4672 
Q 1544 4750 1819 4750 
Q 2544 4750 2975 4387 
Q 3406 4025 3406 3419 
Q 3406 3131 3298 2873 
Q 3191 2616 2906 2266 
Q 2828 2175 2409 1742 
Q 1991 1309 1228 531 
z
" transform="scale(0.015625)"/>
        <path id="DejaVuSans-35" d="M 691 4666 
L 3169 4666 
L 3169 4134 
L 1269 4134 
L 1269 2991 
Q 1406 3038 1543 3061 
Q 1681 3084 1819 3084 
Q 2600 3084 3056 2656 
Q 3513 2228 3513 1497 
Q 3513 744 3044 326 
Q 2575 -91 1722 -91 
Q 1428 -91 1123 -41 
Q 819 9 494 109 
L 494 744 
Q 775 591 1075 516 
Q 1375 441 1709 441 
Q 2250 441 2565 725 
Q 2881 1009 2881 1497 
Q 2881 1984 2565 2268 
Q 2250 2553 1709 2553 
Q 1456 2553 1204 2497 
Q 953 2441 691 2322 
L 691 4666 
z
" transform="scale(0.015625)"/>
       </defs>
       <use xlink:href="#DejaVuSans-32"/>
       <use xlink:href="#DejaVuSans-35" x="63.623047"/>
      </g>
     </g>
    </g>
    <g id="xtick_3">
     <g id="line2d_5">
      <path d="M 230.460662 390.04 
L 230.460662 26.88 
" clip-path="url(#pdb40fcc385)" style="fill: none; stroke: #b0b0b0; stroke-width: 0.8; stroke-linecap: square"/>
     </g>
     <g id="line2d_6">
      <g>
       <use xlink:href="#mc64ef385f0" x="230.460662" y="390.04" style="stroke: #000000; stroke-width: 0.8"/>
      </g>
     </g>
     <g id="text_3">
      <!-- 50 -->
      <g transform="translate(224.098162 404.638438) scale(0.1 -0.1)">
       <use xlink:href="#DejaVuSans-35"/>
       <use xlink:href="#DejaVuSans-30" x="63.623047"/>
      </g>
     </g>
    </g>
    <g id="xtick_4">
     <g id="line2d_7">
      <path d="M 305.287067 390.04 
L 305.287067 26.88 
" clip-path="url(#pdb40fcc385)" style="fill: none; stroke: #b0b0b0; stroke-width: 0.8; stroke-linecap: square"/>
     </g>
     <g id="line2d_8">
      <g>
       <use xlink:href="#mc64ef385f0" x="305.287067" y="390.04" style="stroke: #000000; stroke-width: 0.8"/>
      </g>
     </g>
     <g id="text_4">
      <!-- 75 -->
      <g transform="translate(298.924567 404.638438) scale(0.1 -0.1)">
       <defs>
        <path id="DejaVuSans-37" d="M 525 4666 
L 3525 4666 
L 3525 4397 
L 1831 0 
L 1172 0 
L 2766 4134 
L 525 4134 
L 525 4666 
z
" transform="scale(0.015625)"/>
       </defs>
       <use xlink:href="#DejaVuSans-37"/>
       <use xlink:href="#DejaVuSans-35" x="63.623047"/>
      </g>
     </g>
    </g>
    <g id="xtick_5">
     <g id="line2d_9">
      <path d="M 380.113472 390.04 
L 380.113472 26.88 
" clip-path="url(#pdb40fcc385)" style="fill: none; stroke: #b0b0b0; stroke-width: 0.8; stroke-linecap: square"/>
     </g>
     <g id="line2d_10">
      <g>
       <use xlink:href="#mc64ef385f0" x="380.113472" y="390.04" style="stroke: #000000; stroke-width: 0.8"/>
      </g>
     </g>
     <g id="text_5">
      <!-- 100 -->
      <g transform="translate(370.569722 404.638438) scale(0.1 -0.1)">
       <defs>
        <path id="DejaVuSans-31" d="M 794 531 
L 1825 531 
L 1825 4091 
L 703 3866 
L 703 4441 
L 1819 4666 
L 2450 4666 
L 2450 531 
L 3481 531 
L 3481 0 
L 794 0 
L 794 531 
z
" transform="scale(0.015625)"/>
       </defs>
       <use xlink:href="#DejaVuSans-31"/>
       <use xlink:href="#DejaVuSans-30" x="63.623047"/>
       <use xlink:href="#DejaVuSans-30" x="127.246094"/>
      </g>
     </g>
    </g>
    <g id="xtick_6">
     <g id="line2d_11">
      <path d="M 454.939877 390.04 
L 454.939877 26.88 
" clip-path="url(#pdb40fcc385)" style="fill: none; stroke: #b0b0b0; stroke-width: 0.8; stroke-linecap: square"/>
     </g>
     <g id="line2d_12">
      <g>
       <use xlink:href="#mc64ef385f0" x="454.939877" y="390.04" style="stroke: #000000; stroke-width: 0.8"/>
      </g>
     </g>
     <g id="text_6">
      <!-- 125 -->
      <g transform="translate(445.396127 404.638438) scale(0.1 -0.1)">
       <use xlink:href="#DejaVuSans-31"/>
       <use xlink:href="#DejaVuSans-32" x="63.623047"/>
       <use xlink:href="#DejaVuSans-35" x="127.246094"/>
      </g>
     </g>
    </g>
    <g id="xtick_7">
     <g id="line2d_13">
      <path d="M 529.766281 390.04 
L 529.766281 26.88 
" clip-path="url(#pdb40fcc385)" style="fill: none; stroke: #b0b0b0; stroke-width: 0.8; stroke-linecap: square"/>
     </g>
     <g id="line2d_14">
      <g>
       <use xlink:href="#mc64ef385f0" x="529.766281" y="390.04" style="stroke: #000000; stroke-width: 0.8"/>
      </g>
     </g>
     <g id="text_7">
      <!-- 150 -->
      <g transform="translate(520.222531 404.638438) scale(0.1 -0.1)">
       <use xlink:href="#DejaVuSans-31"/>
       <use xlink:href="#DejaVuSans-35" x="63.623047"/>
       <use xlink:href="#DejaVuSans-30" x="127.246094"/>
      </g>
     </g>
    </g>
    <g id="xtick_8">
     <g id="line2d_15">
      <path d="M 604.592686 390.04 
L 604.592686 26.88 
" clip-path="url(#pdb40fcc385)" style="fill: none; stroke: #b0b0b0; stroke-width: 0.8; stroke-linecap: square"/>
     </g>
     <g id="line2d_16">
      <g>
       <use xlink:href="#mc64ef385f0" x="604.592686" y="390.04" style="stroke: #000000; stroke-width: 0.8"/>
      </g>
     </g>
     <g id="text_8">
      <!-- 175 -->
      <g transform="translate(595.048936 404.638438) scale(0.1 -0.1)">
       <use xlink:href="#DejaVuSans-31"/>
       <use xlink:href="#DejaVuSans-37" x="63.623047"/>
       <use xlink:href="#DejaVuSans-35" x="127.246094"/>
      </g>
     </g>
    </g>
    <g id="xtick_9">
     <g id="line2d_17">
      <path d="M 679.419091 390.04 
L 679.419091 26.88 
" clip-path="url(#pdb40fcc385)" style="fill: none; stroke: #b0b0b0; stroke-width: 0.8; stroke-linecap: square"/>
     </g>
     <g id="line2d_18">
      <g>
       <use xlink:href="#mc64ef385f0" x="679.419091" y="390.04" style="stroke: #000000; stroke-width: 0.8"/>
      </g>
     </g>
     <g id="text_9">
      <!-- 200 -->
      <g transform="translate(669.875341 404.638438) scale(0.1 -0.1)">
       <use xlink:href="#DejaVuSans-32"/>
       <use xlink:href="#DejaVuSans-30" x="63.623047"/>
       <use xlink:href="#DejaVuSans-30" x="127.246094"/>
      </g>
     </g>
    </g>
    <g id="text_10">
     <!-- Epoch -->
     <g transform="translate(366.299062 418.316562) scale(0.1 -0.1)">
      <defs>
       <path id="DejaVuSans-45" d="M 628 4666 
L 3578 4666 
L 3578 4134 
L 1259 4134 
L 1259 2753 
L 3481 2753 
L 3481 2222 
L 1259 2222 
L 1259 531 
L 3634 531 
L 3634 0 
L 628 0 
L 628 4666 
z
" transform="scale(0.015625)"/>
       <path id="DejaVuSans-70" d="M 1159 525 
L 1159 -1331 
L 581 -1331 
L 581 3500 
L 1159 3500 
L 1159 2969 
Q 1341 3281 1617 3432 
Q 1894 3584 2278 3584 
Q 2916 3584 3314 3078 
Q 3713 2572 3713 1747 
Q 3713 922 3314 415 
Q 2916 -91 2278 -91 
Q 1894 -91 1617 61 
Q 1341 213 1159 525 
z
M 3116 1747 
Q 3116 2381 2855 2742 
Q 2594 3103 2138 3103 
Q 1681 3103 1420 2742 
Q 1159 2381 1159 1747 
Q 1159 1113 1420 752 
Q 1681 391 2138 391 
Q 2594 391 2855 752 
Q 3116 1113 3116 1747 
z
" transform="scale(0.015625)"/>
       <path id="DejaVuSans-6f" d="M 1959 3097 
Q 1497 3097 1228 2736 
Q 959 2375 959 1747 
Q 959 1119 1226 758 
Q 1494 397 1959 397 
Q 2419 397 2687 759 
Q 2956 1122 2956 1747 
Q 2956 2369 2687 2733 
Q 2419 3097 1959 3097 
z
M 1959 3584 
Q 2709 3584 3137 3096 
Q 3566 2609 3566 1747 
Q 3566 888 3137 398 
Q 2709 -91 1959 -91 
Q 1206 -91 779 398 
Q 353 888 353 1747 
Q 353 2609 779 3096 
Q 1206 3584 1959 3584 
z
" transform="scale(0.015625)"/>
       <path id="DejaVuSans-63" d="M 3122 3366 
L 3122 2828 
Q 2878 2963 2633 3030 
Q 2388 3097 2138 3097 
Q 1578 3097 1268 2742 
Q 959 2388 959 1747 
Q 959 1106 1268 751 
Q 1578 397 2138 397 
Q 2388 397 2633 464 
Q 2878 531 3122 666 
L 3122 134 
Q 2881 22 2623 -34 
Q 2366 -91 2075 -91 
Q 1284 -91 818 406 
Q 353 903 353 1747 
Q 353 2603 823 3093 
Q 1294 3584 2113 3584 
Q 2378 3584 2631 3529 
Q 2884 3475 3122 3366 
z
" transform="scale(0.015625)"/>
       <path id="DejaVuSans-68" d="M 3513 2113 
L 3513 0 
L 2938 0 
L 2938 2094 
Q 2938 2591 2744 2837 
Q 2550 3084 2163 3084 
Q 1697 3084 1428 2787 
Q 1159 2491 1159 1978 
L 1159 0 
L 581 0 
L 581 4863 
L 1159 4863 
L 1159 2956 
Q 1366 3272 1645 3428 
Q 1925 3584 2291 3584 
Q 2894 3584 3203 3211 
Q 3513 2838 3513 2113 
z
" transform="scale(0.015625)"/>
      </defs>
      <use xlink:href="#DejaVuSans-45"/>
      <use xlink:href="#DejaVuSans-70" x="63.183594"/>
      <use xlink:href="#DejaVuSans-6f" x="126.660156"/>
      <use xlink:href="#DejaVuSans-63" x="187.841797"/>
      <use xlink:href="#DejaVuSans-68" x="242.822266"/>
     </g>
    </g>
   </g>
   <g id="matplotlib.axis_2">
    <g id="ytick_1">
     <g id="line2d_19">
      <path d="M 54.02 367.674324 
L 709.2 367.674324 
" clip-path="url(#pdb40fcc385)" style="fill: none; stroke: #b0b0b0; stroke-width: 0.8; stroke-linecap: square"/>
     </g>
     <g id="line2d_20">
      <defs>
       <path id="m1d4c9daa65" d="M 0 0 
L -3.5 0 
" style="stroke: #000000; stroke-width: 0.8"/>
      </defs>
      <g>
       <use xlink:href="#m1d4c9daa65" x="54.02" y="367.674324" style="stroke: #000000; stroke-width: 0.8"/>
      </g>
     </g>
     <g id="text_11">
      <!-- 0.15 -->
      <g transform="translate(24.754375 371.473542) scale(0.1 -0.1)">
       <defs>
        <path id="DejaVuSans-2e" d="M 684 794 
L 1344 794 
L 1344 0 
L 684 0 
L 684 794 
z
" transform="scale(0.015625)"/>
       </defs>
       <use xlink:href="#DejaVuSans-30"/>
       <use xlink:href="#DejaVuSans-2e" x="63.623047"/>
       <use xlink:href="#DejaVuSans-31" x="95.410156"/>
       <use xlink:href="#DejaVuSans-35" x="159.033203"/>
      </g>
     </g>
    </g>
    <g id="ytick_2">
     <g id="line2d_21">
      <path d="M 54.02 306.649286 
L 709.2 306.649286 
" clip-path="url(#pdb40fcc385)" style="fill: none; stroke: #b0b0b0; stroke-width: 0.8; stroke-linecap: square"/>
     </g>
     <g id="line2d_22">
      <g>
       <use xlink:href="#m1d4c9daa65" x="54.02" y="306.649286" style="stroke: #000000; stroke-width: 0.8"/>
      </g>
     </g>
     <g id="text_12">
      <!-- 0.20 -->
      <g transform="translate(24.754375 310.448505) scale(0.1 -0.1)">
       <use xlink:href="#DejaVuSans-30"/>
       <use xlink:href="#DejaVuSans-2e" x="63.623047"/>
       <use xlink:href="#DejaVuSans-32" x="95.410156"/>
       <use xlink:href="#DejaVuSans-30" x="159.033203"/>
      </g>
     </g>
    </g>
    <g id="ytick_3">
     <g id="line2d_23">
      <path d="M 54.02 245.624248 
L 709.2 245.624248 
" clip-path="url(#pdb40fcc385)" style="fill: none; stroke: #b0b0b0; stroke-width: 0.8; stroke-linecap: square"/>
     </g>
     <g id="line2d_24">
      <g>
       <use xlink:href="#m1d4c9daa65" x="54.02" y="245.624248" style="stroke: #000000; stroke-width: 0.8"/>
      </g>
     </g>
     <g id="text_13">
      <!-- 0.25 -->
      <g transform="translate(24.754375 249.423467) scale(0.1 -0.1)">
       <use xlink:href="#DejaVuSans-30"/>
       <use xlink:href="#DejaVuSans-2e" x="63.623047"/>
       <use xlink:href="#DejaVuSans-32" x="95.410156"/>
       <use xlink:href="#DejaVuSans-35" x="159.033203"/>
      </g>
     </g>
    </g>
    <g id="ytick_4">
     <g id="line2d_25">
      <path d="M 54.02 184.59921 
L 709.2 184.59921 
" clip-path="url(#pdb40fcc385)" style="fill: none; stroke: #b0b0b0; stroke-width: 0.8; stroke-linecap: square"/>
     </g>
     <g id="line2d_26">
      <g>
       <use xlink:href="#m1d4c9daa65" x="54.02" y="184.59921" style="stroke: #000000; stroke-width: 0.8"/>
      </g>
     </g>
     <g id="text_14">
      <!-- 0.30 -->
      <g transform="translate(24.754375 188.398429) scale(0.1 -0.1)">
       <defs>
        <path id="DejaVuSans-33" d="M 2597 2516 
Q 3050 2419 3304 2112 
Q 3559 1806 3559 1356 
Q 3559 666 3084 287 
Q 2609 -91 1734 -91 
Q 1441 -91 1130 -33 
Q 819 25 488 141 
L 488 750 
Q 750 597 1062 519 
Q 1375 441 1716 441 
Q 2309 441 2620 675 
Q 2931 909 2931 1356 
Q 2931 1769 2642 2001 
Q 2353 2234 1838 2234 
L 1294 2234 
L 1294 2753 
L 1863 2753 
Q 2328 2753 2575 2939 
Q 2822 3125 2822 3475 
Q 2822 3834 2567 4026 
Q 2313 4219 1838 4219 
Q 1578 4219 1281 4162 
Q 984 4106 628 3988 
L 628 4550 
Q 988 4650 1302 4700 
Q 1616 4750 1894 4750 
Q 2613 4750 3031 4423 
Q 3450 4097 3450 3541 
Q 3450 3153 3228 2886 
Q 3006 2619 2597 2516 
z
" transform="scale(0.015625)"/>
       </defs>
       <use xlink:href="#DejaVuSans-30"/>
       <use xlink:href="#DejaVuSans-2e" x="63.623047"/>
       <use xlink:href="#DejaVuSans-33" x="95.410156"/>
       <use xlink:href="#DejaVuSans-30" x="159.033203"/>
      </g>
     </g>
    </g>
    <g id="ytick_5">
     <g id="line2d_27">
      <path d="M 54.02 123.574172 
L 709.2 123.574172 
" clip-path="url(#pdb40fcc385)" style="fill: none; stroke: #b0b0b0; stroke-width: 0.8; stroke-linecap: square"/>
     </g>
     <g id="line2d_28">
      <g>
       <use xlink:href="#m1d4c9daa65" x="54.02" y="123.574172" style="stroke: #000000; stroke-width: 0.8"/>
      </g>
     </g>
     <g id="text_15">
      <!-- 0.35 -->
      <g transform="translate(24.754375 127.373391) scale(0.1 -0.1)">
       <use xlink:href="#DejaVuSans-30"/>
       <use xlink:href="#DejaVuSans-2e" x="63.623047"/>
       <use xlink:href="#DejaVuSans-33" x="95.410156"/>
       <use xlink:href="#DejaVuSans-35" x="159.033203"/>
      </g>
     </g>
    </g>
    <g id="ytick_6">
     <g id="line2d_29">
      <path d="M 54.02 62.549135 
L 709.2 62.549135 
" clip-path="url(#pdb40fcc385)" style="fill: none; stroke: #b0b0b0; stroke-width: 0.8; stroke-linecap: square"/>
     </g>
     <g id="line2d_30">
      <g>
       <use xlink:href="#m1d4c9daa65" x="54.02" y="62.549135" style="stroke: #000000; stroke-width: 0.8"/>
      </g>
     </g>
     <g id="text_16">
      <!-- 0.40 -->
      <g transform="translate(24.754375 66.348353) scale(0.1 -0.1)">
       <defs>
        <path id="DejaVuSans-34" d="M 2419 4116 
L 825 1625 
L 2419 1625 
L 2419 4116 
z
M 2253 4666 
L 3047 4666 
L 3047 1625 
L 3713 1625 
L 3713 1100 
L 3047 1100 
L 3047 0 
L 2419 0 
L 2419 1100 
L 313 1100 
L 313 1709 
L 2253 4666 
z
" transform="scale(0.015625)"/>
       </defs>
       <use xlink:href="#DejaVuSans-30"/>
       <use xlink:href="#DejaVuSans-2e" x="63.623047"/>
       <use xlink:href="#DejaVuSans-34" x="95.410156"/>
       <use xlink:href="#DejaVuSans-30" x="159.033203"/>
      </g>
     </g>
    </g>
    <g id="text_17">
     <!-- Bitwise-error -->
     <g transform="translate(18.674688 240.305312) rotate(-90) scale(0.1 -0.1)">
      <defs>
       <path id="DejaVuSans-42" d="M 1259 2228 
L 1259 519 
L 2272 519 
Q 2781 519 3026 730 
Q 3272 941 3272 1375 
Q 3272 1813 3026 2020 
Q 2781 2228 2272 2228 
L 1259 2228 
z
M 1259 4147 
L 1259 2741 
L 2194 2741 
Q 2656 2741 2882 2914 
Q 3109 3088 3109 3444 
Q 3109 3797 2882 3972 
Q 2656 4147 2194 4147 
L 1259 4147 
z
M 628 4666 
L 2241 4666 
Q 2963 4666 3353 4366 
Q 3744 4066 3744 3513 
Q 3744 3084 3544 2831 
Q 3344 2578 2956 2516 
Q 3422 2416 3680 2098 
Q 3938 1781 3938 1306 
Q 3938 681 3513 340 
Q 3088 0 2303 0 
L 628 0 
L 628 4666 
z
" transform="scale(0.015625)"/>
       <path id="DejaVuSans-69" d="M 603 3500 
L 1178 3500 
L 1178 0 
L 603 0 
L 603 3500 
z
M 603 4863 
L 1178 4863 
L 1178 4134 
L 603 4134 
L 603 4863 
z
" transform="scale(0.015625)"/>
       <path id="DejaVuSans-74" d="M 1172 4494 
L 1172 3500 
L 2356 3500 
L 2356 3053 
L 1172 3053 
L 1172 1153 
Q 1172 725 1289 603 
Q 1406 481 1766 481 
L 2356 481 
L 2356 0 
L 1766 0 
Q 1100 0 847 248 
Q 594 497 594 1153 
L 594 3053 
L 172 3053 
L 172 3500 
L 594 3500 
L 594 4494 
L 1172 4494 
z
" transform="scale(0.015625)"/>
       <path id="DejaVuSans-77" d="M 269 3500 
L 844 3500 
L 1563 769 
L 2278 3500 
L 2956 3500 
L 3675 769 
L 4391 3500 
L 4966 3500 
L 4050 0 
L 3372 0 
L 2619 2869 
L 1863 0 
L 1184 0 
L 269 3500 
z
" transform="scale(0.015625)"/>
       <path id="DejaVuSans-73" d="M 2834 3397 
L 2834 2853 
Q 2591 2978 2328 3040 
Q 2066 3103 1784 3103 
Q 1356 3103 1142 2972 
Q 928 2841 928 2578 
Q 928 2378 1081 2264 
Q 1234 2150 1697 2047 
L 1894 2003 
Q 2506 1872 2764 1633 
Q 3022 1394 3022 966 
Q 3022 478 2636 193 
Q 2250 -91 1575 -91 
Q 1294 -91 989 -36 
Q 684 19 347 128 
L 347 722 
Q 666 556 975 473 
Q 1284 391 1588 391 
Q 1994 391 2212 530 
Q 2431 669 2431 922 
Q 2431 1156 2273 1281 
Q 2116 1406 1581 1522 
L 1381 1569 
Q 847 1681 609 1914 
Q 372 2147 372 2553 
Q 372 3047 722 3315 
Q 1072 3584 1716 3584 
Q 2034 3584 2315 3537 
Q 2597 3491 2834 3397 
z
" transform="scale(0.015625)"/>
       <path id="DejaVuSans-65" d="M 3597 1894 
L 3597 1613 
L 953 1613 
Q 991 1019 1311 708 
Q 1631 397 2203 397 
Q 2534 397 2845 478 
Q 3156 559 3463 722 
L 3463 178 
Q 3153 47 2828 -22 
Q 2503 -91 2169 -91 
Q 1331 -91 842 396 
Q 353 884 353 1716 
Q 353 2575 817 3079 
Q 1281 3584 2069 3584 
Q 2775 3584 3186 3129 
Q 3597 2675 3597 1894 
z
M 3022 2063 
Q 3016 2534 2758 2815 
Q 2500 3097 2075 3097 
Q 1594 3097 1305 2825 
Q 1016 2553 972 2059 
L 3022 2063 
z
" transform="scale(0.015625)"/>
       <path id="DejaVuSans-2d" d="M 313 2009 
L 1997 2009 
L 1997 1497 
L 313 1497 
L 313 2009 
z
" transform="scale(0.015625)"/>
       <path id="DejaVuSans-72" d="M 2631 2963 
Q 2534 3019 2420 3045 
Q 2306 3072 2169 3072 
Q 1681 3072 1420 2755 
Q 1159 2438 1159 1844 
L 1159 0 
L 581 0 
L 581 3500 
L 1159 3500 
L 1159 2956 
Q 1341 3275 1631 3429 
Q 1922 3584 2338 3584 
Q 2397 3584 2469 3576 
Q 2541 3569 2628 3553 
L 2631 2963 
z
" transform="scale(0.015625)"/>
      </defs>
      <use xlink:href="#DejaVuSans-42"/>
      <use xlink:href="#DejaVuSans-69" x="68.603516"/>
      <use xlink:href="#DejaVuSans-74" x="96.386719"/>
      <use xlink:href="#DejaVuSans-77" x="135.595703"/>
      <use xlink:href="#DejaVuSans-69" x="217.382812"/>
      <use xlink:href="#DejaVuSans-73" x="245.166016"/>
      <use xlink:href="#DejaVuSans-65" x="297.265625"/>
      <use xlink:href="#DejaVuSans-2d" x="358.789062"/>
      <use xlink:href="#DejaVuSans-65" x="394.873047"/>
      <use xlink:href="#DejaVuSans-72" x="456.396484"/>
      <use xlink:href="#DejaVuSans-72" x="495.759766"/>
      <use xlink:href="#DejaVuSans-6f" x="534.623047"/>
      <use xlink:href="#DejaVuSans-72" x="595.804688"/>
     </g>
    </g>
   </g>
   <g id="line2d_31">
    <path d="M 83.800909 43.387273 
L 86.793965 80.490496 
L 89.787021 87.3253 
L 92.780078 92.695503 
L 95.773134 96.234955 
L 98.76619 97.455456 
L 104.752302 106.365112 
L 107.745359 111.613265 
L 110.738415 112.833766 
L 113.731471 113.932216 
L 116.724527 116.129118 
L 122.71064 129.310526 
L 125.703696 133.948429 
L 128.696752 142.491934 
L 131.689808 149.326738 
L 134.682864 153.842591 
L 137.675921 154.696942 
L 140.668977 157.259993 
L 143.662033 169.342951 
L 146.655089 173.980854 
L 149.648145 182.524359 
L 152.641201 190.335564 
L 155.634258 193.508866 
L 158.627314 195.705767 
L 161.62037 200.83187 
L 164.613426 209.009225 
L 167.606482 216.82043 
L 170.599539 218.773231 
L 173.592595 125.404924 
L 176.585651 119.79062 
L 179.578707 123.085972 
L 182.571763 125.771074 
L 185.56482 124.306473 
L 188.557876 126.747474 
L 191.550932 129.432576 
L 194.543988 133.460229 
L 197.537044 136.38943 
L 200.530101 137.609931 
L 203.523157 140.905283 
L 206.516213 143.590385 
L 212.502325 147.618037 
L 215.495381 149.448788 
L 218.488438 155.185142 
L 221.481494 153.110291 
L 224.47455 160.921496 
L 227.467606 156.527693 
L 230.460662 162.630197 
L 233.453719 200.34367 
L 236.446775 228.049037 
L 239.439831 238.911494 
L 242.432887 246.966799 
L 248.419 252.581102 
L 251.412056 261.612808 
L 254.405112 268.935812 
L 257.398168 273.817815 
L 260.391224 277.967518 
L 263.38428 277.967518 
L 266.377337 279.065969 
L 269.370393 279.798269 
L 272.363449 284.070022 
L 275.356505 283.337721 
L 278.349561 285.290523 
L 281.342618 285.778723 
L 284.335674 288.707925 
L 287.32873 285.168473 
L 290.321786 287.121274 
L 293.314842 285.290523 
L 299.300955 289.806375 
L 302.294011 290.416626 
L 308.280123 298.838081 
L 314.266236 304.574435 
L 317.259292 307.869787 
L 320.252348 312.507689 
L 323.245404 314.216391 
L 326.23846 315.558941 
L 332.224573 320.074794 
L 335.217629 321.295295 
L 338.210685 319.342494 
L 341.203741 322.881946 
L 344.196798 322.637846 
L 347.189854 324.956797 
L 350.18291 329.96085 
L 353.175966 333.744403 
L 356.169022 335.209004 
L 359.162079 335.819254 
L 362.155135 337.405905 
L 365.148191 339.968956 
L 368.141247 346.19351 
L 371.134303 347.169911 
L 374.12736 347.291961 
L 377.120416 349.610912 
L 380.113472 349.000662 
L 383.106528 340.945357 
L 386.099584 340.701257 
L 389.09264 342.165858 
L 392.085697 339.358706 
L 395.078753 338.626406 
L 398.071809 339.114606 
L 401.064865 337.283855 
L 404.057921 335.086953 
L 407.050978 332.279802 
L 410.044034 328.252149 
L 413.03709 326.421398 
L 416.030146 322.637846 
L 419.023202 319.952744 
L 425.009315 311.043089 
L 428.002371 309.944638 
L 430.995427 305.306735 
L 433.988483 305.672885 
L 436.98154 307.381586 
L 439.974596 303.720084 
L 442.967652 305.428785 
L 445.960708 305.550835 
L 448.953764 303.964184 
L 451.94682 303.109834 
L 457.932933 307.015436 
L 460.925989 305.306735 
L 463.919045 306.893386 
L 466.912101 309.822588 
L 469.905158 309.944638 
L 472.898214 314.582541 
L 475.89127 321.417345 
L 478.884326 318.488143 
L 481.877382 324.712697 
L 484.870439 323.003996 
L 487.863495 323.858346 
L 490.856551 327.763949 
L 493.849607 328.98445 
L 496.842663 332.645952 
L 499.83572 332.645952 
L 502.828776 331.425451 
L 505.821832 332.645952 
L 508.814888 334.354653 
L 511.807944 332.523902 
L 514.801 335.941304 
L 517.794057 331.913651 
L 520.787113 337.161805 
L 523.780169 337.039755 
L 526.773225 335.575154 
L 529.766281 337.039755 
L 532.759338 336.063354 
L 535.752394 338.260255 
L 538.74545 339.480756 
L 541.738506 337.527955 
L 544.731562 338.992556 
L 547.724619 339.114606 
L 550.717675 340.457157 
L 553.710731 339.968956 
L 556.703787 339.846906 
L 559.696843 341.067407 
L 562.689899 340.823307 
L 565.682956 341.921758 
L 568.676012 341.921758 
L 571.669068 340.701257 
L 574.662124 340.457157 
L 577.65518 340.457157 
L 580.648237 341.921758 
L 583.641293 342.532008 
L 589.627405 344.484809 
L 592.620461 343.142258 
L 595.613518 342.898158 
L 598.606574 344.362759 
L 601.59963 342.532008 
L 604.592686 345.09506 
L 607.585742 341.799708 
L 610.578799 344.484809 
L 613.571855 342.409958 
L 616.564911 345.33916 
L 619.557967 344.97301 
L 622.551023 345.94941 
L 625.544079 346.07146 
L 628.537136 345.94941 
L 631.530192 346.07146 
L 634.523248 346.31556 
L 637.516304 348.878612 
L 640.50936 347.658111 
L 643.502417 350.465263 
L 646.495473 351.319614 
L 649.488529 353.882665 
L 652.481585 356.933917 
L 655.474641 356.323667 
L 658.467698 354.370865 
L 661.460754 355.469316 
L 664.45381 358.764668 
L 667.446866 355.103166 
L 670.439922 358.276468 
L 673.432979 357.666217 
L 676.426035 356.201617 
L 679.419091 358.276468 
L 679.419091 358.276468 
" clip-path="url(#pdb40fcc385)" style="fill: none; stroke: #0000ff; stroke-width: 1.5; stroke-linecap: square"/>
   </g>
   <g id="line2d_32">
    <path d="M 83.800909 87.0812 
L 86.793965 95.624705 
L 92.780078 102.94771 
L 95.773134 101.605159 
L 98.76619 112.589666 
L 101.759246 113.810166 
L 104.752302 120.767021 
L 107.745359 122.597772 
L 110.738415 115.640917 
L 113.731471 128.090025 
L 116.724527 129.798726 
L 119.717583 142.003734 
L 122.71064 147.129837 
L 125.703696 150.791339 
L 128.696752 160.799445 
L 131.689808 167.146049 
L 134.682864 167.5122 
L 137.675921 169.342951 
L 140.668977 178.618757 
L 143.662033 187.040212 
L 146.655089 186.552011 
L 149.648145 204.493373 
L 152.641201 204.981573 
L 155.634258 207.666675 
L 158.627314 214.867629 
L 161.62037 213.158928 
L 164.613426 224.509585 
L 167.606482 234.761791 
L 170.599539 238.911494 
L 173.592595 135.77918 
L 176.585651 131.141277 
L 179.578707 138.586332 
L 182.571763 137.487881 
L 185.56482 139.928883 
L 188.557876 136.755581 
L 191.550932 148.472388 
L 194.543988 148.838538 
L 197.537044 151.157489 
L 200.530101 151.40159 
L 203.523157 152.74414 
L 206.516213 153.476441 
L 209.509269 162.752247 
L 212.502325 156.283593 
L 215.495381 167.023999 
L 218.488438 161.775846 
L 221.481494 166.169649 
L 224.47455 175.689555 
L 227.467606 168.36655 
L 230.460662 177.520306 
L 233.453719 237.568943 
L 236.446775 240.254045 
L 239.439831 259.293856 
L 242.432887 257.951306 
L 245.425943 266.006611 
L 248.419 274.428066 
L 254.405112 290.416626 
L 257.398168 293.589928 
L 260.391224 290.050476 
L 263.38428 299.570381 
L 266.377337 297.12938 
L 269.370393 304.818535 
L 272.363449 298.838081 
L 275.356505 295.542729 
L 278.349561 297.61758 
L 281.342618 301.034982 
L 284.335674 300.180632 
L 287.32873 302.377533 
L 290.321786 302.743683 
L 293.314842 300.302682 
L 296.307899 304.696485 
L 299.300955 305.062635 
L 302.294011 303.475984 
L 305.287067 309.822588 
L 308.280123 308.968237 
L 311.27318 316.413292 
L 314.266236 322.881946 
L 317.259292 323.492196 
L 320.252348 325.444997 
L 323.245404 331.059301 
L 326.23846 334.476703 
L 329.231517 332.401852 
L 332.224573 334.720803 
L 335.217629 337.527955 
L 338.210685 335.819254 
L 341.203741 337.527955 
L 344.196798 336.063354 
L 347.189854 344.484809 
L 350.18291 345.33916 
L 356.169022 349.488862 
L 359.162079 352.784214 
L 362.155135 353.394465 
L 365.148191 357.544167 
L 368.141247 361.20567 
L 371.134303 359.008768 
L 374.12736 364.867172 
L 377.120416 369.505075 
L 380.113472 366.942023 
L 383.106528 362.670271 
L 386.099584 366.331773 
L 389.09264 362.914371 
L 392.085697 356.445717 
L 395.078753 358.886718 
L 398.071809 357.544167 
L 401.064865 355.713416 
L 404.057921 355.225216 
L 407.050978 356.323667 
L 410.044034 346.19351 
L 413.03709 342.287908 
L 416.030146 341.433557 
L 419.023202 338.870506 
L 422.016259 335.453104 
L 425.009315 328.8624 
L 428.002371 326.543448 
L 430.995427 324.712697 
L 433.988483 324.224497 
L 436.98154 322.027595 
L 442.967652 322.271696 
L 445.960708 318.854293 
L 448.953764 325.078847 
L 451.94682 321.173245 
L 457.932933 326.177298 
L 460.925989 323.126046 
L 463.919045 327.275749 
L 466.912101 327.397799 
L 469.905158 332.890052 
L 472.898214 337.161805 
L 475.89127 339.602806 
L 478.884326 337.405905 
L 481.877382 333.256202 
L 484.870439 344.240709 
L 487.863495 343.386359 
L 490.856551 347.902211 
L 493.849607 344.118659 
L 496.842663 344.484809 
L 499.83572 345.33916 
L 502.828776 349.122712 
L 505.821832 347.780161 
L 508.814888 349.122712 
L 511.807944 337.527955 
L 514.801 351.685764 
L 517.794057 351.441664 
L 520.787113 347.047861 
L 523.780169 349.366812 
L 526.773225 338.382305 
L 529.766281 353.638565 
L 532.759338 348.146312 
L 535.752394 357.422117 
L 538.74545 353.150365 
L 541.738506 353.394465 
L 544.731562 353.516515 
L 547.724619 354.248815 
L 550.717675 355.713416 
L 553.710731 356.201617 
L 556.703787 354.370865 
L 559.696843 353.272415 
L 562.689899 359.619019 
L 565.682956 353.028315 
L 568.676012 354.248815 
L 571.669068 356.689817 
L 574.662124 353.760615 
L 577.65518 357.055967 
L 580.648237 354.981116 
L 583.641293 357.300067 
L 586.634349 356.811867 
L 589.627405 358.764668 
L 592.620461 357.666217 
L 595.613518 355.347266 
L 598.606574 359.130818 
L 601.59963 351.807814 
L 604.592686 354.614966 
L 607.585742 356.811867 
L 610.578799 354.248815 
L 613.571855 355.591366 
L 616.564911 357.422117 
L 619.557967 361.08362 
L 622.551023 357.910318 
L 625.544079 356.201617 
L 628.537136 364.501022 
L 631.530192 354.737016 
L 634.523248 360.351319 
L 637.516304 364.256922 
L 640.50936 366.942023 
L 643.502417 364.378972 
L 646.495473 370.969676 
L 649.488529 366.697923 
L 652.481585 367.674324 
L 655.474641 367.918424 
L 658.467698 369.871225 
L 661.460754 365.477422 
L 664.45381 367.796374 
L 667.446866 373.532727 
L 670.439922 360.351319 
L 673.432979 370.237375 
L 676.426035 371.824026 
L 679.419091 368.040474 
L 679.419091 368.040474 
" clip-path="url(#pdb40fcc385)" style="fill: none; stroke: #ffa500; stroke-width: 1.5; stroke-linecap: square"/>
   </g>
   <g id="patch_3">
    <path d="M 54.02 390.04 
L 54.02 26.88 
" style="fill: none; stroke: #000000; stroke-width: 0.8; stroke-linejoin: miter; stroke-linecap: square"/>
   </g>
   <g id="patch_4">
    <path d="M 709.2 390.04 
L 709.2 26.88 
" style="fill: none; stroke: #000000; stroke-width: 0.8; stroke-linejoin: miter; stroke-linecap: square"/>
   </g>
   <g id="patch_5">
    <path d="M 54.02 390.04 
L 709.2 390.04 
" style="fill: none; stroke: #000000; stroke-width: 0.8; stroke-linejoin: miter; stroke-linecap: square"/>
   </g>
   <g id="patch_6">
    <path d="M 54.02 26.88 
L 709.2 26.88 
" style="fill: none; stroke: #000000; stroke-width: 0.8; stroke-linejoin: miter; stroke-linecap: square"/>
   </g>
   <g id="text_18">
    <!-- Bitwise-error for Crop_30 -->
    <g transform="translate(306.695312 20.88) scale(0.12 -0.12)">
     <defs>
      <path id="DejaVuSans-20" transform="scale(0.015625)"/>
      <path id="DejaVuSans-66" d="M 2375 4863 
L 2375 4384 
L 1825 4384 
Q 1516 4384 1395 4259 
Q 1275 4134 1275 3809 
L 1275 3500 
L 2222 3500 
L 2222 3053 
L 1275 3053 
L 1275 0 
L 697 0 
L 697 3053 
L 147 3053 
L 147 3500 
L 697 3500 
L 697 3744 
Q 697 4328 969 4595 
Q 1241 4863 1831 4863 
L 2375 4863 
z
" transform="scale(0.015625)"/>
      <path id="DejaVuSans-43" d="M 4122 4306 
L 4122 3641 
Q 3803 3938 3442 4084 
Q 3081 4231 2675 4231 
Q 1875 4231 1450 3742 
Q 1025 3253 1025 2328 
Q 1025 1406 1450 917 
Q 1875 428 2675 428 
Q 3081 428 3442 575 
Q 3803 722 4122 1019 
L 4122 359 
Q 3791 134 3420 21 
Q 3050 -91 2638 -91 
Q 1578 -91 968 557 
Q 359 1206 359 2328 
Q 359 3453 968 4101 
Q 1578 4750 2638 4750 
Q 3056 4750 3426 4639 
Q 3797 4528 4122 4306 
z
" transform="scale(0.015625)"/>
      <path id="DejaVuSans-5f" d="M 3263 -1063 
L 3263 -1509 
L -63 -1509 
L -63 -1063 
L 3263 -1063 
z
" transform="scale(0.015625)"/>
     </defs>
     <use xlink:href="#DejaVuSans-42"/>
     <use xlink:href="#DejaVuSans-69" x="68.603516"/>
     <use xlink:href="#DejaVuSans-74" x="96.386719"/>
     <use xlink:href="#DejaVuSans-77" x="135.595703"/>
     <use xlink:href="#DejaVuSans-69" x="217.382812"/>
     <use xlink:href="#DejaVuSans-73" x="245.166016"/>
     <use xlink:href="#DejaVuSans-65" x="297.265625"/>
     <use xlink:href="#DejaVuSans-2d" x="358.789062"/>
     <use xlink:href="#DejaVuSans-65" x="394.873047"/>
     <use xlink:href="#DejaVuSans-72" x="456.396484"/>
     <use xlink:href="#DejaVuSans-72" x="495.759766"/>
     <use xlink:href="#DejaVuSans-6f" x="534.623047"/>
     <use xlink:href="#DejaVuSans-72" x="595.804688"/>
     <use xlink:href="#DejaVuSans-20" x="636.917969"/>
     <use xlink:href="#DejaVuSans-66" x="668.705078"/>
     <use xlink:href="#DejaVuSans-6f" x="703.910156"/>
     <use xlink:href="#DejaVuSans-72" x="765.091797"/>
     <use xlink:href="#DejaVuSans-20" x="806.205078"/>
     <use xlink:href="#DejaVuSans-43" x="837.992188"/>
     <use xlink:href="#DejaVuSans-72" x="907.816406"/>
     <use xlink:href="#DejaVuSans-6f" x="946.679688"/>
     <use xlink:href="#DejaVuSans-70" x="1007.861328"/>
     <use xlink:href="#DejaVuSans-5f" x="1071.337891"/>
     <use xlink:href="#DejaVuSans-33" x="1121.337891"/>
     <use xlink:href="#DejaVuSans-30" x="1184.960938"/>
    </g>
   </g>
   <g id="legend_1">
    <g id="patch_7">
     <path d="M 620.81875 64.23625 
L 702.2 64.23625 
Q 704.2 64.23625 704.2 62.23625 
L 704.2 33.88 
Q 704.2 31.88 702.2 31.88 
L 620.81875 31.88 
Q 618.81875 31.88 618.81875 33.88 
L 618.81875 62.23625 
Q 618.81875 64.23625 620.81875 64.23625 
z
" style="fill: #ffffff; opacity: 0.8; stroke: #cccccc; stroke-linejoin: miter"/>
    </g>
    <g id="line2d_33">
     <path d="M 622.81875 39.978437 
L 632.81875 39.978437 
L 642.81875 39.978437 
" style="fill: none; stroke: #0000ff; stroke-width: 1.5; stroke-linecap: square"/>
    </g>
    <g id="text_19">
     <!-- Train -->
     <g transform="translate(650.81875 43.478437) scale(0.1 -0.1)">
      <defs>
       <path id="DejaVuSans-54" d="M -19 4666 
L 3928 4666 
L 3928 4134 
L 2272 4134 
L 2272 0 
L 1638 0 
L 1638 4134 
L -19 4134 
L -19 4666 
z
" transform="scale(0.015625)"/>
       <path id="DejaVuSans-61" d="M 2194 1759 
Q 1497 1759 1228 1600 
Q 959 1441 959 1056 
Q 959 750 1161 570 
Q 1363 391 1709 391 
Q 2188 391 2477 730 
Q 2766 1069 2766 1631 
L 2766 1759 
L 2194 1759 
z
M 3341 1997 
L 3341 0 
L 2766 0 
L 2766 531 
Q 2569 213 2275 61 
Q 1981 -91 1556 -91 
Q 1019 -91 701 211 
Q 384 513 384 1019 
Q 384 1609 779 1909 
Q 1175 2209 1959 2209 
L 2766 2209 
L 2766 2266 
Q 2766 2663 2505 2880 
Q 2244 3097 1772 3097 
Q 1472 3097 1187 3025 
Q 903 2953 641 2809 
L 641 3341 
Q 956 3463 1253 3523 
Q 1550 3584 1831 3584 
Q 2591 3584 2966 3190 
Q 3341 2797 3341 1997 
z
" transform="scale(0.015625)"/>
       <path id="DejaVuSans-6e" d="M 3513 2113 
L 3513 0 
L 2938 0 
L 2938 2094 
Q 2938 2591 2744 2837 
Q 2550 3084 2163 3084 
Q 1697 3084 1428 2787 
Q 1159 2491 1159 1978 
L 1159 0 
L 581 0 
L 581 3500 
L 1159 3500 
L 1159 2956 
Q 1366 3272 1645 3428 
Q 1925 3584 2291 3584 
Q 2894 3584 3203 3211 
Q 3513 2838 3513 2113 
z
" transform="scale(0.015625)"/>
      </defs>
      <use xlink:href="#DejaVuSans-54"/>
      <use xlink:href="#DejaVuSans-72" x="46.333984"/>
      <use xlink:href="#DejaVuSans-61" x="87.447266"/>
      <use xlink:href="#DejaVuSans-69" x="148.726562"/>
      <use xlink:href="#DejaVuSans-6e" x="176.509766"/>
     </g>
    </g>
    <g id="line2d_34">
     <path d="M 622.81875 54.656563 
L 632.81875 54.656563 
L 642.81875 54.656563 
" style="fill: none; stroke: #ffa500; stroke-width: 1.5; stroke-linecap: square"/>
    </g>
    <g id="text_20">
     <!-- Validation -->
     <g transform="translate(650.81875 58.156563) scale(0.1 -0.1)">
      <defs>
       <path id="DejaVuSans-56" d="M 1831 0 
L 50 4666 
L 709 4666 
L 2188 738 
L 3669 4666 
L 4325 4666 
L 2547 0 
L 1831 0 
z
" transform="scale(0.015625)"/>
       <path id="DejaVuSans-6c" d="M 603 4863 
L 1178 4863 
L 1178 0 
L 603 0 
L 603 4863 
z
" transform="scale(0.015625)"/>
       <path id="DejaVuSans-64" d="M 2906 2969 
L 2906 4863 
L 3481 4863 
L 3481 0 
L 2906 0 
L 2906 525 
Q 2725 213 2448 61 
Q 2172 -91 1784 -91 
Q 1150 -91 751 415 
Q 353 922 353 1747 
Q 353 2572 751 3078 
Q 1150 3584 1784 3584 
Q 2172 3584 2448 3432 
Q 2725 3281 2906 2969 
z
M 947 1747 
Q 947 1113 1208 752 
Q 1469 391 1925 391 
Q 2381 391 2643 752 
Q 2906 1113 2906 1747 
Q 2906 2381 2643 2742 
Q 2381 3103 1925 3103 
Q 1469 3103 1208 2742 
Q 947 2381 947 1747 
z
" transform="scale(0.015625)"/>
      </defs>
      <use xlink:href="#DejaVuSans-56"/>
      <use xlink:href="#DejaVuSans-61" x="60.658203"/>
      <use xlink:href="#DejaVuSans-6c" x="121.9375"/>
      <use xlink:href="#DejaVuSans-69" x="149.720703"/>
      <use xlink:href="#DejaVuSans-64" x="177.503906"/>
      <use xlink:href="#DejaVuSans-61" x="240.980469"/>
      <use xlink:href="#DejaVuSans-74" x="302.259766"/>
      <use xlink:href="#DejaVuSans-69" x="341.46875"/>
      <use xlink:href="#DejaVuSans-6f" x="369.251953"/>
      <use xlink:href="#DejaVuSans-6e" x="430.433594"/>
     </g>
    </g>
   </g>
  </g>
 </g>
 <defs>
  <clipPath id="pdb40fcc385">
   <rect x="54.02" y="26.88" width="655.18" height="363.16"/>
  </clipPath>
 </defs>
</svg>
