<?xml version="1.0" encoding="utf-8" standalone="no"?>
<!DOCTYPE svg PUBLIC "-//W3C//DTD SVG 1.1//EN"
  "http://www.w3.org/Graphics/SVG/1.1/DTD/svg11.dtd">
<svg xmlns:xlink="http://www.w3.org/1999/xlink" width="720pt" height="432pt" viewBox="0 0 720 432" xmlns="http://www.w3.org/2000/svg" version="1.1">
 <metadata>
  <rdf:RDF xmlns:dc="http://purl.org/dc/elements/1.1/" xmlns:cc="http://creativecommons.org/ns#" xmlns:rdf="http://www.w3.org/1999/02/22-rdf-syntax-ns#">
   <cc:Work>
    <dc:type rdf:resource="http://purl.org/dc/dcmitype/StillImage"/>
    <dc:date>2025-05-10T19:50:00.464927</dc:date>
    <dc:format>image/svg+xml</dc:format>
    <dc:creator>
     <cc:Agent>
      <dc:title>Matplotlib v3.8.0, https://matplotlib.org/</dc:title>
     </cc:Agent>
    </dc:creator>
   </cc:Work>
  </rdf:RDF>
 </metadata>
 <defs>
  <style type="text/css">*{stroke-linejoin: round; stroke-linecap: butt}</style>
 </defs>
 <g id="figure_1">
  <g id="patch_1">
   <path d="M 0 432 
L 720 432 
L 720 0 
L 0 0 
z
" style="fill: #ffffff"/>
  </g>
  <g id="axes_1">
   <g id="patch_2">
    <path d="M 54.12125 390.04 
L 709.2 390.04 
L 709.2 26.88 
L 54.12125 26.88 
z
" style="fill: #ffffff"/>
   </g>
   <g id="matplotlib.axis_1">
    <g id="xtick_1">
     <g id="line2d_1">
      <path d="M 80.904963 390.04 
L 80.904963 26.88 
" clip-path="url(#p500b5cca54)" style="fill: none; stroke: #b0b0b0; stroke-width: 0.8; stroke-linecap: square"/>
     </g>
     <g id="line2d_2">
      <defs>
       <path id="mff5d954e09" d="M 0 0 
L 0 3.5 
" style="stroke: #000000; stroke-width: 0.8"/>
      </defs>
      <g>
       <use xlink:href="#mff5d954e09" x="80.904963" y="390.04" style="stroke: #000000; stroke-width: 0.8"/>
      </g>
     </g>
     <g id="text_1">
      <!-- 0 -->
      <g transform="translate(77.723713 404.638438) scale(0.1 -0.1)">
       <defs>
        <path id="DejaVuSans-30" d="M 2034 4250 
Q 1547 4250 1301 3770 
Q 1056 3291 1056 2328 
Q 1056 1369 1301 889 
Q 1547 409 2034 409 
Q 2525 409 2770 889 
Q 3016 1369 3016 2328 
Q 3016 3291 2770 3770 
Q 2525 4250 2034 4250 
z
M 2034 4750 
Q 2819 4750 3233 4129 
Q 3647 3509 3647 2328 
Q 3647 1150 3233 529 
Q 2819 -91 2034 -91 
Q 1250 -91 836 529 
Q 422 1150 422 2328 
Q 422 3509 836 4129 
Q 1250 4750 2034 4750 
z
" transform="scale(0.015625)"/>
       </defs>
       <use xlink:href="#DejaVuSans-30"/>
      </g>
     </g>
    </g>
    <g id="xtick_2">
     <g id="line2d_3">
      <path d="M 155.719804 390.04 
L 155.719804 26.88 
" clip-path="url(#p500b5cca54)" style="fill: none; stroke: #b0b0b0; stroke-width: 0.8; stroke-linecap: square"/>
     </g>
     <g id="line2d_4">
      <g>
       <use xlink:href="#mff5d954e09" x="155.719804" y="390.04" style="stroke: #000000; stroke-width: 0.8"/>
      </g>
     </g>
     <g id="text_2">
      <!-- 25 -->
      <g transform="translate(149.357304 404.638438) scale(0.1 -0.1)">
       <defs>
        <path id="DejaVuSans-32" d="M 1228 531 
L 3431 531 
L 3431 0 
L 469 0 
L 469 531 
Q 828 903 1448 1529 
Q 2069 2156 2228 2338 
Q 2531 2678 2651 2914 
Q 2772 3150 2772 3378 
Q 2772 3750 2511 3984 
Q 2250 4219 1831 4219 
Q 1534 4219 1204 4116 
Q 875 4013 500 3803 
L 500 4441 
Q 881 4594 1212 4672 
Q 1544 4750 1819 4750 
Q 2544 4750 2975 4387 
Q 3406 4025 3406 3419 
Q 3406 3131 3298 2873 
Q 3191 2616 2906 2266 
Q 2828 2175 2409 1742 
Q 1991 1309 1228 531 
z
" transform="scale(0.015625)"/>
        <path id="DejaVuSans-35" d="M 691 4666 
L 3169 4666 
L 3169 4134 
L 1269 4134 
L 1269 2991 
Q 1406 3038 1543 3061 
Q 1681 3084 1819 3084 
Q 2600 3084 3056 2656 
Q 3513 2228 3513 1497 
Q 3513 744 3044 326 
Q 2575 -91 1722 -91 
Q 1428 -91 1123 -41 
Q 819 9 494 109 
L 494 744 
Q 775 591 1075 516 
Q 1375 441 1709 441 
Q 2250 441 2565 725 
Q 2881 1009 2881 1497 
Q 2881 1984 2565 2268 
Q 2250 2553 1709 2553 
Q 1456 2553 1204 2497 
Q 953 2441 691 2322 
L 691 4666 
z
" transform="scale(0.015625)"/>
       </defs>
       <use xlink:href="#DejaVuSans-32"/>
       <use xlink:href="#DejaVuSans-35" x="63.623047"/>
      </g>
     </g>
    </g>
    <g id="xtick_3">
     <g id="line2d_5">
      <path d="M 230.534646 390.04 
L 230.534646 26.88 
" clip-path="url(#p500b5cca54)" style="fill: none; stroke: #b0b0b0; stroke-width: 0.8; stroke-linecap: square"/>
     </g>
     <g id="line2d_6">
      <g>
       <use xlink:href="#mff5d954e09" x="230.534646" y="390.04" style="stroke: #000000; stroke-width: 0.8"/>
      </g>
     </g>
     <g id="text_3">
      <!-- 50 -->
      <g transform="translate(224.172146 404.638438) scale(0.1 -0.1)">
       <use xlink:href="#DejaVuSans-35"/>
       <use xlink:href="#DejaVuSans-30" x="63.623047"/>
      </g>
     </g>
    </g>
    <g id="xtick_4">
     <g id="line2d_7">
      <path d="M 305.349487 390.04 
L 305.349487 26.88 
" clip-path="url(#p500b5cca54)" style="fill: none; stroke: #b0b0b0; stroke-width: 0.8; stroke-linecap: square"/>
     </g>
     <g id="line2d_8">
      <g>
       <use xlink:href="#mff5d954e09" x="305.349487" y="390.04" style="stroke: #000000; stroke-width: 0.8"/>
      </g>
     </g>
     <g id="text_4">
      <!-- 75 -->
      <g transform="translate(298.986987 404.638438) scale(0.1 -0.1)">
       <defs>
        <path id="DejaVuSans-37" d="M 525 4666 
L 3525 4666 
L 3525 4397 
L 1831 0 
L 1172 0 
L 2766 4134 
L 525 4134 
L 525 4666 
z
" transform="scale(0.015625)"/>
       </defs>
       <use xlink:href="#DejaVuSans-37"/>
       <use xlink:href="#DejaVuSans-35" x="63.623047"/>
      </g>
     </g>
    </g>
    <g id="xtick_5">
     <g id="line2d_9">
      <path d="M 380.164328 390.04 
L 380.164328 26.88 
" clip-path="url(#p500b5cca54)" style="fill: none; stroke: #b0b0b0; stroke-width: 0.8; stroke-linecap: square"/>
     </g>
     <g id="line2d_10">
      <g>
       <use xlink:href="#mff5d954e09" x="380.164328" y="390.04" style="stroke: #000000; stroke-width: 0.8"/>
      </g>
     </g>
     <g id="text_5">
      <!-- 100 -->
      <g transform="translate(370.620578 404.638438) scale(0.1 -0.1)">
       <defs>
        <path id="DejaVuSans-31" d="M 794 531 
L 1825 531 
L 1825 4091 
L 703 3866 
L 703 4441 
L 1819 4666 
L 2450 4666 
L 2450 531 
L 3481 531 
L 3481 0 
L 794 0 
L 794 531 
z
" transform="scale(0.015625)"/>
       </defs>
       <use xlink:href="#DejaVuSans-31"/>
       <use xlink:href="#DejaVuSans-30" x="63.623047"/>
       <use xlink:href="#DejaVuSans-30" x="127.246094"/>
      </g>
     </g>
    </g>
    <g id="xtick_6">
     <g id="line2d_11">
      <path d="M 454.979169 390.04 
L 454.979169 26.88 
" clip-path="url(#p500b5cca54)" style="fill: none; stroke: #b0b0b0; stroke-width: 0.8; stroke-linecap: square"/>
     </g>
     <g id="line2d_12">
      <g>
       <use xlink:href="#mff5d954e09" x="454.979169" y="390.04" style="stroke: #000000; stroke-width: 0.8"/>
      </g>
     </g>
     <g id="text_6">
      <!-- 125 -->
      <g transform="translate(445.435419 404.638438) scale(0.1 -0.1)">
       <use xlink:href="#DejaVuSans-31"/>
       <use xlink:href="#DejaVuSans-32" x="63.623047"/>
       <use xlink:href="#DejaVuSans-35" x="127.246094"/>
      </g>
     </g>
    </g>
    <g id="xtick_7">
     <g id="line2d_13">
      <path d="M 529.794011 390.04 
L 529.794011 26.88 
" clip-path="url(#p500b5cca54)" style="fill: none; stroke: #b0b0b0; stroke-width: 0.8; stroke-linecap: square"/>
     </g>
     <g id="line2d_14">
      <g>
       <use xlink:href="#mff5d954e09" x="529.794011" y="390.04" style="stroke: #000000; stroke-width: 0.8"/>
      </g>
     </g>
     <g id="text_7">
      <!-- 150 -->
      <g transform="translate(520.250261 404.638438) scale(0.1 -0.1)">
       <use xlink:href="#DejaVuSans-31"/>
       <use xlink:href="#DejaVuSans-35" x="63.623047"/>
       <use xlink:href="#DejaVuSans-30" x="127.246094"/>
      </g>
     </g>
    </g>
    <g id="xtick_8">
     <g id="line2d_15">
      <path d="M 604.608852 390.04 
L 604.608852 26.88 
" clip-path="url(#p500b5cca54)" style="fill: none; stroke: #b0b0b0; stroke-width: 0.8; stroke-linecap: square"/>
     </g>
     <g id="line2d_16">
      <g>
       <use xlink:href="#mff5d954e09" x="604.608852" y="390.04" style="stroke: #000000; stroke-width: 0.8"/>
      </g>
     </g>
     <g id="text_8">
      <!-- 175 -->
      <g transform="translate(595.065102 404.638438) scale(0.1 -0.1)">
       <use xlink:href="#DejaVuSans-31"/>
       <use xlink:href="#DejaVuSans-37" x="63.623047"/>
       <use xlink:href="#DejaVuSans-35" x="127.246094"/>
      </g>
     </g>
    </g>
    <g id="xtick_9">
     <g id="line2d_17">
      <path d="M 679.423693 390.04 
L 679.423693 26.88 
" clip-path="url(#p500b5cca54)" style="fill: none; stroke: #b0b0b0; stroke-width: 0.8; stroke-linecap: square"/>
     </g>
     <g id="line2d_18">
      <g>
       <use xlink:href="#mff5d954e09" x="679.423693" y="390.04" style="stroke: #000000; stroke-width: 0.8"/>
      </g>
     </g>
     <g id="text_9">
      <!-- 200 -->
      <g transform="translate(669.879943 404.638438) scale(0.1 -0.1)">
       <use xlink:href="#DejaVuSans-32"/>
       <use xlink:href="#DejaVuSans-30" x="63.623047"/>
       <use xlink:href="#DejaVuSans-30" x="127.246094"/>
      </g>
     </g>
    </g>
    <g id="text_10">
     <!-- Epoch -->
     <g transform="translate(366.349687 418.316562) scale(0.1 -0.1)">
      <defs>
       <path id="DejaVuSans-45" d="M 628 4666 
L 3578 4666 
L 3578 4134 
L 1259 4134 
L 1259 2753 
L 3481 2753 
L 3481 2222 
L 1259 2222 
L 1259 531 
L 3634 531 
L 3634 0 
L 628 0 
L 628 4666 
z
" transform="scale(0.015625)"/>
       <path id="DejaVuSans-70" d="M 1159 525 
L 1159 -1331 
L 581 -1331 
L 581 3500 
L 1159 3500 
L 1159 2969 
Q 1341 3281 1617 3432 
Q 1894 3584 2278 3584 
Q 2916 3584 3314 3078 
Q 3713 2572 3713 1747 
Q 3713 922 3314 415 
Q 2916 -91 2278 -91 
Q 1894 -91 1617 61 
Q 1341 213 1159 525 
z
M 3116 1747 
Q 3116 2381 2855 2742 
Q 2594 3103 2138 3103 
Q 1681 3103 1420 2742 
Q 1159 2381 1159 1747 
Q 1159 1113 1420 752 
Q 1681 391 2138 391 
Q 2594 391 2855 752 
Q 3116 1113 3116 1747 
z
" transform="scale(0.015625)"/>
       <path id="DejaVuSans-6f" d="M 1959 3097 
Q 1497 3097 1228 2736 
Q 959 2375 959 1747 
Q 959 1119 1226 758 
Q 1494 397 1959 397 
Q 2419 397 2687 759 
Q 2956 1122 2956 1747 
Q 2956 2369 2687 2733 
Q 2419 3097 1959 3097 
z
M 1959 3584 
Q 2709 3584 3137 3096 
Q 3566 2609 3566 1747 
Q 3566 888 3137 398 
Q 2709 -91 1959 -91 
Q 1206 -91 779 398 
Q 353 888 353 1747 
Q 353 2609 779 3096 
Q 1206 3584 1959 3584 
z
" transform="scale(0.015625)"/>
       <path id="DejaVuSans-63" d="M 3122 3366 
L 3122 2828 
Q 2878 2963 2633 3030 
Q 2388 3097 2138 3097 
Q 1578 3097 1268 2742 
Q 959 2388 959 1747 
Q 959 1106 1268 751 
Q 1578 397 2138 397 
Q 2388 397 2633 464 
Q 2878 531 3122 666 
L 3122 134 
Q 2881 22 2623 -34 
Q 2366 -91 2075 -91 
Q 1284 -91 818 406 
Q 353 903 353 1747 
Q 353 2603 823 3093 
Q 1294 3584 2113 3584 
Q 2378 3584 2631 3529 
Q 2884 3475 3122 3366 
z
" transform="scale(0.015625)"/>
       <path id="DejaVuSans-68" d="M 3513 2113 
L 3513 0 
L 2938 0 
L 2938 2094 
Q 2938 2591 2744 2837 
Q 2550 3084 2163 3084 
Q 1697 3084 1428 2787 
Q 1159 2491 1159 1978 
L 1159 0 
L 581 0 
L 581 4863 
L 1159 4863 
L 1159 2956 
Q 1366 3272 1645 3428 
Q 1925 3584 2291 3584 
Q 2894 3584 3203 3211 
Q 3513 2838 3513 2113 
z
" transform="scale(0.015625)"/>
      </defs>
      <use xlink:href="#DejaVuSans-45"/>
      <use xlink:href="#DejaVuSans-70" x="63.183594"/>
      <use xlink:href="#DejaVuSans-6f" x="126.660156"/>
      <use xlink:href="#DejaVuSans-63" x="187.841797"/>
      <use xlink:href="#DejaVuSans-68" x="242.822266"/>
     </g>
    </g>
   </g>
   <g id="matplotlib.axis_2">
    <g id="ytick_1">
     <g id="line2d_19">
      <path d="M 54.12125 375.302107 
L 709.2 375.302107 
" clip-path="url(#p500b5cca54)" style="fill: none; stroke: #b0b0b0; stroke-width: 0.8; stroke-linecap: square"/>
     </g>
     <g id="line2d_20">
      <defs>
       <path id="m7ff991977e" d="M 0 0 
L -3.5 0 
" style="stroke: #000000; stroke-width: 0.8"/>
      </defs>
      <g>
       <use xlink:href="#m7ff991977e" x="54.12125" y="375.302107" style="stroke: #000000; stroke-width: 0.8"/>
      </g>
     </g>
     <g id="text_11">
      <!-- 0.00 -->
      <g transform="translate(24.855625 379.101326) scale(0.1 -0.1)">
       <defs>
        <path id="DejaVuSans-2e" d="M 684 794 
L 1344 794 
L 1344 0 
L 684 0 
L 684 794 
z
" transform="scale(0.015625)"/>
       </defs>
       <use xlink:href="#DejaVuSans-30"/>
       <use xlink:href="#DejaVuSans-2e" x="63.623047"/>
       <use xlink:href="#DejaVuSans-30" x="95.410156"/>
       <use xlink:href="#DejaVuSans-30" x="159.033203"/>
      </g>
     </g>
    </g>
    <g id="ytick_2">
     <g id="line2d_21">
      <path d="M 54.12125 323.261525 
L 709.2 323.261525 
" clip-path="url(#p500b5cca54)" style="fill: none; stroke: #b0b0b0; stroke-width: 0.8; stroke-linecap: square"/>
     </g>
     <g id="line2d_22">
      <g>
       <use xlink:href="#m7ff991977e" x="54.12125" y="323.261525" style="stroke: #000000; stroke-width: 0.8"/>
      </g>
     </g>
     <g id="text_12">
      <!-- 0.05 -->
      <g transform="translate(24.855625 327.060743) scale(0.1 -0.1)">
       <use xlink:href="#DejaVuSans-30"/>
       <use xlink:href="#DejaVuSans-2e" x="63.623047"/>
       <use xlink:href="#DejaVuSans-30" x="95.410156"/>
       <use xlink:href="#DejaVuSans-35" x="159.033203"/>
      </g>
     </g>
    </g>
    <g id="ytick_3">
     <g id="line2d_23">
      <path d="M 54.12125 271.220942 
L 709.2 271.220942 
" clip-path="url(#p500b5cca54)" style="fill: none; stroke: #b0b0b0; stroke-width: 0.8; stroke-linecap: square"/>
     </g>
     <g id="line2d_24">
      <g>
       <use xlink:href="#m7ff991977e" x="54.12125" y="271.220942" style="stroke: #000000; stroke-width: 0.8"/>
      </g>
     </g>
     <g id="text_13">
      <!-- 0.10 -->
      <g transform="translate(24.855625 275.020161) scale(0.1 -0.1)">
       <use xlink:href="#DejaVuSans-30"/>
       <use xlink:href="#DejaVuSans-2e" x="63.623047"/>
       <use xlink:href="#DejaVuSans-31" x="95.410156"/>
       <use xlink:href="#DejaVuSans-30" x="159.033203"/>
      </g>
     </g>
    </g>
    <g id="ytick_4">
     <g id="line2d_25">
      <path d="M 54.12125 219.18036 
L 709.2 219.18036 
" clip-path="url(#p500b5cca54)" style="fill: none; stroke: #b0b0b0; stroke-width: 0.8; stroke-linecap: square"/>
     </g>
     <g id="line2d_26">
      <g>
       <use xlink:href="#m7ff991977e" x="54.12125" y="219.18036" style="stroke: #000000; stroke-width: 0.8"/>
      </g>
     </g>
     <g id="text_14">
      <!-- 0.15 -->
      <g transform="translate(24.855625 222.979579) scale(0.1 -0.1)">
       <use xlink:href="#DejaVuSans-30"/>
       <use xlink:href="#DejaVuSans-2e" x="63.623047"/>
       <use xlink:href="#DejaVuSans-31" x="95.410156"/>
       <use xlink:href="#DejaVuSans-35" x="159.033203"/>
      </g>
     </g>
    </g>
    <g id="ytick_5">
     <g id="line2d_27">
      <path d="M 54.12125 167.139778 
L 709.2 167.139778 
" clip-path="url(#p500b5cca54)" style="fill: none; stroke: #b0b0b0; stroke-width: 0.8; stroke-linecap: square"/>
     </g>
     <g id="line2d_28">
      <g>
       <use xlink:href="#m7ff991977e" x="54.12125" y="167.139778" style="stroke: #000000; stroke-width: 0.8"/>
      </g>
     </g>
     <g id="text_15">
      <!-- 0.20 -->
      <g transform="translate(24.855625 170.938996) scale(0.1 -0.1)">
       <use xlink:href="#DejaVuSans-30"/>
       <use xlink:href="#DejaVuSans-2e" x="63.623047"/>
       <use xlink:href="#DejaVuSans-32" x="95.410156"/>
       <use xlink:href="#DejaVuSans-30" x="159.033203"/>
      </g>
     </g>
    </g>
    <g id="ytick_6">
     <g id="line2d_29">
      <path d="M 54.12125 115.099195 
L 709.2 115.099195 
" clip-path="url(#p500b5cca54)" style="fill: none; stroke: #b0b0b0; stroke-width: 0.8; stroke-linecap: square"/>
     </g>
     <g id="line2d_30">
      <g>
       <use xlink:href="#m7ff991977e" x="54.12125" y="115.099195" style="stroke: #000000; stroke-width: 0.8"/>
      </g>
     </g>
     <g id="text_16">
      <!-- 0.25 -->
      <g transform="translate(24.855625 118.898414) scale(0.1 -0.1)">
       <use xlink:href="#DejaVuSans-30"/>
       <use xlink:href="#DejaVuSans-2e" x="63.623047"/>
       <use xlink:href="#DejaVuSans-32" x="95.410156"/>
       <use xlink:href="#DejaVuSans-35" x="159.033203"/>
      </g>
     </g>
    </g>
    <g id="ytick_7">
     <g id="line2d_31">
      <path d="M 54.12125 63.058613 
L 709.2 63.058613 
" clip-path="url(#p500b5cca54)" style="fill: none; stroke: #b0b0b0; stroke-width: 0.8; stroke-linecap: square"/>
     </g>
     <g id="line2d_32">
      <g>
       <use xlink:href="#m7ff991977e" x="54.12125" y="63.058613" style="stroke: #000000; stroke-width: 0.8"/>
      </g>
     </g>
     <g id="text_17">
      <!-- 0.30 -->
      <g transform="translate(24.855625 66.857832) scale(0.1 -0.1)">
       <defs>
        <path id="DejaVuSans-33" d="M 2597 2516 
Q 3050 2419 3304 2112 
Q 3559 1806 3559 1356 
Q 3559 666 3084 287 
Q 2609 -91 1734 -91 
Q 1441 -91 1130 -33 
Q 819 25 488 141 
L 488 750 
Q 750 597 1062 519 
Q 1375 441 1716 441 
Q 2309 441 2620 675 
Q 2931 909 2931 1356 
Q 2931 1769 2642 2001 
Q 2353 2234 1838 2234 
L 1294 2234 
L 1294 2753 
L 1863 2753 
Q 2328 2753 2575 2939 
Q 2822 3125 2822 3475 
Q 2822 3834 2567 4026 
Q 2313 4219 1838 4219 
Q 1578 4219 1281 4162 
Q 984 4106 628 3988 
L 628 4550 
Q 988 4650 1302 4700 
Q 1616 4750 1894 4750 
Q 2613 4750 3031 4423 
Q 3450 4097 3450 3541 
Q 3450 3153 3228 2886 
Q 3006 2619 2597 2516 
z
" transform="scale(0.015625)"/>
       </defs>
       <use xlink:href="#DejaVuSans-30"/>
       <use xlink:href="#DejaVuSans-2e" x="63.623047"/>
       <use xlink:href="#DejaVuSans-33" x="95.410156"/>
       <use xlink:href="#DejaVuSans-30" x="159.033203"/>
      </g>
     </g>
    </g>
    <g id="text_18">
     <!-- Encoder_mse -->
     <g transform="translate(18.497813 241.954531) rotate(-90) scale(0.1 -0.1)">
      <defs>
       <path id="DejaVuSans-6e" d="M 3513 2113 
L 3513 0 
L 2938 0 
L 2938 2094 
Q 2938 2591 2744 2837 
Q 2550 3084 2163 3084 
Q 1697 3084 1428 2787 
Q 1159 2491 1159 1978 
L 1159 0 
L 581 0 
L 581 3500 
L 1159 3500 
L 1159 2956 
Q 1366 3272 1645 3428 
Q 1925 3584 2291 3584 
Q 2894 3584 3203 3211 
Q 3513 2838 3513 2113 
z
" transform="scale(0.015625)"/>
       <path id="DejaVuSans-64" d="M 2906 2969 
L 2906 4863 
L 3481 4863 
L 3481 0 
L 2906 0 
L 2906 525 
Q 2725 213 2448 61 
Q 2172 -91 1784 -91 
Q 1150 -91 751 415 
Q 353 922 353 1747 
Q 353 2572 751 3078 
Q 1150 3584 1784 3584 
Q 2172 3584 2448 3432 
Q 2725 3281 2906 2969 
z
M 947 1747 
Q 947 1113 1208 752 
Q 1469 391 1925 391 
Q 2381 391 2643 752 
Q 2906 1113 2906 1747 
Q 2906 2381 2643 2742 
Q 2381 3103 1925 3103 
Q 1469 3103 1208 2742 
Q 947 2381 947 1747 
z
" transform="scale(0.015625)"/>
       <path id="DejaVuSans-65" d="M 3597 1894 
L 3597 1613 
L 953 1613 
Q 991 1019 1311 708 
Q 1631 397 2203 397 
Q 2534 397 2845 478 
Q 3156 559 3463 722 
L 3463 178 
Q 3153 47 2828 -22 
Q 2503 -91 2169 -91 
Q 1331 -91 842 396 
Q 353 884 353 1716 
Q 353 2575 817 3079 
Q 1281 3584 2069 3584 
Q 2775 3584 3186 3129 
Q 3597 2675 3597 1894 
z
M 3022 2063 
Q 3016 2534 2758 2815 
Q 2500 3097 2075 3097 
Q 1594 3097 1305 2825 
Q 1016 2553 972 2059 
L 3022 2063 
z
" transform="scale(0.015625)"/>
       <path id="DejaVuSans-72" d="M 2631 2963 
Q 2534 3019 2420 3045 
Q 2306 3072 2169 3072 
Q 1681 3072 1420 2755 
Q 1159 2438 1159 1844 
L 1159 0 
L 581 0 
L 581 3500 
L 1159 3500 
L 1159 2956 
Q 1341 3275 1631 3429 
Q 1922 3584 2338 3584 
Q 2397 3584 2469 3576 
Q 2541 3569 2628 3553 
L 2631 2963 
z
" transform="scale(0.015625)"/>
       <path id="DejaVuSans-5f" d="M 3263 -1063 
L 3263 -1509 
L -63 -1509 
L -63 -1063 
L 3263 -1063 
z
" transform="scale(0.015625)"/>
       <path id="DejaVuSans-6d" d="M 3328 2828 
Q 3544 3216 3844 3400 
Q 4144 3584 4550 3584 
Q 5097 3584 5394 3201 
Q 5691 2819 5691 2113 
L 5691 0 
L 5113 0 
L 5113 2094 
Q 5113 2597 4934 2840 
Q 4756 3084 4391 3084 
Q 3944 3084 3684 2787 
Q 3425 2491 3425 1978 
L 3425 0 
L 2847 0 
L 2847 2094 
Q 2847 2600 2669 2842 
Q 2491 3084 2119 3084 
Q 1678 3084 1418 2786 
Q 1159 2488 1159 1978 
L 1159 0 
L 581 0 
L 581 3500 
L 1159 3500 
L 1159 2956 
Q 1356 3278 1631 3431 
Q 1906 3584 2284 3584 
Q 2666 3584 2933 3390 
Q 3200 3197 3328 2828 
z
" transform="scale(0.015625)"/>
       <path id="DejaVuSans-73" d="M 2834 3397 
L 2834 2853 
Q 2591 2978 2328 3040 
Q 2066 3103 1784 3103 
Q 1356 3103 1142 2972 
Q 928 2841 928 2578 
Q 928 2378 1081 2264 
Q 1234 2150 1697 2047 
L 1894 2003 
Q 2506 1872 2764 1633 
Q 3022 1394 3022 966 
Q 3022 478 2636 193 
Q 2250 -91 1575 -91 
Q 1294 -91 989 -36 
Q 684 19 347 128 
L 347 722 
Q 666 556 975 473 
Q 1284 391 1588 391 
Q 1994 391 2212 530 
Q 2431 669 2431 922 
Q 2431 1156 2273 1281 
Q 2116 1406 1581 1522 
L 1381 1569 
Q 847 1681 609 1914 
Q 372 2147 372 2553 
Q 372 3047 722 3315 
Q 1072 3584 1716 3584 
Q 2034 3584 2315 3537 
Q 2597 3491 2834 3397 
z
" transform="scale(0.015625)"/>
      </defs>
      <use xlink:href="#DejaVuSans-45"/>
      <use xlink:href="#DejaVuSans-6e" x="63.183594"/>
      <use xlink:href="#DejaVuSans-63" x="126.5625"/>
      <use xlink:href="#DejaVuSans-6f" x="181.542969"/>
      <use xlink:href="#DejaVuSans-64" x="242.724609"/>
      <use xlink:href="#DejaVuSans-65" x="306.201172"/>
      <use xlink:href="#DejaVuSans-72" x="367.724609"/>
      <use xlink:href="#DejaVuSans-5f" x="408.837891"/>
      <use xlink:href="#DejaVuSans-6d" x="458.837891"/>
      <use xlink:href="#DejaVuSans-73" x="556.25"/>
      <use xlink:href="#DejaVuSans-65" x="608.349609"/>
     </g>
    </g>
   </g>
   <g id="line2d_33">
    <path d="M 83.897557 295.055529 
L 86.89015 304.318753 
L 89.882744 307.233025 
L 92.875338 307.545269 
L 95.867931 307.233025 
L 98.860525 309.314649 
L 101.853119 306.816701 
L 104.845712 301.612642 
L 107.838306 298.177964 
L 110.8309 300.363668 
L 113.823493 302.341211 
L 116.816087 305.567727 
L 119.808681 304.11059 
L 122.801274 301.092237 
L 125.793868 305.463646 
L 128.786462 305.775889 
L 131.779055 301.300399 
L 134.771649 303.069779 
L 140.756836 305.87997 
L 143.74943 305.359564 
L 146.742023 305.463646 
L 149.734617 304.422834 
L 152.727211 304.11059 
L 155.719804 305.671808 
L 158.712398 306.504457 
L 161.704992 308.065675 
L 164.697585 305.671808 
L 167.690179 303.798347 
L 170.682773 304.526915 
L 173.675366 357.816471 
L 176.66796 363.124611 
L 179.660554 363.124611 
L 182.653147 363.332773 
L 185.645741 363.332773 
L 188.638335 363.853179 
L 191.630928 364.685828 
L 194.623522 365.934802 
L 197.616116 366.975614 
L 200.608709 367.808263 
L 203.601303 368.953156 
L 209.58649 369.681724 
L 212.579084 370.098049 
L 215.571677 369.889887 
L 218.564271 370.410292 
L 221.556865 370.618455 
L 224.549458 370.306211 
L 227.542052 370.826617 
L 230.534646 370.514373 
L 233.527239 320.659496 
L 236.519833 285.792305 
L 239.512427 255.712849 
L 242.50502 242.806784 
L 245.497614 227.923178 
L 248.490208 201.070237 
L 251.482801 133.209318 
L 254.475395 110.727786 
L 257.467989 106.044134 
L 260.460582 102.817618 
L 263.453176 96.468667 
L 266.445769 103.129861 
L 269.438363 99.174777 
L 272.430957 92.201339 
L 275.42355 93.450313 
L 278.416144 90.015635 
L 281.408738 93.138069 
L 284.401331 96.676829 
L 287.393925 97.301316 
L 290.386519 89.182985 
L 293.379112 83.770765 
L 296.371706 88.246255 
L 299.3643 90.015635 
L 302.356893 93.658475 
L 305.349487 89.182985 
L 308.342081 82.729953 
L 311.334674 83.458521 
L 314.327268 79.087112 
L 317.319862 77.317732 
L 320.312455 73.050405 
L 323.305049 72.009593 
L 326.297642 70.032051 
L 329.290236 78.983031 
L 332.28283 74.40346 
L 335.275423 75.444271 
L 338.268017 74.819784 
L 341.260611 80.127924 
L 344.253204 73.050405 
L 347.245798 75.444271 
L 350.238392 61.705558 
L 353.230985 60.664746 
L 356.223579 57.334149 
L 359.216173 60.352503 
L 362.208766 62.121882 
L 365.20136 65.660642 
L 368.193954 56.397418 
L 371.186547 49.944386 
L 374.179141 49.528061 
L 377.171735 46.509708 
L 380.164328 49.736224 
L 383.156922 78.566706 
L 386.149515 86.164631 
L 392.134703 113.433897 
L 395.127296 128.109341 
L 401.112484 168.388752 
L 410.090265 232.710911 
L 413.082858 251.549602 
L 416.075452 267.994426 
L 419.068046 282.773952 
L 425.053233 305.359564 
L 428.045827 312.957489 
L 431.03842 319.514603 
L 434.031014 324.302336 
L 437.023608 327.737015 
L 443.008795 335.126777 
L 448.993982 341.892053 
L 451.986576 343.973676 
L 454.979169 345.638975 
L 457.971763 348.865491 
L 460.964357 350.010384 
L 463.95695 350.322628 
L 466.949544 352.404251 
L 469.942138 352.924657 
L 472.934731 353.132819 
L 475.927325 354.069549 
L 478.919919 354.798118 
L 481.912512 355.318523 
L 487.8977 355.838929 
L 490.890293 357.087903 
L 493.882887 356.255254 
L 496.875481 357.71239 
L 505.853261 359.377689 
L 508.845855 358.440958 
L 511.838449 359.273608 
L 514.831042 359.585851 
L 517.823636 360.314419 
L 520.81623 360.730744 
L 526.801417 360.834825 
L 529.794011 361.875637 
L 532.786604 361.667474 
L 535.779198 362.083799 
L 538.771792 362.708286 
L 544.756979 362.708286 
L 547.749573 363.02053 
L 550.742166 363.124611 
L 553.73476 363.540935 
L 556.727354 363.332773 
L 559.719947 364.165422 
L 562.712541 363.95726 
L 565.705134 364.165422 
L 568.697728 364.165422 
L 571.690322 364.581747 
L 574.682915 364.477666 
L 580.668103 364.998072 
L 583.660696 365.622559 
L 589.645884 365.518478 
L 592.638477 365.830721 
L 595.631071 365.830721 
L 601.616258 366.142965 
L 604.608852 366.038883 
L 607.601446 366.142965 
L 610.594039 366.559289 
L 619.57182 366.975614 
L 622.564414 366.66337 
L 625.557007 366.559289 
L 628.549601 366.871533 
L 631.542195 366.975614 
L 634.534788 366.767452 
L 640.519976 367.079695 
L 643.512569 366.975614 
L 646.505163 367.183776 
L 649.497757 366.455208 
L 652.49035 366.871533 
L 667.453319 367.391939 
L 670.445912 367.183776 
L 673.438506 367.287857 
L 676.4311 367.079695 
L 679.423693 367.079695 
L 679.423693 367.079695 
" clip-path="url(#p500b5cca54)" style="fill: none; stroke: #0000ff; stroke-width: 1.5; stroke-linecap: square"/>
   </g>
   <g id="line2d_34">
    <path d="M 83.897557 303.902428 
L 86.89015 311.916678 
L 89.882744 312.853408 
L 92.875338 315.247275 
L 95.867931 318.681953 
L 98.860525 317.953385 
L 101.853119 314.622788 
L 104.845712 309.41873 
L 107.838306 297.241234 
L 110.8309 304.526915 
L 113.823493 310.147298 
L 116.816087 309.939136 
L 119.808681 298.594289 
L 122.801274 301.196318 
L 125.793868 309.626892 
L 128.786462 303.902428 
L 131.779055 303.798347 
L 134.771649 308.481999 
L 137.764243 307.128944 
L 140.756836 303.277941 
L 143.74943 308.481999 
L 146.742023 310.147298 
L 149.734617 305.151402 
L 152.727211 308.065675 
L 155.719804 312.957489 
L 158.712398 309.835054 
L 161.704992 306.400376 
L 164.697585 310.459541 
L 167.690179 306.088133 
L 170.682773 302.445292 
L 173.675366 371.763347 
L 176.66796 372.700078 
L 182.653147 372.804159 
L 185.645741 371.451104 
L 188.638335 372.804159 
L 194.623522 372.491916 
L 197.616116 373.012321 
L 203.601303 373.116403 
L 206.593896 373.220484 
L 212.579084 372.90824 
L 221.556865 373.532727 
L 224.549458 373.324565 
L 227.542052 373.532727 
L 230.534646 373.324565 
L 233.527239 303.590185 
L 236.519833 277.465812 
L 239.512427 249.988385 
L 242.50502 233.023155 
L 245.497614 211.062029 
L 248.490208 175.778514 
L 251.482801 116.868575 
L 254.475395 115.619601 
L 257.467989 116.764494 
L 260.460582 96.676829 
L 263.453176 87.205443 
L 266.445769 95.427855 
L 269.438363 89.807472 
L 272.430957 106.980864 
L 275.42355 79.191193 
L 278.416144 114.578789 
L 281.408738 118.117549 
L 284.401331 100.215589 
L 287.393925 90.53604 
L 290.386519 77.525895 
L 293.379112 95.948261 
L 296.371706 93.242151 
L 299.3643 100.007426 
L 302.356893 85.331982 
L 305.349487 61.601477 
L 308.342081 115.307358 
L 311.334674 94.178881 
L 314.327268 88.142174 
L 317.319862 98.029884 
L 320.312455 89.495229 
L 323.305049 79.607518 
L 326.297642 82.834034 
L 329.290236 79.191193 
L 332.28283 78.358544 
L 335.275423 87.413605 
L 338.268017 87.309524 
L 341.260611 84.187089 
L 344.253204 80.232005 
L 347.245798 81.58506 
L 350.238392 60.14434 
L 353.230985 76.068758 
L 356.223579 61.185152 
L 359.216173 80.752411 
L 362.208766 43.387273 
L 365.20136 59.832097 
L 368.193954 80.752411 
L 371.186547 55.564769 
L 374.179141 66.181048 
L 377.171735 58.687204 
L 380.164328 51.713766 
L 383.156922 88.662579 
L 386.149515 98.029884 
L 389.142109 105.73189 
L 392.134703 126.756286 
L 395.127296 136.643996 
L 398.11989 157.980635 
L 401.112484 165.474479 
L 404.105077 193.472312 
L 407.097671 220.325253 
L 410.090265 239.476187 
L 413.082858 256.857742 
L 416.075452 275.904595 
L 419.068046 292.141256 
L 422.060639 304.94324 
L 425.053233 314.414626 
L 428.045827 321.700307 
L 431.03842 327.632934 
L 434.031014 331.379856 
L 437.023608 338.457375 
L 440.016201 341.892053 
L 443.008795 344.806326 
L 446.001388 346.887949 
L 448.993982 349.594059 
L 451.986576 352.924657 
L 454.979169 355.00628 
L 457.971763 356.671579 
L 460.964357 359.794014 
L 463.95695 360.002176 
L 466.949544 359.585851 
L 469.942138 362.083799 
L 472.934731 361.771556 
L 475.927325 362.916448 
L 478.919919 363.749098 
L 481.912512 363.645017 
L 484.905106 364.269504 
L 487.8977 364.685828 
L 490.890293 361.771556 
L 493.882887 364.269504 
L 496.875481 365.310315 
L 499.868074 365.934802 
L 502.860668 366.038883 
L 505.853261 365.518478 
L 508.845855 366.767452 
L 511.838449 365.310315 
L 514.831042 366.455208 
L 517.823636 366.351127 
L 523.808823 367.287857 
L 526.801417 366.455208 
L 529.794011 365.414396 
L 532.786604 366.559289 
L 535.779198 366.038883 
L 538.771792 367.391939 
L 544.756979 367.079695 
L 547.749573 367.704182 
L 550.742166 367.287857 
L 553.73476 367.287857 
L 556.727354 366.66337 
L 559.719947 368.224588 
L 562.712541 367.600101 
L 565.705134 366.142965 
L 568.697728 367.49602 
L 571.690322 367.183776 
L 574.682915 366.455208 
L 577.675509 366.767452 
L 580.668103 366.455208 
L 583.660696 367.079695 
L 586.65329 366.142965 
L 589.645884 366.038883 
L 592.638477 365.102153 
L 595.631071 368.224588 
L 598.623665 361.563393 
L 601.616258 359.273608 
L 604.608852 365.414396 
L 607.601446 364.373585 
L 610.594039 366.559289 
L 613.586633 367.183776 
L 616.579227 368.328669 
L 619.57182 367.912344 
L 622.564414 363.749098 
L 625.557007 356.983822 
L 628.549601 366.455208 
L 631.542195 367.287857 
L 634.534788 366.871533 
L 637.527382 368.016426 
L 640.519976 367.704182 
L 643.512569 366.455208 
L 646.505163 367.079695 
L 649.497757 367.079695 
L 652.49035 367.704182 
L 655.482944 367.49602 
L 658.475538 366.559289 
L 661.468131 367.49602 
L 664.460725 360.626663 
L 667.453319 368.016426 
L 670.445912 368.120507 
L 673.438506 364.373585 
L 676.4311 367.183776 
L 679.423693 367.912344 
L 679.423693 367.912344 
" clip-path="url(#p500b5cca54)" style="fill: none; stroke: #ffa500; stroke-width: 1.5; stroke-linecap: square"/>
   </g>
   <g id="patch_3">
    <path d="M 54.12125 390.04 
L 54.12125 26.88 
" style="fill: none; stroke: #000000; stroke-width: 0.8; stroke-linejoin: miter; stroke-linecap: square"/>
   </g>
   <g id="patch_4">
    <path d="M 709.2 390.04 
L 709.2 26.88 
" style="fill: none; stroke: #000000; stroke-width: 0.8; stroke-linejoin: miter; stroke-linecap: square"/>
   </g>
   <g id="patch_5">
    <path d="M 54.12125 390.04 
L 709.2 390.04 
" style="fill: none; stroke: #000000; stroke-width: 0.8; stroke-linejoin: miter; stroke-linecap: square"/>
   </g>
   <g id="patch_6">
    <path d="M 54.12125 26.88 
L 709.2 26.88 
" style="fill: none; stroke: #000000; stroke-width: 0.8; stroke-linejoin: miter; stroke-linecap: square"/>
   </g>
   <g id="text_19">
    <!-- Encoder_mse for Crop_30 -->
    <g transform="translate(304.766875 20.88) scale(0.12 -0.12)">
     <defs>
      <path id="DejaVuSans-20" transform="scale(0.015625)"/>
      <path id="DejaVuSans-66" d="M 2375 4863 
L 2375 4384 
L 1825 4384 
Q 1516 4384 1395 4259 
Q 1275 4134 1275 3809 
L 1275 3500 
L 2222 3500 
L 2222 3053 
L 1275 3053 
L 1275 0 
L 697 0 
L 697 3053 
L 147 3053 
L 147 3500 
L 697 3500 
L 697 3744 
Q 697 4328 969 4595 
Q 1241 4863 1831 4863 
L 2375 4863 
z
" transform="scale(0.015625)"/>
      <path id="DejaVuSans-43" d="M 4122 4306 
L 4122 3641 
Q 3803 3938 3442 4084 
Q 3081 4231 2675 4231 
Q 1875 4231 1450 3742 
Q 1025 3253 1025 2328 
Q 1025 1406 1450 917 
Q 1875 428 2675 428 
Q 3081 428 3442 575 
Q 3803 722 4122 1019 
L 4122 359 
Q 3791 134 3420 21 
Q 3050 -91 2638 -91 
Q 1578 -91 968 557 
Q 359 1206 359 2328 
Q 359 3453 968 4101 
Q 1578 4750 2638 4750 
Q 3056 4750 3426 4639 
Q 3797 4528 4122 4306 
z
" transform="scale(0.015625)"/>
     </defs>
     <use xlink:href="#DejaVuSans-45"/>
     <use xlink:href="#DejaVuSans-6e" x="63.183594"/>
     <use xlink:href="#DejaVuSans-63" x="126.5625"/>
     <use xlink:href="#DejaVuSans-6f" x="181.542969"/>
     <use xlink:href="#DejaVuSans-64" x="242.724609"/>
     <use xlink:href="#DejaVuSans-65" x="306.201172"/>
     <use xlink:href="#DejaVuSans-72" x="367.724609"/>
     <use xlink:href="#DejaVuSans-5f" x="408.837891"/>
     <use xlink:href="#DejaVuSans-6d" x="458.837891"/>
     <use xlink:href="#DejaVuSans-73" x="556.25"/>
     <use xlink:href="#DejaVuSans-65" x="608.349609"/>
     <use xlink:href="#DejaVuSans-20" x="669.873047"/>
     <use xlink:href="#DejaVuSans-66" x="701.660156"/>
     <use xlink:href="#DejaVuSans-6f" x="736.865234"/>
     <use xlink:href="#DejaVuSans-72" x="798.046875"/>
     <use xlink:href="#DejaVuSans-20" x="839.160156"/>
     <use xlink:href="#DejaVuSans-43" x="870.947266"/>
     <use xlink:href="#DejaVuSans-72" x="940.771484"/>
     <use xlink:href="#DejaVuSans-6f" x="979.634766"/>
     <use xlink:href="#DejaVuSans-70" x="1040.816406"/>
     <use xlink:href="#DejaVuSans-5f" x="1104.292969"/>
     <use xlink:href="#DejaVuSans-33" x="1154.292969"/>
     <use xlink:href="#DejaVuSans-30" x="1217.916016"/>
    </g>
   </g>
   <g id="legend_1">
    <g id="patch_7">
     <path d="M 620.81875 64.23625 
L 702.2 64.23625 
Q 704.2 64.23625 704.2 62.23625 
L 704.2 33.88 
Q 704.2 31.88 702.2 31.88 
L 620.81875 31.88 
Q 618.81875 31.88 618.81875 33.88 
L 618.81875 62.23625 
Q 618.81875 64.23625 620.81875 64.23625 
z
" style="fill: #ffffff; opacity: 0.8; stroke: #cccccc; stroke-linejoin: miter"/>
    </g>
    <g id="line2d_35">
     <path d="M 622.81875 39.978437 
L 632.81875 39.978437 
L 642.81875 39.978437 
" style="fill: none; stroke: #0000ff; stroke-width: 1.5; stroke-linecap: square"/>
    </g>
    <g id="text_20">
     <!-- Train -->
     <g transform="translate(650.81875 43.478437) scale(0.1 -0.1)">
      <defs>
       <path id="DejaVuSans-54" d="M -19 4666 
L 3928 4666 
L 3928 4134 
L 2272 4134 
L 2272 0 
L 1638 0 
L 1638 4134 
L -19 4134 
L -19 4666 
z
" transform="scale(0.015625)"/>
       <path id="DejaVuSans-61" d="M 2194 1759 
Q 1497 1759 1228 1600 
Q 959 1441 959 1056 
Q 959 750 1161 570 
Q 1363 391 1709 391 
Q 2188 391 2477 730 
Q 2766 1069 2766 1631 
L 2766 1759 
L 2194 1759 
z
M 3341 1997 
L 3341 0 
L 2766 0 
L 2766 531 
Q 2569 213 2275 61 
Q 1981 -91 1556 -91 
Q 1019 -91 701 211 
Q 384 513 384 1019 
Q 384 1609 779 1909 
Q 1175 2209 1959 2209 
L 2766 2209 
L 2766 2266 
Q 2766 2663 2505 2880 
Q 2244 3097 1772 3097 
Q 1472 3097 1187 3025 
Q 903 2953 641 2809 
L 641 3341 
Q 956 3463 1253 3523 
Q 1550 3584 1831 3584 
Q 2591 3584 2966 3190 
Q 3341 2797 3341 1997 
z
" transform="scale(0.015625)"/>
       <path id="DejaVuSans-69" d="M 603 3500 
L 1178 3500 
L 1178 0 
L 603 0 
L 603 3500 
z
M 603 4863 
L 1178 4863 
L 1178 4134 
L 603 4134 
L 603 4863 
z
" transform="scale(0.015625)"/>
      </defs>
      <use xlink:href="#DejaVuSans-54"/>
      <use xlink:href="#DejaVuSans-72" x="46.333984"/>
      <use xlink:href="#DejaVuSans-61" x="87.447266"/>
      <use xlink:href="#DejaVuSans-69" x="148.726562"/>
      <use xlink:href="#DejaVuSans-6e" x="176.509766"/>
     </g>
    </g>
    <g id="line2d_36">
     <path d="M 622.81875 54.656563 
L 632.81875 54.656563 
L 642.81875 54.656563 
" style="fill: none; stroke: #ffa500; stroke-width: 1.5; stroke-linecap: square"/>
    </g>
    <g id="text_21">
     <!-- Validation -->
     <g transform="translate(650.81875 58.156563) scale(0.1 -0.1)">
      <defs>
       <path id="DejaVuSans-56" d="M 1831 0 
L 50 4666 
L 709 4666 
L 2188 738 
L 3669 4666 
L 4325 4666 
L 2547 0 
L 1831 0 
z
" transform="scale(0.015625)"/>
       <path id="DejaVuSans-6c" d="M 603 4863 
L 1178 4863 
L 1178 0 
L 603 0 
L 603 4863 
z
" transform="scale(0.015625)"/>
       <path id="DejaVuSans-74" d="M 1172 4494 
L 1172 3500 
L 2356 3500 
L 2356 3053 
L 1172 3053 
L 1172 1153 
Q 1172 725 1289 603 
Q 1406 481 1766 481 
L 2356 481 
L 2356 0 
L 1766 0 
Q 1100 0 847 248 
Q 594 497 594 1153 
L 594 3053 
L 172 3053 
L 172 3500 
L 594 3500 
L 594 4494 
L 1172 4494 
z
" transform="scale(0.015625)"/>
      </defs>
      <use xlink:href="#DejaVuSans-56"/>
      <use xlink:href="#DejaVuSans-61" x="60.658203"/>
      <use xlink:href="#DejaVuSans-6c" x="121.9375"/>
      <use xlink:href="#DejaVuSans-69" x="149.720703"/>
      <use xlink:href="#DejaVuSans-64" x="177.503906"/>
      <use xlink:href="#DejaVuSans-61" x="240.980469"/>
      <use xlink:href="#DejaVuSans-74" x="302.259766"/>
      <use xlink:href="#DejaVuSans-69" x="341.46875"/>
      <use xlink:href="#DejaVuSans-6f" x="369.251953"/>
      <use xlink:href="#DejaVuSans-6e" x="430.433594"/>
     </g>
    </g>
   </g>
  </g>
 </g>
 <defs>
  <clipPath id="p500b5cca54">
   <rect x="54.12125" y="26.88" width="655.07875" height="363.16"/>
  </clipPath>
 </defs>
</svg>
