<?xml version="1.0" encoding="utf-8" standalone="no"?>
<!DOCTYPE svg PUBLIC "-//W3C//DTD SVG 1.1//EN"
  "http://www.w3.org/Graphics/SVG/1.1/DTD/svg11.dtd">
<svg xmlns:xlink="http://www.w3.org/1999/xlink" width="720pt" height="432pt" viewBox="0 0 720 432" xmlns="http://www.w3.org/2000/svg" version="1.1">
 <metadata>
  <rdf:RDF xmlns:dc="http://purl.org/dc/elements/1.1/" xmlns:cc="http://creativecommons.org/ns#" xmlns:rdf="http://www.w3.org/1999/02/22-rdf-syntax-ns#">
   <cc:Work>
    <dc:type rdf:resource="http://purl.org/dc/dcmitype/StillImage"/>
    <dc:date>2025-05-10T19:49:18.519986</dc:date>
    <dc:format>image/svg+xml</dc:format>
    <dc:creator>
     <cc:Agent>
      <dc:title>Matplotlib v3.8.0, https://matplotlib.org/</dc:title>
     </cc:Agent>
    </dc:creator>
   </cc:Work>
  </rdf:RDF>
 </metadata>
 <defs>
  <style type="text/css">*{stroke-linejoin: round; stroke-linecap: butt}</style>
 </defs>
 <g id="figure_1">
  <g id="patch_1">
   <path d="M 0 432 
L 720 432 
L 720 0 
L 0 0 
z
" style="fill: #ffffff"/>
  </g>
  <g id="axes_1">
   <g id="patch_2">
    <path d="M 54.02 390.04 
L 709.2 390.04 
L 709.2 26.88 
L 54.02 26.88 
z
" style="fill: #ffffff"/>
   </g>
   <g id="matplotlib.axis_1">
    <g id="xtick_1">
     <g id="line2d_1">
      <path d="M 80.807853 390.04 
L 80.807853 26.88 
" clip-path="url(#pab3f8062f7)" style="fill: none; stroke: #b0b0b0; stroke-width: 0.8; stroke-linecap: square"/>
     </g>
     <g id="line2d_2">
      <defs>
       <path id="mcc7ee108b0" d="M 0 0 
L 0 3.5 
" style="stroke: #000000; stroke-width: 0.8"/>
      </defs>
      <g>
       <use xlink:href="#mcc7ee108b0" x="80.807853" y="390.04" style="stroke: #000000; stroke-width: 0.8"/>
      </g>
     </g>
     <g id="text_1">
      <!-- 0 -->
      <g transform="translate(77.626603 404.638438) scale(0.1 -0.1)">
       <defs>
        <path id="DejaVuSans-30" d="M 2034 4250 
Q 1547 4250 1301 3770 
Q 1056 3291 1056 2328 
Q 1056 1369 1301 889 
Q 1547 409 2034 409 
Q 2525 409 2770 889 
Q 3016 1369 3016 2328 
Q 3016 3291 2770 3770 
Q 2525 4250 2034 4250 
z
M 2034 4750 
Q 2819 4750 3233 4129 
Q 3647 3509 3647 2328 
Q 3647 1150 3233 529 
Q 2819 -91 2034 -91 
Q 1250 -91 836 529 
Q 422 1150 422 2328 
Q 422 3509 836 4129 
Q 1250 4750 2034 4750 
z
" transform="scale(0.015625)"/>
       </defs>
       <use xlink:href="#DejaVuSans-30"/>
      </g>
     </g>
    </g>
    <g id="xtick_2">
     <g id="line2d_3">
      <path d="M 155.634258 390.04 
L 155.634258 26.88 
" clip-path="url(#pab3f8062f7)" style="fill: none; stroke: #b0b0b0; stroke-width: 0.8; stroke-linecap: square"/>
     </g>
     <g id="line2d_4">
      <g>
       <use xlink:href="#mcc7ee108b0" x="155.634258" y="390.04" style="stroke: #000000; stroke-width: 0.8"/>
      </g>
     </g>
     <g id="text_2">
      <!-- 25 -->
      <g transform="translate(149.271758 404.638438) scale(0.1 -0.1)">
       <defs>
        <path id="DejaVuSans-32" d="M 1228 531 
L 3431 531 
L 3431 0 
L 469 0 
L 469 531 
Q 828 903 1448 1529 
Q 2069 2156 2228 2338 
Q 2531 2678 2651 2914 
Q 2772 3150 2772 3378 
Q 2772 3750 2511 3984 
Q 2250 4219 1831 4219 
Q 1534 4219 1204 4116 
Q 875 4013 500 3803 
L 500 4441 
Q 881 4594 1212 4672 
Q 1544 4750 1819 4750 
Q 2544 4750 2975 4387 
Q 3406 4025 3406 3419 
Q 3406 3131 3298 2873 
Q 3191 2616 2906 2266 
Q 2828 2175 2409 1742 
Q 1991 1309 1228 531 
z
" transform="scale(0.015625)"/>
        <path id="DejaVuSans-35" d="M 691 4666 
L 3169 4666 
L 3169 4134 
L 1269 4134 
L 1269 2991 
Q 1406 3038 1543 3061 
Q 1681 3084 1819 3084 
Q 2600 3084 3056 2656 
Q 3513 2228 3513 1497 
Q 3513 744 3044 326 
Q 2575 -91 1722 -91 
Q 1428 -91 1123 -41 
Q 819 9 494 109 
L 494 744 
Q 775 591 1075 516 
Q 1375 441 1709 441 
Q 2250 441 2565 725 
Q 2881 1009 2881 1497 
Q 2881 1984 2565 2268 
Q 2250 2553 1709 2553 
Q 1456 2553 1204 2497 
Q 953 2441 691 2322 
L 691 4666 
z
" transform="scale(0.015625)"/>
       </defs>
       <use xlink:href="#DejaVuSans-32"/>
       <use xlink:href="#DejaVuSans-35" x="63.623047"/>
      </g>
     </g>
    </g>
    <g id="xtick_3">
     <g id="line2d_5">
      <path d="M 230.460662 390.04 
L 230.460662 26.88 
" clip-path="url(#pab3f8062f7)" style="fill: none; stroke: #b0b0b0; stroke-width: 0.8; stroke-linecap: square"/>
     </g>
     <g id="line2d_6">
      <g>
       <use xlink:href="#mcc7ee108b0" x="230.460662" y="390.04" style="stroke: #000000; stroke-width: 0.8"/>
      </g>
     </g>
     <g id="text_3">
      <!-- 50 -->
      <g transform="translate(224.098162 404.638438) scale(0.1 -0.1)">
       <use xlink:href="#DejaVuSans-35"/>
       <use xlink:href="#DejaVuSans-30" x="63.623047"/>
      </g>
     </g>
    </g>
    <g id="xtick_4">
     <g id="line2d_7">
      <path d="M 305.287067 390.04 
L 305.287067 26.88 
" clip-path="url(#pab3f8062f7)" style="fill: none; stroke: #b0b0b0; stroke-width: 0.8; stroke-linecap: square"/>
     </g>
     <g id="line2d_8">
      <g>
       <use xlink:href="#mcc7ee108b0" x="305.287067" y="390.04" style="stroke: #000000; stroke-width: 0.8"/>
      </g>
     </g>
     <g id="text_4">
      <!-- 75 -->
      <g transform="translate(298.924567 404.638438) scale(0.1 -0.1)">
       <defs>
        <path id="DejaVuSans-37" d="M 525 4666 
L 3525 4666 
L 3525 4397 
L 1831 0 
L 1172 0 
L 2766 4134 
L 525 4134 
L 525 4666 
z
" transform="scale(0.015625)"/>
       </defs>
       <use xlink:href="#DejaVuSans-37"/>
       <use xlink:href="#DejaVuSans-35" x="63.623047"/>
      </g>
     </g>
    </g>
    <g id="xtick_5">
     <g id="line2d_9">
      <path d="M 380.113472 390.04 
L 380.113472 26.88 
" clip-path="url(#pab3f8062f7)" style="fill: none; stroke: #b0b0b0; stroke-width: 0.8; stroke-linecap: square"/>
     </g>
     <g id="line2d_10">
      <g>
       <use xlink:href="#mcc7ee108b0" x="380.113472" y="390.04" style="stroke: #000000; stroke-width: 0.8"/>
      </g>
     </g>
     <g id="text_5">
      <!-- 100 -->
      <g transform="translate(370.569722 404.638438) scale(0.1 -0.1)">
       <defs>
        <path id="DejaVuSans-31" d="M 794 531 
L 1825 531 
L 1825 4091 
L 703 3866 
L 703 4441 
L 1819 4666 
L 2450 4666 
L 2450 531 
L 3481 531 
L 3481 0 
L 794 0 
L 794 531 
z
" transform="scale(0.015625)"/>
       </defs>
       <use xlink:href="#DejaVuSans-31"/>
       <use xlink:href="#DejaVuSans-30" x="63.623047"/>
       <use xlink:href="#DejaVuSans-30" x="127.246094"/>
      </g>
     </g>
    </g>
    <g id="xtick_6">
     <g id="line2d_11">
      <path d="M 454.939877 390.04 
L 454.939877 26.88 
" clip-path="url(#pab3f8062f7)" style="fill: none; stroke: #b0b0b0; stroke-width: 0.8; stroke-linecap: square"/>
     </g>
     <g id="line2d_12">
      <g>
       <use xlink:href="#mcc7ee108b0" x="454.939877" y="390.04" style="stroke: #000000; stroke-width: 0.8"/>
      </g>
     </g>
     <g id="text_6">
      <!-- 125 -->
      <g transform="translate(445.396127 404.638438) scale(0.1 -0.1)">
       <use xlink:href="#DejaVuSans-31"/>
       <use xlink:href="#DejaVuSans-32" x="63.623047"/>
       <use xlink:href="#DejaVuSans-35" x="127.246094"/>
      </g>
     </g>
    </g>
    <g id="xtick_7">
     <g id="line2d_13">
      <path d="M 529.766281 390.04 
L 529.766281 26.88 
" clip-path="url(#pab3f8062f7)" style="fill: none; stroke: #b0b0b0; stroke-width: 0.8; stroke-linecap: square"/>
     </g>
     <g id="line2d_14">
      <g>
       <use xlink:href="#mcc7ee108b0" x="529.766281" y="390.04" style="stroke: #000000; stroke-width: 0.8"/>
      </g>
     </g>
     <g id="text_7">
      <!-- 150 -->
      <g transform="translate(520.222531 404.638438) scale(0.1 -0.1)">
       <use xlink:href="#DejaVuSans-31"/>
       <use xlink:href="#DejaVuSans-35" x="63.623047"/>
       <use xlink:href="#DejaVuSans-30" x="127.246094"/>
      </g>
     </g>
    </g>
    <g id="xtick_8">
     <g id="line2d_15">
      <path d="M 604.592686 390.04 
L 604.592686 26.88 
" clip-path="url(#pab3f8062f7)" style="fill: none; stroke: #b0b0b0; stroke-width: 0.8; stroke-linecap: square"/>
     </g>
     <g id="line2d_16">
      <g>
       <use xlink:href="#mcc7ee108b0" x="604.592686" y="390.04" style="stroke: #000000; stroke-width: 0.8"/>
      </g>
     </g>
     <g id="text_8">
      <!-- 175 -->
      <g transform="translate(595.048936 404.638438) scale(0.1 -0.1)">
       <use xlink:href="#DejaVuSans-31"/>
       <use xlink:href="#DejaVuSans-37" x="63.623047"/>
       <use xlink:href="#DejaVuSans-35" x="127.246094"/>
      </g>
     </g>
    </g>
    <g id="xtick_9">
     <g id="line2d_17">
      <path d="M 679.419091 390.04 
L 679.419091 26.88 
" clip-path="url(#pab3f8062f7)" style="fill: none; stroke: #b0b0b0; stroke-width: 0.8; stroke-linecap: square"/>
     </g>
     <g id="line2d_18">
      <g>
       <use xlink:href="#mcc7ee108b0" x="679.419091" y="390.04" style="stroke: #000000; stroke-width: 0.8"/>
      </g>
     </g>
     <g id="text_9">
      <!-- 200 -->
      <g transform="translate(669.875341 404.638438) scale(0.1 -0.1)">
       <use xlink:href="#DejaVuSans-32"/>
       <use xlink:href="#DejaVuSans-30" x="63.623047"/>
       <use xlink:href="#DejaVuSans-30" x="127.246094"/>
      </g>
     </g>
    </g>
    <g id="text_10">
     <!-- Epoch -->
     <g transform="translate(366.299062 418.316562) scale(0.1 -0.1)">
      <defs>
       <path id="DejaVuSans-45" d="M 628 4666 
L 3578 4666 
L 3578 4134 
L 1259 4134 
L 1259 2753 
L 3481 2753 
L 3481 2222 
L 1259 2222 
L 1259 531 
L 3634 531 
L 3634 0 
L 628 0 
L 628 4666 
z
" transform="scale(0.015625)"/>
       <path id="DejaVuSans-70" d="M 1159 525 
L 1159 -1331 
L 581 -1331 
L 581 3500 
L 1159 3500 
L 1159 2969 
Q 1341 3281 1617 3432 
Q 1894 3584 2278 3584 
Q 2916 3584 3314 3078 
Q 3713 2572 3713 1747 
Q 3713 922 3314 415 
Q 2916 -91 2278 -91 
Q 1894 -91 1617 61 
Q 1341 213 1159 525 
z
M 3116 1747 
Q 3116 2381 2855 2742 
Q 2594 3103 2138 3103 
Q 1681 3103 1420 2742 
Q 1159 2381 1159 1747 
Q 1159 1113 1420 752 
Q 1681 391 2138 391 
Q 2594 391 2855 752 
Q 3116 1113 3116 1747 
z
" transform="scale(0.015625)"/>
       <path id="DejaVuSans-6f" d="M 1959 3097 
Q 1497 3097 1228 2736 
Q 959 2375 959 1747 
Q 959 1119 1226 758 
Q 1494 397 1959 397 
Q 2419 397 2687 759 
Q 2956 1122 2956 1747 
Q 2956 2369 2687 2733 
Q 2419 3097 1959 3097 
z
M 1959 3584 
Q 2709 3584 3137 3096 
Q 3566 2609 3566 1747 
Q 3566 888 3137 398 
Q 2709 -91 1959 -91 
Q 1206 -91 779 398 
Q 353 888 353 1747 
Q 353 2609 779 3096 
Q 1206 3584 1959 3584 
z
" transform="scale(0.015625)"/>
       <path id="DejaVuSans-63" d="M 3122 3366 
L 3122 2828 
Q 2878 2963 2633 3030 
Q 2388 3097 2138 3097 
Q 1578 3097 1268 2742 
Q 959 2388 959 1747 
Q 959 1106 1268 751 
Q 1578 397 2138 397 
Q 2388 397 2633 464 
Q 2878 531 3122 666 
L 3122 134 
Q 2881 22 2623 -34 
Q 2366 -91 2075 -91 
Q 1284 -91 818 406 
Q 353 903 353 1747 
Q 353 2603 823 3093 
Q 1294 3584 2113 3584 
Q 2378 3584 2631 3529 
Q 2884 3475 3122 3366 
z
" transform="scale(0.015625)"/>
       <path id="DejaVuSans-68" d="M 3513 2113 
L 3513 0 
L 2938 0 
L 2938 2094 
Q 2938 2591 2744 2837 
Q 2550 3084 2163 3084 
Q 1697 3084 1428 2787 
Q 1159 2491 1159 1978 
L 1159 0 
L 581 0 
L 581 4863 
L 1159 4863 
L 1159 2956 
Q 1366 3272 1645 3428 
Q 1925 3584 2291 3584 
Q 2894 3584 3203 3211 
Q 3513 2838 3513 2113 
z
" transform="scale(0.015625)"/>
      </defs>
      <use xlink:href="#DejaVuSans-45"/>
      <use xlink:href="#DejaVuSans-70" x="63.183594"/>
      <use xlink:href="#DejaVuSans-6f" x="126.660156"/>
      <use xlink:href="#DejaVuSans-63" x="187.841797"/>
      <use xlink:href="#DejaVuSans-68" x="242.822266"/>
     </g>
    </g>
   </g>
   <g id="matplotlib.axis_2">
    <g id="ytick_1">
     <g id="line2d_19">
      <path d="M 54.02 349.286349 
L 709.2 349.286349 
" clip-path="url(#pab3f8062f7)" style="fill: none; stroke: #b0b0b0; stroke-width: 0.8; stroke-linecap: square"/>
     </g>
     <g id="line2d_20">
      <defs>
       <path id="m8b2cd90ad1" d="M 0 0 
L -3.5 0 
" style="stroke: #000000; stroke-width: 0.8"/>
      </defs>
      <g>
       <use xlink:href="#m8b2cd90ad1" x="54.02" y="349.286349" style="stroke: #000000; stroke-width: 0.8"/>
      </g>
     </g>
     <g id="text_11">
      <!-- 0.10 -->
      <g transform="translate(24.754375 353.085568) scale(0.1 -0.1)">
       <defs>
        <path id="DejaVuSans-2e" d="M 684 794 
L 1344 794 
L 1344 0 
L 684 0 
L 684 794 
z
" transform="scale(0.015625)"/>
       </defs>
       <use xlink:href="#DejaVuSans-30"/>
       <use xlink:href="#DejaVuSans-2e" x="63.623047"/>
       <use xlink:href="#DejaVuSans-31" x="95.410156"/>
       <use xlink:href="#DejaVuSans-30" x="159.033203"/>
      </g>
     </g>
    </g>
    <g id="ytick_2">
     <g id="line2d_21">
      <path d="M 54.02 302.297243 
L 709.2 302.297243 
" clip-path="url(#pab3f8062f7)" style="fill: none; stroke: #b0b0b0; stroke-width: 0.8; stroke-linecap: square"/>
     </g>
     <g id="line2d_22">
      <g>
       <use xlink:href="#m8b2cd90ad1" x="54.02" y="302.297243" style="stroke: #000000; stroke-width: 0.8"/>
      </g>
     </g>
     <g id="text_12">
      <!-- 0.15 -->
      <g transform="translate(24.754375 306.096462) scale(0.1 -0.1)">
       <use xlink:href="#DejaVuSans-30"/>
       <use xlink:href="#DejaVuSans-2e" x="63.623047"/>
       <use xlink:href="#DejaVuSans-31" x="95.410156"/>
       <use xlink:href="#DejaVuSans-35" x="159.033203"/>
      </g>
     </g>
    </g>
    <g id="ytick_3">
     <g id="line2d_23">
      <path d="M 54.02 255.308138 
L 709.2 255.308138 
" clip-path="url(#pab3f8062f7)" style="fill: none; stroke: #b0b0b0; stroke-width: 0.8; stroke-linecap: square"/>
     </g>
     <g id="line2d_24">
      <g>
       <use xlink:href="#m8b2cd90ad1" x="54.02" y="255.308138" style="stroke: #000000; stroke-width: 0.8"/>
      </g>
     </g>
     <g id="text_13">
      <!-- 0.20 -->
      <g transform="translate(24.754375 259.107357) scale(0.1 -0.1)">
       <use xlink:href="#DejaVuSans-30"/>
       <use xlink:href="#DejaVuSans-2e" x="63.623047"/>
       <use xlink:href="#DejaVuSans-32" x="95.410156"/>
       <use xlink:href="#DejaVuSans-30" x="159.033203"/>
      </g>
     </g>
    </g>
    <g id="ytick_4">
     <g id="line2d_25">
      <path d="M 54.02 208.319033 
L 709.2 208.319033 
" clip-path="url(#pab3f8062f7)" style="fill: none; stroke: #b0b0b0; stroke-width: 0.8; stroke-linecap: square"/>
     </g>
     <g id="line2d_26">
      <g>
       <use xlink:href="#m8b2cd90ad1" x="54.02" y="208.319033" style="stroke: #000000; stroke-width: 0.8"/>
      </g>
     </g>
     <g id="text_14">
      <!-- 0.25 -->
      <g transform="translate(24.754375 212.118251) scale(0.1 -0.1)">
       <use xlink:href="#DejaVuSans-30"/>
       <use xlink:href="#DejaVuSans-2e" x="63.623047"/>
       <use xlink:href="#DejaVuSans-32" x="95.410156"/>
       <use xlink:href="#DejaVuSans-35" x="159.033203"/>
      </g>
     </g>
    </g>
    <g id="ytick_5">
     <g id="line2d_27">
      <path d="M 54.02 161.329927 
L 709.2 161.329927 
" clip-path="url(#pab3f8062f7)" style="fill: none; stroke: #b0b0b0; stroke-width: 0.8; stroke-linecap: square"/>
     </g>
     <g id="line2d_28">
      <g>
       <use xlink:href="#m8b2cd90ad1" x="54.02" y="161.329927" style="stroke: #000000; stroke-width: 0.8"/>
      </g>
     </g>
     <g id="text_15">
      <!-- 0.30 -->
      <g transform="translate(24.754375 165.129146) scale(0.1 -0.1)">
       <defs>
        <path id="DejaVuSans-33" d="M 2597 2516 
Q 3050 2419 3304 2112 
Q 3559 1806 3559 1356 
Q 3559 666 3084 287 
Q 2609 -91 1734 -91 
Q 1441 -91 1130 -33 
Q 819 25 488 141 
L 488 750 
Q 750 597 1062 519 
Q 1375 441 1716 441 
Q 2309 441 2620 675 
Q 2931 909 2931 1356 
Q 2931 1769 2642 2001 
Q 2353 2234 1838 2234 
L 1294 2234 
L 1294 2753 
L 1863 2753 
Q 2328 2753 2575 2939 
Q 2822 3125 2822 3475 
Q 2822 3834 2567 4026 
Q 2313 4219 1838 4219 
Q 1578 4219 1281 4162 
Q 984 4106 628 3988 
L 628 4550 
Q 988 4650 1302 4700 
Q 1616 4750 1894 4750 
Q 2613 4750 3031 4423 
Q 3450 4097 3450 3541 
Q 3450 3153 3228 2886 
Q 3006 2619 2597 2516 
z
" transform="scale(0.015625)"/>
       </defs>
       <use xlink:href="#DejaVuSans-30"/>
       <use xlink:href="#DejaVuSans-2e" x="63.623047"/>
       <use xlink:href="#DejaVuSans-33" x="95.410156"/>
       <use xlink:href="#DejaVuSans-30" x="159.033203"/>
      </g>
     </g>
    </g>
    <g id="ytick_6">
     <g id="line2d_29">
      <path d="M 54.02 114.340822 
L 709.2 114.340822 
" clip-path="url(#pab3f8062f7)" style="fill: none; stroke: #b0b0b0; stroke-width: 0.8; stroke-linecap: square"/>
     </g>
     <g id="line2d_30">
      <g>
       <use xlink:href="#m8b2cd90ad1" x="54.02" y="114.340822" style="stroke: #000000; stroke-width: 0.8"/>
      </g>
     </g>
     <g id="text_16">
      <!-- 0.35 -->
      <g transform="translate(24.754375 118.140041) scale(0.1 -0.1)">
       <use xlink:href="#DejaVuSans-30"/>
       <use xlink:href="#DejaVuSans-2e" x="63.623047"/>
       <use xlink:href="#DejaVuSans-33" x="95.410156"/>
       <use xlink:href="#DejaVuSans-35" x="159.033203"/>
      </g>
     </g>
    </g>
    <g id="ytick_7">
     <g id="line2d_31">
      <path d="M 54.02 67.351716 
L 709.2 67.351716 
" clip-path="url(#pab3f8062f7)" style="fill: none; stroke: #b0b0b0; stroke-width: 0.8; stroke-linecap: square"/>
     </g>
     <g id="line2d_32">
      <g>
       <use xlink:href="#m8b2cd90ad1" x="54.02" y="67.351716" style="stroke: #000000; stroke-width: 0.8"/>
      </g>
     </g>
     <g id="text_17">
      <!-- 0.40 -->
      <g transform="translate(24.754375 71.150935) scale(0.1 -0.1)">
       <defs>
        <path id="DejaVuSans-34" d="M 2419 4116 
L 825 1625 
L 2419 1625 
L 2419 4116 
z
M 2253 4666 
L 3047 4666 
L 3047 1625 
L 3713 1625 
L 3713 1100 
L 3047 1100 
L 3047 0 
L 2419 0 
L 2419 1100 
L 313 1100 
L 313 1709 
L 2253 4666 
z
" transform="scale(0.015625)"/>
       </defs>
       <use xlink:href="#DejaVuSans-30"/>
       <use xlink:href="#DejaVuSans-2e" x="63.623047"/>
       <use xlink:href="#DejaVuSans-34" x="95.410156"/>
       <use xlink:href="#DejaVuSans-30" x="159.033203"/>
      </g>
     </g>
    </g>
    <g id="text_18">
     <!-- Bitwise-error -->
     <g transform="translate(18.674688 240.305312) rotate(-90) scale(0.1 -0.1)">
      <defs>
       <path id="DejaVuSans-42" d="M 1259 2228 
L 1259 519 
L 2272 519 
Q 2781 519 3026 730 
Q 3272 941 3272 1375 
Q 3272 1813 3026 2020 
Q 2781 2228 2272 2228 
L 1259 2228 
z
M 1259 4147 
L 1259 2741 
L 2194 2741 
Q 2656 2741 2882 2914 
Q 3109 3088 3109 3444 
Q 3109 3797 2882 3972 
Q 2656 4147 2194 4147 
L 1259 4147 
z
M 628 4666 
L 2241 4666 
Q 2963 4666 3353 4366 
Q 3744 4066 3744 3513 
Q 3744 3084 3544 2831 
Q 3344 2578 2956 2516 
Q 3422 2416 3680 2098 
Q 3938 1781 3938 1306 
Q 3938 681 3513 340 
Q 3088 0 2303 0 
L 628 0 
L 628 4666 
z
" transform="scale(0.015625)"/>
       <path id="DejaVuSans-69" d="M 603 3500 
L 1178 3500 
L 1178 0 
L 603 0 
L 603 3500 
z
M 603 4863 
L 1178 4863 
L 1178 4134 
L 603 4134 
L 603 4863 
z
" transform="scale(0.015625)"/>
       <path id="DejaVuSans-74" d="M 1172 4494 
L 1172 3500 
L 2356 3500 
L 2356 3053 
L 1172 3053 
L 1172 1153 
Q 1172 725 1289 603 
Q 1406 481 1766 481 
L 2356 481 
L 2356 0 
L 1766 0 
Q 1100 0 847 248 
Q 594 497 594 1153 
L 594 3053 
L 172 3053 
L 172 3500 
L 594 3500 
L 594 4494 
L 1172 4494 
z
" transform="scale(0.015625)"/>
       <path id="DejaVuSans-77" d="M 269 3500 
L 844 3500 
L 1563 769 
L 2278 3500 
L 2956 3500 
L 3675 769 
L 4391 3500 
L 4966 3500 
L 4050 0 
L 3372 0 
L 2619 2869 
L 1863 0 
L 1184 0 
L 269 3500 
z
" transform="scale(0.015625)"/>
       <path id="DejaVuSans-73" d="M 2834 3397 
L 2834 2853 
Q 2591 2978 2328 3040 
Q 2066 3103 1784 3103 
Q 1356 3103 1142 2972 
Q 928 2841 928 2578 
Q 928 2378 1081 2264 
Q 1234 2150 1697 2047 
L 1894 2003 
Q 2506 1872 2764 1633 
Q 3022 1394 3022 966 
Q 3022 478 2636 193 
Q 2250 -91 1575 -91 
Q 1294 -91 989 -36 
Q 684 19 347 128 
L 347 722 
Q 666 556 975 473 
Q 1284 391 1588 391 
Q 1994 391 2212 530 
Q 2431 669 2431 922 
Q 2431 1156 2273 1281 
Q 2116 1406 1581 1522 
L 1381 1569 
Q 847 1681 609 1914 
Q 372 2147 372 2553 
Q 372 3047 722 3315 
Q 1072 3584 1716 3584 
Q 2034 3584 2315 3537 
Q 2597 3491 2834 3397 
z
" transform="scale(0.015625)"/>
       <path id="DejaVuSans-65" d="M 3597 1894 
L 3597 1613 
L 953 1613 
Q 991 1019 1311 708 
Q 1631 397 2203 397 
Q 2534 397 2845 478 
Q 3156 559 3463 722 
L 3463 178 
Q 3153 47 2828 -22 
Q 2503 -91 2169 -91 
Q 1331 -91 842 396 
Q 353 884 353 1716 
Q 353 2575 817 3079 
Q 1281 3584 2069 3584 
Q 2775 3584 3186 3129 
Q 3597 2675 3597 1894 
z
M 3022 2063 
Q 3016 2534 2758 2815 
Q 2500 3097 2075 3097 
Q 1594 3097 1305 2825 
Q 1016 2553 972 2059 
L 3022 2063 
z
" transform="scale(0.015625)"/>
       <path id="DejaVuSans-2d" d="M 313 2009 
L 1997 2009 
L 1997 1497 
L 313 1497 
L 313 2009 
z
" transform="scale(0.015625)"/>
       <path id="DejaVuSans-72" d="M 2631 2963 
Q 2534 3019 2420 3045 
Q 2306 3072 2169 3072 
Q 1681 3072 1420 2755 
Q 1159 2438 1159 1844 
L 1159 0 
L 581 0 
L 581 3500 
L 1159 3500 
L 1159 2956 
Q 1341 3275 1631 3429 
Q 1922 3584 2338 3584 
Q 2397 3584 2469 3576 
Q 2541 3569 2628 3553 
L 2631 2963 
z
" transform="scale(0.015625)"/>
      </defs>
      <use xlink:href="#DejaVuSans-42"/>
      <use xlink:href="#DejaVuSans-69" x="68.603516"/>
      <use xlink:href="#DejaVuSans-74" x="96.386719"/>
      <use xlink:href="#DejaVuSans-77" x="135.595703"/>
      <use xlink:href="#DejaVuSans-69" x="217.382812"/>
      <use xlink:href="#DejaVuSans-73" x="245.166016"/>
      <use xlink:href="#DejaVuSans-65" x="297.265625"/>
      <use xlink:href="#DejaVuSans-2d" x="358.789062"/>
      <use xlink:href="#DejaVuSans-65" x="394.873047"/>
      <use xlink:href="#DejaVuSans-72" x="456.396484"/>
      <use xlink:href="#DejaVuSans-72" x="495.759766"/>
      <use xlink:href="#DejaVuSans-6f" x="534.623047"/>
      <use xlink:href="#DejaVuSans-72" x="595.804688"/>
     </g>
    </g>
   </g>
   <g id="line2d_33">
    <path d="M 83.800909 43.387273 
L 86.793965 75.621799 
L 89.787021 83.609947 
L 92.780078 90.188422 
L 95.773134 91.88003 
L 98.76619 95.263245 
L 101.759246 96.390984 
L 104.752302 97.236788 
L 107.745359 101.089894 
L 113.731471 105.318914 
L 116.724527 106.164718 
L 122.71064 114.4348 
L 125.703696 118.851776 
L 128.696752 121.953057 
L 131.689808 128.155619 
L 134.682864 133.418399 
L 137.675921 138.023331 
L 143.662033 149.206738 
L 146.655089 155.973169 
L 149.648145 161.799818 
L 152.641201 170.63377 
L 155.634258 175.050746 
L 158.627314 180.783417 
L 161.62037 192.906606 
L 164.613426 208.600967 
L 167.606482 220.630178 
L 170.599539 230.591869 
L 173.592595 133.982268 
L 176.585651 135.673876 
L 179.578707 138.023331 
L 182.571763 142.158372 
L 185.56482 148.266956 
L 188.557876 149.488673 
L 191.550932 153.529736 
L 194.543988 155.315322 
L 197.537044 164.055295 
L 200.530101 172.2314 
L 203.523157 181.629221 
L 206.516213 187.831783 
L 209.509269 191.12102 
L 212.502325 197.981429 
L 215.495381 202.210449 
L 218.488438 203.150231 
L 221.481494 204.653882 
L 224.47455 207.285272 
L 227.467606 210.950423 
L 230.460662 210.57451 
L 233.453719 242.996992 
L 236.446775 262.732417 
L 239.439831 266.77348 
L 242.432887 274.66765 
L 245.425943 283.689558 
L 248.419 292.147597 
L 251.412056 297.974246 
L 254.405112 304.270786 
L 257.398168 305.680459 
L 260.391224 306.338307 
L 266.377337 315.830106 
L 269.370393 319.777191 
L 275.356505 320.34106 
L 278.349561 322.502559 
L 281.342618 323.254384 
L 284.335674 323.724276 
L 290.321786 323.724276 
L 293.314842 328.329208 
L 296.307899 332.558227 
L 299.300955 335.001661 
L 302.294011 335.189617 
L 305.287067 337.351116 
L 308.280123 336.975203 
L 311.27318 337.257138 
L 314.266236 344.117547 
L 317.259292 345.809155 
L 320.252348 348.15861 
L 323.245404 348.534523 
L 332.224573 350.320109 
L 335.217629 350.320109 
L 338.210685 350.883978 
L 341.203741 351.071935 
L 344.196798 351.447848 
L 347.189854 350.602044 
L 350.18291 354.267194 
L 353.175966 359.154061 
L 356.169022 360.187821 
L 359.162079 360.751691 
L 362.155135 361.691473 
L 365.148191 361.597495 
L 368.141247 362.067386 
L 371.134303 361.409538 
L 374.12736 361.973407 
L 377.120416 363.007168 
L 380.113472 362.725233 
L 383.106528 345.715177 
L 386.099584 345.339264 
L 389.09264 347.970654 
L 392.085697 347.782698 
L 395.078753 346.748937 
L 398.071809 343.835613 
L 401.064865 338.384876 
L 404.057921 329.550925 
L 407.050978 317.991605 
L 410.044034 309.157653 
L 413.03709 300.793592 
L 416.030146 291.207815 
L 419.023202 288.29449 
L 422.016259 284.911274 
L 425.009315 285.287187 
L 428.002371 286.226969 
L 430.995427 286.602882 
L 433.988483 284.817296 
L 436.98154 286.602882 
L 439.974596 289.516207 
L 442.967652 288.482446 
L 445.960708 285.757078 
L 448.953764 292.805444 
L 451.94682 292.52351 
L 454.939877 294.027161 
L 457.932933 294.778987 
L 460.925989 296.470594 
L 463.919045 298.726071 
L 466.912101 297.128442 
L 469.905158 299.947788 
L 472.898214 301.921331 
L 475.89127 305.210568 
L 478.884326 305.680459 
L 481.877382 311.507108 
L 484.870439 312.44689 
L 487.863495 315.736128 
L 490.856551 313.104738 
L 496.842663 319.025365 
L 499.83572 318.931387 
L 502.828776 320.153104 
L 505.821832 320.529016 
L 508.814888 318.367518 
L 511.807944 321.37482 
L 517.794057 322.596537 
L 520.787113 324.945992 
L 523.780169 324.758036 
L 526.773225 325.60384 
L 529.766281 325.03997 
L 532.759338 325.509862 
L 535.752394 326.6376 
L 538.74545 327.107491 
L 541.738506 327.765339 
L 544.731562 328.141251 
L 547.724619 329.926837 
L 550.717675 329.550925 
L 553.710731 330.020816 
L 559.696843 328.987055 
L 562.689899 331.054576 
L 565.682956 330.396729 
L 568.676012 331.430489 
L 571.669068 331.148554 
L 574.662124 332.370271 
L 577.65518 333.310053 
L 586.634349 333.779944 
L 589.627405 333.873922 
L 592.620461 333.404031 
L 595.613518 335.189617 
L 598.606574 334.907683 
L 601.59963 335.753487 
L 604.592686 336.317356 
L 607.585742 334.155857 
L 610.578799 334.625748 
L 613.571855 336.505312 
L 619.557967 338.854767 
L 622.551023 338.572833 
L 625.544079 341.016266 
L 628.537136 340.264441 
L 631.530192 342.519918 
L 634.523248 342.050027 
L 637.516304 344.681417 
L 640.50936 343.4597 
L 643.502417 344.023569 
L 646.495473 342.895831 
L 649.488529 344.49346 
L 652.481585 344.963351 
L 655.474641 344.587438 
L 658.467698 345.715177 
L 661.460754 345.809155 
L 664.45381 345.339264 
L 667.446866 344.49346 
L 670.439922 346.560981 
L 673.432979 345.52722 
L 676.426035 347.12485 
L 679.419091 345.715177 
L 679.419091 345.715177 
" clip-path="url(#pab3f8062f7)" style="fill: none; stroke: #0000ff; stroke-width: 1.5; stroke-linecap: square"/>
   </g>
   <g id="line2d_34">
    <path d="M 83.800909 51.469399 
L 86.793965 71.674714 
L 89.787021 81.542426 
L 92.780078 70.077085 
L 95.773134 73.554278 
L 98.76619 75.339864 
L 101.759246 84.643707 
L 104.752302 87.65101 
L 107.745359 71.580736 
L 110.738415 83.515969 
L 113.731471 85.395533 
L 116.724527 94.417441 
L 119.717583 100.995916 
L 122.71064 86.335315 
L 125.703696 100.713981 
L 128.696752 76.373625 
L 131.689808 103.439349 
L 134.682864 115.844473 
L 137.675921 102.405589 
L 140.668977 135.016028 
L 143.662033 125.524229 
L 146.655089 135.861832 
L 149.648145 156.724995 
L 152.641201 175.144724 
L 155.634258 178.903853 
L 158.627314 185.576306 
L 161.62037 196.195843 
L 164.613426 211.796226 
L 167.606482 213.487834 
L 170.599539 240.177646 
L 173.592595 132.572595 
L 176.585651 139.339026 
L 179.578707 140.278808 
L 182.571763 153.999627 
L 185.56482 151.932106 
L 188.557876 153.435758 
L 191.550932 161.987775 
L 194.543988 168.56625 
L 197.537044 174.486877 
L 200.530101 177.870092 
L 203.523157 177.588158 
L 206.516213 195.725952 
L 209.509269 189.241456 
L 212.502325 200.142928 
L 215.495381 208.600967 
L 218.488438 211.138379 
L 221.481494 208.600967 
L 224.47455 220.160287 
L 227.467606 220.818135 
L 230.460662 218.844592 
L 233.453719 273.257976 
L 236.446775 272.130238 
L 239.439831 278.990647 
L 242.432887 289.516207 
L 245.425943 302.391222 
L 248.419 307.466045 
L 251.412056 311.883021 
L 254.405112 318.649452 
L 257.398168 319.025365 
L 260.391224 320.716973 
L 263.38428 328.611143 
L 266.377337 334.061879 
L 269.370393 331.90038 
L 272.363449 334.061879 
L 275.356505 332.182315 
L 278.349561 330.86662 
L 281.342618 335.283595 
L 284.335674 334.155857 
L 287.32873 336.59929 
L 290.321786 331.148554 
L 293.314842 343.177765 
L 296.307899 345.997112 
L 299.300955 348.064632 
L 302.294011 350.79 
L 305.287067 351.635804 
L 308.280123 348.628501 
L 311.27318 353.045477 
L 314.266236 357.744388 
L 317.259292 359.060083 
L 320.252348 358.872126 
L 323.245404 364.792754 
L 326.23846 362.631255 
L 329.231517 362.34932 
L 332.224573 364.604797 
L 335.217629 361.973407 
L 338.210685 363.195124 
L 341.203741 362.819211 
L 344.196798 361.409538 
L 347.189854 363.852972 
L 350.18291 370.619403 
L 353.175966 370.995316 
L 356.169022 371.559185 
L 359.162079 370.619403 
L 362.155135 373.250793 
L 365.148191 371.27725 
L 368.141247 371.747141 
L 371.134303 369.585642 
L 374.12736 371.747141 
L 377.120416 373.532727 
L 380.113472 372.311011 
L 383.106528 360.187821 
L 386.099584 361.31556 
L 389.09264 364.604797 
L 392.085697 358.778148 
L 395.078753 358.120301 
L 398.071809 351.35387 
L 401.064865 343.4597 
L 404.057921 329.081034 
L 407.050978 299.289941 
L 410.044034 295.812747 
L 413.03709 291.865662 
L 416.030146 278.144843 
L 419.023202 278.3328 
L 422.016259 266.585523 
L 425.009315 278.990647 
L 428.002371 281.622037 
L 430.995427 277.205061 
L 433.988483 277.76893 
L 436.98154 289.140294 
L 439.974596 285.005253 
L 442.967652 288.576425 
L 445.960708 296.282638 
L 448.953764 291.019858 
L 451.94682 298.350159 
L 454.939877 300.323701 
L 457.932933 299.665854 
L 460.925989 299.759832 
L 463.919045 304.740677 
L 466.912101 304.176808 
L 469.905158 311.695065 
L 472.898214 314.514411 
L 475.89127 316.67591 
L 478.884326 313.668607 
L 481.877382 312.916781 
L 484.870439 311.41313 
L 487.863495 320.998907 
L 490.856551 315.830106 
L 493.849607 317.991605 
L 496.842663 324.00621 
L 499.83572 330.396729 
L 502.828776 323.536319 
L 505.821832 325.979753 
L 508.814888 329.550925 
L 511.807944 324.945992 
L 514.801 331.90038 
L 517.794057 327.953295 
L 520.787113 331.148554 
L 523.780169 319.965147 
L 526.773225 333.967901 
L 529.766281 334.719726 
L 532.759338 337.351116 
L 535.752394 331.054576 
L 538.74545 335.471552 
L 541.738506 332.088336 
L 544.731562 331.994358 
L 547.724619 329.832859 
L 550.717675 337.821007 
L 553.710731 329.362968 
L 556.703787 310.661304 
L 559.696843 333.028118 
L 562.689899 331.712423 
L 565.682956 331.806402 
L 568.676012 339.136702 
L 571.669068 335.189617 
L 574.662124 337.727029 
L 577.65518 340.640353 
L 580.648237 337.914985 
L 583.641293 344.869373 
L 586.634349 339.700571 
L 589.627405 332.558227 
L 592.620461 331.148554 
L 595.613518 344.775395 
L 598.606574 344.399482 
L 601.59963 334.53177 
L 604.592686 337.633051 
L 607.585742 336.881225 
L 610.578799 340.82831 
L 613.571855 332.182315 
L 616.564911 344.211526 
L 619.557967 335.189617 
L 622.551023 343.741634 
L 625.544079 347.594741 
L 628.537136 335.941443 
L 631.530192 345.997112 
L 634.523248 348.15861 
L 637.516304 348.252589 
L 640.50936 352.011717 
L 643.502417 346.654959 
L 646.495473 349.286349 
L 649.488529 350.977957 
L 652.481585 352.857521 
L 655.474641 349.75624 
L 658.467698 352.763543 
L 661.460754 345.245286 
L 664.45381 347.688719 
L 667.446866 352.105695 
L 670.439922 349.662262 
L 673.432979 352.763543 
L 676.426035 346.09109 
L 679.419091 353.42139 
L 679.419091 353.42139 
" clip-path="url(#pab3f8062f7)" style="fill: none; stroke: #ffa500; stroke-width: 1.5; stroke-linecap: square"/>
   </g>
   <g id="patch_3">
    <path d="M 54.02 390.04 
L 54.02 26.88 
" style="fill: none; stroke: #000000; stroke-width: 0.8; stroke-linejoin: miter; stroke-linecap: square"/>
   </g>
   <g id="patch_4">
    <path d="M 709.2 390.04 
L 709.2 26.88 
" style="fill: none; stroke: #000000; stroke-width: 0.8; stroke-linejoin: miter; stroke-linecap: square"/>
   </g>
   <g id="patch_5">
    <path d="M 54.02 390.04 
L 709.2 390.04 
" style="fill: none; stroke: #000000; stroke-width: 0.8; stroke-linejoin: miter; stroke-linecap: square"/>
   </g>
   <g id="patch_6">
    <path d="M 54.02 26.88 
L 709.2 26.88 
" style="fill: none; stroke: #000000; stroke-width: 0.8; stroke-linejoin: miter; stroke-linecap: square"/>
   </g>
   <g id="text_19">
    <!-- Bitwise-error for Gaussian_noise_01_v2 -->
    <g transform="translate(263.844063 20.88) scale(0.12 -0.12)">
     <defs>
      <path id="DejaVuSans-20" transform="scale(0.015625)"/>
      <path id="DejaVuSans-66" d="M 2375 4863 
L 2375 4384 
L 1825 4384 
Q 1516 4384 1395 4259 
Q 1275 4134 1275 3809 
L 1275 3500 
L 2222 3500 
L 2222 3053 
L 1275 3053 
L 1275 0 
L 697 0 
L 697 3053 
L 147 3053 
L 147 3500 
L 697 3500 
L 697 3744 
Q 697 4328 969 4595 
Q 1241 4863 1831 4863 
L 2375 4863 
z
" transform="scale(0.015625)"/>
      <path id="DejaVuSans-47" d="M 3809 666 
L 3809 1919 
L 2778 1919 
L 2778 2438 
L 4434 2438 
L 4434 434 
Q 4069 175 3628 42 
Q 3188 -91 2688 -91 
Q 1594 -91 976 548 
Q 359 1188 359 2328 
Q 359 3472 976 4111 
Q 1594 4750 2688 4750 
Q 3144 4750 3555 4637 
Q 3966 4525 4313 4306 
L 4313 3634 
Q 3963 3931 3569 4081 
Q 3175 4231 2741 4231 
Q 1884 4231 1454 3753 
Q 1025 3275 1025 2328 
Q 1025 1384 1454 906 
Q 1884 428 2741 428 
Q 3075 428 3337 486 
Q 3600 544 3809 666 
z
" transform="scale(0.015625)"/>
      <path id="DejaVuSans-61" d="M 2194 1759 
Q 1497 1759 1228 1600 
Q 959 1441 959 1056 
Q 959 750 1161 570 
Q 1363 391 1709 391 
Q 2188 391 2477 730 
Q 2766 1069 2766 1631 
L 2766 1759 
L 2194 1759 
z
M 3341 1997 
L 3341 0 
L 2766 0 
L 2766 531 
Q 2569 213 2275 61 
Q 1981 -91 1556 -91 
Q 1019 -91 701 211 
Q 384 513 384 1019 
Q 384 1609 779 1909 
Q 1175 2209 1959 2209 
L 2766 2209 
L 2766 2266 
Q 2766 2663 2505 2880 
Q 2244 3097 1772 3097 
Q 1472 3097 1187 3025 
Q 903 2953 641 2809 
L 641 3341 
Q 956 3463 1253 3523 
Q 1550 3584 1831 3584 
Q 2591 3584 2966 3190 
Q 3341 2797 3341 1997 
z
" transform="scale(0.015625)"/>
      <path id="DejaVuSans-75" d="M 544 1381 
L 544 3500 
L 1119 3500 
L 1119 1403 
Q 1119 906 1312 657 
Q 1506 409 1894 409 
Q 2359 409 2629 706 
Q 2900 1003 2900 1516 
L 2900 3500 
L 3475 3500 
L 3475 0 
L 2900 0 
L 2900 538 
Q 2691 219 2414 64 
Q 2138 -91 1772 -91 
Q 1169 -91 856 284 
Q 544 659 544 1381 
z
M 1991 3584 
L 1991 3584 
z
" transform="scale(0.015625)"/>
      <path id="DejaVuSans-6e" d="M 3513 2113 
L 3513 0 
L 2938 0 
L 2938 2094 
Q 2938 2591 2744 2837 
Q 2550 3084 2163 3084 
Q 1697 3084 1428 2787 
Q 1159 2491 1159 1978 
L 1159 0 
L 581 0 
L 581 3500 
L 1159 3500 
L 1159 2956 
Q 1366 3272 1645 3428 
Q 1925 3584 2291 3584 
Q 2894 3584 3203 3211 
Q 3513 2838 3513 2113 
z
" transform="scale(0.015625)"/>
      <path id="DejaVuSans-5f" d="M 3263 -1063 
L 3263 -1509 
L -63 -1509 
L -63 -1063 
L 3263 -1063 
z
" transform="scale(0.015625)"/>
      <path id="DejaVuSans-76" d="M 191 3500 
L 800 3500 
L 1894 563 
L 2988 3500 
L 3597 3500 
L 2284 0 
L 1503 0 
L 191 3500 
z
" transform="scale(0.015625)"/>
     </defs>
     <use xlink:href="#DejaVuSans-42"/>
     <use xlink:href="#DejaVuSans-69" x="68.603516"/>
     <use xlink:href="#DejaVuSans-74" x="96.386719"/>
     <use xlink:href="#DejaVuSans-77" x="135.595703"/>
     <use xlink:href="#DejaVuSans-69" x="217.382812"/>
     <use xlink:href="#DejaVuSans-73" x="245.166016"/>
     <use xlink:href="#DejaVuSans-65" x="297.265625"/>
     <use xlink:href="#DejaVuSans-2d" x="358.789062"/>
     <use xlink:href="#DejaVuSans-65" x="394.873047"/>
     <use xlink:href="#DejaVuSans-72" x="456.396484"/>
     <use xlink:href="#DejaVuSans-72" x="495.759766"/>
     <use xlink:href="#DejaVuSans-6f" x="534.623047"/>
     <use xlink:href="#DejaVuSans-72" x="595.804688"/>
     <use xlink:href="#DejaVuSans-20" x="636.917969"/>
     <use xlink:href="#DejaVuSans-66" x="668.705078"/>
     <use xlink:href="#DejaVuSans-6f" x="703.910156"/>
     <use xlink:href="#DejaVuSans-72" x="765.091797"/>
     <use xlink:href="#DejaVuSans-20" x="806.205078"/>
     <use xlink:href="#DejaVuSans-47" x="837.992188"/>
     <use xlink:href="#DejaVuSans-61" x="915.482422"/>
     <use xlink:href="#DejaVuSans-75" x="976.761719"/>
     <use xlink:href="#DejaVuSans-73" x="1040.140625"/>
     <use xlink:href="#DejaVuSans-73" x="1092.240234"/>
     <use xlink:href="#DejaVuSans-69" x="1144.339844"/>
     <use xlink:href="#DejaVuSans-61" x="1172.123047"/>
     <use xlink:href="#DejaVuSans-6e" x="1233.402344"/>
     <use xlink:href="#DejaVuSans-5f" x="1296.78125"/>
     <use xlink:href="#DejaVuSans-6e" x="1346.78125"/>
     <use xlink:href="#DejaVuSans-6f" x="1410.160156"/>
     <use xlink:href="#DejaVuSans-69" x="1471.341797"/>
     <use xlink:href="#DejaVuSans-73" x="1499.125"/>
     <use xlink:href="#DejaVuSans-65" x="1551.224609"/>
     <use xlink:href="#DejaVuSans-5f" x="1612.748047"/>
     <use xlink:href="#DejaVuSans-30" x="1662.748047"/>
     <use xlink:href="#DejaVuSans-31" x="1726.371094"/>
     <use xlink:href="#DejaVuSans-5f" x="1789.994141"/>
     <use xlink:href="#DejaVuSans-76" x="1839.994141"/>
     <use xlink:href="#DejaVuSans-32" x="1899.173828"/>
    </g>
   </g>
   <g id="legend_1">
    <g id="patch_7">
     <path d="M 620.81875 64.23625 
L 702.2 64.23625 
Q 704.2 64.23625 704.2 62.23625 
L 704.2 33.88 
Q 704.2 31.88 702.2 31.88 
L 620.81875 31.88 
Q 618.81875 31.88 618.81875 33.88 
L 618.81875 62.23625 
Q 618.81875 64.23625 620.81875 64.23625 
z
" style="fill: #ffffff; opacity: 0.8; stroke: #cccccc; stroke-linejoin: miter"/>
    </g>
    <g id="line2d_35">
     <path d="M 622.81875 39.978437 
L 632.81875 39.978437 
L 642.81875 39.978437 
" style="fill: none; stroke: #0000ff; stroke-width: 1.5; stroke-linecap: square"/>
    </g>
    <g id="text_20">
     <!-- Train -->
     <g transform="translate(650.81875 43.478437) scale(0.1 -0.1)">
      <defs>
       <path id="DejaVuSans-54" d="M -19 4666 
L 3928 4666 
L 3928 4134 
L 2272 4134 
L 2272 0 
L 1638 0 
L 1638 4134 
L -19 4134 
L -19 4666 
z
" transform="scale(0.015625)"/>
      </defs>
      <use xlink:href="#DejaVuSans-54"/>
      <use xlink:href="#DejaVuSans-72" x="46.333984"/>
      <use xlink:href="#DejaVuSans-61" x="87.447266"/>
      <use xlink:href="#DejaVuSans-69" x="148.726562"/>
      <use xlink:href="#DejaVuSans-6e" x="176.509766"/>
     </g>
    </g>
    <g id="line2d_36">
     <path d="M 622.81875 54.656563 
L 632.81875 54.656563 
L 642.81875 54.656563 
" style="fill: none; stroke: #ffa500; stroke-width: 1.5; stroke-linecap: square"/>
    </g>
    <g id="text_21">
     <!-- Validation -->
     <g transform="translate(650.81875 58.156563) scale(0.1 -0.1)">
      <defs>
       <path id="DejaVuSans-56" d="M 1831 0 
L 50 4666 
L 709 4666 
L 2188 738 
L 3669 4666 
L 4325 4666 
L 2547 0 
L 1831 0 
z
" transform="scale(0.015625)"/>
       <path id="DejaVuSans-6c" d="M 603 4863 
L 1178 4863 
L 1178 0 
L 603 0 
L 603 4863 
z
" transform="scale(0.015625)"/>
       <path id="DejaVuSans-64" d="M 2906 2969 
L 2906 4863 
L 3481 4863 
L 3481 0 
L 2906 0 
L 2906 525 
Q 2725 213 2448 61 
Q 2172 -91 1784 -91 
Q 1150 -91 751 415 
Q 353 922 353 1747 
Q 353 2572 751 3078 
Q 1150 3584 1784 3584 
Q 2172 3584 2448 3432 
Q 2725 3281 2906 2969 
z
M 947 1747 
Q 947 1113 1208 752 
Q 1469 391 1925 391 
Q 2381 391 2643 752 
Q 2906 1113 2906 1747 
Q 2906 2381 2643 2742 
Q 2381 3103 1925 3103 
Q 1469 3103 1208 2742 
Q 947 2381 947 1747 
z
" transform="scale(0.015625)"/>
      </defs>
      <use xlink:href="#DejaVuSans-56"/>
      <use xlink:href="#DejaVuSans-61" x="60.658203"/>
      <use xlink:href="#DejaVuSans-6c" x="121.9375"/>
      <use xlink:href="#DejaVuSans-69" x="149.720703"/>
      <use xlink:href="#DejaVuSans-64" x="177.503906"/>
      <use xlink:href="#DejaVuSans-61" x="240.980469"/>
      <use xlink:href="#DejaVuSans-74" x="302.259766"/>
      <use xlink:href="#DejaVuSans-69" x="341.46875"/>
      <use xlink:href="#DejaVuSans-6f" x="369.251953"/>
      <use xlink:href="#DejaVuSans-6e" x="430.433594"/>
     </g>
    </g>
   </g>
  </g>
 </g>
 <defs>
  <clipPath id="pab3f8062f7">
   <rect x="54.02" y="26.88" width="655.18" height="363.16"/>
  </clipPath>
 </defs>
</svg>
