<?xml version="1.0" encoding="utf-8" standalone="no"?>
<!DOCTYPE svg PUBLIC "-//W3C//DTD SVG 1.1//EN"
  "http://www.w3.org/Graphics/SVG/1.1/DTD/svg11.dtd">
<svg xmlns:xlink="http://www.w3.org/1999/xlink" width="720pt" height="432pt" viewBox="0 0 720 432" xmlns="http://www.w3.org/2000/svg" version="1.1">
 <metadata>
  <rdf:RDF xmlns:dc="http://purl.org/dc/elements/1.1/" xmlns:cc="http://creativecommons.org/ns#" xmlns:rdf="http://www.w3.org/1999/02/22-rdf-syntax-ns#">
   <cc:Work>
    <dc:type rdf:resource="http://purl.org/dc/dcmitype/StillImage"/>
    <dc:date>2025-05-10T19:49:48.603019</dc:date>
    <dc:format>image/svg+xml</dc:format>
    <dc:creator>
     <cc:Agent>
      <dc:title>Matplotlib v3.8.0, https://matplotlib.org/</dc:title>
     </cc:Agent>
    </dc:creator>
   </cc:Work>
  </rdf:RDF>
 </metadata>
 <defs>
  <style type="text/css">*{stroke-linejoin: round; stroke-linecap: butt}</style>
 </defs>
 <g id="figure_1">
  <g id="patch_1">
   <path d="M 0 432 
L 720 432 
L 720 0 
L 0 0 
z
" style="fill: #ffffff"/>
  </g>
  <g id="axes_1">
   <g id="patch_2">
    <path d="M 47.82125 390.04 
L 709.2 390.04 
L 709.2 26.88 
L 47.82125 26.88 
z
" style="fill: #ffffff"/>
   </g>
   <g id="matplotlib.axis_1">
    <g id="xtick_1">
     <g id="line2d_1">
      <path d="M 74.862547 390.04 
L 74.862547 26.88 
" clip-path="url(#p15846d9e4a)" style="fill: none; stroke: #b0b0b0; stroke-width: 0.8; stroke-linecap: square"/>
     </g>
     <g id="line2d_2">
      <defs>
       <path id="mf8e542cd96" d="M 0 0 
L 0 3.5 
" style="stroke: #000000; stroke-width: 0.8"/>
      </defs>
      <g>
       <use xlink:href="#mf8e542cd96" x="74.862547" y="390.04" style="stroke: #000000; stroke-width: 0.8"/>
      </g>
     </g>
     <g id="text_1">
      <!-- 0 -->
      <g transform="translate(71.681297 404.638438) scale(0.1 -0.1)">
       <defs>
        <path id="DejaVuSans-30" d="M 2034 4250 
Q 1547 4250 1301 3770 
Q 1056 3291 1056 2328 
Q 1056 1369 1301 889 
Q 1547 409 2034 409 
Q 2525 409 2770 889 
Q 3016 1369 3016 2328 
Q 3016 3291 2770 3770 
Q 2525 4250 2034 4250 
z
M 2034 4750 
Q 2819 4750 3233 4129 
Q 3647 3509 3647 2328 
Q 3647 1150 3233 529 
Q 2819 -91 2034 -91 
Q 1250 -91 836 529 
Q 422 1150 422 2328 
Q 422 3509 836 4129 
Q 1250 4750 2034 4750 
z
" transform="scale(0.015625)"/>
       </defs>
       <use xlink:href="#DejaVuSans-30"/>
      </g>
     </g>
    </g>
    <g id="xtick_2">
     <g id="line2d_3">
      <path d="M 150.396894 390.04 
L 150.396894 26.88 
" clip-path="url(#p15846d9e4a)" style="fill: none; stroke: #b0b0b0; stroke-width: 0.8; stroke-linecap: square"/>
     </g>
     <g id="line2d_4">
      <g>
       <use xlink:href="#mf8e542cd96" x="150.396894" y="390.04" style="stroke: #000000; stroke-width: 0.8"/>
      </g>
     </g>
     <g id="text_2">
      <!-- 25 -->
      <g transform="translate(144.034394 404.638438) scale(0.1 -0.1)">
       <defs>
        <path id="DejaVuSans-32" d="M 1228 531 
L 3431 531 
L 3431 0 
L 469 0 
L 469 531 
Q 828 903 1448 1529 
Q 2069 2156 2228 2338 
Q 2531 2678 2651 2914 
Q 2772 3150 2772 3378 
Q 2772 3750 2511 3984 
Q 2250 4219 1831 4219 
Q 1534 4219 1204 4116 
Q 875 4013 500 3803 
L 500 4441 
Q 881 4594 1212 4672 
Q 1544 4750 1819 4750 
Q 2544 4750 2975 4387 
Q 3406 4025 3406 3419 
Q 3406 3131 3298 2873 
Q 3191 2616 2906 2266 
Q 2828 2175 2409 1742 
Q 1991 1309 1228 531 
z
" transform="scale(0.015625)"/>
        <path id="DejaVuSans-35" d="M 691 4666 
L 3169 4666 
L 3169 4134 
L 1269 4134 
L 1269 2991 
Q 1406 3038 1543 3061 
Q 1681 3084 1819 3084 
Q 2600 3084 3056 2656 
Q 3513 2228 3513 1497 
Q 3513 744 3044 326 
Q 2575 -91 1722 -91 
Q 1428 -91 1123 -41 
Q 819 9 494 109 
L 494 744 
Q 775 591 1075 516 
Q 1375 441 1709 441 
Q 2250 441 2565 725 
Q 2881 1009 2881 1497 
Q 2881 1984 2565 2268 
Q 2250 2553 1709 2553 
Q 1456 2553 1204 2497 
Q 953 2441 691 2322 
L 691 4666 
z
" transform="scale(0.015625)"/>
       </defs>
       <use xlink:href="#DejaVuSans-32"/>
       <use xlink:href="#DejaVuSans-35" x="63.623047"/>
      </g>
     </g>
    </g>
    <g id="xtick_3">
     <g id="line2d_5">
      <path d="M 225.931242 390.04 
L 225.931242 26.88 
" clip-path="url(#p15846d9e4a)" style="fill: none; stroke: #b0b0b0; stroke-width: 0.8; stroke-linecap: square"/>
     </g>
     <g id="line2d_6">
      <g>
       <use xlink:href="#mf8e542cd96" x="225.931242" y="390.04" style="stroke: #000000; stroke-width: 0.8"/>
      </g>
     </g>
     <g id="text_3">
      <!-- 50 -->
      <g transform="translate(219.568742 404.638438) scale(0.1 -0.1)">
       <use xlink:href="#DejaVuSans-35"/>
       <use xlink:href="#DejaVuSans-30" x="63.623047"/>
      </g>
     </g>
    </g>
    <g id="xtick_4">
     <g id="line2d_7">
      <path d="M 301.46559 390.04 
L 301.46559 26.88 
" clip-path="url(#p15846d9e4a)" style="fill: none; stroke: #b0b0b0; stroke-width: 0.8; stroke-linecap: square"/>
     </g>
     <g id="line2d_8">
      <g>
       <use xlink:href="#mf8e542cd96" x="301.46559" y="390.04" style="stroke: #000000; stroke-width: 0.8"/>
      </g>
     </g>
     <g id="text_4">
      <!-- 75 -->
      <g transform="translate(295.10309 404.638438) scale(0.1 -0.1)">
       <defs>
        <path id="DejaVuSans-37" d="M 525 4666 
L 3525 4666 
L 3525 4397 
L 1831 0 
L 1172 0 
L 2766 4134 
L 525 4134 
L 525 4666 
z
" transform="scale(0.015625)"/>
       </defs>
       <use xlink:href="#DejaVuSans-37"/>
       <use xlink:href="#DejaVuSans-35" x="63.623047"/>
      </g>
     </g>
    </g>
    <g id="xtick_5">
     <g id="line2d_9">
      <path d="M 376.999938 390.04 
L 376.999938 26.88 
" clip-path="url(#p15846d9e4a)" style="fill: none; stroke: #b0b0b0; stroke-width: 0.8; stroke-linecap: square"/>
     </g>
     <g id="line2d_10">
      <g>
       <use xlink:href="#mf8e542cd96" x="376.999938" y="390.04" style="stroke: #000000; stroke-width: 0.8"/>
      </g>
     </g>
     <g id="text_5">
      <!-- 100 -->
      <g transform="translate(367.456188 404.638438) scale(0.1 -0.1)">
       <defs>
        <path id="DejaVuSans-31" d="M 794 531 
L 1825 531 
L 1825 4091 
L 703 3866 
L 703 4441 
L 1819 4666 
L 2450 4666 
L 2450 531 
L 3481 531 
L 3481 0 
L 794 0 
L 794 531 
z
" transform="scale(0.015625)"/>
       </defs>
       <use xlink:href="#DejaVuSans-31"/>
       <use xlink:href="#DejaVuSans-30" x="63.623047"/>
       <use xlink:href="#DejaVuSans-30" x="127.246094"/>
      </g>
     </g>
    </g>
    <g id="xtick_6">
     <g id="line2d_11">
      <path d="M 452.534286 390.04 
L 452.534286 26.88 
" clip-path="url(#p15846d9e4a)" style="fill: none; stroke: #b0b0b0; stroke-width: 0.8; stroke-linecap: square"/>
     </g>
     <g id="line2d_12">
      <g>
       <use xlink:href="#mf8e542cd96" x="452.534286" y="390.04" style="stroke: #000000; stroke-width: 0.8"/>
      </g>
     </g>
     <g id="text_6">
      <!-- 125 -->
      <g transform="translate(442.990536 404.638438) scale(0.1 -0.1)">
       <use xlink:href="#DejaVuSans-31"/>
       <use xlink:href="#DejaVuSans-32" x="63.623047"/>
       <use xlink:href="#DejaVuSans-35" x="127.246094"/>
      </g>
     </g>
    </g>
    <g id="xtick_7">
     <g id="line2d_13">
      <path d="M 528.068634 390.04 
L 528.068634 26.88 
" clip-path="url(#p15846d9e4a)" style="fill: none; stroke: #b0b0b0; stroke-width: 0.8; stroke-linecap: square"/>
     </g>
     <g id="line2d_14">
      <g>
       <use xlink:href="#mf8e542cd96" x="528.068634" y="390.04" style="stroke: #000000; stroke-width: 0.8"/>
      </g>
     </g>
     <g id="text_7">
      <!-- 150 -->
      <g transform="translate(518.524884 404.638438) scale(0.1 -0.1)">
       <use xlink:href="#DejaVuSans-31"/>
       <use xlink:href="#DejaVuSans-35" x="63.623047"/>
       <use xlink:href="#DejaVuSans-30" x="127.246094"/>
      </g>
     </g>
    </g>
    <g id="xtick_8">
     <g id="line2d_15">
      <path d="M 603.602982 390.04 
L 603.602982 26.88 
" clip-path="url(#p15846d9e4a)" style="fill: none; stroke: #b0b0b0; stroke-width: 0.8; stroke-linecap: square"/>
     </g>
     <g id="line2d_16">
      <g>
       <use xlink:href="#mf8e542cd96" x="603.602982" y="390.04" style="stroke: #000000; stroke-width: 0.8"/>
      </g>
     </g>
     <g id="text_8">
      <!-- 175 -->
      <g transform="translate(594.059232 404.638438) scale(0.1 -0.1)">
       <use xlink:href="#DejaVuSans-31"/>
       <use xlink:href="#DejaVuSans-37" x="63.623047"/>
       <use xlink:href="#DejaVuSans-35" x="127.246094"/>
      </g>
     </g>
    </g>
    <g id="xtick_9">
     <g id="line2d_17">
      <path d="M 679.13733 390.04 
L 679.13733 26.88 
" clip-path="url(#p15846d9e4a)" style="fill: none; stroke: #b0b0b0; stroke-width: 0.8; stroke-linecap: square"/>
     </g>
     <g id="line2d_18">
      <g>
       <use xlink:href="#mf8e542cd96" x="679.13733" y="390.04" style="stroke: #000000; stroke-width: 0.8"/>
      </g>
     </g>
     <g id="text_9">
      <!-- 200 -->
      <g transform="translate(669.59358 404.638438) scale(0.1 -0.1)">
       <use xlink:href="#DejaVuSans-32"/>
       <use xlink:href="#DejaVuSans-30" x="63.623047"/>
       <use xlink:href="#DejaVuSans-30" x="127.246094"/>
      </g>
     </g>
    </g>
    <g id="text_10">
     <!-- Epoch -->
     <g transform="translate(363.199687 418.316562) scale(0.1 -0.1)">
      <defs>
       <path id="DejaVuSans-45" d="M 628 4666 
L 3578 4666 
L 3578 4134 
L 1259 4134 
L 1259 2753 
L 3481 2753 
L 3481 2222 
L 1259 2222 
L 1259 531 
L 3634 531 
L 3634 0 
L 628 0 
L 628 4666 
z
" transform="scale(0.015625)"/>
       <path id="DejaVuSans-70" d="M 1159 525 
L 1159 -1331 
L 581 -1331 
L 581 3500 
L 1159 3500 
L 1159 2969 
Q 1341 3281 1617 3432 
Q 1894 3584 2278 3584 
Q 2916 3584 3314 3078 
Q 3713 2572 3713 1747 
Q 3713 922 3314 415 
Q 2916 -91 2278 -91 
Q 1894 -91 1617 61 
Q 1341 213 1159 525 
z
M 3116 1747 
Q 3116 2381 2855 2742 
Q 2594 3103 2138 3103 
Q 1681 3103 1420 2742 
Q 1159 2381 1159 1747 
Q 1159 1113 1420 752 
Q 1681 391 2138 391 
Q 2594 391 2855 752 
Q 3116 1113 3116 1747 
z
" transform="scale(0.015625)"/>
       <path id="DejaVuSans-6f" d="M 1959 3097 
Q 1497 3097 1228 2736 
Q 959 2375 959 1747 
Q 959 1119 1226 758 
Q 1494 397 1959 397 
Q 2419 397 2687 759 
Q 2956 1122 2956 1747 
Q 2956 2369 2687 2733 
Q 2419 3097 1959 3097 
z
M 1959 3584 
Q 2709 3584 3137 3096 
Q 3566 2609 3566 1747 
Q 3566 888 3137 398 
Q 2709 -91 1959 -91 
Q 1206 -91 779 398 
Q 353 888 353 1747 
Q 353 2609 779 3096 
Q 1206 3584 1959 3584 
z
" transform="scale(0.015625)"/>
       <path id="DejaVuSans-63" d="M 3122 3366 
L 3122 2828 
Q 2878 2963 2633 3030 
Q 2388 3097 2138 3097 
Q 1578 3097 1268 2742 
Q 959 2388 959 1747 
Q 959 1106 1268 751 
Q 1578 397 2138 397 
Q 2388 397 2633 464 
Q 2878 531 3122 666 
L 3122 134 
Q 2881 22 2623 -34 
Q 2366 -91 2075 -91 
Q 1284 -91 818 406 
Q 353 903 353 1747 
Q 353 2603 823 3093 
Q 1294 3584 2113 3584 
Q 2378 3584 2631 3529 
Q 2884 3475 3122 3366 
z
" transform="scale(0.015625)"/>
       <path id="DejaVuSans-68" d="M 3513 2113 
L 3513 0 
L 2938 0 
L 2938 2094 
Q 2938 2591 2744 2837 
Q 2550 3084 2163 3084 
Q 1697 3084 1428 2787 
Q 1159 2491 1159 1978 
L 1159 0 
L 581 0 
L 581 4863 
L 1159 4863 
L 1159 2956 
Q 1366 3272 1645 3428 
Q 1925 3584 2291 3584 
Q 2894 3584 3203 3211 
Q 3513 2838 3513 2113 
z
" transform="scale(0.015625)"/>
      </defs>
      <use xlink:href="#DejaVuSans-45"/>
      <use xlink:href="#DejaVuSans-70" x="63.183594"/>
      <use xlink:href="#DejaVuSans-6f" x="126.660156"/>
      <use xlink:href="#DejaVuSans-63" x="187.841797"/>
      <use xlink:href="#DejaVuSans-68" x="242.822266"/>
     </g>
    </g>
   </g>
   <g id="matplotlib.axis_2">
    <g id="ytick_1">
     <g id="line2d_19">
      <path d="M 47.82125 374.689779 
L 709.2 374.689779 
" clip-path="url(#p15846d9e4a)" style="fill: none; stroke: #b0b0b0; stroke-width: 0.8; stroke-linecap: square"/>
     </g>
     <g id="line2d_20">
      <defs>
       <path id="md16fd5cb94" d="M 0 0 
L -3.5 0 
" style="stroke: #000000; stroke-width: 0.8"/>
      </defs>
      <g>
       <use xlink:href="#md16fd5cb94" x="47.82125" y="374.689779" style="stroke: #000000; stroke-width: 0.8"/>
      </g>
     </g>
     <g id="text_11">
      <!-- 0.0 -->
      <g transform="translate(24.918125 378.488998) scale(0.1 -0.1)">
       <defs>
        <path id="DejaVuSans-2e" d="M 684 794 
L 1344 794 
L 1344 0 
L 684 0 
L 684 794 
z
" transform="scale(0.015625)"/>
       </defs>
       <use xlink:href="#DejaVuSans-30"/>
       <use xlink:href="#DejaVuSans-2e" x="63.623047"/>
       <use xlink:href="#DejaVuSans-30" x="95.410156"/>
      </g>
     </g>
    </g>
    <g id="ytick_2">
     <g id="line2d_21">
      <path d="M 47.82125 310.409122 
L 709.2 310.409122 
" clip-path="url(#p15846d9e4a)" style="fill: none; stroke: #b0b0b0; stroke-width: 0.8; stroke-linecap: square"/>
     </g>
     <g id="line2d_22">
      <g>
       <use xlink:href="#md16fd5cb94" x="47.82125" y="310.409122" style="stroke: #000000; stroke-width: 0.8"/>
      </g>
     </g>
     <g id="text_12">
      <!-- 0.1 -->
      <g transform="translate(24.918125 314.208341) scale(0.1 -0.1)">
       <use xlink:href="#DejaVuSans-30"/>
       <use xlink:href="#DejaVuSans-2e" x="63.623047"/>
       <use xlink:href="#DejaVuSans-31" x="95.410156"/>
      </g>
     </g>
    </g>
    <g id="ytick_3">
     <g id="line2d_23">
      <path d="M 47.82125 246.128465 
L 709.2 246.128465 
" clip-path="url(#p15846d9e4a)" style="fill: none; stroke: #b0b0b0; stroke-width: 0.8; stroke-linecap: square"/>
     </g>
     <g id="line2d_24">
      <g>
       <use xlink:href="#md16fd5cb94" x="47.82125" y="246.128465" style="stroke: #000000; stroke-width: 0.8"/>
      </g>
     </g>
     <g id="text_13">
      <!-- 0.2 -->
      <g transform="translate(24.918125 249.927684) scale(0.1 -0.1)">
       <use xlink:href="#DejaVuSans-30"/>
       <use xlink:href="#DejaVuSans-2e" x="63.623047"/>
       <use xlink:href="#DejaVuSans-32" x="95.410156"/>
      </g>
     </g>
    </g>
    <g id="ytick_4">
     <g id="line2d_25">
      <path d="M 47.82125 181.847808 
L 709.2 181.847808 
" clip-path="url(#p15846d9e4a)" style="fill: none; stroke: #b0b0b0; stroke-width: 0.8; stroke-linecap: square"/>
     </g>
     <g id="line2d_26">
      <g>
       <use xlink:href="#md16fd5cb94" x="47.82125" y="181.847808" style="stroke: #000000; stroke-width: 0.8"/>
      </g>
     </g>
     <g id="text_14">
      <!-- 0.3 -->
      <g transform="translate(24.918125 185.647027) scale(0.1 -0.1)">
       <defs>
        <path id="DejaVuSans-33" d="M 2597 2516 
Q 3050 2419 3304 2112 
Q 3559 1806 3559 1356 
Q 3559 666 3084 287 
Q 2609 -91 1734 -91 
Q 1441 -91 1130 -33 
Q 819 25 488 141 
L 488 750 
Q 750 597 1062 519 
Q 1375 441 1716 441 
Q 2309 441 2620 675 
Q 2931 909 2931 1356 
Q 2931 1769 2642 2001 
Q 2353 2234 1838 2234 
L 1294 2234 
L 1294 2753 
L 1863 2753 
Q 2328 2753 2575 2939 
Q 2822 3125 2822 3475 
Q 2822 3834 2567 4026 
Q 2313 4219 1838 4219 
Q 1578 4219 1281 4162 
Q 984 4106 628 3988 
L 628 4550 
Q 988 4650 1302 4700 
Q 1616 4750 1894 4750 
Q 2613 4750 3031 4423 
Q 3450 4097 3450 3541 
Q 3450 3153 3228 2886 
Q 3006 2619 2597 2516 
z
" transform="scale(0.015625)"/>
       </defs>
       <use xlink:href="#DejaVuSans-30"/>
       <use xlink:href="#DejaVuSans-2e" x="63.623047"/>
       <use xlink:href="#DejaVuSans-33" x="95.410156"/>
      </g>
     </g>
    </g>
    <g id="ytick_5">
     <g id="line2d_27">
      <path d="M 47.82125 117.567151 
L 709.2 117.567151 
" clip-path="url(#p15846d9e4a)" style="fill: none; stroke: #b0b0b0; stroke-width: 0.8; stroke-linecap: square"/>
     </g>
     <g id="line2d_28">
      <g>
       <use xlink:href="#md16fd5cb94" x="47.82125" y="117.567151" style="stroke: #000000; stroke-width: 0.8"/>
      </g>
     </g>
     <g id="text_15">
      <!-- 0.4 -->
      <g transform="translate(24.918125 121.36637) scale(0.1 -0.1)">
       <defs>
        <path id="DejaVuSans-34" d="M 2419 4116 
L 825 1625 
L 2419 1625 
L 2419 4116 
z
M 2253 4666 
L 3047 4666 
L 3047 1625 
L 3713 1625 
L 3713 1100 
L 3047 1100 
L 3047 0 
L 2419 0 
L 2419 1100 
L 313 1100 
L 313 1709 
L 2253 4666 
z
" transform="scale(0.015625)"/>
       </defs>
       <use xlink:href="#DejaVuSans-30"/>
       <use xlink:href="#DejaVuSans-2e" x="63.623047"/>
       <use xlink:href="#DejaVuSans-34" x="95.410156"/>
      </g>
     </g>
    </g>
    <g id="ytick_6">
     <g id="line2d_29">
      <path d="M 47.82125 53.286494 
L 709.2 53.286494 
" clip-path="url(#p15846d9e4a)" style="fill: none; stroke: #b0b0b0; stroke-width: 0.8; stroke-linecap: square"/>
     </g>
     <g id="line2d_30">
      <g>
       <use xlink:href="#md16fd5cb94" x="47.82125" y="53.286494" style="stroke: #000000; stroke-width: 0.8"/>
      </g>
     </g>
     <g id="text_16">
      <!-- 0.5 -->
      <g transform="translate(24.918125 57.085713) scale(0.1 -0.1)">
       <use xlink:href="#DejaVuSans-30"/>
       <use xlink:href="#DejaVuSans-2e" x="63.623047"/>
       <use xlink:href="#DejaVuSans-35" x="95.410156"/>
      </g>
     </g>
    </g>
    <g id="text_17">
     <!-- Encoder_mse -->
     <g transform="translate(18.560313 241.954531) rotate(-90) scale(0.1 -0.1)">
      <defs>
       <path id="DejaVuSans-6e" d="M 3513 2113 
L 3513 0 
L 2938 0 
L 2938 2094 
Q 2938 2591 2744 2837 
Q 2550 3084 2163 3084 
Q 1697 3084 1428 2787 
Q 1159 2491 1159 1978 
L 1159 0 
L 581 0 
L 581 3500 
L 1159 3500 
L 1159 2956 
Q 1366 3272 1645 3428 
Q 1925 3584 2291 3584 
Q 2894 3584 3203 3211 
Q 3513 2838 3513 2113 
z
" transform="scale(0.015625)"/>
       <path id="DejaVuSans-64" d="M 2906 2969 
L 2906 4863 
L 3481 4863 
L 3481 0 
L 2906 0 
L 2906 525 
Q 2725 213 2448 61 
Q 2172 -91 1784 -91 
Q 1150 -91 751 415 
Q 353 922 353 1747 
Q 353 2572 751 3078 
Q 1150 3584 1784 3584 
Q 2172 3584 2448 3432 
Q 2725 3281 2906 2969 
z
M 947 1747 
Q 947 1113 1208 752 
Q 1469 391 1925 391 
Q 2381 391 2643 752 
Q 2906 1113 2906 1747 
Q 2906 2381 2643 2742 
Q 2381 3103 1925 3103 
Q 1469 3103 1208 2742 
Q 947 2381 947 1747 
z
" transform="scale(0.015625)"/>
       <path id="DejaVuSans-65" d="M 3597 1894 
L 3597 1613 
L 953 1613 
Q 991 1019 1311 708 
Q 1631 397 2203 397 
Q 2534 397 2845 478 
Q 3156 559 3463 722 
L 3463 178 
Q 3153 47 2828 -22 
Q 2503 -91 2169 -91 
Q 1331 -91 842 396 
Q 353 884 353 1716 
Q 353 2575 817 3079 
Q 1281 3584 2069 3584 
Q 2775 3584 3186 3129 
Q 3597 2675 3597 1894 
z
M 3022 2063 
Q 3016 2534 2758 2815 
Q 2500 3097 2075 3097 
Q 1594 3097 1305 2825 
Q 1016 2553 972 2059 
L 3022 2063 
z
" transform="scale(0.015625)"/>
       <path id="DejaVuSans-72" d="M 2631 2963 
Q 2534 3019 2420 3045 
Q 2306 3072 2169 3072 
Q 1681 3072 1420 2755 
Q 1159 2438 1159 1844 
L 1159 0 
L 581 0 
L 581 3500 
L 1159 3500 
L 1159 2956 
Q 1341 3275 1631 3429 
Q 1922 3584 2338 3584 
Q 2397 3584 2469 3576 
Q 2541 3569 2628 3553 
L 2631 2963 
z
" transform="scale(0.015625)"/>
       <path id="DejaVuSans-5f" d="M 3263 -1063 
L 3263 -1509 
L -63 -1509 
L -63 -1063 
L 3263 -1063 
z
" transform="scale(0.015625)"/>
       <path id="DejaVuSans-6d" d="M 3328 2828 
Q 3544 3216 3844 3400 
Q 4144 3584 4550 3584 
Q 5097 3584 5394 3201 
Q 5691 2819 5691 2113 
L 5691 0 
L 5113 0 
L 5113 2094 
Q 5113 2597 4934 2840 
Q 4756 3084 4391 3084 
Q 3944 3084 3684 2787 
Q 3425 2491 3425 1978 
L 3425 0 
L 2847 0 
L 2847 2094 
Q 2847 2600 2669 2842 
Q 2491 3084 2119 3084 
Q 1678 3084 1418 2786 
Q 1159 2488 1159 1978 
L 1159 0 
L 581 0 
L 581 3500 
L 1159 3500 
L 1159 2956 
Q 1356 3278 1631 3431 
Q 1906 3584 2284 3584 
Q 2666 3584 2933 3390 
Q 3200 3197 3328 2828 
z
" transform="scale(0.015625)"/>
       <path id="DejaVuSans-73" d="M 2834 3397 
L 2834 2853 
Q 2591 2978 2328 3040 
Q 2066 3103 1784 3103 
Q 1356 3103 1142 2972 
Q 928 2841 928 2578 
Q 928 2378 1081 2264 
Q 1234 2150 1697 2047 
L 1894 2003 
Q 2506 1872 2764 1633 
Q 3022 1394 3022 966 
Q 3022 478 2636 193 
Q 2250 -91 1575 -91 
Q 1294 -91 989 -36 
Q 684 19 347 128 
L 347 722 
Q 666 556 975 473 
Q 1284 391 1588 391 
Q 1994 391 2212 530 
Q 2431 669 2431 922 
Q 2431 1156 2273 1281 
Q 2116 1406 1581 1522 
L 1381 1569 
Q 847 1681 609 1914 
Q 372 2147 372 2553 
Q 372 3047 722 3315 
Q 1072 3584 1716 3584 
Q 2034 3584 2315 3537 
Q 2597 3491 2834 3397 
z
" transform="scale(0.015625)"/>
      </defs>
      <use xlink:href="#DejaVuSans-45"/>
      <use xlink:href="#DejaVuSans-6e" x="63.183594"/>
      <use xlink:href="#DejaVuSans-63" x="126.5625"/>
      <use xlink:href="#DejaVuSans-6f" x="181.542969"/>
      <use xlink:href="#DejaVuSans-64" x="242.724609"/>
      <use xlink:href="#DejaVuSans-65" x="306.201172"/>
      <use xlink:href="#DejaVuSans-72" x="367.724609"/>
      <use xlink:href="#DejaVuSans-5f" x="408.837891"/>
      <use xlink:href="#DejaVuSans-6d" x="458.837891"/>
      <use xlink:href="#DejaVuSans-73" x="556.25"/>
      <use xlink:href="#DejaVuSans-65" x="608.349609"/>
     </g>
    </g>
   </g>
   <g id="line2d_31">
    <path d="M 77.88392 326.157883 
L 80.905294 327.379216 
L 83.926668 326.993532 
L 86.948042 327.186374 
L 89.969416 327.507777 
L 92.99079 328.279145 
L 96.012164 329.500477 
L 99.033538 329.564758 
L 102.054912 328.729109 
L 105.076286 330.400406 
L 108.09766 331.943142 
L 114.140407 332.393107 
L 117.161781 332.135984 
L 120.183155 331.171774 
L 123.204529 329.050513 
L 126.225903 329.950442 
L 129.247277 330.657529 
L 132.268651 331.107494 
L 135.290025 329.436197 
L 138.311399 328.279145 
L 141.332773 330.079003 
L 144.354147 330.850371 
L 147.375521 328.150583 
L 150.396894 330.464687 
L 153.418268 330.014722 
L 156.439642 329.950442 
L 159.461016 325.707918 
L 162.48239 324.679428 
L 165.503764 324.422305 
L 168.525138 363.247822 
L 171.546512 366.847539 
L 174.567886 366.397574 
L 177.58926 367.361784 
L 180.610634 367.490346 
L 183.632007 368.261713 
L 186.653381 368.840239 
L 189.674755 368.968801 
L 192.696129 369.804449 
L 195.717503 370.254414 
L 198.738877 370.318694 
L 201.760251 370.704378 
L 207.802999 371.154343 
L 210.824373 371.154343 
L 216.867121 371.540027 
L 225.931242 371.668588 
L 228.952616 226.844268 
L 231.97399 162.563611 
L 234.995364 165.841924 
L 238.016738 145.85064 
L 241.038112 127.402091 
L 244.059486 129.330511 
L 247.08086 123.35241 
L 250.102234 120.009816 
L 253.123608 118.274238 
L 256.144981 119.302729 
L 259.166355 120.845464 
L 262.187729 118.788483 
L 265.209103 118.595641 
L 268.230477 112.488979 
L 271.251851 114.031715 
L 274.273225 112.424698 
L 277.294599 116.410099 
L 280.315973 117.374309 
L 283.337347 123.738094 
L 286.358721 121.295429 
L 289.380095 111.331927 
L 292.401468 100.018532 
L 295.422842 102.975442 
L 298.444216 99.311444 
L 301.46559 102.654039 
L 304.486964 105.73951 
L 307.508338 98.797199 
L 310.529712 88.962259 
L 313.551086 83.691245 
L 316.57246 80.027247 
L 322.615208 87.676645 
L 325.636581 82.598474 
L 328.657955 87.290961 
L 331.679329 89.283662 
L 334.700703 87.483803 
L 337.722077 83.176999 
L 340.743451 82.534193 
L 343.764825 84.912577 
L 346.786199 76.42753 
L 349.807573 74.113427 
L 352.828947 68.52101 
L 355.850321 70.063745 
L 358.871695 72.056446 
L 361.893068 71.606481 
L 364.914442 69.870903 
L 367.935816 74.241988 
L 370.95719 70.063745 
L 373.978564 71.285078 
L 376.999938 72.634972 
L 380.021312 72.827814 
L 383.042686 87.033839 
L 386.06406 102.011232 
L 389.085434 123.288129 
L 392.106808 148.229024 
L 395.128182 177.412443 
L 398.149555 207.881474 
L 401.170929 240.343206 
L 404.192303 267.405363 
L 407.213677 293.374748 
L 410.235051 313.301752 
L 413.256425 328.022022 
L 416.277799 337.342717 
L 419.299173 343.192257 
L 422.320547 347.820464 
L 425.341921 350.455971 
L 428.363295 352.898636 
L 437.427416 358.233931 
L 440.44879 358.876737 
L 443.470164 360.09807 
L 446.491538 361.190841 
L 449.512912 361.640806 
L 452.534286 362.283612 
L 458.577034 362.476454 
L 461.598408 362.797858 
L 467.641155 362.9907 
L 473.683903 363.247822 
L 476.705277 363.504945 
L 479.726651 363.569225 
L 482.748025 363.954909 
L 485.769399 364.01919 
L 488.790773 363.697787 
L 491.812147 364.01919 
L 503.897642 364.533435 
L 506.919016 364.276313 
L 509.94039 364.597716 
L 512.961764 364.597716 
L 519.004512 364.854839 
L 525.04726 364.919119 
L 534.111382 365.561926 
L 537.132756 365.240523 
L 540.154129 365.240523 
L 543.175503 365.561926 
L 546.196877 365.690487 
L 549.218251 365.626206 
L 552.239625 365.883329 
L 555.260999 365.883329 
L 558.282373 365.754768 
L 561.303747 365.883329 
L 564.325121 365.754768 
L 567.346495 365.819048 
L 570.367869 365.690487 
L 579.43199 366.333294 
L 597.560234 366.397574 
L 600.581608 366.526136 
L 603.602982 366.783258 
L 606.624356 366.333294 
L 612.667103 366.590416 
L 624.752599 366.654697 
L 627.773973 366.269013 
L 630.795347 366.397574 
L 633.816721 366.654697 
L 642.880843 366.333294 
L 648.92359 366.397574 
L 661.009086 366.654697 
L 664.03046 366.397574 
L 667.051834 366.590416 
L 670.073208 366.654697 
L 673.094582 366.526136 
L 676.115956 366.526136 
L 679.13733 366.783258 
L 679.13733 366.783258 
" clip-path="url(#p15846d9e4a)" style="fill: none; stroke: #0000ff; stroke-width: 1.5; stroke-linecap: square"/>
   </g>
   <g id="line2d_32">
    <path d="M 77.88392 331.428897 
L 80.905294 326.222164 
L 83.926668 330.657529 
L 86.948042 329.436197 
L 89.969416 331.493178 
L 92.99079 329.82188 
L 96.012164 331.814581 
L 99.033538 335.028614 
L 102.054912 334.064404 
L 105.076286 337.406998 
L 108.09766 336.378508 
L 111.119034 339.078295 
L 114.140407 334.900052 
L 117.161781 334.964333 
L 120.183155 335.60714 
L 123.204529 335.67142 
L 126.225903 333.67872 
L 129.247277 332.971633 
L 132.268651 337.792682 
L 135.290025 330.914652 
L 138.311399 329.436197 
L 141.332773 334.385807 
L 144.354147 332.71451 
L 147.375521 333.035913 
L 150.396894 333.807281 
L 153.418268 333.807281 
L 156.439642 334.900052 
L 159.461016 327.700619 
L 162.48239 329.179074 
L 165.503764 326.672128 
L 168.525138 372.054272 
L 171.546512 372.568517 
L 174.567886 372.82564 
L 177.58926 372.247114 
L 180.610634 372.82564 
L 183.632007 373.018482 
L 186.653381 372.761359 
L 189.674755 373.147043 
L 195.717503 373.082763 
L 198.738877 372.954201 
L 201.760251 372.439956 
L 204.781625 373.082763 
L 207.802999 373.211324 
L 210.824373 373.147043 
L 213.845747 373.532727 
L 216.867121 373.404166 
L 219.888494 373.532727 
L 225.931242 373.532727 
L 228.952616 166.227608 
L 231.97399 172.334271 
L 234.995364 100.85418 
L 238.016738 146.107763 
L 241.038112 111.910453 
L 244.059486 105.032423 
L 247.08086 117.631432 
L 250.102234 140.772468 
L 253.123608 125.473672 
L 256.144981 136.658506 
L 259.166355 157.678281 
L 262.187729 111.267647 
L 265.209103 123.480971 
L 268.230477 141.800959 
L 271.251851 165.327679 
L 274.273225 122.773884 
L 277.294599 133.765877 
L 280.315973 145.722079 
L 283.337347 126.630724 
L 286.358721 136.144261 
L 289.380095 97.768709 
L 292.401468 90.826398 
L 295.422842 113.58175 
L 298.444216 111.58905 
L 301.46559 107.025123 
L 304.486964 133.315912 
L 307.508338 132.030299 
L 310.529712 99.568567 
L 313.551086 57.914701 
L 316.57246 120.716903 
L 319.593834 88.448013 
L 322.615208 79.834405 
L 325.636581 88.062329 
L 328.657955 125.923636 
L 331.679329 108.953543 
L 334.700703 83.948367 
L 337.722077 73.47062 
L 340.743451 72.185007 
L 343.764825 69.806623 
L 346.786199 70.642271 
L 349.807573 43.387273 
L 352.828947 65.049854 
L 355.850321 75.077637 
L 358.871695 80.798615 
L 361.893068 103.425406 
L 364.914442 63.892802 
L 367.935816 78.034547 
L 370.95719 87.033839 
L 373.978564 59.328876 
L 376.999938 105.225265 
L 380.021312 82.469912 
L 383.042686 106.253755 
L 386.06406 109.982033 
L 389.085434 156.456948 
L 392.106808 167.320379 
L 395.128182 204.731722 
L 398.149555 231.151072 
L 401.170929 255.706283 
L 404.192303 292.089135 
L 407.213677 303.209688 
L 410.235051 321.208272 
L 413.256425 334.321526 
L 416.277799 341.006715 
L 419.299173 347.3705 
L 422.320547 349.170358 
L 425.341921 351.741585 
L 431.384669 357.398282 
L 434.406042 357.783966 
L 437.427416 359.13386 
L 440.44879 360.226631 
L 443.470164 360.676596 
L 446.491538 361.705086 
L 449.512912 362.412174 
L 452.534286 362.926419 
L 455.55566 362.862138 
L 458.577034 363.247822 
L 461.598408 364.01919 
L 464.619782 364.404874 
L 467.641155 364.083471 
L 470.662529 364.01919 
L 473.683903 363.826348 
L 476.705277 363.954909 
L 479.726651 364.661997 
L 482.748025 365.561926 
L 485.769399 365.433364 
L 488.790773 364.661997 
L 491.812147 365.304803 
L 494.833521 364.9834 
L 497.854895 364.919119 
L 500.876269 365.497645 
L 506.919016 365.369084 
L 509.94039 365.497645 
L 512.961764 365.433364 
L 515.983138 365.111961 
L 519.004512 364.9834 
L 522.025886 365.626206 
L 525.04726 366.140452 
L 528.068634 366.333294 
L 531.090008 366.01189 
L 534.111382 366.01189 
L 537.132756 366.590416 
L 540.154129 366.847539 
L 543.175503 366.204732 
L 546.196877 366.847539 
L 549.218251 366.847539 
L 552.239625 367.233223 
L 555.260999 366.91182 
L 558.282373 365.94761 
L 561.303747 366.204732 
L 567.346495 366.140452 
L 570.367869 365.819048 
L 573.389243 366.204732 
L 576.410616 367.490346 
L 579.43199 366.783258 
L 582.453364 367.361784 
L 585.474738 367.618907 
L 588.496112 366.847539 
L 591.517486 367.618907 
L 594.53886 366.847539 
L 597.560234 367.361784 
L 600.581608 367.747468 
L 603.602982 367.876029 
L 606.624356 367.361784 
L 609.645729 366.9761 
L 612.667103 366.847539 
L 615.688477 367.426065 
L 618.709851 367.876029 
L 621.731225 367.233223 
L 624.752599 367.361784 
L 627.773973 367.361784 
L 630.795347 367.168942 
L 633.816721 366.783258 
L 636.838095 367.297504 
L 642.880843 367.426065 
L 645.902216 367.361784 
L 648.92359 367.94031 
L 651.944964 366.718978 
L 657.987712 367.554626 
L 661.009086 367.618907 
L 664.03046 367.361784 
L 667.051834 367.426065 
L 670.073208 367.361784 
L 676.115956 367.876029 
L 679.13733 368.261713 
L 679.13733 368.261713 
" clip-path="url(#p15846d9e4a)" style="fill: none; stroke: #ffa500; stroke-width: 1.5; stroke-linecap: square"/>
   </g>
   <g id="patch_3">
    <path d="M 47.82125 390.04 
L 47.82125 26.88 
" style="fill: none; stroke: #000000; stroke-width: 0.8; stroke-linejoin: miter; stroke-linecap: square"/>
   </g>
   <g id="patch_4">
    <path d="M 709.2 390.04 
L 709.2 26.88 
" style="fill: none; stroke: #000000; stroke-width: 0.8; stroke-linejoin: miter; stroke-linecap: square"/>
   </g>
   <g id="patch_5">
    <path d="M 47.82125 390.04 
L 709.2 390.04 
" style="fill: none; stroke: #000000; stroke-width: 0.8; stroke-linejoin: miter; stroke-linecap: square"/>
   </g>
   <g id="patch_6">
    <path d="M 47.82125 26.88 
L 709.2 26.88 
" style="fill: none; stroke: #000000; stroke-width: 0.8; stroke-linejoin: miter; stroke-linecap: square"/>
   </g>
   <g id="text_18">
    <!-- Encoder_mse for Gaussian_noise_01_v2 -->
    <g transform="translate(258.765625 20.88) scale(0.12 -0.12)">
     <defs>
      <path id="DejaVuSans-20" transform="scale(0.015625)"/>
      <path id="DejaVuSans-66" d="M 2375 4863 
L 2375 4384 
L 1825 4384 
Q 1516 4384 1395 4259 
Q 1275 4134 1275 3809 
L 1275 3500 
L 2222 3500 
L 2222 3053 
L 1275 3053 
L 1275 0 
L 697 0 
L 697 3053 
L 147 3053 
L 147 3500 
L 697 3500 
L 697 3744 
Q 697 4328 969 4595 
Q 1241 4863 1831 4863 
L 2375 4863 
z
" transform="scale(0.015625)"/>
      <path id="DejaVuSans-47" d="M 3809 666 
L 3809 1919 
L 2778 1919 
L 2778 2438 
L 4434 2438 
L 4434 434 
Q 4069 175 3628 42 
Q 3188 -91 2688 -91 
Q 1594 -91 976 548 
Q 359 1188 359 2328 
Q 359 3472 976 4111 
Q 1594 4750 2688 4750 
Q 3144 4750 3555 4637 
Q 3966 4525 4313 4306 
L 4313 3634 
Q 3963 3931 3569 4081 
Q 3175 4231 2741 4231 
Q 1884 4231 1454 3753 
Q 1025 3275 1025 2328 
Q 1025 1384 1454 906 
Q 1884 428 2741 428 
Q 3075 428 3337 486 
Q 3600 544 3809 666 
z
" transform="scale(0.015625)"/>
      <path id="DejaVuSans-61" d="M 2194 1759 
Q 1497 1759 1228 1600 
Q 959 1441 959 1056 
Q 959 750 1161 570 
Q 1363 391 1709 391 
Q 2188 391 2477 730 
Q 2766 1069 2766 1631 
L 2766 1759 
L 2194 1759 
z
M 3341 1997 
L 3341 0 
L 2766 0 
L 2766 531 
Q 2569 213 2275 61 
Q 1981 -91 1556 -91 
Q 1019 -91 701 211 
Q 384 513 384 1019 
Q 384 1609 779 1909 
Q 1175 2209 1959 2209 
L 2766 2209 
L 2766 2266 
Q 2766 2663 2505 2880 
Q 2244 3097 1772 3097 
Q 1472 3097 1187 3025 
Q 903 2953 641 2809 
L 641 3341 
Q 956 3463 1253 3523 
Q 1550 3584 1831 3584 
Q 2591 3584 2966 3190 
Q 3341 2797 3341 1997 
z
" transform="scale(0.015625)"/>
      <path id="DejaVuSans-75" d="M 544 1381 
L 544 3500 
L 1119 3500 
L 1119 1403 
Q 1119 906 1312 657 
Q 1506 409 1894 409 
Q 2359 409 2629 706 
Q 2900 1003 2900 1516 
L 2900 3500 
L 3475 3500 
L 3475 0 
L 2900 0 
L 2900 538 
Q 2691 219 2414 64 
Q 2138 -91 1772 -91 
Q 1169 -91 856 284 
Q 544 659 544 1381 
z
M 1991 3584 
L 1991 3584 
z
" transform="scale(0.015625)"/>
      <path id="DejaVuSans-69" d="M 603 3500 
L 1178 3500 
L 1178 0 
L 603 0 
L 603 3500 
z
M 603 4863 
L 1178 4863 
L 1178 4134 
L 603 4134 
L 603 4863 
z
" transform="scale(0.015625)"/>
      <path id="DejaVuSans-76" d="M 191 3500 
L 800 3500 
L 1894 563 
L 2988 3500 
L 3597 3500 
L 2284 0 
L 1503 0 
L 191 3500 
z
" transform="scale(0.015625)"/>
     </defs>
     <use xlink:href="#DejaVuSans-45"/>
     <use xlink:href="#DejaVuSans-6e" x="63.183594"/>
     <use xlink:href="#DejaVuSans-63" x="126.5625"/>
     <use xlink:href="#DejaVuSans-6f" x="181.542969"/>
     <use xlink:href="#DejaVuSans-64" x="242.724609"/>
     <use xlink:href="#DejaVuSans-65" x="306.201172"/>
     <use xlink:href="#DejaVuSans-72" x="367.724609"/>
     <use xlink:href="#DejaVuSans-5f" x="408.837891"/>
     <use xlink:href="#DejaVuSans-6d" x="458.837891"/>
     <use xlink:href="#DejaVuSans-73" x="556.25"/>
     <use xlink:href="#DejaVuSans-65" x="608.349609"/>
     <use xlink:href="#DejaVuSans-20" x="669.873047"/>
     <use xlink:href="#DejaVuSans-66" x="701.660156"/>
     <use xlink:href="#DejaVuSans-6f" x="736.865234"/>
     <use xlink:href="#DejaVuSans-72" x="798.046875"/>
     <use xlink:href="#DejaVuSans-20" x="839.160156"/>
     <use xlink:href="#DejaVuSans-47" x="870.947266"/>
     <use xlink:href="#DejaVuSans-61" x="948.4375"/>
     <use xlink:href="#DejaVuSans-75" x="1009.716797"/>
     <use xlink:href="#DejaVuSans-73" x="1073.095703"/>
     <use xlink:href="#DejaVuSans-73" x="1125.195312"/>
     <use xlink:href="#DejaVuSans-69" x="1177.294922"/>
     <use xlink:href="#DejaVuSans-61" x="1205.078125"/>
     <use xlink:href="#DejaVuSans-6e" x="1266.357422"/>
     <use xlink:href="#DejaVuSans-5f" x="1329.736328"/>
     <use xlink:href="#DejaVuSans-6e" x="1379.736328"/>
     <use xlink:href="#DejaVuSans-6f" x="1443.115234"/>
     <use xlink:href="#DejaVuSans-69" x="1504.296875"/>
     <use xlink:href="#DejaVuSans-73" x="1532.080078"/>
     <use xlink:href="#DejaVuSans-65" x="1584.179688"/>
     <use xlink:href="#DejaVuSans-5f" x="1645.703125"/>
     <use xlink:href="#DejaVuSans-30" x="1695.703125"/>
     <use xlink:href="#DejaVuSans-31" x="1759.326172"/>
     <use xlink:href="#DejaVuSans-5f" x="1822.949219"/>
     <use xlink:href="#DejaVuSans-76" x="1872.949219"/>
     <use xlink:href="#DejaVuSans-32" x="1932.128906"/>
    </g>
   </g>
   <g id="legend_1">
    <g id="patch_7">
     <path d="M 620.81875 64.23625 
L 702.2 64.23625 
Q 704.2 64.23625 704.2 62.23625 
L 704.2 33.88 
Q 704.2 31.88 702.2 31.88 
L 620.81875 31.88 
Q 618.81875 31.88 618.81875 33.88 
L 618.81875 62.23625 
Q 618.81875 64.23625 620.81875 64.23625 
z
" style="fill: #ffffff; opacity: 0.8; stroke: #cccccc; stroke-linejoin: miter"/>
    </g>
    <g id="line2d_33">
     <path d="M 622.81875 39.978437 
L 632.81875 39.978437 
L 642.81875 39.978437 
" style="fill: none; stroke: #0000ff; stroke-width: 1.5; stroke-linecap: square"/>
    </g>
    <g id="text_19">
     <!-- Train -->
     <g transform="translate(650.81875 43.478437) scale(0.1 -0.1)">
      <defs>
       <path id="DejaVuSans-54" d="M -19 4666 
L 3928 4666 
L 3928 4134 
L 2272 4134 
L 2272 0 
L 1638 0 
L 1638 4134 
L -19 4134 
L -19 4666 
z
" transform="scale(0.015625)"/>
      </defs>
      <use xlink:href="#DejaVuSans-54"/>
      <use xlink:href="#DejaVuSans-72" x="46.333984"/>
      <use xlink:href="#DejaVuSans-61" x="87.447266"/>
      <use xlink:href="#DejaVuSans-69" x="148.726562"/>
      <use xlink:href="#DejaVuSans-6e" x="176.509766"/>
     </g>
    </g>
    <g id="line2d_34">
     <path d="M 622.81875 54.656563 
L 632.81875 54.656563 
L 642.81875 54.656563 
" style="fill: none; stroke: #ffa500; stroke-width: 1.5; stroke-linecap: square"/>
    </g>
    <g id="text_20">
     <!-- Validation -->
     <g transform="translate(650.81875 58.156563) scale(0.1 -0.1)">
      <defs>
       <path id="DejaVuSans-56" d="M 1831 0 
L 50 4666 
L 709 4666 
L 2188 738 
L 3669 4666 
L 4325 4666 
L 2547 0 
L 1831 0 
z
" transform="scale(0.015625)"/>
       <path id="DejaVuSans-6c" d="M 603 4863 
L 1178 4863 
L 1178 0 
L 603 0 
L 603 4863 
z
" transform="scale(0.015625)"/>
       <path id="DejaVuSans-74" d="M 1172 4494 
L 1172 3500 
L 2356 3500 
L 2356 3053 
L 1172 3053 
L 1172 1153 
Q 1172 725 1289 603 
Q 1406 481 1766 481 
L 2356 481 
L 2356 0 
L 1766 0 
Q 1100 0 847 248 
Q 594 497 594 1153 
L 594 3053 
L 172 3053 
L 172 3500 
L 594 3500 
L 594 4494 
L 1172 4494 
z
" transform="scale(0.015625)"/>
      </defs>
      <use xlink:href="#DejaVuSans-56"/>
      <use xlink:href="#DejaVuSans-61" x="60.658203"/>
      <use xlink:href="#DejaVuSans-6c" x="121.9375"/>
      <use xlink:href="#DejaVuSans-69" x="149.720703"/>
      <use xlink:href="#DejaVuSans-64" x="177.503906"/>
      <use xlink:href="#DejaVuSans-61" x="240.980469"/>
      <use xlink:href="#DejaVuSans-74" x="302.259766"/>
      <use xlink:href="#DejaVuSans-69" x="341.46875"/>
      <use xlink:href="#DejaVuSans-6f" x="369.251953"/>
      <use xlink:href="#DejaVuSans-6e" x="430.433594"/>
     </g>
    </g>
   </g>
  </g>
 </g>
 <defs>
  <clipPath id="p15846d9e4a">
   <rect x="47.82125" y="26.88" width="661.37875" height="363.16"/>
  </clipPath>
 </defs>
</svg>
