<?xml version="1.0" encoding="utf-8" standalone="no"?>
<!DOCTYPE svg PUBLIC "-//W3C//DTD SVG 1.1//EN"
  "http://www.w3.org/Graphics/SVG/1.1/DTD/svg11.dtd">
<svg xmlns:xlink="http://www.w3.org/1999/xlink" width="720pt" height="432pt" viewBox="0 0 720 432" xmlns="http://www.w3.org/2000/svg" version="1.1">
 <metadata>
  <rdf:RDF xmlns:dc="http://purl.org/dc/elements/1.1/" xmlns:cc="http://creativecommons.org/ns#" xmlns:rdf="http://www.w3.org/1999/02/22-rdf-syntax-ns#">
   <cc:Work>
    <dc:type rdf:resource="http://purl.org/dc/dcmitype/StillImage"/>
    <dc:date>2025-05-10T19:49:37.725679</dc:date>
    <dc:format>image/svg+xml</dc:format>
    <dc:creator>
     <cc:Agent>
      <dc:title>Matplotlib v3.8.0, https://matplotlib.org/</dc:title>
     </cc:Agent>
    </dc:creator>
   </cc:Work>
  </rdf:RDF>
 </metadata>
 <defs>
  <style type="text/css">*{stroke-linejoin: round; stroke-linecap: butt}</style>
 </defs>
 <g id="figure_1">
  <g id="patch_1">
   <path d="M 0 432 
L 720 432 
L 720 0 
L 0 0 
z
" style="fill: #ffffff"/>
  </g>
  <g id="axes_1">
   <g id="patch_2">
    <path d="M 60.42125 390.04 
L 709.2 390.04 
L 709.2 26.88 
L 60.42125 26.88 
z
" style="fill: #ffffff"/>
   </g>
   <g id="matplotlib.axis_1">
    <g id="xtick_1">
     <g id="line2d_1">
      <path d="M 86.94738 390.04 
L 86.94738 26.88 
" clip-path="url(#pd755034b11)" style="fill: none; stroke: #b0b0b0; stroke-width: 0.8; stroke-linecap: square"/>
     </g>
     <g id="line2d_2">
      <defs>
       <path id="m703ab8df83" d="M 0 0 
L 0 3.5 
" style="stroke: #000000; stroke-width: 0.8"/>
      </defs>
      <g>
       <use xlink:href="#m703ab8df83" x="86.94738" y="390.04" style="stroke: #000000; stroke-width: 0.8"/>
      </g>
     </g>
     <g id="text_1">
      <!-- 0 -->
      <g transform="translate(83.76613 404.638438) scale(0.1 -0.1)">
       <defs>
        <path id="DejaVuSans-30" d="M 2034 4250 
Q 1547 4250 1301 3770 
Q 1056 3291 1056 2328 
Q 1056 1369 1301 889 
Q 1547 409 2034 409 
Q 2525 409 2770 889 
Q 3016 1369 3016 2328 
Q 3016 3291 2770 3770 
Q 2525 4250 2034 4250 
z
M 2034 4750 
Q 2819 4750 3233 4129 
Q 3647 3509 3647 2328 
Q 3647 1150 3233 529 
Q 2819 -91 2034 -91 
Q 1250 -91 836 529 
Q 422 1150 422 2328 
Q 422 3509 836 4129 
Q 1250 4750 2034 4750 
z
" transform="scale(0.015625)"/>
       </defs>
       <use xlink:href="#DejaVuSans-30"/>
      </g>
     </g>
    </g>
    <g id="xtick_2">
     <g id="line2d_3">
      <path d="M 161.042714 390.04 
L 161.042714 26.88 
" clip-path="url(#pd755034b11)" style="fill: none; stroke: #b0b0b0; stroke-width: 0.8; stroke-linecap: square"/>
     </g>
     <g id="line2d_4">
      <g>
       <use xlink:href="#m703ab8df83" x="161.042714" y="390.04" style="stroke: #000000; stroke-width: 0.8"/>
      </g>
     </g>
     <g id="text_2">
      <!-- 25 -->
      <g transform="translate(154.680214 404.638438) scale(0.1 -0.1)">
       <defs>
        <path id="DejaVuSans-32" d="M 1228 531 
L 3431 531 
L 3431 0 
L 469 0 
L 469 531 
Q 828 903 1448 1529 
Q 2069 2156 2228 2338 
Q 2531 2678 2651 2914 
Q 2772 3150 2772 3378 
Q 2772 3750 2511 3984 
Q 2250 4219 1831 4219 
Q 1534 4219 1204 4116 
Q 875 4013 500 3803 
L 500 4441 
Q 881 4594 1212 4672 
Q 1544 4750 1819 4750 
Q 2544 4750 2975 4387 
Q 3406 4025 3406 3419 
Q 3406 3131 3298 2873 
Q 3191 2616 2906 2266 
Q 2828 2175 2409 1742 
Q 1991 1309 1228 531 
z
" transform="scale(0.015625)"/>
        <path id="DejaVuSans-35" d="M 691 4666 
L 3169 4666 
L 3169 4134 
L 1269 4134 
L 1269 2991 
Q 1406 3038 1543 3061 
Q 1681 3084 1819 3084 
Q 2600 3084 3056 2656 
Q 3513 2228 3513 1497 
Q 3513 744 3044 326 
Q 2575 -91 1722 -91 
Q 1428 -91 1123 -41 
Q 819 9 494 109 
L 494 744 
Q 775 591 1075 516 
Q 1375 441 1709 441 
Q 2250 441 2565 725 
Q 2881 1009 2881 1497 
Q 2881 1984 2565 2268 
Q 2250 2553 1709 2553 
Q 1456 2553 1204 2497 
Q 953 2441 691 2322 
L 691 4666 
z
" transform="scale(0.015625)"/>
       </defs>
       <use xlink:href="#DejaVuSans-32"/>
       <use xlink:href="#DejaVuSans-35" x="63.623047"/>
      </g>
     </g>
    </g>
    <g id="xtick_3">
     <g id="line2d_5">
      <path d="M 235.138049 390.04 
L 235.138049 26.88 
" clip-path="url(#pd755034b11)" style="fill: none; stroke: #b0b0b0; stroke-width: 0.8; stroke-linecap: square"/>
     </g>
     <g id="line2d_6">
      <g>
       <use xlink:href="#m703ab8df83" x="235.138049" y="390.04" style="stroke: #000000; stroke-width: 0.8"/>
      </g>
     </g>
     <g id="text_3">
      <!-- 50 -->
      <g transform="translate(228.775549 404.638438) scale(0.1 -0.1)">
       <use xlink:href="#DejaVuSans-35"/>
       <use xlink:href="#DejaVuSans-30" x="63.623047"/>
      </g>
     </g>
    </g>
    <g id="xtick_4">
     <g id="line2d_7">
      <path d="M 309.233384 390.04 
L 309.233384 26.88 
" clip-path="url(#pd755034b11)" style="fill: none; stroke: #b0b0b0; stroke-width: 0.8; stroke-linecap: square"/>
     </g>
     <g id="line2d_8">
      <g>
       <use xlink:href="#m703ab8df83" x="309.233384" y="390.04" style="stroke: #000000; stroke-width: 0.8"/>
      </g>
     </g>
     <g id="text_4">
      <!-- 75 -->
      <g transform="translate(302.870884 404.638438) scale(0.1 -0.1)">
       <defs>
        <path id="DejaVuSans-37" d="M 525 4666 
L 3525 4666 
L 3525 4397 
L 1831 0 
L 1172 0 
L 2766 4134 
L 525 4134 
L 525 4666 
z
" transform="scale(0.015625)"/>
       </defs>
       <use xlink:href="#DejaVuSans-37"/>
       <use xlink:href="#DejaVuSans-35" x="63.623047"/>
      </g>
     </g>
    </g>
    <g id="xtick_5">
     <g id="line2d_9">
      <path d="M 383.328718 390.04 
L 383.328718 26.88 
" clip-path="url(#pd755034b11)" style="fill: none; stroke: #b0b0b0; stroke-width: 0.8; stroke-linecap: square"/>
     </g>
     <g id="line2d_10">
      <g>
       <use xlink:href="#m703ab8df83" x="383.328718" y="390.04" style="stroke: #000000; stroke-width: 0.8"/>
      </g>
     </g>
     <g id="text_5">
      <!-- 100 -->
      <g transform="translate(373.784968 404.638438) scale(0.1 -0.1)">
       <defs>
        <path id="DejaVuSans-31" d="M 794 531 
L 1825 531 
L 1825 4091 
L 703 3866 
L 703 4441 
L 1819 4666 
L 2450 4666 
L 2450 531 
L 3481 531 
L 3481 0 
L 794 0 
L 794 531 
z
" transform="scale(0.015625)"/>
       </defs>
       <use xlink:href="#DejaVuSans-31"/>
       <use xlink:href="#DejaVuSans-30" x="63.623047"/>
       <use xlink:href="#DejaVuSans-30" x="127.246094"/>
      </g>
     </g>
    </g>
    <g id="xtick_6">
     <g id="line2d_11">
      <path d="M 457.424053 390.04 
L 457.424053 26.88 
" clip-path="url(#pd755034b11)" style="fill: none; stroke: #b0b0b0; stroke-width: 0.8; stroke-linecap: square"/>
     </g>
     <g id="line2d_12">
      <g>
       <use xlink:href="#m703ab8df83" x="457.424053" y="390.04" style="stroke: #000000; stroke-width: 0.8"/>
      </g>
     </g>
     <g id="text_6">
      <!-- 125 -->
      <g transform="translate(447.880303 404.638438) scale(0.1 -0.1)">
       <use xlink:href="#DejaVuSans-31"/>
       <use xlink:href="#DejaVuSans-32" x="63.623047"/>
       <use xlink:href="#DejaVuSans-35" x="127.246094"/>
      </g>
     </g>
    </g>
    <g id="xtick_7">
     <g id="line2d_13">
      <path d="M 531.519388 390.04 
L 531.519388 26.88 
" clip-path="url(#pd755034b11)" style="fill: none; stroke: #b0b0b0; stroke-width: 0.8; stroke-linecap: square"/>
     </g>
     <g id="line2d_14">
      <g>
       <use xlink:href="#m703ab8df83" x="531.519388" y="390.04" style="stroke: #000000; stroke-width: 0.8"/>
      </g>
     </g>
     <g id="text_7">
      <!-- 150 -->
      <g transform="translate(521.975638 404.638438) scale(0.1 -0.1)">
       <use xlink:href="#DejaVuSans-31"/>
       <use xlink:href="#DejaVuSans-35" x="63.623047"/>
       <use xlink:href="#DejaVuSans-30" x="127.246094"/>
      </g>
     </g>
    </g>
    <g id="xtick_8">
     <g id="line2d_15">
      <path d="M 605.614722 390.04 
L 605.614722 26.88 
" clip-path="url(#pd755034b11)" style="fill: none; stroke: #b0b0b0; stroke-width: 0.8; stroke-linecap: square"/>
     </g>
     <g id="line2d_16">
      <g>
       <use xlink:href="#m703ab8df83" x="605.614722" y="390.04" style="stroke: #000000; stroke-width: 0.8"/>
      </g>
     </g>
     <g id="text_8">
      <!-- 175 -->
      <g transform="translate(596.070972 404.638438) scale(0.1 -0.1)">
       <use xlink:href="#DejaVuSans-31"/>
       <use xlink:href="#DejaVuSans-37" x="63.623047"/>
       <use xlink:href="#DejaVuSans-35" x="127.246094"/>
      </g>
     </g>
    </g>
    <g id="xtick_9">
     <g id="line2d_17">
      <path d="M 679.710057 390.04 
L 679.710057 26.88 
" clip-path="url(#pd755034b11)" style="fill: none; stroke: #b0b0b0; stroke-width: 0.8; stroke-linecap: square"/>
     </g>
     <g id="line2d_18">
      <g>
       <use xlink:href="#m703ab8df83" x="679.710057" y="390.04" style="stroke: #000000; stroke-width: 0.8"/>
      </g>
     </g>
     <g id="text_9">
      <!-- 200 -->
      <g transform="translate(670.166307 404.638438) scale(0.1 -0.1)">
       <use xlink:href="#DejaVuSans-32"/>
       <use xlink:href="#DejaVuSans-30" x="63.623047"/>
       <use xlink:href="#DejaVuSans-30" x="127.246094"/>
      </g>
     </g>
    </g>
    <g id="text_10">
     <!-- Epoch -->
     <g transform="translate(369.499687 418.316562) scale(0.1 -0.1)">
      <defs>
       <path id="DejaVuSans-45" d="M 628 4666 
L 3578 4666 
L 3578 4134 
L 1259 4134 
L 1259 2753 
L 3481 2753 
L 3481 2222 
L 1259 2222 
L 1259 531 
L 3634 531 
L 3634 0 
L 628 0 
L 628 4666 
z
" transform="scale(0.015625)"/>
       <path id="DejaVuSans-70" d="M 1159 525 
L 1159 -1331 
L 581 -1331 
L 581 3500 
L 1159 3500 
L 1159 2969 
Q 1341 3281 1617 3432 
Q 1894 3584 2278 3584 
Q 2916 3584 3314 3078 
Q 3713 2572 3713 1747 
Q 3713 922 3314 415 
Q 2916 -91 2278 -91 
Q 1894 -91 1617 61 
Q 1341 213 1159 525 
z
M 3116 1747 
Q 3116 2381 2855 2742 
Q 2594 3103 2138 3103 
Q 1681 3103 1420 2742 
Q 1159 2381 1159 1747 
Q 1159 1113 1420 752 
Q 1681 391 2138 391 
Q 2594 391 2855 752 
Q 3116 1113 3116 1747 
z
" transform="scale(0.015625)"/>
       <path id="DejaVuSans-6f" d="M 1959 3097 
Q 1497 3097 1228 2736 
Q 959 2375 959 1747 
Q 959 1119 1226 758 
Q 1494 397 1959 397 
Q 2419 397 2687 759 
Q 2956 1122 2956 1747 
Q 2956 2369 2687 2733 
Q 2419 3097 1959 3097 
z
M 1959 3584 
Q 2709 3584 3137 3096 
Q 3566 2609 3566 1747 
Q 3566 888 3137 398 
Q 2709 -91 1959 -91 
Q 1206 -91 779 398 
Q 353 888 353 1747 
Q 353 2609 779 3096 
Q 1206 3584 1959 3584 
z
" transform="scale(0.015625)"/>
       <path id="DejaVuSans-63" d="M 3122 3366 
L 3122 2828 
Q 2878 2963 2633 3030 
Q 2388 3097 2138 3097 
Q 1578 3097 1268 2742 
Q 959 2388 959 1747 
Q 959 1106 1268 751 
Q 1578 397 2138 397 
Q 2388 397 2633 464 
Q 2878 531 3122 666 
L 3122 134 
Q 2881 22 2623 -34 
Q 2366 -91 2075 -91 
Q 1284 -91 818 406 
Q 353 903 353 1747 
Q 353 2603 823 3093 
Q 1294 3584 2113 3584 
Q 2378 3584 2631 3529 
Q 2884 3475 3122 3366 
z
" transform="scale(0.015625)"/>
       <path id="DejaVuSans-68" d="M 3513 2113 
L 3513 0 
L 2938 0 
L 2938 2094 
Q 2938 2591 2744 2837 
Q 2550 3084 2163 3084 
Q 1697 3084 1428 2787 
Q 1159 2491 1159 1978 
L 1159 0 
L 581 0 
L 581 4863 
L 1159 4863 
L 1159 2956 
Q 1366 3272 1645 3428 
Q 1925 3584 2291 3584 
Q 2894 3584 3203 3211 
Q 3513 2838 3513 2113 
z
" transform="scale(0.015625)"/>
      </defs>
      <use xlink:href="#DejaVuSans-45"/>
      <use xlink:href="#DejaVuSans-70" x="63.183594"/>
      <use xlink:href="#DejaVuSans-6f" x="126.660156"/>
      <use xlink:href="#DejaVuSans-63" x="187.841797"/>
      <use xlink:href="#DejaVuSans-68" x="242.822266"/>
     </g>
    </g>
   </g>
   <g id="matplotlib.axis_2">
    <g id="ytick_1">
     <g id="line2d_19">
      <path d="M 60.42125 375.555903 
L 709.2 375.555903 
" clip-path="url(#pd755034b11)" style="fill: none; stroke: #b0b0b0; stroke-width: 0.8; stroke-linecap: square"/>
     </g>
     <g id="line2d_20">
      <defs>
       <path id="m794ac24e5c" d="M 0 0 
L -3.5 0 
" style="stroke: #000000; stroke-width: 0.8"/>
      </defs>
      <g>
       <use xlink:href="#m794ac24e5c" x="60.42125" y="375.555903" style="stroke: #000000; stroke-width: 0.8"/>
      </g>
     </g>
     <g id="text_11">
      <!-- 0.000 -->
      <g transform="translate(24.793125 379.355122) scale(0.1 -0.1)">
       <defs>
        <path id="DejaVuSans-2e" d="M 684 794 
L 1344 794 
L 1344 0 
L 684 0 
L 684 794 
z
" transform="scale(0.015625)"/>
       </defs>
       <use xlink:href="#DejaVuSans-30"/>
       <use xlink:href="#DejaVuSans-2e" x="63.623047"/>
       <use xlink:href="#DejaVuSans-30" x="95.410156"/>
       <use xlink:href="#DejaVuSans-30" x="159.033203"/>
       <use xlink:href="#DejaVuSans-30" x="222.65625"/>
      </g>
     </g>
    </g>
    <g id="ytick_2">
     <g id="line2d_21">
      <path d="M 60.42125 329.574642 
L 709.2 329.574642 
" clip-path="url(#pd755034b11)" style="fill: none; stroke: #b0b0b0; stroke-width: 0.8; stroke-linecap: square"/>
     </g>
     <g id="line2d_22">
      <g>
       <use xlink:href="#m794ac24e5c" x="60.42125" y="329.574642" style="stroke: #000000; stroke-width: 0.8"/>
      </g>
     </g>
     <g id="text_12">
      <!-- 0.025 -->
      <g transform="translate(24.793125 333.37386) scale(0.1 -0.1)">
       <use xlink:href="#DejaVuSans-30"/>
       <use xlink:href="#DejaVuSans-2e" x="63.623047"/>
       <use xlink:href="#DejaVuSans-30" x="95.410156"/>
       <use xlink:href="#DejaVuSans-32" x="159.033203"/>
       <use xlink:href="#DejaVuSans-35" x="222.65625"/>
      </g>
     </g>
    </g>
    <g id="ytick_3">
     <g id="line2d_23">
      <path d="M 60.42125 283.593381 
L 709.2 283.593381 
" clip-path="url(#pd755034b11)" style="fill: none; stroke: #b0b0b0; stroke-width: 0.8; stroke-linecap: square"/>
     </g>
     <g id="line2d_24">
      <g>
       <use xlink:href="#m794ac24e5c" x="60.42125" y="283.593381" style="stroke: #000000; stroke-width: 0.8"/>
      </g>
     </g>
     <g id="text_13">
      <!-- 0.050 -->
      <g transform="translate(24.793125 287.392599) scale(0.1 -0.1)">
       <use xlink:href="#DejaVuSans-30"/>
       <use xlink:href="#DejaVuSans-2e" x="63.623047"/>
       <use xlink:href="#DejaVuSans-30" x="95.410156"/>
       <use xlink:href="#DejaVuSans-35" x="159.033203"/>
       <use xlink:href="#DejaVuSans-30" x="222.65625"/>
      </g>
     </g>
    </g>
    <g id="ytick_4">
     <g id="line2d_25">
      <path d="M 60.42125 237.61212 
L 709.2 237.61212 
" clip-path="url(#pd755034b11)" style="fill: none; stroke: #b0b0b0; stroke-width: 0.8; stroke-linecap: square"/>
     </g>
     <g id="line2d_26">
      <g>
       <use xlink:href="#m794ac24e5c" x="60.42125" y="237.61212" style="stroke: #000000; stroke-width: 0.8"/>
      </g>
     </g>
     <g id="text_14">
      <!-- 0.075 -->
      <g transform="translate(24.793125 241.411338) scale(0.1 -0.1)">
       <use xlink:href="#DejaVuSans-30"/>
       <use xlink:href="#DejaVuSans-2e" x="63.623047"/>
       <use xlink:href="#DejaVuSans-30" x="95.410156"/>
       <use xlink:href="#DejaVuSans-37" x="159.033203"/>
       <use xlink:href="#DejaVuSans-35" x="222.65625"/>
      </g>
     </g>
    </g>
    <g id="ytick_5">
     <g id="line2d_27">
      <path d="M 60.42125 191.630858 
L 709.2 191.630858 
" clip-path="url(#pd755034b11)" style="fill: none; stroke: #b0b0b0; stroke-width: 0.8; stroke-linecap: square"/>
     </g>
     <g id="line2d_28">
      <g>
       <use xlink:href="#m794ac24e5c" x="60.42125" y="191.630858" style="stroke: #000000; stroke-width: 0.8"/>
      </g>
     </g>
     <g id="text_15">
      <!-- 0.100 -->
      <g transform="translate(24.793125 195.430077) scale(0.1 -0.1)">
       <use xlink:href="#DejaVuSans-30"/>
       <use xlink:href="#DejaVuSans-2e" x="63.623047"/>
       <use xlink:href="#DejaVuSans-31" x="95.410156"/>
       <use xlink:href="#DejaVuSans-30" x="159.033203"/>
       <use xlink:href="#DejaVuSans-30" x="222.65625"/>
      </g>
     </g>
    </g>
    <g id="ytick_6">
     <g id="line2d_29">
      <path d="M 60.42125 145.649597 
L 709.2 145.649597 
" clip-path="url(#pd755034b11)" style="fill: none; stroke: #b0b0b0; stroke-width: 0.8; stroke-linecap: square"/>
     </g>
     <g id="line2d_30">
      <g>
       <use xlink:href="#m794ac24e5c" x="60.42125" y="145.649597" style="stroke: #000000; stroke-width: 0.8"/>
      </g>
     </g>
     <g id="text_16">
      <!-- 0.125 -->
      <g transform="translate(24.793125 149.448816) scale(0.1 -0.1)">
       <use xlink:href="#DejaVuSans-30"/>
       <use xlink:href="#DejaVuSans-2e" x="63.623047"/>
       <use xlink:href="#DejaVuSans-31" x="95.410156"/>
       <use xlink:href="#DejaVuSans-32" x="159.033203"/>
       <use xlink:href="#DejaVuSans-35" x="222.65625"/>
      </g>
     </g>
    </g>
    <g id="ytick_7">
     <g id="line2d_31">
      <path d="M 60.42125 99.668336 
L 709.2 99.668336 
" clip-path="url(#pd755034b11)" style="fill: none; stroke: #b0b0b0; stroke-width: 0.8; stroke-linecap: square"/>
     </g>
     <g id="line2d_32">
      <g>
       <use xlink:href="#m794ac24e5c" x="60.42125" y="99.668336" style="stroke: #000000; stroke-width: 0.8"/>
      </g>
     </g>
     <g id="text_17">
      <!-- 0.150 -->
      <g transform="translate(24.793125 103.467555) scale(0.1 -0.1)">
       <use xlink:href="#DejaVuSans-30"/>
       <use xlink:href="#DejaVuSans-2e" x="63.623047"/>
       <use xlink:href="#DejaVuSans-31" x="95.410156"/>
       <use xlink:href="#DejaVuSans-35" x="159.033203"/>
       <use xlink:href="#DejaVuSans-30" x="222.65625"/>
      </g>
     </g>
    </g>
    <g id="ytick_8">
     <g id="line2d_33">
      <path d="M 60.42125 53.687075 
L 709.2 53.687075 
" clip-path="url(#pd755034b11)" style="fill: none; stroke: #b0b0b0; stroke-width: 0.8; stroke-linecap: square"/>
     </g>
     <g id="line2d_34">
      <g>
       <use xlink:href="#m794ac24e5c" x="60.42125" y="53.687075" style="stroke: #000000; stroke-width: 0.8"/>
      </g>
     </g>
     <g id="text_18">
      <!-- 0.175 -->
      <g transform="translate(24.793125 57.486294) scale(0.1 -0.1)">
       <use xlink:href="#DejaVuSans-30"/>
       <use xlink:href="#DejaVuSans-2e" x="63.623047"/>
       <use xlink:href="#DejaVuSans-31" x="95.410156"/>
       <use xlink:href="#DejaVuSans-37" x="159.033203"/>
       <use xlink:href="#DejaVuSans-35" x="222.65625"/>
      </g>
     </g>
    </g>
    <g id="text_19">
     <!-- Encoder_mse -->
     <g transform="translate(18.435312 241.954531) rotate(-90) scale(0.1 -0.1)">
      <defs>
       <path id="DejaVuSans-6e" d="M 3513 2113 
L 3513 0 
L 2938 0 
L 2938 2094 
Q 2938 2591 2744 2837 
Q 2550 3084 2163 3084 
Q 1697 3084 1428 2787 
Q 1159 2491 1159 1978 
L 1159 0 
L 581 0 
L 581 3500 
L 1159 3500 
L 1159 2956 
Q 1366 3272 1645 3428 
Q 1925 3584 2291 3584 
Q 2894 3584 3203 3211 
Q 3513 2838 3513 2113 
z
" transform="scale(0.015625)"/>
       <path id="DejaVuSans-64" d="M 2906 2969 
L 2906 4863 
L 3481 4863 
L 3481 0 
L 2906 0 
L 2906 525 
Q 2725 213 2448 61 
Q 2172 -91 1784 -91 
Q 1150 -91 751 415 
Q 353 922 353 1747 
Q 353 2572 751 3078 
Q 1150 3584 1784 3584 
Q 2172 3584 2448 3432 
Q 2725 3281 2906 2969 
z
M 947 1747 
Q 947 1113 1208 752 
Q 1469 391 1925 391 
Q 2381 391 2643 752 
Q 2906 1113 2906 1747 
Q 2906 2381 2643 2742 
Q 2381 3103 1925 3103 
Q 1469 3103 1208 2742 
Q 947 2381 947 1747 
z
" transform="scale(0.015625)"/>
       <path id="DejaVuSans-65" d="M 3597 1894 
L 3597 1613 
L 953 1613 
Q 991 1019 1311 708 
Q 1631 397 2203 397 
Q 2534 397 2845 478 
Q 3156 559 3463 722 
L 3463 178 
Q 3153 47 2828 -22 
Q 2503 -91 2169 -91 
Q 1331 -91 842 396 
Q 353 884 353 1716 
Q 353 2575 817 3079 
Q 1281 3584 2069 3584 
Q 2775 3584 3186 3129 
Q 3597 2675 3597 1894 
z
M 3022 2063 
Q 3016 2534 2758 2815 
Q 2500 3097 2075 3097 
Q 1594 3097 1305 2825 
Q 1016 2553 972 2059 
L 3022 2063 
z
" transform="scale(0.015625)"/>
       <path id="DejaVuSans-72" d="M 2631 2963 
Q 2534 3019 2420 3045 
Q 2306 3072 2169 3072 
Q 1681 3072 1420 2755 
Q 1159 2438 1159 1844 
L 1159 0 
L 581 0 
L 581 3500 
L 1159 3500 
L 1159 2956 
Q 1341 3275 1631 3429 
Q 1922 3584 2338 3584 
Q 2397 3584 2469 3576 
Q 2541 3569 2628 3553 
L 2631 2963 
z
" transform="scale(0.015625)"/>
       <path id="DejaVuSans-5f" d="M 3263 -1063 
L 3263 -1509 
L -63 -1509 
L -63 -1063 
L 3263 -1063 
z
" transform="scale(0.015625)"/>
       <path id="DejaVuSans-6d" d="M 3328 2828 
Q 3544 3216 3844 3400 
Q 4144 3584 4550 3584 
Q 5097 3584 5394 3201 
Q 5691 2819 5691 2113 
L 5691 0 
L 5113 0 
L 5113 2094 
Q 5113 2597 4934 2840 
Q 4756 3084 4391 3084 
Q 3944 3084 3684 2787 
Q 3425 2491 3425 1978 
L 3425 0 
L 2847 0 
L 2847 2094 
Q 2847 2600 2669 2842 
Q 2491 3084 2119 3084 
Q 1678 3084 1418 2786 
Q 1159 2488 1159 1978 
L 1159 0 
L 581 0 
L 581 3500 
L 1159 3500 
L 1159 2956 
Q 1356 3278 1631 3431 
Q 1906 3584 2284 3584 
Q 2666 3584 2933 3390 
Q 3200 3197 3328 2828 
z
" transform="scale(0.015625)"/>
       <path id="DejaVuSans-73" d="M 2834 3397 
L 2834 2853 
Q 2591 2978 2328 3040 
Q 2066 3103 1784 3103 
Q 1356 3103 1142 2972 
Q 928 2841 928 2578 
Q 928 2378 1081 2264 
Q 1234 2150 1697 2047 
L 1894 2003 
Q 2506 1872 2764 1633 
Q 3022 1394 3022 966 
Q 3022 478 2636 193 
Q 2250 -91 1575 -91 
Q 1294 -91 989 -36 
Q 684 19 347 128 
L 347 722 
Q 666 556 975 473 
Q 1284 391 1588 391 
Q 1994 391 2212 530 
Q 2431 669 2431 922 
Q 2431 1156 2273 1281 
Q 2116 1406 1581 1522 
L 1381 1569 
Q 847 1681 609 1914 
Q 372 2147 372 2553 
Q 372 3047 722 3315 
Q 1072 3584 1716 3584 
Q 2034 3584 2315 3537 
Q 2597 3491 2834 3397 
z
" transform="scale(0.015625)"/>
      </defs>
      <use xlink:href="#DejaVuSans-45"/>
      <use xlink:href="#DejaVuSans-6e" x="63.183594"/>
      <use xlink:href="#DejaVuSans-63" x="126.5625"/>
      <use xlink:href="#DejaVuSans-6f" x="181.542969"/>
      <use xlink:href="#DejaVuSans-64" x="242.724609"/>
      <use xlink:href="#DejaVuSans-65" x="306.201172"/>
      <use xlink:href="#DejaVuSans-72" x="367.724609"/>
      <use xlink:href="#DejaVuSans-5f" x="408.837891"/>
      <use xlink:href="#DejaVuSans-6d" x="458.837891"/>
      <use xlink:href="#DejaVuSans-73" x="556.25"/>
      <use xlink:href="#DejaVuSans-65" x="608.349609"/>
     </g>
    </g>
   </g>
   <g id="line2d_35">
    <path d="M 89.911193 265.752651 
L 92.875007 289.846832 
L 98.802633 290.950382 
L 101.766447 293.893183 
L 104.73026 301.985885 
L 107.694073 302.16981 
L 110.657887 306.767936 
L 113.6217 306.400086 
L 116.585514 309.342887 
L 119.549327 308.239337 
L 122.51314 304.192986 
L 125.476954 301.250185 
L 128.440767 304.009061 
L 131.404581 302.90551 
L 134.368394 304.009061 
L 137.332207 301.43411 
L 140.296021 295.916359 
L 143.259834 290.766457 
L 146.223647 287.455807 
L 149.187461 279.730955 
L 152.151274 282.305905 
L 155.115088 285.064781 
L 158.078901 286.536181 
L 161.042714 285.616556 
L 164.006528 288.007582 
L 166.970341 282.48983 
L 169.934155 285.432631 
L 172.897968 279.17918 
L 175.861781 283.041605 
L 178.825595 349.438546 
L 181.789408 352.197422 
L 184.753222 354.588448 
L 187.717035 353.852748 
L 190.680848 357.347323 
L 193.644662 358.450874 
L 196.608475 360.474049 
L 199.572288 362.3133 
L 202.536102 363.7847 
L 205.499915 365.072175 
L 208.463729 365.072175 
L 211.427542 366.175726 
L 214.391355 366.175726 
L 217.355169 367.463201 
L 220.318982 367.095351 
L 223.282796 367.463201 
L 226.246609 368.014976 
L 229.210422 368.198901 
L 232.174236 369.118526 
L 235.138049 368.566751 
L 238.101862 322.033715 
L 241.065676 283.777306 
L 244.029489 254.165374 
L 246.993303 241.842396 
L 249.957116 238.899595 
L 252.920929 234.669319 
L 255.884743 229.519418 
L 261.81237 210.391213 
L 264.776183 208.368037 
L 267.739996 207.264487 
L 270.70381 205.609162 
L 273.667623 188.320208 
L 276.631436 166.800977 
L 279.59525 141.235396 
L 282.559063 119.716166 
L 285.522877 112.910939 
L 288.48669 103.346837 
L 291.450503 102.795062 
L 294.414317 93.782735 
L 297.37813 82.931157 
L 300.341944 92.49526 
L 303.305757 97.277311 
L 306.26957 94.33451 
L 309.233384 90.656009 
L 312.197197 93.782735 
L 315.16101 89.184609 
L 318.124824 91.575634 
L 321.088637 86.425733 
L 324.052451 91.391709 
L 327.016264 92.311335 
L 329.980077 100.587962 
L 332.943891 93.59881 
L 335.907704 98.013011 
L 338.871518 96.17376 
L 341.835331 89.920309 
L 344.799144 93.96666 
L 347.762958 99.116561 
L 350.726771 105.921788 
L 353.690584 106.289638 
L 356.654398 102.059362 
L 359.618211 105.921788 
L 362.582025 105.370013 
L 365.545838 100.955812 
L 368.509651 104.450387 
L 371.473465 111.807389 
L 374.437278 109.600289 
L 377.401092 78.333031 
L 380.364905 43.387273 
L 383.328718 45.042598 
L 386.292532 44.122973 
L 389.256345 55.342401 
L 392.220158 64.906503 
L 398.147785 100.036186 
L 401.111599 122.291117 
L 404.075412 141.603246 
L 407.039225 162.938552 
L 410.003039 182.066756 
L 412.966852 199.72356 
L 415.930666 218.66784 
L 418.894479 235.588944 
L 421.858292 250.670798 
L 424.822106 265.016951 
L 427.785919 274.764978 
L 433.713546 296.468134 
L 436.677359 303.457285 
L 439.641173 311.182137 
L 442.604986 315.044563 
L 445.568799 320.194464 
L 448.532613 324.976516 
L 451.496426 328.103241 
L 454.46024 332.885292 
L 457.424053 335.092393 
L 460.387866 338.035194 
L 469.279306 345.20827 
L 472.24312 348.334996 
L 475.206933 352.013497 
L 478.170747 353.668822 
L 484.098373 356.611623 
L 487.062187 357.899099 
L 490.026 358.266949 
L 492.989814 359.738349 
L 495.953627 360.474049 
L 498.91744 361.025824 
L 504.845067 361.761524 
L 507.80888 361.761524 
L 510.772694 362.3133 
L 513.736507 362.129375 
L 516.700321 363.232925 
L 519.664134 362.865075 
L 522.627947 363.232925 
L 525.591761 363.049 
L 528.555574 362.68115 
L 531.519388 363.049 
L 537.447014 363.049 
L 543.374641 363.41685 
L 546.338454 363.41685 
L 549.302268 364.15255 
L 552.266081 364.15255 
L 555.229895 363.968625 
L 558.193708 364.15255 
L 561.157521 364.5204 
L 564.121335 364.336475 
L 567.085148 364.336475 
L 570.048962 364.704325 
L 573.012775 364.88825 
L 575.976588 365.2561 
L 578.940402 365.2561 
L 581.904215 365.072175 
L 584.868028 365.807875 
L 587.831842 365.62395 
L 590.795655 366.175726 
L 593.759469 365.62395 
L 602.650909 366.175726 
L 608.578536 366.911426 
L 611.542349 366.727501 
L 614.506162 366.911426 
L 617.469976 367.279276 
L 620.433789 366.911426 
L 623.397603 367.095351 
L 626.361416 367.463201 
L 629.325229 366.911426 
L 632.289043 367.279276 
L 635.252856 367.279276 
L 638.216669 367.463201 
L 641.180483 367.095351 
L 644.144296 367.647126 
L 647.10811 367.647126 
L 650.071923 367.463201 
L 653.035736 367.831051 
L 655.99955 367.647126 
L 658.963363 367.279276 
L 661.927177 367.463201 
L 664.89099 367.279276 
L 667.854803 367.647126 
L 670.818617 367.647126 
L 673.78243 368.198901 
L 676.746243 368.014976 
L 679.710057 368.014976 
L 679.710057 368.014976 
" clip-path="url(#pd755034b11)" style="fill: none; stroke: #0000ff; stroke-width: 1.5; stroke-linecap: square"/>
   </g>
   <g id="line2d_36">
    <path d="M 89.911193 278.627404 
L 92.875007 299.96271 
L 95.83882 307.135786 
L 98.802633 306.767936 
L 101.766447 306.216161 
L 104.73026 303.825135 
L 107.694073 317.435589 
L 110.657887 321.298015 
L 113.6217 322.95334 
L 116.585514 327.183616 
L 119.549327 325.160441 
L 122.51314 320.74624 
L 125.476954 311.366062 
L 128.440767 325.160441 
L 131.404581 318.906989 
L 134.368394 321.11409 
L 137.332207 311.733912 
L 140.296021 315.228488 
L 143.259834 291.870008 
L 146.223647 293.341408 
L 149.187461 305.296536 
L 152.151274 294.628883 
L 155.115088 303.27336 
L 158.078901 297.571684 
L 161.042714 301.250185 
L 164.006528 297.019909 
L 166.970341 299.227009 
L 169.934155 293.525333 
L 172.897968 290.950382 
L 175.861781 299.594859 
L 178.825595 368.014976 
L 181.789408 370.773852 
L 184.753222 371.693477 
L 190.680848 371.693477 
L 193.644662 371.877402 
L 196.608475 372.245252 
L 199.572288 371.509552 
L 202.536102 371.877402 
L 205.499915 371.877402 
L 208.463729 371.693477 
L 211.427542 372.797027 
L 214.391355 371.509552 
L 217.355169 372.429177 
L 220.318982 372.613102 
L 223.282796 372.980952 
L 226.246609 370.773852 
L 229.210422 373.532727 
L 235.138049 372.429177 
L 241.065676 260.418825 
L 244.029489 249.935097 
L 246.993303 247.727997 
L 249.957116 242.762021 
L 252.920929 230.071193 
L 255.884743 234.485394 
L 258.848556 232.094368 
L 261.81237 220.13924 
L 264.776183 221.610641 
L 267.739996 215.541114 
L 270.70381 203.218136 
L 273.667623 168.088453 
L 276.631436 155.029775 
L 279.59525 116.037665 
L 282.559063 122.842892 
L 285.522877 93.23096 
L 288.48669 108.128888 
L 291.450503 69.320704 
L 294.414317 89.184609 
L 297.37813 68.585004 
L 300.341944 80.724057 
L 303.305757 70.608179 
L 306.26957 63.986878 
L 309.233384 76.677706 
L 312.197197 95.43806 
L 315.16101 69.872479 
L 318.124824 87.529283 
L 321.088637 76.125931 
L 324.052451 95.43806 
L 327.016264 84.954333 
L 329.980077 110.335989 
L 332.943891 84.770408 
L 335.907704 89.184609 
L 338.871518 70.240329 
L 341.835331 81.459757 
L 344.799144 96.541611 
L 347.762958 99.852261 
L 350.726771 125.233917 
L 353.690584 103.162912 
L 356.654398 111.991314 
L 359.618211 100.955812 
L 362.582025 103.530762 
L 365.545838 110.703839 
L 368.509651 119.164391 
L 371.473465 126.153543 
L 374.437278 109.048514 
L 377.401092 60.124452 
L 380.364905 69.136779 
L 383.328718 44.306898 
L 386.292532 76.309856 
L 389.256345 73.18313 
L 392.220158 83.850782 
L 395.183972 93.782735 
L 398.147785 110.703839 
L 401.111599 129.096343 
L 404.075412 156.31725 
L 407.039225 178.756105 
L 410.003039 198.436085 
L 412.966852 216.82859 
L 415.930666 236.876419 
L 418.894479 255.084999 
L 421.858292 271.270403 
L 424.822106 285.800481 
L 427.785919 297.019909 
L 430.749732 304.744761 
L 436.677359 321.84979 
L 439.641173 329.758567 
L 442.604986 333.620993 
L 445.568799 337.299494 
L 451.496426 347.415371 
L 454.46024 349.254621 
L 457.424053 352.197422 
L 460.387866 353.852748 
L 463.35168 355.691998 
L 466.315493 356.427698 
L 469.279306 359.922274 
L 472.24312 362.68115 
L 475.206933 361.945449 
L 478.170747 361.025824 
L 481.13456 363.049 
L 484.098373 363.41685 
L 487.062187 365.072175 
L 490.026 364.336475 
L 492.989814 363.7847 
L 495.953627 365.2561 
L 498.91744 366.175726 
L 501.881254 364.88825 
L 504.845067 366.543576 
L 507.80888 365.2561 
L 510.772694 366.175726 
L 513.736507 367.463201 
L 516.700321 366.911426 
L 519.664134 367.463201 
L 522.627947 365.9918 
L 525.591761 364.88825 
L 528.555574 366.175726 
L 531.519388 366.911426 
L 534.483201 365.072175 
L 537.447014 365.9918 
L 540.410828 367.279276 
L 543.374641 366.543576 
L 546.338454 366.543576 
L 549.302268 365.9918 
L 552.266081 365.62395 
L 555.229895 367.095351 
L 558.193708 367.647126 
L 561.157521 367.463201 
L 564.121335 367.831051 
L 567.085148 367.279276 
L 570.048962 367.463201 
L 573.012775 368.014976 
L 575.976588 368.014976 
L 578.940402 367.095351 
L 581.904215 367.831051 
L 584.868028 367.279276 
L 587.831842 369.486376 
L 590.795655 369.670301 
L 593.759469 368.750676 
L 596.723282 368.566751 
L 599.687095 369.302451 
L 602.650909 368.750676 
L 605.614722 369.486376 
L 608.578536 369.486376 
L 611.542349 369.118526 
L 614.506162 370.222076 
L 617.469976 370.038151 
L 620.433789 370.222076 
L 623.397603 369.854226 
L 626.361416 370.222076 
L 629.325229 370.406002 
L 632.289043 370.222076 
L 635.252856 369.486376 
L 638.216669 369.670301 
L 641.180483 369.486376 
L 644.144296 371.141702 
L 647.10811 369.670301 
L 650.071923 370.589927 
L 653.035736 370.589927 
L 655.99955 370.773852 
L 658.963363 370.589927 
L 661.927177 369.854226 
L 664.89099 370.589927 
L 667.854803 371.141702 
L 670.818617 369.670301 
L 673.78243 370.406002 
L 676.746243 370.589927 
L 679.710057 370.957777 
L 679.710057 370.957777 
" clip-path="url(#pd755034b11)" style="fill: none; stroke: #ffa500; stroke-width: 1.5; stroke-linecap: square"/>
   </g>
   <g id="patch_3">
    <path d="M 60.42125 390.04 
L 60.42125 26.88 
" style="fill: none; stroke: #000000; stroke-width: 0.8; stroke-linejoin: miter; stroke-linecap: square"/>
   </g>
   <g id="patch_4">
    <path d="M 709.2 390.04 
L 709.2 26.88 
" style="fill: none; stroke: #000000; stroke-width: 0.8; stroke-linejoin: miter; stroke-linecap: square"/>
   </g>
   <g id="patch_5">
    <path d="M 60.42125 390.04 
L 709.2 390.04 
" style="fill: none; stroke: #000000; stroke-width: 0.8; stroke-linejoin: miter; stroke-linecap: square"/>
   </g>
   <g id="patch_6">
    <path d="M 60.42125 26.88 
L 709.2 26.88 
" style="fill: none; stroke: #000000; stroke-width: 0.8; stroke-linejoin: miter; stroke-linecap: square"/>
   </g>
   <g id="text_20">
    <!-- Encoder_mse for Median_blur_3_v2 -->
    <g transform="translate(278.798125 20.88) scale(0.12 -0.12)">
     <defs>
      <path id="DejaVuSans-20" transform="scale(0.015625)"/>
      <path id="DejaVuSans-66" d="M 2375 4863 
L 2375 4384 
L 1825 4384 
Q 1516 4384 1395 4259 
Q 1275 4134 1275 3809 
L 1275 3500 
L 2222 3500 
L 2222 3053 
L 1275 3053 
L 1275 0 
L 697 0 
L 697 3053 
L 147 3053 
L 147 3500 
L 697 3500 
L 697 3744 
Q 697 4328 969 4595 
Q 1241 4863 1831 4863 
L 2375 4863 
z
" transform="scale(0.015625)"/>
      <path id="DejaVuSans-4d" d="M 628 4666 
L 1569 4666 
L 2759 1491 
L 3956 4666 
L 4897 4666 
L 4897 0 
L 4281 0 
L 4281 4097 
L 3078 897 
L 2444 897 
L 1241 4097 
L 1241 0 
L 628 0 
L 628 4666 
z
" transform="scale(0.015625)"/>
      <path id="DejaVuSans-69" d="M 603 3500 
L 1178 3500 
L 1178 0 
L 603 0 
L 603 3500 
z
M 603 4863 
L 1178 4863 
L 1178 4134 
L 603 4134 
L 603 4863 
z
" transform="scale(0.015625)"/>
      <path id="DejaVuSans-61" d="M 2194 1759 
Q 1497 1759 1228 1600 
Q 959 1441 959 1056 
Q 959 750 1161 570 
Q 1363 391 1709 391 
Q 2188 391 2477 730 
Q 2766 1069 2766 1631 
L 2766 1759 
L 2194 1759 
z
M 3341 1997 
L 3341 0 
L 2766 0 
L 2766 531 
Q 2569 213 2275 61 
Q 1981 -91 1556 -91 
Q 1019 -91 701 211 
Q 384 513 384 1019 
Q 384 1609 779 1909 
Q 1175 2209 1959 2209 
L 2766 2209 
L 2766 2266 
Q 2766 2663 2505 2880 
Q 2244 3097 1772 3097 
Q 1472 3097 1187 3025 
Q 903 2953 641 2809 
L 641 3341 
Q 956 3463 1253 3523 
Q 1550 3584 1831 3584 
Q 2591 3584 2966 3190 
Q 3341 2797 3341 1997 
z
" transform="scale(0.015625)"/>
      <path id="DejaVuSans-62" d="M 3116 1747 
Q 3116 2381 2855 2742 
Q 2594 3103 2138 3103 
Q 1681 3103 1420 2742 
Q 1159 2381 1159 1747 
Q 1159 1113 1420 752 
Q 1681 391 2138 391 
Q 2594 391 2855 752 
Q 3116 1113 3116 1747 
z
M 1159 2969 
Q 1341 3281 1617 3432 
Q 1894 3584 2278 3584 
Q 2916 3584 3314 3078 
Q 3713 2572 3713 1747 
Q 3713 922 3314 415 
Q 2916 -91 2278 -91 
Q 1894 -91 1617 61 
Q 1341 213 1159 525 
L 1159 0 
L 581 0 
L 581 4863 
L 1159 4863 
L 1159 2969 
z
" transform="scale(0.015625)"/>
      <path id="DejaVuSans-6c" d="M 603 4863 
L 1178 4863 
L 1178 0 
L 603 0 
L 603 4863 
z
" transform="scale(0.015625)"/>
      <path id="DejaVuSans-75" d="M 544 1381 
L 544 3500 
L 1119 3500 
L 1119 1403 
Q 1119 906 1312 657 
Q 1506 409 1894 409 
Q 2359 409 2629 706 
Q 2900 1003 2900 1516 
L 2900 3500 
L 3475 3500 
L 3475 0 
L 2900 0 
L 2900 538 
Q 2691 219 2414 64 
Q 2138 -91 1772 -91 
Q 1169 -91 856 284 
Q 544 659 544 1381 
z
M 1991 3584 
L 1991 3584 
z
" transform="scale(0.015625)"/>
      <path id="DejaVuSans-33" d="M 2597 2516 
Q 3050 2419 3304 2112 
Q 3559 1806 3559 1356 
Q 3559 666 3084 287 
Q 2609 -91 1734 -91 
Q 1441 -91 1130 -33 
Q 819 25 488 141 
L 488 750 
Q 750 597 1062 519 
Q 1375 441 1716 441 
Q 2309 441 2620 675 
Q 2931 909 2931 1356 
Q 2931 1769 2642 2001 
Q 2353 2234 1838 2234 
L 1294 2234 
L 1294 2753 
L 1863 2753 
Q 2328 2753 2575 2939 
Q 2822 3125 2822 3475 
Q 2822 3834 2567 4026 
Q 2313 4219 1838 4219 
Q 1578 4219 1281 4162 
Q 984 4106 628 3988 
L 628 4550 
Q 988 4650 1302 4700 
Q 1616 4750 1894 4750 
Q 2613 4750 3031 4423 
Q 3450 4097 3450 3541 
Q 3450 3153 3228 2886 
Q 3006 2619 2597 2516 
z
" transform="scale(0.015625)"/>
      <path id="DejaVuSans-76" d="M 191 3500 
L 800 3500 
L 1894 563 
L 2988 3500 
L 3597 3500 
L 2284 0 
L 1503 0 
L 191 3500 
z
" transform="scale(0.015625)"/>
     </defs>
     <use xlink:href="#DejaVuSans-45"/>
     <use xlink:href="#DejaVuSans-6e" x="63.183594"/>
     <use xlink:href="#DejaVuSans-63" x="126.5625"/>
     <use xlink:href="#DejaVuSans-6f" x="181.542969"/>
     <use xlink:href="#DejaVuSans-64" x="242.724609"/>
     <use xlink:href="#DejaVuSans-65" x="306.201172"/>
     <use xlink:href="#DejaVuSans-72" x="367.724609"/>
     <use xlink:href="#DejaVuSans-5f" x="408.837891"/>
     <use xlink:href="#DejaVuSans-6d" x="458.837891"/>
     <use xlink:href="#DejaVuSans-73" x="556.25"/>
     <use xlink:href="#DejaVuSans-65" x="608.349609"/>
     <use xlink:href="#DejaVuSans-20" x="669.873047"/>
     <use xlink:href="#DejaVuSans-66" x="701.660156"/>
     <use xlink:href="#DejaVuSans-6f" x="736.865234"/>
     <use xlink:href="#DejaVuSans-72" x="798.046875"/>
     <use xlink:href="#DejaVuSans-20" x="839.160156"/>
     <use xlink:href="#DejaVuSans-4d" x="870.947266"/>
     <use xlink:href="#DejaVuSans-65" x="957.226562"/>
     <use xlink:href="#DejaVuSans-64" x="1018.75"/>
     <use xlink:href="#DejaVuSans-69" x="1082.226562"/>
     <use xlink:href="#DejaVuSans-61" x="1110.009766"/>
     <use xlink:href="#DejaVuSans-6e" x="1171.289062"/>
     <use xlink:href="#DejaVuSans-5f" x="1234.667969"/>
     <use xlink:href="#DejaVuSans-62" x="1284.667969"/>
     <use xlink:href="#DejaVuSans-6c" x="1348.144531"/>
     <use xlink:href="#DejaVuSans-75" x="1375.927734"/>
     <use xlink:href="#DejaVuSans-72" x="1439.306641"/>
     <use xlink:href="#DejaVuSans-5f" x="1480.419922"/>
     <use xlink:href="#DejaVuSans-33" x="1530.419922"/>
     <use xlink:href="#DejaVuSans-5f" x="1594.042969"/>
     <use xlink:href="#DejaVuSans-76" x="1644.042969"/>
     <use xlink:href="#DejaVuSans-32" x="1703.222656"/>
    </g>
   </g>
   <g id="legend_1">
    <g id="patch_7">
     <path d="M 620.81875 64.23625 
L 702.2 64.23625 
Q 704.2 64.23625 704.2 62.23625 
L 704.2 33.88 
Q 704.2 31.88 702.2 31.88 
L 620.81875 31.88 
Q 618.81875 31.88 618.81875 33.88 
L 618.81875 62.23625 
Q 618.81875 64.23625 620.81875 64.23625 
z
" style="fill: #ffffff; opacity: 0.8; stroke: #cccccc; stroke-linejoin: miter"/>
    </g>
    <g id="line2d_37">
     <path d="M 622.81875 39.978437 
L 632.81875 39.978437 
L 642.81875 39.978437 
" style="fill: none; stroke: #0000ff; stroke-width: 1.5; stroke-linecap: square"/>
    </g>
    <g id="text_21">
     <!-- Train -->
     <g transform="translate(650.81875 43.478437) scale(0.1 -0.1)">
      <defs>
       <path id="DejaVuSans-54" d="M -19 4666 
L 3928 4666 
L 3928 4134 
L 2272 4134 
L 2272 0 
L 1638 0 
L 1638 4134 
L -19 4134 
L -19 4666 
z
" transform="scale(0.015625)"/>
      </defs>
      <use xlink:href="#DejaVuSans-54"/>
      <use xlink:href="#DejaVuSans-72" x="46.333984"/>
      <use xlink:href="#DejaVuSans-61" x="87.447266"/>
      <use xlink:href="#DejaVuSans-69" x="148.726562"/>
      <use xlink:href="#DejaVuSans-6e" x="176.509766"/>
     </g>
    </g>
    <g id="line2d_38">
     <path d="M 622.81875 54.656563 
L 632.81875 54.656563 
L 642.81875 54.656563 
" style="fill: none; stroke: #ffa500; stroke-width: 1.5; stroke-linecap: square"/>
    </g>
    <g id="text_22">
     <!-- Validation -->
     <g transform="translate(650.81875 58.156563) scale(0.1 -0.1)">
      <defs>
       <path id="DejaVuSans-56" d="M 1831 0 
L 50 4666 
L 709 4666 
L 2188 738 
L 3669 4666 
L 4325 4666 
L 2547 0 
L 1831 0 
z
" transform="scale(0.015625)"/>
       <path id="DejaVuSans-74" d="M 1172 4494 
L 1172 3500 
L 2356 3500 
L 2356 3053 
L 1172 3053 
L 1172 1153 
Q 1172 725 1289 603 
Q 1406 481 1766 481 
L 2356 481 
L 2356 0 
L 1766 0 
Q 1100 0 847 248 
Q 594 497 594 1153 
L 594 3053 
L 172 3053 
L 172 3500 
L 594 3500 
L 594 4494 
L 1172 4494 
z
" transform="scale(0.015625)"/>
      </defs>
      <use xlink:href="#DejaVuSans-56"/>
      <use xlink:href="#DejaVuSans-61" x="60.658203"/>
      <use xlink:href="#DejaVuSans-6c" x="121.9375"/>
      <use xlink:href="#DejaVuSans-69" x="149.720703"/>
      <use xlink:href="#DejaVuSans-64" x="177.503906"/>
      <use xlink:href="#DejaVuSans-61" x="240.980469"/>
      <use xlink:href="#DejaVuSans-74" x="302.259766"/>
      <use xlink:href="#DejaVuSans-69" x="341.46875"/>
      <use xlink:href="#DejaVuSans-6f" x="369.251953"/>
      <use xlink:href="#DejaVuSans-6e" x="430.433594"/>
     </g>
    </g>
   </g>
  </g>
 </g>
 <defs>
  <clipPath id="pd755034b11">
   <rect x="60.42125" y="26.88" width="648.77875" height="363.16"/>
  </clipPath>
 </defs>
</svg>
