<?xml version="1.0" encoding="utf-8" standalone="no"?>
<!DOCTYPE svg PUBLIC "-//W3C//DTD SVG 1.1//EN"
  "http://www.w3.org/Graphics/SVG/1.1/DTD/svg11.dtd">
<svg xmlns:xlink="http://www.w3.org/1999/xlink" width="720pt" height="432pt" viewBox="0 0 720 432" xmlns="http://www.w3.org/2000/svg" version="1.1">
 <metadata>
  <rdf:RDF xmlns:dc="http://purl.org/dc/elements/1.1/" xmlns:cc="http://creativecommons.org/ns#" xmlns:rdf="http://www.w3.org/1999/02/22-rdf-syntax-ns#">
   <cc:Work>
    <dc:type rdf:resource="http://purl.org/dc/dcmitype/StillImage"/>
    <dc:date>2025-05-10T19:49:23.806680</dc:date>
    <dc:format>image/svg+xml</dc:format>
    <dc:creator>
     <cc:Agent>
      <dc:title>Matplotlib v3.8.0, https://matplotlib.org/</dc:title>
     </cc:Agent>
    </dc:creator>
   </cc:Work>
  </rdf:RDF>
 </metadata>
 <defs>
  <style type="text/css">*{stroke-linejoin: round; stroke-linecap: butt}</style>
 </defs>
 <g id="figure_1">
  <g id="patch_1">
   <path d="M 0 432 
L 720 432 
L 720 0 
L 0 0 
z
" style="fill: #ffffff"/>
  </g>
  <g id="axes_1">
   <g id="patch_2">
    <path d="M 54.02 390.04 
L 709.2 390.04 
L 709.2 26.88 
L 54.02 26.88 
z
" style="fill: #ffffff"/>
   </g>
   <g id="matplotlib.axis_1">
    <g id="xtick_1">
     <g id="line2d_1">
      <path d="M 80.807853 390.04 
L 80.807853 26.88 
" clip-path="url(#pdc47cfa881)" style="fill: none; stroke: #b0b0b0; stroke-width: 0.8; stroke-linecap: square"/>
     </g>
     <g id="line2d_2">
      <defs>
       <path id="mfd415fa773" d="M 0 0 
L 0 3.5 
" style="stroke: #000000; stroke-width: 0.8"/>
      </defs>
      <g>
       <use xlink:href="#mfd415fa773" x="80.807853" y="390.04" style="stroke: #000000; stroke-width: 0.8"/>
      </g>
     </g>
     <g id="text_1">
      <!-- 0 -->
      <g transform="translate(77.626603 404.638438) scale(0.1 -0.1)">
       <defs>
        <path id="DejaVuSans-30" d="M 2034 4250 
Q 1547 4250 1301 3770 
Q 1056 3291 1056 2328 
Q 1056 1369 1301 889 
Q 1547 409 2034 409 
Q 2525 409 2770 889 
Q 3016 1369 3016 2328 
Q 3016 3291 2770 3770 
Q 2525 4250 2034 4250 
z
M 2034 4750 
Q 2819 4750 3233 4129 
Q 3647 3509 3647 2328 
Q 3647 1150 3233 529 
Q 2819 -91 2034 -91 
Q 1250 -91 836 529 
Q 422 1150 422 2328 
Q 422 3509 836 4129 
Q 1250 4750 2034 4750 
z
" transform="scale(0.015625)"/>
       </defs>
       <use xlink:href="#DejaVuSans-30"/>
      </g>
     </g>
    </g>
    <g id="xtick_2">
     <g id="line2d_3">
      <path d="M 155.634258 390.04 
L 155.634258 26.88 
" clip-path="url(#pdc47cfa881)" style="fill: none; stroke: #b0b0b0; stroke-width: 0.8; stroke-linecap: square"/>
     </g>
     <g id="line2d_4">
      <g>
       <use xlink:href="#mfd415fa773" x="155.634258" y="390.04" style="stroke: #000000; stroke-width: 0.8"/>
      </g>
     </g>
     <g id="text_2">
      <!-- 25 -->
      <g transform="translate(149.271758 404.638438) scale(0.1 -0.1)">
       <defs>
        <path id="DejaVuSans-32" d="M 1228 531 
L 3431 531 
L 3431 0 
L 469 0 
L 469 531 
Q 828 903 1448 1529 
Q 2069 2156 2228 2338 
Q 2531 2678 2651 2914 
Q 2772 3150 2772 3378 
Q 2772 3750 2511 3984 
Q 2250 4219 1831 4219 
Q 1534 4219 1204 4116 
Q 875 4013 500 3803 
L 500 4441 
Q 881 4594 1212 4672 
Q 1544 4750 1819 4750 
Q 2544 4750 2975 4387 
Q 3406 4025 3406 3419 
Q 3406 3131 3298 2873 
Q 3191 2616 2906 2266 
Q 2828 2175 2409 1742 
Q 1991 1309 1228 531 
z
" transform="scale(0.015625)"/>
        <path id="DejaVuSans-35" d="M 691 4666 
L 3169 4666 
L 3169 4134 
L 1269 4134 
L 1269 2991 
Q 1406 3038 1543 3061 
Q 1681 3084 1819 3084 
Q 2600 3084 3056 2656 
Q 3513 2228 3513 1497 
Q 3513 744 3044 326 
Q 2575 -91 1722 -91 
Q 1428 -91 1123 -41 
Q 819 9 494 109 
L 494 744 
Q 775 591 1075 516 
Q 1375 441 1709 441 
Q 2250 441 2565 725 
Q 2881 1009 2881 1497 
Q 2881 1984 2565 2268 
Q 2250 2553 1709 2553 
Q 1456 2553 1204 2497 
Q 953 2441 691 2322 
L 691 4666 
z
" transform="scale(0.015625)"/>
       </defs>
       <use xlink:href="#DejaVuSans-32"/>
       <use xlink:href="#DejaVuSans-35" x="63.623047"/>
      </g>
     </g>
    </g>
    <g id="xtick_3">
     <g id="line2d_5">
      <path d="M 230.460662 390.04 
L 230.460662 26.88 
" clip-path="url(#pdc47cfa881)" style="fill: none; stroke: #b0b0b0; stroke-width: 0.8; stroke-linecap: square"/>
     </g>
     <g id="line2d_6">
      <g>
       <use xlink:href="#mfd415fa773" x="230.460662" y="390.04" style="stroke: #000000; stroke-width: 0.8"/>
      </g>
     </g>
     <g id="text_3">
      <!-- 50 -->
      <g transform="translate(224.098162 404.638438) scale(0.1 -0.1)">
       <use xlink:href="#DejaVuSans-35"/>
       <use xlink:href="#DejaVuSans-30" x="63.623047"/>
      </g>
     </g>
    </g>
    <g id="xtick_4">
     <g id="line2d_7">
      <path d="M 305.287067 390.04 
L 305.287067 26.88 
" clip-path="url(#pdc47cfa881)" style="fill: none; stroke: #b0b0b0; stroke-width: 0.8; stroke-linecap: square"/>
     </g>
     <g id="line2d_8">
      <g>
       <use xlink:href="#mfd415fa773" x="305.287067" y="390.04" style="stroke: #000000; stroke-width: 0.8"/>
      </g>
     </g>
     <g id="text_4">
      <!-- 75 -->
      <g transform="translate(298.924567 404.638438) scale(0.1 -0.1)">
       <defs>
        <path id="DejaVuSans-37" d="M 525 4666 
L 3525 4666 
L 3525 4397 
L 1831 0 
L 1172 0 
L 2766 4134 
L 525 4134 
L 525 4666 
z
" transform="scale(0.015625)"/>
       </defs>
       <use xlink:href="#DejaVuSans-37"/>
       <use xlink:href="#DejaVuSans-35" x="63.623047"/>
      </g>
     </g>
    </g>
    <g id="xtick_5">
     <g id="line2d_9">
      <path d="M 380.113472 390.04 
L 380.113472 26.88 
" clip-path="url(#pdc47cfa881)" style="fill: none; stroke: #b0b0b0; stroke-width: 0.8; stroke-linecap: square"/>
     </g>
     <g id="line2d_10">
      <g>
       <use xlink:href="#mfd415fa773" x="380.113472" y="390.04" style="stroke: #000000; stroke-width: 0.8"/>
      </g>
     </g>
     <g id="text_5">
      <!-- 100 -->
      <g transform="translate(370.569722 404.638438) scale(0.1 -0.1)">
       <defs>
        <path id="DejaVuSans-31" d="M 794 531 
L 1825 531 
L 1825 4091 
L 703 3866 
L 703 4441 
L 1819 4666 
L 2450 4666 
L 2450 531 
L 3481 531 
L 3481 0 
L 794 0 
L 794 531 
z
" transform="scale(0.015625)"/>
       </defs>
       <use xlink:href="#DejaVuSans-31"/>
       <use xlink:href="#DejaVuSans-30" x="63.623047"/>
       <use xlink:href="#DejaVuSans-30" x="127.246094"/>
      </g>
     </g>
    </g>
    <g id="xtick_6">
     <g id="line2d_11">
      <path d="M 454.939877 390.04 
L 454.939877 26.88 
" clip-path="url(#pdc47cfa881)" style="fill: none; stroke: #b0b0b0; stroke-width: 0.8; stroke-linecap: square"/>
     </g>
     <g id="line2d_12">
      <g>
       <use xlink:href="#mfd415fa773" x="454.939877" y="390.04" style="stroke: #000000; stroke-width: 0.8"/>
      </g>
     </g>
     <g id="text_6">
      <!-- 125 -->
      <g transform="translate(445.396127 404.638438) scale(0.1 -0.1)">
       <use xlink:href="#DejaVuSans-31"/>
       <use xlink:href="#DejaVuSans-32" x="63.623047"/>
       <use xlink:href="#DejaVuSans-35" x="127.246094"/>
      </g>
     </g>
    </g>
    <g id="xtick_7">
     <g id="line2d_13">
      <path d="M 529.766281 390.04 
L 529.766281 26.88 
" clip-path="url(#pdc47cfa881)" style="fill: none; stroke: #b0b0b0; stroke-width: 0.8; stroke-linecap: square"/>
     </g>
     <g id="line2d_14">
      <g>
       <use xlink:href="#mfd415fa773" x="529.766281" y="390.04" style="stroke: #000000; stroke-width: 0.8"/>
      </g>
     </g>
     <g id="text_7">
      <!-- 150 -->
      <g transform="translate(520.222531 404.638438) scale(0.1 -0.1)">
       <use xlink:href="#DejaVuSans-31"/>
       <use xlink:href="#DejaVuSans-35" x="63.623047"/>
       <use xlink:href="#DejaVuSans-30" x="127.246094"/>
      </g>
     </g>
    </g>
    <g id="xtick_8">
     <g id="line2d_15">
      <path d="M 604.592686 390.04 
L 604.592686 26.88 
" clip-path="url(#pdc47cfa881)" style="fill: none; stroke: #b0b0b0; stroke-width: 0.8; stroke-linecap: square"/>
     </g>
     <g id="line2d_16">
      <g>
       <use xlink:href="#mfd415fa773" x="604.592686" y="390.04" style="stroke: #000000; stroke-width: 0.8"/>
      </g>
     </g>
     <g id="text_8">
      <!-- 175 -->
      <g transform="translate(595.048936 404.638438) scale(0.1 -0.1)">
       <use xlink:href="#DejaVuSans-31"/>
       <use xlink:href="#DejaVuSans-37" x="63.623047"/>
       <use xlink:href="#DejaVuSans-35" x="127.246094"/>
      </g>
     </g>
    </g>
    <g id="xtick_9">
     <g id="line2d_17">
      <path d="M 679.419091 390.04 
L 679.419091 26.88 
" clip-path="url(#pdc47cfa881)" style="fill: none; stroke: #b0b0b0; stroke-width: 0.8; stroke-linecap: square"/>
     </g>
     <g id="line2d_18">
      <g>
       <use xlink:href="#mfd415fa773" x="679.419091" y="390.04" style="stroke: #000000; stroke-width: 0.8"/>
      </g>
     </g>
     <g id="text_9">
      <!-- 200 -->
      <g transform="translate(669.875341 404.638438) scale(0.1 -0.1)">
       <use xlink:href="#DejaVuSans-32"/>
       <use xlink:href="#DejaVuSans-30" x="63.623047"/>
       <use xlink:href="#DejaVuSans-30" x="127.246094"/>
      </g>
     </g>
    </g>
    <g id="text_10">
     <!-- Epoch -->
     <g transform="translate(366.299062 418.316562) scale(0.1 -0.1)">
      <defs>
       <path id="DejaVuSans-45" d="M 628 4666 
L 3578 4666 
L 3578 4134 
L 1259 4134 
L 1259 2753 
L 3481 2753 
L 3481 2222 
L 1259 2222 
L 1259 531 
L 3634 531 
L 3634 0 
L 628 0 
L 628 4666 
z
" transform="scale(0.015625)"/>
       <path id="DejaVuSans-70" d="M 1159 525 
L 1159 -1331 
L 581 -1331 
L 581 3500 
L 1159 3500 
L 1159 2969 
Q 1341 3281 1617 3432 
Q 1894 3584 2278 3584 
Q 2916 3584 3314 3078 
Q 3713 2572 3713 1747 
Q 3713 922 3314 415 
Q 2916 -91 2278 -91 
Q 1894 -91 1617 61 
Q 1341 213 1159 525 
z
M 3116 1747 
Q 3116 2381 2855 2742 
Q 2594 3103 2138 3103 
Q 1681 3103 1420 2742 
Q 1159 2381 1159 1747 
Q 1159 1113 1420 752 
Q 1681 391 2138 391 
Q 2594 391 2855 752 
Q 3116 1113 3116 1747 
z
" transform="scale(0.015625)"/>
       <path id="DejaVuSans-6f" d="M 1959 3097 
Q 1497 3097 1228 2736 
Q 959 2375 959 1747 
Q 959 1119 1226 758 
Q 1494 397 1959 397 
Q 2419 397 2687 759 
Q 2956 1122 2956 1747 
Q 2956 2369 2687 2733 
Q 2419 3097 1959 3097 
z
M 1959 3584 
Q 2709 3584 3137 3096 
Q 3566 2609 3566 1747 
Q 3566 888 3137 398 
Q 2709 -91 1959 -91 
Q 1206 -91 779 398 
Q 353 888 353 1747 
Q 353 2609 779 3096 
Q 1206 3584 1959 3584 
z
" transform="scale(0.015625)"/>
       <path id="DejaVuSans-63" d="M 3122 3366 
L 3122 2828 
Q 2878 2963 2633 3030 
Q 2388 3097 2138 3097 
Q 1578 3097 1268 2742 
Q 959 2388 959 1747 
Q 959 1106 1268 751 
Q 1578 397 2138 397 
Q 2388 397 2633 464 
Q 2878 531 3122 666 
L 3122 134 
Q 2881 22 2623 -34 
Q 2366 -91 2075 -91 
Q 1284 -91 818 406 
Q 353 903 353 1747 
Q 353 2603 823 3093 
Q 1294 3584 2113 3584 
Q 2378 3584 2631 3529 
Q 2884 3475 3122 3366 
z
" transform="scale(0.015625)"/>
       <path id="DejaVuSans-68" d="M 3513 2113 
L 3513 0 
L 2938 0 
L 2938 2094 
Q 2938 2591 2744 2837 
Q 2550 3084 2163 3084 
Q 1697 3084 1428 2787 
Q 1159 2491 1159 1978 
L 1159 0 
L 581 0 
L 581 4863 
L 1159 4863 
L 1159 2956 
Q 1366 3272 1645 3428 
Q 1925 3584 2291 3584 
Q 2894 3584 3203 3211 
Q 3513 2838 3513 2113 
z
" transform="scale(0.015625)"/>
      </defs>
      <use xlink:href="#DejaVuSans-45"/>
      <use xlink:href="#DejaVuSans-70" x="63.183594"/>
      <use xlink:href="#DejaVuSans-6f" x="126.660156"/>
      <use xlink:href="#DejaVuSans-63" x="187.841797"/>
      <use xlink:href="#DejaVuSans-68" x="242.822266"/>
     </g>
    </g>
   </g>
   <g id="matplotlib.axis_2">
    <g id="ytick_1">
     <g id="line2d_19">
      <path d="M 54.02 370.363629 
L 709.2 370.363629 
" clip-path="url(#pdc47cfa881)" style="fill: none; stroke: #b0b0b0; stroke-width: 0.8; stroke-linecap: square"/>
     </g>
     <g id="line2d_20">
      <defs>
       <path id="m89f90282ce" d="M 0 0 
L -3.5 0 
" style="stroke: #000000; stroke-width: 0.8"/>
      </defs>
      <g>
       <use xlink:href="#m89f90282ce" x="54.02" y="370.363629" style="stroke: #000000; stroke-width: 0.8"/>
      </g>
     </g>
     <g id="text_11">
      <!-- 0.05 -->
      <g transform="translate(24.754375 374.162848) scale(0.1 -0.1)">
       <defs>
        <path id="DejaVuSans-2e" d="M 684 794 
L 1344 794 
L 1344 0 
L 684 0 
L 684 794 
z
" transform="scale(0.015625)"/>
       </defs>
       <use xlink:href="#DejaVuSans-30"/>
       <use xlink:href="#DejaVuSans-2e" x="63.623047"/>
       <use xlink:href="#DejaVuSans-30" x="95.410156"/>
       <use xlink:href="#DejaVuSans-35" x="159.033203"/>
      </g>
     </g>
    </g>
    <g id="ytick_2">
     <g id="line2d_21">
      <path d="M 54.02 323.759245 
L 709.2 323.759245 
" clip-path="url(#pdc47cfa881)" style="fill: none; stroke: #b0b0b0; stroke-width: 0.8; stroke-linecap: square"/>
     </g>
     <g id="line2d_22">
      <g>
       <use xlink:href="#m89f90282ce" x="54.02" y="323.759245" style="stroke: #000000; stroke-width: 0.8"/>
      </g>
     </g>
     <g id="text_12">
      <!-- 0.10 -->
      <g transform="translate(24.754375 327.558464) scale(0.1 -0.1)">
       <use xlink:href="#DejaVuSans-30"/>
       <use xlink:href="#DejaVuSans-2e" x="63.623047"/>
       <use xlink:href="#DejaVuSans-31" x="95.410156"/>
       <use xlink:href="#DejaVuSans-30" x="159.033203"/>
      </g>
     </g>
    </g>
    <g id="ytick_3">
     <g id="line2d_23">
      <path d="M 54.02 277.154862 
L 709.2 277.154862 
" clip-path="url(#pdc47cfa881)" style="fill: none; stroke: #b0b0b0; stroke-width: 0.8; stroke-linecap: square"/>
     </g>
     <g id="line2d_24">
      <g>
       <use xlink:href="#m89f90282ce" x="54.02" y="277.154862" style="stroke: #000000; stroke-width: 0.8"/>
      </g>
     </g>
     <g id="text_13">
      <!-- 0.15 -->
      <g transform="translate(24.754375 280.95408) scale(0.1 -0.1)">
       <use xlink:href="#DejaVuSans-30"/>
       <use xlink:href="#DejaVuSans-2e" x="63.623047"/>
       <use xlink:href="#DejaVuSans-31" x="95.410156"/>
       <use xlink:href="#DejaVuSans-35" x="159.033203"/>
      </g>
     </g>
    </g>
    <g id="ytick_4">
     <g id="line2d_25">
      <path d="M 54.02 230.550478 
L 709.2 230.550478 
" clip-path="url(#pdc47cfa881)" style="fill: none; stroke: #b0b0b0; stroke-width: 0.8; stroke-linecap: square"/>
     </g>
     <g id="line2d_26">
      <g>
       <use xlink:href="#m89f90282ce" x="54.02" y="230.550478" style="stroke: #000000; stroke-width: 0.8"/>
      </g>
     </g>
     <g id="text_14">
      <!-- 0.20 -->
      <g transform="translate(24.754375 234.349697) scale(0.1 -0.1)">
       <use xlink:href="#DejaVuSans-30"/>
       <use xlink:href="#DejaVuSans-2e" x="63.623047"/>
       <use xlink:href="#DejaVuSans-32" x="95.410156"/>
       <use xlink:href="#DejaVuSans-30" x="159.033203"/>
      </g>
     </g>
    </g>
    <g id="ytick_5">
     <g id="line2d_27">
      <path d="M 54.02 183.946094 
L 709.2 183.946094 
" clip-path="url(#pdc47cfa881)" style="fill: none; stroke: #b0b0b0; stroke-width: 0.8; stroke-linecap: square"/>
     </g>
     <g id="line2d_28">
      <g>
       <use xlink:href="#m89f90282ce" x="54.02" y="183.946094" style="stroke: #000000; stroke-width: 0.8"/>
      </g>
     </g>
     <g id="text_15">
      <!-- 0.25 -->
      <g transform="translate(24.754375 187.745313) scale(0.1 -0.1)">
       <use xlink:href="#DejaVuSans-30"/>
       <use xlink:href="#DejaVuSans-2e" x="63.623047"/>
       <use xlink:href="#DejaVuSans-32" x="95.410156"/>
       <use xlink:href="#DejaVuSans-35" x="159.033203"/>
      </g>
     </g>
    </g>
    <g id="ytick_6">
     <g id="line2d_29">
      <path d="M 54.02 137.34171 
L 709.2 137.34171 
" clip-path="url(#pdc47cfa881)" style="fill: none; stroke: #b0b0b0; stroke-width: 0.8; stroke-linecap: square"/>
     </g>
     <g id="line2d_30">
      <g>
       <use xlink:href="#m89f90282ce" x="54.02" y="137.34171" style="stroke: #000000; stroke-width: 0.8"/>
      </g>
     </g>
     <g id="text_16">
      <!-- 0.30 -->
      <g transform="translate(24.754375 141.140929) scale(0.1 -0.1)">
       <defs>
        <path id="DejaVuSans-33" d="M 2597 2516 
Q 3050 2419 3304 2112 
Q 3559 1806 3559 1356 
Q 3559 666 3084 287 
Q 2609 -91 1734 -91 
Q 1441 -91 1130 -33 
Q 819 25 488 141 
L 488 750 
Q 750 597 1062 519 
Q 1375 441 1716 441 
Q 2309 441 2620 675 
Q 2931 909 2931 1356 
Q 2931 1769 2642 2001 
Q 2353 2234 1838 2234 
L 1294 2234 
L 1294 2753 
L 1863 2753 
Q 2328 2753 2575 2939 
Q 2822 3125 2822 3475 
Q 2822 3834 2567 4026 
Q 2313 4219 1838 4219 
Q 1578 4219 1281 4162 
Q 984 4106 628 3988 
L 628 4550 
Q 988 4650 1302 4700 
Q 1616 4750 1894 4750 
Q 2613 4750 3031 4423 
Q 3450 4097 3450 3541 
Q 3450 3153 3228 2886 
Q 3006 2619 2597 2516 
z
" transform="scale(0.015625)"/>
       </defs>
       <use xlink:href="#DejaVuSans-30"/>
       <use xlink:href="#DejaVuSans-2e" x="63.623047"/>
       <use xlink:href="#DejaVuSans-33" x="95.410156"/>
       <use xlink:href="#DejaVuSans-30" x="159.033203"/>
      </g>
     </g>
    </g>
    <g id="ytick_7">
     <g id="line2d_31">
      <path d="M 54.02 90.737327 
L 709.2 90.737327 
" clip-path="url(#pdc47cfa881)" style="fill: none; stroke: #b0b0b0; stroke-width: 0.8; stroke-linecap: square"/>
     </g>
     <g id="line2d_32">
      <g>
       <use xlink:href="#m89f90282ce" x="54.02" y="90.737327" style="stroke: #000000; stroke-width: 0.8"/>
      </g>
     </g>
     <g id="text_17">
      <!-- 0.35 -->
      <g transform="translate(24.754375 94.536545) scale(0.1 -0.1)">
       <use xlink:href="#DejaVuSans-30"/>
       <use xlink:href="#DejaVuSans-2e" x="63.623047"/>
       <use xlink:href="#DejaVuSans-33" x="95.410156"/>
       <use xlink:href="#DejaVuSans-35" x="159.033203"/>
      </g>
     </g>
    </g>
    <g id="ytick_8">
     <g id="line2d_33">
      <path d="M 54.02 44.132943 
L 709.2 44.132943 
" clip-path="url(#pdc47cfa881)" style="fill: none; stroke: #b0b0b0; stroke-width: 0.8; stroke-linecap: square"/>
     </g>
     <g id="line2d_34">
      <g>
       <use xlink:href="#m89f90282ce" x="54.02" y="44.132943" style="stroke: #000000; stroke-width: 0.8"/>
      </g>
     </g>
     <g id="text_18">
      <!-- 0.40 -->
      <g transform="translate(24.754375 47.932162) scale(0.1 -0.1)">
       <defs>
        <path id="DejaVuSans-34" d="M 2419 4116 
L 825 1625 
L 2419 1625 
L 2419 4116 
z
M 2253 4666 
L 3047 4666 
L 3047 1625 
L 3713 1625 
L 3713 1100 
L 3047 1100 
L 3047 0 
L 2419 0 
L 2419 1100 
L 313 1100 
L 313 1709 
L 2253 4666 
z
" transform="scale(0.015625)"/>
       </defs>
       <use xlink:href="#DejaVuSans-30"/>
       <use xlink:href="#DejaVuSans-2e" x="63.623047"/>
       <use xlink:href="#DejaVuSans-34" x="95.410156"/>
       <use xlink:href="#DejaVuSans-30" x="159.033203"/>
      </g>
     </g>
    </g>
    <g id="text_19">
     <!-- Bitwise-error -->
     <g transform="translate(18.674688 240.305312) rotate(-90) scale(0.1 -0.1)">
      <defs>
       <path id="DejaVuSans-42" d="M 1259 2228 
L 1259 519 
L 2272 519 
Q 2781 519 3026 730 
Q 3272 941 3272 1375 
Q 3272 1813 3026 2020 
Q 2781 2228 2272 2228 
L 1259 2228 
z
M 1259 4147 
L 1259 2741 
L 2194 2741 
Q 2656 2741 2882 2914 
Q 3109 3088 3109 3444 
Q 3109 3797 2882 3972 
Q 2656 4147 2194 4147 
L 1259 4147 
z
M 628 4666 
L 2241 4666 
Q 2963 4666 3353 4366 
Q 3744 4066 3744 3513 
Q 3744 3084 3544 2831 
Q 3344 2578 2956 2516 
Q 3422 2416 3680 2098 
Q 3938 1781 3938 1306 
Q 3938 681 3513 340 
Q 3088 0 2303 0 
L 628 0 
L 628 4666 
z
" transform="scale(0.015625)"/>
       <path id="DejaVuSans-69" d="M 603 3500 
L 1178 3500 
L 1178 0 
L 603 0 
L 603 3500 
z
M 603 4863 
L 1178 4863 
L 1178 4134 
L 603 4134 
L 603 4863 
z
" transform="scale(0.015625)"/>
       <path id="DejaVuSans-74" d="M 1172 4494 
L 1172 3500 
L 2356 3500 
L 2356 3053 
L 1172 3053 
L 1172 1153 
Q 1172 725 1289 603 
Q 1406 481 1766 481 
L 2356 481 
L 2356 0 
L 1766 0 
Q 1100 0 847 248 
Q 594 497 594 1153 
L 594 3053 
L 172 3053 
L 172 3500 
L 594 3500 
L 594 4494 
L 1172 4494 
z
" transform="scale(0.015625)"/>
       <path id="DejaVuSans-77" d="M 269 3500 
L 844 3500 
L 1563 769 
L 2278 3500 
L 2956 3500 
L 3675 769 
L 4391 3500 
L 4966 3500 
L 4050 0 
L 3372 0 
L 2619 2869 
L 1863 0 
L 1184 0 
L 269 3500 
z
" transform="scale(0.015625)"/>
       <path id="DejaVuSans-73" d="M 2834 3397 
L 2834 2853 
Q 2591 2978 2328 3040 
Q 2066 3103 1784 3103 
Q 1356 3103 1142 2972 
Q 928 2841 928 2578 
Q 928 2378 1081 2264 
Q 1234 2150 1697 2047 
L 1894 2003 
Q 2506 1872 2764 1633 
Q 3022 1394 3022 966 
Q 3022 478 2636 193 
Q 2250 -91 1575 -91 
Q 1294 -91 989 -36 
Q 684 19 347 128 
L 347 722 
Q 666 556 975 473 
Q 1284 391 1588 391 
Q 1994 391 2212 530 
Q 2431 669 2431 922 
Q 2431 1156 2273 1281 
Q 2116 1406 1581 1522 
L 1381 1569 
Q 847 1681 609 1914 
Q 372 2147 372 2553 
Q 372 3047 722 3315 
Q 1072 3584 1716 3584 
Q 2034 3584 2315 3537 
Q 2597 3491 2834 3397 
z
" transform="scale(0.015625)"/>
       <path id="DejaVuSans-65" d="M 3597 1894 
L 3597 1613 
L 953 1613 
Q 991 1019 1311 708 
Q 1631 397 2203 397 
Q 2534 397 2845 478 
Q 3156 559 3463 722 
L 3463 178 
Q 3153 47 2828 -22 
Q 2503 -91 2169 -91 
Q 1331 -91 842 396 
Q 353 884 353 1716 
Q 353 2575 817 3079 
Q 1281 3584 2069 3584 
Q 2775 3584 3186 3129 
Q 3597 2675 3597 1894 
z
M 3022 2063 
Q 3016 2534 2758 2815 
Q 2500 3097 2075 3097 
Q 1594 3097 1305 2825 
Q 1016 2553 972 2059 
L 3022 2063 
z
" transform="scale(0.015625)"/>
       <path id="DejaVuSans-2d" d="M 313 2009 
L 1997 2009 
L 1997 1497 
L 313 1497 
L 313 2009 
z
" transform="scale(0.015625)"/>
       <path id="DejaVuSans-72" d="M 2631 2963 
Q 2534 3019 2420 3045 
Q 2306 3072 2169 3072 
Q 1681 3072 1420 2755 
Q 1159 2438 1159 1844 
L 1159 0 
L 581 0 
L 581 3500 
L 1159 3500 
L 1159 2956 
Q 1341 3275 1631 3429 
Q 1922 3584 2338 3584 
Q 2397 3584 2469 3576 
Q 2541 3569 2628 3553 
L 2631 2963 
z
" transform="scale(0.015625)"/>
      </defs>
      <use xlink:href="#DejaVuSans-42"/>
      <use xlink:href="#DejaVuSans-69" x="68.603516"/>
      <use xlink:href="#DejaVuSans-74" x="96.386719"/>
      <use xlink:href="#DejaVuSans-77" x="135.595703"/>
      <use xlink:href="#DejaVuSans-69" x="217.382812"/>
      <use xlink:href="#DejaVuSans-73" x="245.166016"/>
      <use xlink:href="#DejaVuSans-65" x="297.265625"/>
      <use xlink:href="#DejaVuSans-2d" x="358.789062"/>
      <use xlink:href="#DejaVuSans-65" x="394.873047"/>
      <use xlink:href="#DejaVuSans-72" x="456.396484"/>
      <use xlink:href="#DejaVuSans-72" x="495.759766"/>
      <use xlink:href="#DejaVuSans-6f" x="534.623047"/>
      <use xlink:href="#DejaVuSans-72" x="595.804688"/>
     </g>
    </g>
   </g>
   <g id="line2d_35">
    <path d="M 83.800909 43.387273 
L 86.793965 72.841243 
L 89.787021 79.459066 
L 92.780078 82.16212 
L 95.773134 84.39913 
L 98.76619 87.47502 
L 101.759246 93.813216 
L 104.752302 96.795897 
L 107.745359 101.642752 
L 110.738415 109.565498 
L 113.731471 117.861078 
L 116.724527 122.055473 
L 119.717583 123.453604 
L 122.71064 127.55479 
L 125.703696 129.698591 
L 128.696752 137.900963 
L 131.689808 143.120654 
L 134.682864 151.789069 
L 137.675921 155.331003 
L 140.668977 160.83032 
L 143.662033 173.133877 
L 146.655089 182.920798 
L 149.648145 191.402796 
L 152.641201 197.927409 
L 155.634258 207.434704 
L 158.627314 213.306856 
L 161.62037 222.534524 
L 164.613426 230.830104 
L 167.606482 240.617025 
L 170.599539 141.070061 
L 173.592595 142.841028 
L 176.585651 150.111312 
L 179.578707 154.492124 
L 182.571763 160.08465 
L 185.56482 162.601286 
L 188.557876 165.956802 
L 191.550932 172.201789 
L 194.543988 175.091261 
L 197.537044 179.285656 
L 200.530101 185.344226 
L 203.523157 192.428092 
L 206.516213 201.003299 
L 209.509269 206.782242 
L 212.502325 211.908724 
L 215.495381 216.289536 
L 218.488438 220.297513 
L 221.481494 221.975271 
L 224.47455 225.983248 
L 227.467606 229.245555 
L 230.460662 231.389357 
L 233.453719 243.320079 
L 236.446775 256.83535 
L 239.439831 269.138908 
L 242.432887 272.121588 
L 245.425943 274.731434 
L 248.419 275.943148 
L 251.412056 280.510377 
L 254.405112 297.287955 
L 257.398168 299.99101 
L 260.391224 301.948394 
L 263.38428 306.04958 
L 266.377337 311.269271 
L 269.370393 314.065534 
L 272.363449 316.022918 
L 275.356505 314.251951 
L 278.349561 315.743291 
L 281.342618 316.861797 
L 284.335674 317.234632 
L 287.32873 316.675379 
L 290.321786 318.166719 
L 293.314842 318.353137 
L 296.307899 317.700676 
L 299.300955 318.725972 
L 302.294011 319.378433 
L 305.287067 320.310521 
L 308.280123 325.157377 
L 311.27318 327.674014 
L 314.266236 330.004233 
L 317.259292 328.978936 
L 320.252348 330.936321 
L 323.245404 336.715264 
L 326.23846 339.138692 
L 329.231517 339.511527 
L 332.224573 340.909659 
L 335.217629 345.663306 
L 338.210685 345.942932 
L 341.203741 349.578074 
L 344.196798 348.739195 
L 347.189854 349.484865 
L 350.18291 349.578074 
L 353.175966 350.416953 
L 356.169022 351.069414 
L 362.155135 352.094711 
L 365.148191 351.535458 
L 371.134303 354.797765 
L 374.12736 358.898951 
L 377.120416 361.135961 
L 380.113472 363.000137 
L 383.106528 351.908293 
L 386.099584 352.560755 
L 389.09264 352.374337 
L 392.085697 352.840381 
L 398.071809 349.764492 
L 401.064865 347.434272 
L 404.057921 346.315767 
L 407.050978 343.705922 
L 410.044034 342.028164 
L 413.03709 341.096076 
L 416.030146 338.206604 
L 419.023202 336.156011 
L 422.016259 334.664671 
L 425.009315 330.19065 
L 428.002371 328.046849 
L 430.995427 326.835135 
L 433.988483 324.411707 
L 436.98154 323.666037 
L 439.974596 321.522235 
L 442.967652 322.081488 
L 445.960708 321.056191 
L 448.953764 320.962982 
L 451.94682 321.429026 
L 454.939877 321.708653 
L 457.932933 323.199993 
L 460.925989 323.293202 
L 463.919045 325.71663 
L 466.912101 324.877751 
L 469.905158 326.741926 
L 472.898214 327.767222 
L 475.89127 328.419684 
L 478.884326 331.495573 
L 481.877382 333.825792 
L 484.870439 333.639375 
L 487.863495 334.571462 
L 490.856551 335.223924 
L 493.849607 336.715264 
L 496.842663 336.24922 
L 499.83572 337.181308 
L 502.828776 337.740561 
L 505.821832 338.765857 
L 511.807944 340.350406 
L 514.801 340.350406 
L 517.794057 340.630032 
L 520.787113 341.096076 
L 523.780169 341.841746 
L 526.773225 342.028164 
L 529.766281 341.189285 
L 532.759338 341.841746 
L 535.752394 342.028164 
L 538.74545 343.239878 
L 541.738506 342.773834 
L 544.731562 343.705922 
L 547.724619 343.892339 
L 550.717675 343.612713 
L 553.710731 343.705922 
L 556.703787 344.171966 
L 559.696843 345.104053 
L 562.689899 345.756515 
L 565.682956 345.663306 
L 568.676012 345.942932 
L 571.669068 347.154646 
L 574.662124 347.62069 
L 577.65518 349.764492 
L 580.648237 353.67926 
L 583.641293 354.984183 
L 586.634349 355.729853 
L 589.627405 356.009479 
L 592.620461 355.729853 
L 595.613518 356.195897 
L 598.606574 355.263809 
L 601.59963 357.780446 
L 604.592686 357.780446 
L 607.585742 357.500819 
L 610.578799 358.805742 
L 613.571855 358.99216 
L 616.564911 357.873654 
L 619.557967 358.619324 
L 622.551023 358.246489 
L 625.544079 359.178577 
L 628.537136 359.551412 
L 631.530192 359.271786 
L 634.523248 359.551412 
L 637.516304 358.898951 
L 640.50936 358.805742 
L 643.502417 360.297082 
L 646.495473 358.99216 
L 649.488529 359.271786 
L 652.481585 358.898951 
L 655.474641 360.110665 
L 658.467698 360.203874 
L 661.460754 359.924247 
L 664.45381 359.271786 
L 667.446866 359.458203 
L 670.439922 360.297082 
L 673.432979 359.364995 
L 676.426035 359.644621 
L 679.419091 361.22917 
L 679.419091 361.22917 
" clip-path="url(#pdc47cfa881)" style="fill: none; stroke: #0000ff; stroke-width: 1.5; stroke-linecap: square"/>
   </g>
   <g id="line2d_36">
    <path d="M 83.800909 77.128847 
L 86.793965 88.034272 
L 89.787021 92.881128 
L 92.780078 89.991656 
L 95.773134 95.957018 
L 98.76619 102.947675 
L 101.759246 102.854466 
L 107.745359 116.556155 
L 110.738415 122.428308 
L 113.731471 127.834416 
L 116.724527 137.062084 
L 119.717583 133.240525 
L 122.71064 135.757161 
L 125.703696 146.289752 
L 131.689808 159.898232 
L 134.682864 167.261725 
L 137.675921 167.075307 
L 140.668977 180.776996 
L 143.662033 192.894136 
L 146.655089 203.1471 
L 149.648145 210.976637 
L 152.641201 219.738261 
L 155.634258 224.678326 
L 158.627314 231.762192 
L 161.62037 240.337398 
L 164.613426 244.718211 
L 167.606482 262.987129 
L 170.599539 145.264456 
L 173.592595 153.746453 
L 176.585651 159.711815 
L 179.578707 160.923529 
L 182.571763 168.007395 
L 185.56482 176.023349 
L 188.557876 172.015372 
L 191.550932 179.378865 
L 194.543988 179.658491 
L 197.537044 195.037937 
L 200.530101 202.308221 
L 203.523157 208.273582 
L 206.516213 215.916701 
L 209.509269 220.670349 
L 212.502325 231.948609 
L 215.495381 233.533158 
L 218.488438 239.312102 
L 221.481494 233.160323 
L 224.47455 243.599705 
L 227.467606 241.828739 
L 230.460662 245.743507 
L 233.453719 262.14825 
L 236.446775 272.867258 
L 239.439831 284.05231 
L 242.432887 282.467761 
L 245.425943 282.467761 
L 248.419 286.196112 
L 251.412056 304.278613 
L 254.405112 312.760611 
L 257.398168 311.828523 
L 260.391224 314.34516 
L 263.38428 319.65806 
L 266.377337 319.378433 
L 269.370393 325.530212 
L 272.363449 324.598124 
L 275.356505 327.021552 
L 278.349561 327.767222 
L 281.342618 324.784542 
L 284.335674 327.580805 
L 290.321786 325.437003 
L 293.314842 328.792519 
L 296.307899 328.606101 
L 299.300955 328.69931 
L 302.294011 326.928344 
L 305.287067 333.639375 
L 311.27318 333.26654 
L 314.266236 337.647352 
L 317.259292 340.07078 
L 320.252348 342.121373 
L 323.245404 347.247855 
L 326.23846 349.578074 
L 329.231517 353.120007 
L 332.224573 355.077391 
L 335.217629 357.873654 
L 338.210685 356.66194 
L 341.203741 360.203874 
L 344.196798 358.712533 
L 347.189854 362.813719 
L 350.18291 360.669917 
L 353.175966 360.856335 
L 356.169022 358.898951 
L 359.162079 362.440884 
L 362.155135 361.508796 
L 365.148191 358.153281 
L 368.141247 367.101322 
L 371.134303 365.982817 
L 374.12736 372.60064 
L 377.120416 371.854969 
L 380.113472 373.532727 
L 383.106528 363.186554 
L 386.099584 363.839015 
L 389.09264 365.889608 
L 392.085697 363.839015 
L 395.078753 362.254466 
L 398.071809 363.372972 
L 401.064865 363.372972 
L 404.057921 358.246489 
L 407.050978 357.127984 
L 410.044034 355.823061 
L 413.03709 353.026798 
L 416.030146 351.255832 
L 419.023202 347.061437 
L 422.016259 346.036141 
L 425.009315 343.146669 
L 428.002371 339.138692 
L 430.995427 339.604736 
L 433.988483 333.732584 
L 436.98154 336.528847 
L 439.974596 335.689968 
L 442.967652 336.622055 
L 445.960708 333.452957 
L 448.953764 334.01221 
L 451.94682 338.206604 
L 454.939877 336.715264 
L 457.932933 338.672648 
L 460.925989 338.486231 
L 463.919045 338.672648 
L 466.912101 334.75788 
L 469.905158 340.07078 
L 472.898214 343.705922 
L 475.89127 344.824427 
L 478.884326 335.223924 
L 481.877382 346.12935 
L 484.870439 340.443615 
L 487.863495 346.781811 
L 490.856551 345.197262 
L 493.849607 351.162623 
L 496.842663 345.942932 
L 499.83572 346.968229 
L 502.828776 353.306425 
L 505.821832 342.773834 
L 508.814888 351.815084 
L 511.807944 349.950909 
L 514.801 352.747172 
L 517.794057 347.993525 
L 520.787113 352.93359 
L 523.780169 347.154646 
L 526.773225 351.628667 
L 529.766281 348.739195 
L 532.759338 347.434272 
L 535.752394 354.797765 
L 538.74545 344.917636 
L 541.738506 354.42493 
L 544.731562 354.797765 
L 547.724619 354.890974 
L 550.717675 355.91627 
L 553.710731 353.492842 
L 556.703787 350.510162 
L 559.696843 353.492842 
L 562.689899 352.560755 
L 565.682956 350.323744 
L 568.676012 357.314402 
L 571.669068 355.543435 
L 574.662124 356.195897 
L 577.65518 362.347675 
L 580.648237 365.889608 
L 583.641293 365.516773 
L 586.634349 360.297082 
L 589.627405 365.237147 
L 592.620461 366.169235 
L 595.613518 362.813719 
L 598.606574 365.609982 
L 601.59963 363.652598 
L 604.592686 364.025433 
L 607.585742 366.914905 
L 610.578799 367.194531 
L 613.571855 365.7964 
L 616.564911 365.609982 
L 619.557967 368.592663 
L 622.551023 366.728487 
L 625.544079 363.46618 
L 628.537136 367.846992 
L 631.530192 369.058706 
L 634.523248 363.186554 
L 637.516304 366.448861 
L 640.50936 369.058706 
L 643.502417 369.897585 
L 646.495473 366.355652 
L 649.488529 366.914905 
L 652.481585 365.330356 
L 655.474641 367.380949 
L 658.467698 365.889608 
L 661.460754 364.677894 
L 664.45381 367.660575 
L 667.446866 368.499454 
L 670.439922 368.406245 
L 673.432979 369.151915 
L 676.426035 366.262443 
L 679.419091 364.398268 
L 679.419091 364.398268 
" clip-path="url(#pdc47cfa881)" style="fill: none; stroke: #ffa500; stroke-width: 1.5; stroke-linecap: square"/>
   </g>
   <g id="patch_3">
    <path d="M 54.02 390.04 
L 54.02 26.88 
" style="fill: none; stroke: #000000; stroke-width: 0.8; stroke-linejoin: miter; stroke-linecap: square"/>
   </g>
   <g id="patch_4">
    <path d="M 709.2 390.04 
L 709.2 26.88 
" style="fill: none; stroke: #000000; stroke-width: 0.8; stroke-linejoin: miter; stroke-linecap: square"/>
   </g>
   <g id="patch_5">
    <path d="M 54.02 390.04 
L 709.2 390.04 
" style="fill: none; stroke: #000000; stroke-width: 0.8; stroke-linejoin: miter; stroke-linecap: square"/>
   </g>
   <g id="patch_6">
    <path d="M 54.02 26.88 
L 709.2 26.88 
" style="fill: none; stroke: #000000; stroke-width: 0.8; stroke-linejoin: miter; stroke-linecap: square"/>
   </g>
   <g id="text_20">
    <!-- Bitwise-error for Jpeg_50_v2 -->
    <g transform="translate(297.248125 20.88) scale(0.12 -0.12)">
     <defs>
      <path id="DejaVuSans-20" transform="scale(0.015625)"/>
      <path id="DejaVuSans-66" d="M 2375 4863 
L 2375 4384 
L 1825 4384 
Q 1516 4384 1395 4259 
Q 1275 4134 1275 3809 
L 1275 3500 
L 2222 3500 
L 2222 3053 
L 1275 3053 
L 1275 0 
L 697 0 
L 697 3053 
L 147 3053 
L 147 3500 
L 697 3500 
L 697 3744 
Q 697 4328 969 4595 
Q 1241 4863 1831 4863 
L 2375 4863 
z
" transform="scale(0.015625)"/>
      <path id="DejaVuSans-4a" d="M 628 4666 
L 1259 4666 
L 1259 325 
Q 1259 -519 939 -900 
Q 619 -1281 -91 -1281 
L -331 -1281 
L -331 -750 
L -134 -750 
Q 284 -750 456 -515 
Q 628 -281 628 325 
L 628 4666 
z
" transform="scale(0.015625)"/>
      <path id="DejaVuSans-67" d="M 2906 1791 
Q 2906 2416 2648 2759 
Q 2391 3103 1925 3103 
Q 1463 3103 1205 2759 
Q 947 2416 947 1791 
Q 947 1169 1205 825 
Q 1463 481 1925 481 
Q 2391 481 2648 825 
Q 2906 1169 2906 1791 
z
M 3481 434 
Q 3481 -459 3084 -895 
Q 2688 -1331 1869 -1331 
Q 1566 -1331 1297 -1286 
Q 1028 -1241 775 -1147 
L 775 -588 
Q 1028 -725 1275 -790 
Q 1522 -856 1778 -856 
Q 2344 -856 2625 -561 
Q 2906 -266 2906 331 
L 2906 616 
Q 2728 306 2450 153 
Q 2172 0 1784 0 
Q 1141 0 747 490 
Q 353 981 353 1791 
Q 353 2603 747 3093 
Q 1141 3584 1784 3584 
Q 2172 3584 2450 3431 
Q 2728 3278 2906 2969 
L 2906 3500 
L 3481 3500 
L 3481 434 
z
" transform="scale(0.015625)"/>
      <path id="DejaVuSans-5f" d="M 3263 -1063 
L 3263 -1509 
L -63 -1509 
L -63 -1063 
L 3263 -1063 
z
" transform="scale(0.015625)"/>
      <path id="DejaVuSans-76" d="M 191 3500 
L 800 3500 
L 1894 563 
L 2988 3500 
L 3597 3500 
L 2284 0 
L 1503 0 
L 191 3500 
z
" transform="scale(0.015625)"/>
     </defs>
     <use xlink:href="#DejaVuSans-42"/>
     <use xlink:href="#DejaVuSans-69" x="68.603516"/>
     <use xlink:href="#DejaVuSans-74" x="96.386719"/>
     <use xlink:href="#DejaVuSans-77" x="135.595703"/>
     <use xlink:href="#DejaVuSans-69" x="217.382812"/>
     <use xlink:href="#DejaVuSans-73" x="245.166016"/>
     <use xlink:href="#DejaVuSans-65" x="297.265625"/>
     <use xlink:href="#DejaVuSans-2d" x="358.789062"/>
     <use xlink:href="#DejaVuSans-65" x="394.873047"/>
     <use xlink:href="#DejaVuSans-72" x="456.396484"/>
     <use xlink:href="#DejaVuSans-72" x="495.759766"/>
     <use xlink:href="#DejaVuSans-6f" x="534.623047"/>
     <use xlink:href="#DejaVuSans-72" x="595.804688"/>
     <use xlink:href="#DejaVuSans-20" x="636.917969"/>
     <use xlink:href="#DejaVuSans-66" x="668.705078"/>
     <use xlink:href="#DejaVuSans-6f" x="703.910156"/>
     <use xlink:href="#DejaVuSans-72" x="765.091797"/>
     <use xlink:href="#DejaVuSans-20" x="806.205078"/>
     <use xlink:href="#DejaVuSans-4a" x="837.992188"/>
     <use xlink:href="#DejaVuSans-70" x="867.484375"/>
     <use xlink:href="#DejaVuSans-65" x="930.960938"/>
     <use xlink:href="#DejaVuSans-67" x="992.484375"/>
     <use xlink:href="#DejaVuSans-5f" x="1055.960938"/>
     <use xlink:href="#DejaVuSans-35" x="1105.960938"/>
     <use xlink:href="#DejaVuSans-30" x="1169.583984"/>
     <use xlink:href="#DejaVuSans-5f" x="1233.207031"/>
     <use xlink:href="#DejaVuSans-76" x="1283.207031"/>
     <use xlink:href="#DejaVuSans-32" x="1342.386719"/>
    </g>
   </g>
   <g id="legend_1">
    <g id="patch_7">
     <path d="M 620.81875 64.23625 
L 702.2 64.23625 
Q 704.2 64.23625 704.2 62.23625 
L 704.2 33.88 
Q 704.2 31.88 702.2 31.88 
L 620.81875 31.88 
Q 618.81875 31.88 618.81875 33.88 
L 618.81875 62.23625 
Q 618.81875 64.23625 620.81875 64.23625 
z
" style="fill: #ffffff; opacity: 0.8; stroke: #cccccc; stroke-linejoin: miter"/>
    </g>
    <g id="line2d_37">
     <path d="M 622.81875 39.978437 
L 632.81875 39.978437 
L 642.81875 39.978437 
" style="fill: none; stroke: #0000ff; stroke-width: 1.5; stroke-linecap: square"/>
    </g>
    <g id="text_21">
     <!-- Train -->
     <g transform="translate(650.81875 43.478437) scale(0.1 -0.1)">
      <defs>
       <path id="DejaVuSans-54" d="M -19 4666 
L 3928 4666 
L 3928 4134 
L 2272 4134 
L 2272 0 
L 1638 0 
L 1638 4134 
L -19 4134 
L -19 4666 
z
" transform="scale(0.015625)"/>
       <path id="DejaVuSans-61" d="M 2194 1759 
Q 1497 1759 1228 1600 
Q 959 1441 959 1056 
Q 959 750 1161 570 
Q 1363 391 1709 391 
Q 2188 391 2477 730 
Q 2766 1069 2766 1631 
L 2766 1759 
L 2194 1759 
z
M 3341 1997 
L 3341 0 
L 2766 0 
L 2766 531 
Q 2569 213 2275 61 
Q 1981 -91 1556 -91 
Q 1019 -91 701 211 
Q 384 513 384 1019 
Q 384 1609 779 1909 
Q 1175 2209 1959 2209 
L 2766 2209 
L 2766 2266 
Q 2766 2663 2505 2880 
Q 2244 3097 1772 3097 
Q 1472 3097 1187 3025 
Q 903 2953 641 2809 
L 641 3341 
Q 956 3463 1253 3523 
Q 1550 3584 1831 3584 
Q 2591 3584 2966 3190 
Q 3341 2797 3341 1997 
z
" transform="scale(0.015625)"/>
       <path id="DejaVuSans-6e" d="M 3513 2113 
L 3513 0 
L 2938 0 
L 2938 2094 
Q 2938 2591 2744 2837 
Q 2550 3084 2163 3084 
Q 1697 3084 1428 2787 
Q 1159 2491 1159 1978 
L 1159 0 
L 581 0 
L 581 3500 
L 1159 3500 
L 1159 2956 
Q 1366 3272 1645 3428 
Q 1925 3584 2291 3584 
Q 2894 3584 3203 3211 
Q 3513 2838 3513 2113 
z
" transform="scale(0.015625)"/>
      </defs>
      <use xlink:href="#DejaVuSans-54"/>
      <use xlink:href="#DejaVuSans-72" x="46.333984"/>
      <use xlink:href="#DejaVuSans-61" x="87.447266"/>
      <use xlink:href="#DejaVuSans-69" x="148.726562"/>
      <use xlink:href="#DejaVuSans-6e" x="176.509766"/>
     </g>
    </g>
    <g id="line2d_38">
     <path d="M 622.81875 54.656563 
L 632.81875 54.656563 
L 642.81875 54.656563 
" style="fill: none; stroke: #ffa500; stroke-width: 1.5; stroke-linecap: square"/>
    </g>
    <g id="text_22">
     <!-- Validation -->
     <g transform="translate(650.81875 58.156563) scale(0.1 -0.1)">
      <defs>
       <path id="DejaVuSans-56" d="M 1831 0 
L 50 4666 
L 709 4666 
L 2188 738 
L 3669 4666 
L 4325 4666 
L 2547 0 
L 1831 0 
z
" transform="scale(0.015625)"/>
       <path id="DejaVuSans-6c" d="M 603 4863 
L 1178 4863 
L 1178 0 
L 603 0 
L 603 4863 
z
" transform="scale(0.015625)"/>
       <path id="DejaVuSans-64" d="M 2906 2969 
L 2906 4863 
L 3481 4863 
L 3481 0 
L 2906 0 
L 2906 525 
Q 2725 213 2448 61 
Q 2172 -91 1784 -91 
Q 1150 -91 751 415 
Q 353 922 353 1747 
Q 353 2572 751 3078 
Q 1150 3584 1784 3584 
Q 2172 3584 2448 3432 
Q 2725 3281 2906 2969 
z
M 947 1747 
Q 947 1113 1208 752 
Q 1469 391 1925 391 
Q 2381 391 2643 752 
Q 2906 1113 2906 1747 
Q 2906 2381 2643 2742 
Q 2381 3103 1925 3103 
Q 1469 3103 1208 2742 
Q 947 2381 947 1747 
z
" transform="scale(0.015625)"/>
      </defs>
      <use xlink:href="#DejaVuSans-56"/>
      <use xlink:href="#DejaVuSans-61" x="60.658203"/>
      <use xlink:href="#DejaVuSans-6c" x="121.9375"/>
      <use xlink:href="#DejaVuSans-69" x="149.720703"/>
      <use xlink:href="#DejaVuSans-64" x="177.503906"/>
      <use xlink:href="#DejaVuSans-61" x="240.980469"/>
      <use xlink:href="#DejaVuSans-74" x="302.259766"/>
      <use xlink:href="#DejaVuSans-69" x="341.46875"/>
      <use xlink:href="#DejaVuSans-6f" x="369.251953"/>
      <use xlink:href="#DejaVuSans-6e" x="430.433594"/>
     </g>
    </g>
   </g>
  </g>
 </g>
 <defs>
  <clipPath id="pdc47cfa881">
   <rect x="54.02" y="26.88" width="655.18" height="363.16"/>
  </clipPath>
 </defs>
</svg>
