<?xml version="1.0" encoding="utf-8" standalone="no"?>
<!DOCTYPE svg PUBLIC "-//W3C//DTD SVG 1.1//EN"
  "http://www.w3.org/Graphics/SVG/1.1/DTD/svg11.dtd">
<svg xmlns:xlink="http://www.w3.org/1999/xlink" width="720pt" height="432pt" viewBox="0 0 720 432" xmlns="http://www.w3.org/2000/svg" version="1.1">
 <metadata>
  <rdf:RDF xmlns:dc="http://purl.org/dc/elements/1.1/" xmlns:cc="http://creativecommons.org/ns#" xmlns:rdf="http://www.w3.org/1999/02/22-rdf-syntax-ns#">
   <cc:Work>
    <dc:type rdf:resource="http://purl.org/dc/dcmitype/StillImage"/>
    <dc:date>2025-05-10T19:49:43.274070</dc:date>
    <dc:format>image/svg+xml</dc:format>
    <dc:creator>
     <cc:Agent>
      <dc:title>Matplotlib v3.8.0, https://matplotlib.org/</dc:title>
     </cc:Agent>
    </dc:creator>
   </cc:Work>
  </rdf:RDF>
 </metadata>
 <defs>
  <style type="text/css">*{stroke-linejoin: round; stroke-linecap: butt}</style>
 </defs>
 <g id="figure_1">
  <g id="patch_1">
   <path d="M 0 432 
L 720 432 
L 720 0 
L 0 0 
z
" style="fill: #ffffff"/>
  </g>
  <g id="axes_1">
   <g id="patch_2">
    <path d="M 54.12125 390.04 
L 709.2 390.04 
L 709.2 26.88 
L 54.12125 26.88 
z
" style="fill: #ffffff"/>
   </g>
   <g id="matplotlib.axis_1">
    <g id="xtick_1">
     <g id="line2d_1">
      <path d="M 80.904963 390.04 
L 80.904963 26.88 
" clip-path="url(#pc6238ca322)" style="fill: none; stroke: #b0b0b0; stroke-width: 0.8; stroke-linecap: square"/>
     </g>
     <g id="line2d_2">
      <defs>
       <path id="mdf2c4e1bfc" d="M 0 0 
L 0 3.5 
" style="stroke: #000000; stroke-width: 0.8"/>
      </defs>
      <g>
       <use xlink:href="#mdf2c4e1bfc" x="80.904963" y="390.04" style="stroke: #000000; stroke-width: 0.8"/>
      </g>
     </g>
     <g id="text_1">
      <!-- 0 -->
      <g transform="translate(77.723713 404.638438) scale(0.1 -0.1)">
       <defs>
        <path id="DejaVuSans-30" d="M 2034 4250 
Q 1547 4250 1301 3770 
Q 1056 3291 1056 2328 
Q 1056 1369 1301 889 
Q 1547 409 2034 409 
Q 2525 409 2770 889 
Q 3016 1369 3016 2328 
Q 3016 3291 2770 3770 
Q 2525 4250 2034 4250 
z
M 2034 4750 
Q 2819 4750 3233 4129 
Q 3647 3509 3647 2328 
Q 3647 1150 3233 529 
Q 2819 -91 2034 -91 
Q 1250 -91 836 529 
Q 422 1150 422 2328 
Q 422 3509 836 4129 
Q 1250 4750 2034 4750 
z
" transform="scale(0.015625)"/>
       </defs>
       <use xlink:href="#DejaVuSans-30"/>
      </g>
     </g>
    </g>
    <g id="xtick_2">
     <g id="line2d_3">
      <path d="M 155.719804 390.04 
L 155.719804 26.88 
" clip-path="url(#pc6238ca322)" style="fill: none; stroke: #b0b0b0; stroke-width: 0.8; stroke-linecap: square"/>
     </g>
     <g id="line2d_4">
      <g>
       <use xlink:href="#mdf2c4e1bfc" x="155.719804" y="390.04" style="stroke: #000000; stroke-width: 0.8"/>
      </g>
     </g>
     <g id="text_2">
      <!-- 25 -->
      <g transform="translate(149.357304 404.638438) scale(0.1 -0.1)">
       <defs>
        <path id="DejaVuSans-32" d="M 1228 531 
L 3431 531 
L 3431 0 
L 469 0 
L 469 531 
Q 828 903 1448 1529 
Q 2069 2156 2228 2338 
Q 2531 2678 2651 2914 
Q 2772 3150 2772 3378 
Q 2772 3750 2511 3984 
Q 2250 4219 1831 4219 
Q 1534 4219 1204 4116 
Q 875 4013 500 3803 
L 500 4441 
Q 881 4594 1212 4672 
Q 1544 4750 1819 4750 
Q 2544 4750 2975 4387 
Q 3406 4025 3406 3419 
Q 3406 3131 3298 2873 
Q 3191 2616 2906 2266 
Q 2828 2175 2409 1742 
Q 1991 1309 1228 531 
z
" transform="scale(0.015625)"/>
        <path id="DejaVuSans-35" d="M 691 4666 
L 3169 4666 
L 3169 4134 
L 1269 4134 
L 1269 2991 
Q 1406 3038 1543 3061 
Q 1681 3084 1819 3084 
Q 2600 3084 3056 2656 
Q 3513 2228 3513 1497 
Q 3513 744 3044 326 
Q 2575 -91 1722 -91 
Q 1428 -91 1123 -41 
Q 819 9 494 109 
L 494 744 
Q 775 591 1075 516 
Q 1375 441 1709 441 
Q 2250 441 2565 725 
Q 2881 1009 2881 1497 
Q 2881 1984 2565 2268 
Q 2250 2553 1709 2553 
Q 1456 2553 1204 2497 
Q 953 2441 691 2322 
L 691 4666 
z
" transform="scale(0.015625)"/>
       </defs>
       <use xlink:href="#DejaVuSans-32"/>
       <use xlink:href="#DejaVuSans-35" x="63.623047"/>
      </g>
     </g>
    </g>
    <g id="xtick_3">
     <g id="line2d_5">
      <path d="M 230.534646 390.04 
L 230.534646 26.88 
" clip-path="url(#pc6238ca322)" style="fill: none; stroke: #b0b0b0; stroke-width: 0.8; stroke-linecap: square"/>
     </g>
     <g id="line2d_6">
      <g>
       <use xlink:href="#mdf2c4e1bfc" x="230.534646" y="390.04" style="stroke: #000000; stroke-width: 0.8"/>
      </g>
     </g>
     <g id="text_3">
      <!-- 50 -->
      <g transform="translate(224.172146 404.638438) scale(0.1 -0.1)">
       <use xlink:href="#DejaVuSans-35"/>
       <use xlink:href="#DejaVuSans-30" x="63.623047"/>
      </g>
     </g>
    </g>
    <g id="xtick_4">
     <g id="line2d_7">
      <path d="M 305.349487 390.04 
L 305.349487 26.88 
" clip-path="url(#pc6238ca322)" style="fill: none; stroke: #b0b0b0; stroke-width: 0.8; stroke-linecap: square"/>
     </g>
     <g id="line2d_8">
      <g>
       <use xlink:href="#mdf2c4e1bfc" x="305.349487" y="390.04" style="stroke: #000000; stroke-width: 0.8"/>
      </g>
     </g>
     <g id="text_4">
      <!-- 75 -->
      <g transform="translate(298.986987 404.638438) scale(0.1 -0.1)">
       <defs>
        <path id="DejaVuSans-37" d="M 525 4666 
L 3525 4666 
L 3525 4397 
L 1831 0 
L 1172 0 
L 2766 4134 
L 525 4134 
L 525 4666 
z
" transform="scale(0.015625)"/>
       </defs>
       <use xlink:href="#DejaVuSans-37"/>
       <use xlink:href="#DejaVuSans-35" x="63.623047"/>
      </g>
     </g>
    </g>
    <g id="xtick_5">
     <g id="line2d_9">
      <path d="M 380.164328 390.04 
L 380.164328 26.88 
" clip-path="url(#pc6238ca322)" style="fill: none; stroke: #b0b0b0; stroke-width: 0.8; stroke-linecap: square"/>
     </g>
     <g id="line2d_10">
      <g>
       <use xlink:href="#mdf2c4e1bfc" x="380.164328" y="390.04" style="stroke: #000000; stroke-width: 0.8"/>
      </g>
     </g>
     <g id="text_5">
      <!-- 100 -->
      <g transform="translate(370.620578 404.638438) scale(0.1 -0.1)">
       <defs>
        <path id="DejaVuSans-31" d="M 794 531 
L 1825 531 
L 1825 4091 
L 703 3866 
L 703 4441 
L 1819 4666 
L 2450 4666 
L 2450 531 
L 3481 531 
L 3481 0 
L 794 0 
L 794 531 
z
" transform="scale(0.015625)"/>
       </defs>
       <use xlink:href="#DejaVuSans-31"/>
       <use xlink:href="#DejaVuSans-30" x="63.623047"/>
       <use xlink:href="#DejaVuSans-30" x="127.246094"/>
      </g>
     </g>
    </g>
    <g id="xtick_6">
     <g id="line2d_11">
      <path d="M 454.979169 390.04 
L 454.979169 26.88 
" clip-path="url(#pc6238ca322)" style="fill: none; stroke: #b0b0b0; stroke-width: 0.8; stroke-linecap: square"/>
     </g>
     <g id="line2d_12">
      <g>
       <use xlink:href="#mdf2c4e1bfc" x="454.979169" y="390.04" style="stroke: #000000; stroke-width: 0.8"/>
      </g>
     </g>
     <g id="text_6">
      <!-- 125 -->
      <g transform="translate(445.435419 404.638438) scale(0.1 -0.1)">
       <use xlink:href="#DejaVuSans-31"/>
       <use xlink:href="#DejaVuSans-32" x="63.623047"/>
       <use xlink:href="#DejaVuSans-35" x="127.246094"/>
      </g>
     </g>
    </g>
    <g id="xtick_7">
     <g id="line2d_13">
      <path d="M 529.794011 390.04 
L 529.794011 26.88 
" clip-path="url(#pc6238ca322)" style="fill: none; stroke: #b0b0b0; stroke-width: 0.8; stroke-linecap: square"/>
     </g>
     <g id="line2d_14">
      <g>
       <use xlink:href="#mdf2c4e1bfc" x="529.794011" y="390.04" style="stroke: #000000; stroke-width: 0.8"/>
      </g>
     </g>
     <g id="text_7">
      <!-- 150 -->
      <g transform="translate(520.250261 404.638438) scale(0.1 -0.1)">
       <use xlink:href="#DejaVuSans-31"/>
       <use xlink:href="#DejaVuSans-35" x="63.623047"/>
       <use xlink:href="#DejaVuSans-30" x="127.246094"/>
      </g>
     </g>
    </g>
    <g id="xtick_8">
     <g id="line2d_15">
      <path d="M 604.608852 390.04 
L 604.608852 26.88 
" clip-path="url(#pc6238ca322)" style="fill: none; stroke: #b0b0b0; stroke-width: 0.8; stroke-linecap: square"/>
     </g>
     <g id="line2d_16">
      <g>
       <use xlink:href="#mdf2c4e1bfc" x="604.608852" y="390.04" style="stroke: #000000; stroke-width: 0.8"/>
      </g>
     </g>
     <g id="text_8">
      <!-- 175 -->
      <g transform="translate(595.065102 404.638438) scale(0.1 -0.1)">
       <use xlink:href="#DejaVuSans-31"/>
       <use xlink:href="#DejaVuSans-37" x="63.623047"/>
       <use xlink:href="#DejaVuSans-35" x="127.246094"/>
      </g>
     </g>
    </g>
    <g id="xtick_9">
     <g id="line2d_17">
      <path d="M 679.423693 390.04 
L 679.423693 26.88 
" clip-path="url(#pc6238ca322)" style="fill: none; stroke: #b0b0b0; stroke-width: 0.8; stroke-linecap: square"/>
     </g>
     <g id="line2d_18">
      <g>
       <use xlink:href="#mdf2c4e1bfc" x="679.423693" y="390.04" style="stroke: #000000; stroke-width: 0.8"/>
      </g>
     </g>
     <g id="text_9">
      <!-- 200 -->
      <g transform="translate(669.879943 404.638438) scale(0.1 -0.1)">
       <use xlink:href="#DejaVuSans-32"/>
       <use xlink:href="#DejaVuSans-30" x="63.623047"/>
       <use xlink:href="#DejaVuSans-30" x="127.246094"/>
      </g>
     </g>
    </g>
    <g id="text_10">
     <!-- Epoch -->
     <g transform="translate(366.349687 418.316562) scale(0.1 -0.1)">
      <defs>
       <path id="DejaVuSans-45" d="M 628 4666 
L 3578 4666 
L 3578 4134 
L 1259 4134 
L 1259 2753 
L 3481 2753 
L 3481 2222 
L 1259 2222 
L 1259 531 
L 3634 531 
L 3634 0 
L 628 0 
L 628 4666 
z
" transform="scale(0.015625)"/>
       <path id="DejaVuSans-70" d="M 1159 525 
L 1159 -1331 
L 581 -1331 
L 581 3500 
L 1159 3500 
L 1159 2969 
Q 1341 3281 1617 3432 
Q 1894 3584 2278 3584 
Q 2916 3584 3314 3078 
Q 3713 2572 3713 1747 
Q 3713 922 3314 415 
Q 2916 -91 2278 -91 
Q 1894 -91 1617 61 
Q 1341 213 1159 525 
z
M 3116 1747 
Q 3116 2381 2855 2742 
Q 2594 3103 2138 3103 
Q 1681 3103 1420 2742 
Q 1159 2381 1159 1747 
Q 1159 1113 1420 752 
Q 1681 391 2138 391 
Q 2594 391 2855 752 
Q 3116 1113 3116 1747 
z
" transform="scale(0.015625)"/>
       <path id="DejaVuSans-6f" d="M 1959 3097 
Q 1497 3097 1228 2736 
Q 959 2375 959 1747 
Q 959 1119 1226 758 
Q 1494 397 1959 397 
Q 2419 397 2687 759 
Q 2956 1122 2956 1747 
Q 2956 2369 2687 2733 
Q 2419 3097 1959 3097 
z
M 1959 3584 
Q 2709 3584 3137 3096 
Q 3566 2609 3566 1747 
Q 3566 888 3137 398 
Q 2709 -91 1959 -91 
Q 1206 -91 779 398 
Q 353 888 353 1747 
Q 353 2609 779 3096 
Q 1206 3584 1959 3584 
z
" transform="scale(0.015625)"/>
       <path id="DejaVuSans-63" d="M 3122 3366 
L 3122 2828 
Q 2878 2963 2633 3030 
Q 2388 3097 2138 3097 
Q 1578 3097 1268 2742 
Q 959 2388 959 1747 
Q 959 1106 1268 751 
Q 1578 397 2138 397 
Q 2388 397 2633 464 
Q 2878 531 3122 666 
L 3122 134 
Q 2881 22 2623 -34 
Q 2366 -91 2075 -91 
Q 1284 -91 818 406 
Q 353 903 353 1747 
Q 353 2603 823 3093 
Q 1294 3584 2113 3584 
Q 2378 3584 2631 3529 
Q 2884 3475 3122 3366 
z
" transform="scale(0.015625)"/>
       <path id="DejaVuSans-68" d="M 3513 2113 
L 3513 0 
L 2938 0 
L 2938 2094 
Q 2938 2591 2744 2837 
Q 2550 3084 2163 3084 
Q 1697 3084 1428 2787 
Q 1159 2491 1159 1978 
L 1159 0 
L 581 0 
L 581 4863 
L 1159 4863 
L 1159 2956 
Q 1366 3272 1645 3428 
Q 1925 3584 2291 3584 
Q 2894 3584 3203 3211 
Q 3513 2838 3513 2113 
z
" transform="scale(0.015625)"/>
      </defs>
      <use xlink:href="#DejaVuSans-45"/>
      <use xlink:href="#DejaVuSans-70" x="63.183594"/>
      <use xlink:href="#DejaVuSans-6f" x="126.660156"/>
      <use xlink:href="#DejaVuSans-63" x="187.841797"/>
      <use xlink:href="#DejaVuSans-68" x="242.822266"/>
     </g>
    </g>
   </g>
   <g id="matplotlib.axis_2">
    <g id="ytick_1">
     <g id="line2d_19">
      <path d="M 54.12125 376.08102 
L 709.2 376.08102 
" clip-path="url(#pc6238ca322)" style="fill: none; stroke: #b0b0b0; stroke-width: 0.8; stroke-linecap: square"/>
     </g>
     <g id="line2d_20">
      <defs>
       <path id="m187c8a76b0" d="M 0 0 
L -3.5 0 
" style="stroke: #000000; stroke-width: 0.8"/>
      </defs>
      <g>
       <use xlink:href="#m187c8a76b0" x="54.12125" y="376.08102" style="stroke: #000000; stroke-width: 0.8"/>
      </g>
     </g>
     <g id="text_11">
      <!-- 0.00 -->
      <g transform="translate(24.855625 379.880239) scale(0.1 -0.1)">
       <defs>
        <path id="DejaVuSans-2e" d="M 684 794 
L 1344 794 
L 1344 0 
L 684 0 
L 684 794 
z
" transform="scale(0.015625)"/>
       </defs>
       <use xlink:href="#DejaVuSans-30"/>
       <use xlink:href="#DejaVuSans-2e" x="63.623047"/>
       <use xlink:href="#DejaVuSans-30" x="95.410156"/>
       <use xlink:href="#DejaVuSans-30" x="159.033203"/>
      </g>
     </g>
    </g>
    <g id="ytick_2">
     <g id="line2d_21">
      <path d="M 54.12125 305.295116 
L 709.2 305.295116 
" clip-path="url(#pc6238ca322)" style="fill: none; stroke: #b0b0b0; stroke-width: 0.8; stroke-linecap: square"/>
     </g>
     <g id="line2d_22">
      <g>
       <use xlink:href="#m187c8a76b0" x="54.12125" y="305.295116" style="stroke: #000000; stroke-width: 0.8"/>
      </g>
     </g>
     <g id="text_12">
      <!-- 0.05 -->
      <g transform="translate(24.855625 309.094335) scale(0.1 -0.1)">
       <use xlink:href="#DejaVuSans-30"/>
       <use xlink:href="#DejaVuSans-2e" x="63.623047"/>
       <use xlink:href="#DejaVuSans-30" x="95.410156"/>
       <use xlink:href="#DejaVuSans-35" x="159.033203"/>
      </g>
     </g>
    </g>
    <g id="ytick_3">
     <g id="line2d_23">
      <path d="M 54.12125 234.509213 
L 709.2 234.509213 
" clip-path="url(#pc6238ca322)" style="fill: none; stroke: #b0b0b0; stroke-width: 0.8; stroke-linecap: square"/>
     </g>
     <g id="line2d_24">
      <g>
       <use xlink:href="#m187c8a76b0" x="54.12125" y="234.509213" style="stroke: #000000; stroke-width: 0.8"/>
      </g>
     </g>
     <g id="text_13">
      <!-- 0.10 -->
      <g transform="translate(24.855625 238.308431) scale(0.1 -0.1)">
       <use xlink:href="#DejaVuSans-30"/>
       <use xlink:href="#DejaVuSans-2e" x="63.623047"/>
       <use xlink:href="#DejaVuSans-31" x="95.410156"/>
       <use xlink:href="#DejaVuSans-30" x="159.033203"/>
      </g>
     </g>
    </g>
    <g id="ytick_4">
     <g id="line2d_25">
      <path d="M 54.12125 163.723309 
L 709.2 163.723309 
" clip-path="url(#pc6238ca322)" style="fill: none; stroke: #b0b0b0; stroke-width: 0.8; stroke-linecap: square"/>
     </g>
     <g id="line2d_26">
      <g>
       <use xlink:href="#m187c8a76b0" x="54.12125" y="163.723309" style="stroke: #000000; stroke-width: 0.8"/>
      </g>
     </g>
     <g id="text_14">
      <!-- 0.15 -->
      <g transform="translate(24.855625 167.522528) scale(0.1 -0.1)">
       <use xlink:href="#DejaVuSans-30"/>
       <use xlink:href="#DejaVuSans-2e" x="63.623047"/>
       <use xlink:href="#DejaVuSans-31" x="95.410156"/>
       <use xlink:href="#DejaVuSans-35" x="159.033203"/>
      </g>
     </g>
    </g>
    <g id="ytick_5">
     <g id="line2d_27">
      <path d="M 54.12125 92.937405 
L 709.2 92.937405 
" clip-path="url(#pc6238ca322)" style="fill: none; stroke: #b0b0b0; stroke-width: 0.8; stroke-linecap: square"/>
     </g>
     <g id="line2d_28">
      <g>
       <use xlink:href="#m187c8a76b0" x="54.12125" y="92.937405" style="stroke: #000000; stroke-width: 0.8"/>
      </g>
     </g>
     <g id="text_15">
      <!-- 0.20 -->
      <g transform="translate(24.855625 96.736624) scale(0.1 -0.1)">
       <use xlink:href="#DejaVuSans-30"/>
       <use xlink:href="#DejaVuSans-2e" x="63.623047"/>
       <use xlink:href="#DejaVuSans-32" x="95.410156"/>
       <use xlink:href="#DejaVuSans-30" x="159.033203"/>
      </g>
     </g>
    </g>
    <g id="text_16">
     <!-- Encoder_mse -->
     <g transform="translate(18.497813 241.954531) rotate(-90) scale(0.1 -0.1)">
      <defs>
       <path id="DejaVuSans-6e" d="M 3513 2113 
L 3513 0 
L 2938 0 
L 2938 2094 
Q 2938 2591 2744 2837 
Q 2550 3084 2163 3084 
Q 1697 3084 1428 2787 
Q 1159 2491 1159 1978 
L 1159 0 
L 581 0 
L 581 3500 
L 1159 3500 
L 1159 2956 
Q 1366 3272 1645 3428 
Q 1925 3584 2291 3584 
Q 2894 3584 3203 3211 
Q 3513 2838 3513 2113 
z
" transform="scale(0.015625)"/>
       <path id="DejaVuSans-64" d="M 2906 2969 
L 2906 4863 
L 3481 4863 
L 3481 0 
L 2906 0 
L 2906 525 
Q 2725 213 2448 61 
Q 2172 -91 1784 -91 
Q 1150 -91 751 415 
Q 353 922 353 1747 
Q 353 2572 751 3078 
Q 1150 3584 1784 3584 
Q 2172 3584 2448 3432 
Q 2725 3281 2906 2969 
z
M 947 1747 
Q 947 1113 1208 752 
Q 1469 391 1925 391 
Q 2381 391 2643 752 
Q 2906 1113 2906 1747 
Q 2906 2381 2643 2742 
Q 2381 3103 1925 3103 
Q 1469 3103 1208 2742 
Q 947 2381 947 1747 
z
" transform="scale(0.015625)"/>
       <path id="DejaVuSans-65" d="M 3597 1894 
L 3597 1613 
L 953 1613 
Q 991 1019 1311 708 
Q 1631 397 2203 397 
Q 2534 397 2845 478 
Q 3156 559 3463 722 
L 3463 178 
Q 3153 47 2828 -22 
Q 2503 -91 2169 -91 
Q 1331 -91 842 396 
Q 353 884 353 1716 
Q 353 2575 817 3079 
Q 1281 3584 2069 3584 
Q 2775 3584 3186 3129 
Q 3597 2675 3597 1894 
z
M 3022 2063 
Q 3016 2534 2758 2815 
Q 2500 3097 2075 3097 
Q 1594 3097 1305 2825 
Q 1016 2553 972 2059 
L 3022 2063 
z
" transform="scale(0.015625)"/>
       <path id="DejaVuSans-72" d="M 2631 2963 
Q 2534 3019 2420 3045 
Q 2306 3072 2169 3072 
Q 1681 3072 1420 2755 
Q 1159 2438 1159 1844 
L 1159 0 
L 581 0 
L 581 3500 
L 1159 3500 
L 1159 2956 
Q 1341 3275 1631 3429 
Q 1922 3584 2338 3584 
Q 2397 3584 2469 3576 
Q 2541 3569 2628 3553 
L 2631 2963 
z
" transform="scale(0.015625)"/>
       <path id="DejaVuSans-5f" d="M 3263 -1063 
L 3263 -1509 
L -63 -1509 
L -63 -1063 
L 3263 -1063 
z
" transform="scale(0.015625)"/>
       <path id="DejaVuSans-6d" d="M 3328 2828 
Q 3544 3216 3844 3400 
Q 4144 3584 4550 3584 
Q 5097 3584 5394 3201 
Q 5691 2819 5691 2113 
L 5691 0 
L 5113 0 
L 5113 2094 
Q 5113 2597 4934 2840 
Q 4756 3084 4391 3084 
Q 3944 3084 3684 2787 
Q 3425 2491 3425 1978 
L 3425 0 
L 2847 0 
L 2847 2094 
Q 2847 2600 2669 2842 
Q 2491 3084 2119 3084 
Q 1678 3084 1418 2786 
Q 1159 2488 1159 1978 
L 1159 0 
L 581 0 
L 581 3500 
L 1159 3500 
L 1159 2956 
Q 1356 3278 1631 3431 
Q 1906 3584 2284 3584 
Q 2666 3584 2933 3390 
Q 3200 3197 3328 2828 
z
" transform="scale(0.015625)"/>
       <path id="DejaVuSans-73" d="M 2834 3397 
L 2834 2853 
Q 2591 2978 2328 3040 
Q 2066 3103 1784 3103 
Q 1356 3103 1142 2972 
Q 928 2841 928 2578 
Q 928 2378 1081 2264 
Q 1234 2150 1697 2047 
L 1894 2003 
Q 2506 1872 2764 1633 
Q 3022 1394 3022 966 
Q 3022 478 2636 193 
Q 2250 -91 1575 -91 
Q 1294 -91 989 -36 
Q 684 19 347 128 
L 347 722 
Q 666 556 975 473 
Q 1284 391 1588 391 
Q 1994 391 2212 530 
Q 2431 669 2431 922 
Q 2431 1156 2273 1281 
Q 2116 1406 1581 1522 
L 1381 1569 
Q 847 1681 609 1914 
Q 372 2147 372 2553 
Q 372 3047 722 3315 
Q 1072 3584 1716 3584 
Q 2034 3584 2315 3537 
Q 2597 3491 2834 3397 
z
" transform="scale(0.015625)"/>
      </defs>
      <use xlink:href="#DejaVuSans-45"/>
      <use xlink:href="#DejaVuSans-6e" x="63.183594"/>
      <use xlink:href="#DejaVuSans-63" x="126.5625"/>
      <use xlink:href="#DejaVuSans-6f" x="181.542969"/>
      <use xlink:href="#DejaVuSans-64" x="242.724609"/>
      <use xlink:href="#DejaVuSans-65" x="306.201172"/>
      <use xlink:href="#DejaVuSans-72" x="367.724609"/>
      <use xlink:href="#DejaVuSans-5f" x="408.837891"/>
      <use xlink:href="#DejaVuSans-6d" x="458.837891"/>
      <use xlink:href="#DejaVuSans-73" x="556.25"/>
      <use xlink:href="#DejaVuSans-65" x="608.349609"/>
     </g>
    </g>
   </g>
   <g id="line2d_29">
    <path d="M 83.897557 260.841569 
L 86.89015 275.989752 
L 89.882744 283.493058 
L 92.875338 285.19192 
L 95.867931 285.475063 
L 98.860525 277.830186 
L 101.853119 275.706608 
L 104.845712 277.688614 
L 107.838306 278.254901 
L 110.8309 275.140321 
L 113.823493 273.158316 
L 116.816087 272.592029 
L 119.808681 274.007747 
L 122.801274 274.857178 
L 125.793868 276.556039 
L 128.786462 274.432462 
L 131.779055 274.149319 
L 134.771649 270.32688 
L 137.764243 271.317882 
L 140.756836 268.486446 
L 143.74943 262.965146 
L 146.742023 262.54043 
L 149.734617 264.380864 
L 152.727211 262.965146 
L 155.719804 262.823574 
L 158.712398 263.106718 
L 161.704992 262.398859 
L 164.697585 262.682002 
L 167.690179 266.362869 
L 170.682773 349.890235 
L 173.675366 356.827254 
L 176.66796 357.110398 
L 179.660554 359.233975 
L 182.653147 359.941834 
L 185.645741 360.366549 
L 188.638335 361.923839 
L 191.630928 362.490126 
L 194.623522 364.33056 
L 197.616116 364.613703 
L 200.608709 364.472132 
L 203.601303 366.029421 
L 206.593896 367.020424 
L 212.579084 367.586711 
L 215.571677 368.152999 
L 218.564271 368.011427 
L 221.556865 368.436142 
L 224.549458 369.002429 
L 227.542052 368.860858 
L 230.534646 369.144001 
L 233.527239 336.016198 
L 236.519833 299.065957 
L 239.512427 238.331651 
L 242.50502 232.102492 
L 245.497614 232.810351 
L 248.490208 231.677776 
L 251.482801 183.543362 
L 254.475395 87.132961 
L 257.467989 74.108355 
L 260.460582 76.09036 
L 263.453176 63.065754 
L 266.445769 61.22532 
L 269.438363 58.110741 
L 272.430957 54.713017 
L 275.42355 53.014156 
L 278.416144 54.854589 
L 281.408738 54.854589 
L 284.401331 55.70402 
L 287.393925 56.128735 
L 290.386519 54.854589 
L 293.379112 59.101743 
L 296.371706 56.411879 
L 299.3643 60.234318 
L 302.356893 59.809602 
L 305.349487 58.677028 
L 308.342081 61.508464 
L 311.334674 60.942177 
L 314.327268 65.330903 
L 317.319862 70.427488 
L 320.312455 68.020767 
L 323.305049 62.357895 
L 326.297642 65.189331 
L 329.290236 69.861201 
L 332.28283 59.243315 
L 335.275423 49.899576 
L 338.268017 48.059142 
L 341.260611 47.917571 
L 344.253204 50.465863 
L 347.245798 50.749007 
L 350.238392 52.164725 
L 353.230985 51.881581 
L 356.223579 53.155727 
L 359.216173 52.164725 
L 362.208766 51.456866 
L 365.20136 46.643424 
L 368.193954 52.306297 
L 371.186547 47.917571 
L 374.179141 50.890579 
L 377.171735 43.387273 
L 380.164328 44.378275 
L 383.156922 47.492855 
L 386.149515 63.207326 
L 392.134703 101.856429 
L 395.127296 122.384341 
L 398.11989 146.168405 
L 401.112484 164.57274 
L 407.097671 200.107263 
L 410.090265 214.68916 
L 413.082858 230.120487 
L 419.068046 259.425851 
L 425.053233 282.218912 
L 428.045827 288.872787 
L 431.03842 298.358098 
L 437.023608 309.825414 
L 440.016201 315.913002 
L 443.008795 320.160156 
L 446.001388 322.000589 
L 448.993982 327.380318 
L 451.986576 327.380318 
L 454.979169 332.052188 
L 460.964357 336.016198 
L 463.95695 336.724057 
L 466.949544 337.71506 
L 469.942138 339.27235 
L 472.934731 341.820642 
L 475.927325 343.236361 
L 478.919919 344.79365 
L 481.912512 346.917228 
L 484.905106 347.341943 
L 487.8977 349.607092 
L 490.890293 350.881238 
L 493.882887 351.589097 
L 499.868074 353.854246 
L 502.860668 354.420533 
L 505.853261 354.845249 
L 508.845855 355.553108 
L 511.838449 355.836251 
L 514.831042 356.260967 
L 517.823636 356.968826 
L 520.81623 356.968826 
L 523.808823 356.827254 
L 526.801417 357.676685 
L 529.794011 357.535113 
L 532.786604 358.242972 
L 535.779198 358.242972 
L 538.771792 358.667688 
L 541.764385 358.809259 
L 547.749573 359.375547 
L 550.742166 359.233975 
L 553.73476 359.800262 
L 556.727354 360.224977 
L 559.719947 359.800262 
L 562.712541 360.649693 
L 565.705134 360.366549 
L 568.697728 360.649693 
L 571.690322 360.366549 
L 574.682915 360.791265 
L 577.675509 360.932836 
L 580.668103 360.649693 
L 586.65329 360.649693 
L 589.645884 360.932836 
L 592.638477 360.791265 
L 595.631071 360.932836 
L 598.623665 361.357552 
L 601.616258 361.499124 
L 604.608852 360.791265 
L 607.601446 361.21598 
L 610.594039 361.357552 
L 616.579227 361.357552 
L 619.57182 361.782267 
L 622.564414 361.640695 
L 631.542195 362.065411 
L 634.534788 361.782267 
L 637.527382 361.923839 
L 646.505163 362.77327 
L 652.49035 362.490126 
L 655.482944 362.631698 
L 658.475538 362.914842 
L 661.468131 362.77327 
L 664.460725 362.77327 
L 667.453319 363.339557 
L 670.445912 363.339557 
L 673.438506 362.77327 
L 676.4311 363.197985 
L 679.423693 363.339557 
L 679.423693 363.339557 
" clip-path="url(#pc6238ca322)" style="fill: none; stroke: #0000ff; stroke-width: 1.5; stroke-linecap: square"/>
   </g>
   <g id="line2d_30">
    <path d="M 83.897557 270.610023 
L 86.89015 281.227909 
L 89.882744 285.899779 
L 92.875338 295.243518 
L 95.867931 283.493058 
L 98.860525 284.200917 
L 101.853119 287.173925 
L 104.845712 293.8278 
L 107.838306 288.589643 
L 110.8309 277.547042 
L 113.823493 276.131324 
L 116.816087 283.068342 
L 119.808681 282.07734 
L 122.801274 289.439074 
L 125.793868 277.40547 
L 128.786462 279.953763 
L 131.779055 280.236906 
L 134.771649 275.423465 
L 137.764243 279.529047 
L 140.756836 274.007747 
L 143.74943 265.65501 
L 146.742023 254.753981 
L 149.734617 263.389861 
L 152.727211 274.29089 
L 155.719804 266.787585 
L 158.712398 262.823574 
L 161.704992 278.538045 
L 164.697585 274.007747 
L 167.690179 268.911162 
L 170.682773 367.869855 
L 173.675366 369.144001 
L 176.66796 370.984435 
L 179.660554 370.559719 
L 182.653147 371.267578 
L 185.645741 371.126007 
L 188.638335 371.267578 
L 191.630928 371.692294 
L 194.623522 371.692294 
L 197.616116 371.40915 
L 203.601303 372.541725 
L 209.58649 372.541725 
L 215.571677 372.824868 
L 218.564271 372.683296 
L 221.556865 373.532727 
L 224.549458 372.96644 
L 227.542052 373.532727 
L 230.534646 372.824868 
L 233.527239 330.353326 
L 236.519833 262.257287 
L 239.512427 239.322654 
L 242.50502 236.63279 
L 245.497614 230.828346 
L 248.490208 230.686774 
L 251.482801 104.687865 
L 254.475395 101.714857 
L 257.467989 109.78445 
L 263.453176 92.654262 
L 266.445769 91.238544 
L 269.438363 66.321906 
L 272.430957 80.620658 
L 275.42355 63.773613 
L 278.416144 69.153342 
L 281.408738 71.276919 
L 284.401331 87.416105 
L 287.393925 69.861201 
L 290.386519 69.01177 
L 293.379112 64.056757 
L 296.371706 80.337514 
L 299.3643 77.64765 
L 302.356893 78.072366 
L 305.349487 81.753232 
L 308.342081 88.123964 
L 311.334674 96.901416 
L 314.327268 98.317134 
L 317.319862 102.989004 
L 320.312455 64.764616 
L 323.305049 95.344126 
L 326.297642 101.998001 
L 329.290236 91.096972 
L 332.28283 84.159953 
L 335.275423 83.735238 
L 338.268017 76.231932 
L 341.260611 76.939791 
L 344.253204 88.265536 
L 347.245798 80.903802 
L 350.238392 87.416105 
L 353.230985 83.735238 
L 356.223579 82.31952 
L 359.216173 85.009384 
L 362.208766 81.470089 
L 365.20136 91.238544 
L 368.193954 90.247541 
L 371.186547 82.602663 
L 374.179141 76.798219 
L 377.171735 67.029765 
L 380.164328 76.656647 
L 383.156922 88.123964 
L 386.149515 98.883421 
L 389.142109 108.22716 
L 392.134703 133.568514 
L 398.11989 168.678322 
L 401.112484 174.907482 
L 404.105077 200.956694 
L 407.097671 221.484606 
L 410.090265 233.235066 
L 413.082858 243.145093 
L 416.075452 263.248289 
L 419.068046 274.998749 
L 422.060639 285.050348 
L 425.053233 293.544656 
L 428.045827 302.746824 
L 431.03842 306.427691 
L 434.031014 321.009587 
L 437.023608 321.151159 
L 440.016201 327.946605 
L 443.008795 330.919613 
L 446.001388 337.431916 
L 448.993982 340.121781 
L 451.986576 341.820642 
L 454.979169 344.227363 
L 457.971763 345.359938 
L 460.964357 347.483515 
L 463.95695 348.474517 
L 466.949544 349.182376 
L 469.942138 348.899233 
L 472.934731 351.02281 
L 475.927325 350.598094 
L 478.919919 354.13739 
L 481.912512 352.721672 
L 484.905106 355.69468 
L 487.8977 354.278961 
L 490.890293 355.836251 
L 493.882887 353.712674 
L 496.875481 354.562105 
L 499.868074 356.402539 
L 502.860668 358.667688 
L 505.853261 358.242972 
L 508.845855 358.242972 
L 511.838449 358.1014 
L 514.831042 358.242972 
L 517.823636 358.242972 
L 520.81623 360.366549 
L 523.808823 359.65869 
L 526.801417 360.224977 
L 529.794011 359.233975 
L 532.786604 360.508121 
L 535.779198 360.366549 
L 538.771792 361.21598 
L 544.756979 360.932836 
L 547.749573 361.499124 
L 550.742166 361.782267 
L 553.73476 362.490126 
L 556.727354 362.348554 
L 559.719947 360.366549 
L 562.712541 361.923839 
L 565.705134 362.77327 
L 568.697728 362.348554 
L 571.690322 362.065411 
L 574.682915 363.622701 
L 577.675509 361.640695 
L 580.668103 363.481129 
L 583.660696 363.197985 
L 586.65329 360.649693 
L 589.645884 362.490126 
L 592.638477 362.914842 
L 595.631071 363.622701 
L 598.623665 363.197985 
L 601.616258 362.914842 
L 604.608852 363.056414 
L 607.601446 363.481129 
L 610.594039 364.472132 
L 613.586633 363.622701 
L 616.579227 363.056414 
L 619.57182 363.481129 
L 622.564414 364.472132 
L 625.557007 364.33056 
L 628.549601 362.914842 
L 631.542195 363.764273 
L 634.534788 363.481129 
L 637.527382 364.472132 
L 640.519976 363.197985 
L 643.512569 364.613703 
L 646.505163 363.764273 
L 649.497757 364.33056 
L 652.49035 365.463134 
L 655.482944 364.896847 
L 658.475538 365.463134 
L 661.468131 364.33056 
L 664.460725 365.038419 
L 667.453319 364.896847 
L 670.445912 365.321562 
L 673.438506 364.33056 
L 676.4311 363.764273 
L 679.423693 365.179991 
L 679.423693 365.179991 
" clip-path="url(#pc6238ca322)" style="fill: none; stroke: #ffa500; stroke-width: 1.5; stroke-linecap: square"/>
   </g>
   <g id="patch_3">
    <path d="M 54.12125 390.04 
L 54.12125 26.88 
" style="fill: none; stroke: #000000; stroke-width: 0.8; stroke-linejoin: miter; stroke-linecap: square"/>
   </g>
   <g id="patch_4">
    <path d="M 709.2 390.04 
L 709.2 26.88 
" style="fill: none; stroke: #000000; stroke-width: 0.8; stroke-linejoin: miter; stroke-linecap: square"/>
   </g>
   <g id="patch_5">
    <path d="M 54.12125 390.04 
L 709.2 390.04 
" style="fill: none; stroke: #000000; stroke-width: 0.8; stroke-linejoin: miter; stroke-linecap: square"/>
   </g>
   <g id="patch_6">
    <path d="M 54.12125 26.88 
L 709.2 26.88 
" style="fill: none; stroke: #000000; stroke-width: 0.8; stroke-linejoin: miter; stroke-linecap: square"/>
   </g>
   <g id="text_17">
    <!-- Encoder_mse for Jpeg_50_v2 -->
    <g transform="translate(295.319687 20.88) scale(0.12 -0.12)">
     <defs>
      <path id="DejaVuSans-20" transform="scale(0.015625)"/>
      <path id="DejaVuSans-66" d="M 2375 4863 
L 2375 4384 
L 1825 4384 
Q 1516 4384 1395 4259 
Q 1275 4134 1275 3809 
L 1275 3500 
L 2222 3500 
L 2222 3053 
L 1275 3053 
L 1275 0 
L 697 0 
L 697 3053 
L 147 3053 
L 147 3500 
L 697 3500 
L 697 3744 
Q 697 4328 969 4595 
Q 1241 4863 1831 4863 
L 2375 4863 
z
" transform="scale(0.015625)"/>
      <path id="DejaVuSans-4a" d="M 628 4666 
L 1259 4666 
L 1259 325 
Q 1259 -519 939 -900 
Q 619 -1281 -91 -1281 
L -331 -1281 
L -331 -750 
L -134 -750 
Q 284 -750 456 -515 
Q 628 -281 628 325 
L 628 4666 
z
" transform="scale(0.015625)"/>
      <path id="DejaVuSans-67" d="M 2906 1791 
Q 2906 2416 2648 2759 
Q 2391 3103 1925 3103 
Q 1463 3103 1205 2759 
Q 947 2416 947 1791 
Q 947 1169 1205 825 
Q 1463 481 1925 481 
Q 2391 481 2648 825 
Q 2906 1169 2906 1791 
z
M 3481 434 
Q 3481 -459 3084 -895 
Q 2688 -1331 1869 -1331 
Q 1566 -1331 1297 -1286 
Q 1028 -1241 775 -1147 
L 775 -588 
Q 1028 -725 1275 -790 
Q 1522 -856 1778 -856 
Q 2344 -856 2625 -561 
Q 2906 -266 2906 331 
L 2906 616 
Q 2728 306 2450 153 
Q 2172 0 1784 0 
Q 1141 0 747 490 
Q 353 981 353 1791 
Q 353 2603 747 3093 
Q 1141 3584 1784 3584 
Q 2172 3584 2450 3431 
Q 2728 3278 2906 2969 
L 2906 3500 
L 3481 3500 
L 3481 434 
z
" transform="scale(0.015625)"/>
      <path id="DejaVuSans-76" d="M 191 3500 
L 800 3500 
L 1894 563 
L 2988 3500 
L 3597 3500 
L 2284 0 
L 1503 0 
L 191 3500 
z
" transform="scale(0.015625)"/>
     </defs>
     <use xlink:href="#DejaVuSans-45"/>
     <use xlink:href="#DejaVuSans-6e" x="63.183594"/>
     <use xlink:href="#DejaVuSans-63" x="126.5625"/>
     <use xlink:href="#DejaVuSans-6f" x="181.542969"/>
     <use xlink:href="#DejaVuSans-64" x="242.724609"/>
     <use xlink:href="#DejaVuSans-65" x="306.201172"/>
     <use xlink:href="#DejaVuSans-72" x="367.724609"/>
     <use xlink:href="#DejaVuSans-5f" x="408.837891"/>
     <use xlink:href="#DejaVuSans-6d" x="458.837891"/>
     <use xlink:href="#DejaVuSans-73" x="556.25"/>
     <use xlink:href="#DejaVuSans-65" x="608.349609"/>
     <use xlink:href="#DejaVuSans-20" x="669.873047"/>
     <use xlink:href="#DejaVuSans-66" x="701.660156"/>
     <use xlink:href="#DejaVuSans-6f" x="736.865234"/>
     <use xlink:href="#DejaVuSans-72" x="798.046875"/>
     <use xlink:href="#DejaVuSans-20" x="839.160156"/>
     <use xlink:href="#DejaVuSans-4a" x="870.947266"/>
     <use xlink:href="#DejaVuSans-70" x="900.439453"/>
     <use xlink:href="#DejaVuSans-65" x="963.916016"/>
     <use xlink:href="#DejaVuSans-67" x="1025.439453"/>
     <use xlink:href="#DejaVuSans-5f" x="1088.916016"/>
     <use xlink:href="#DejaVuSans-35" x="1138.916016"/>
     <use xlink:href="#DejaVuSans-30" x="1202.539062"/>
     <use xlink:href="#DejaVuSans-5f" x="1266.162109"/>
     <use xlink:href="#DejaVuSans-76" x="1316.162109"/>
     <use xlink:href="#DejaVuSans-32" x="1375.341797"/>
    </g>
   </g>
   <g id="legend_1">
    <g id="patch_7">
     <path d="M 620.81875 64.23625 
L 702.2 64.23625 
Q 704.2 64.23625 704.2 62.23625 
L 704.2 33.88 
Q 704.2 31.88 702.2 31.88 
L 620.81875 31.88 
Q 618.81875 31.88 618.81875 33.88 
L 618.81875 62.23625 
Q 618.81875 64.23625 620.81875 64.23625 
z
" style="fill: #ffffff; opacity: 0.8; stroke: #cccccc; stroke-linejoin: miter"/>
    </g>
    <g id="line2d_31">
     <path d="M 622.81875 39.978437 
L 632.81875 39.978437 
L 642.81875 39.978437 
" style="fill: none; stroke: #0000ff; stroke-width: 1.5; stroke-linecap: square"/>
    </g>
    <g id="text_18">
     <!-- Train -->
     <g transform="translate(650.81875 43.478437) scale(0.1 -0.1)">
      <defs>
       <path id="DejaVuSans-54" d="M -19 4666 
L 3928 4666 
L 3928 4134 
L 2272 4134 
L 2272 0 
L 1638 0 
L 1638 4134 
L -19 4134 
L -19 4666 
z
" transform="scale(0.015625)"/>
       <path id="DejaVuSans-61" d="M 2194 1759 
Q 1497 1759 1228 1600 
Q 959 1441 959 1056 
Q 959 750 1161 570 
Q 1363 391 1709 391 
Q 2188 391 2477 730 
Q 2766 1069 2766 1631 
L 2766 1759 
L 2194 1759 
z
M 3341 1997 
L 3341 0 
L 2766 0 
L 2766 531 
Q 2569 213 2275 61 
Q 1981 -91 1556 -91 
Q 1019 -91 701 211 
Q 384 513 384 1019 
Q 384 1609 779 1909 
Q 1175 2209 1959 2209 
L 2766 2209 
L 2766 2266 
Q 2766 2663 2505 2880 
Q 2244 3097 1772 3097 
Q 1472 3097 1187 3025 
Q 903 2953 641 2809 
L 641 3341 
Q 956 3463 1253 3523 
Q 1550 3584 1831 3584 
Q 2591 3584 2966 3190 
Q 3341 2797 3341 1997 
z
" transform="scale(0.015625)"/>
       <path id="DejaVuSans-69" d="M 603 3500 
L 1178 3500 
L 1178 0 
L 603 0 
L 603 3500 
z
M 603 4863 
L 1178 4863 
L 1178 4134 
L 603 4134 
L 603 4863 
z
" transform="scale(0.015625)"/>
      </defs>
      <use xlink:href="#DejaVuSans-54"/>
      <use xlink:href="#DejaVuSans-72" x="46.333984"/>
      <use xlink:href="#DejaVuSans-61" x="87.447266"/>
      <use xlink:href="#DejaVuSans-69" x="148.726562"/>
      <use xlink:href="#DejaVuSans-6e" x="176.509766"/>
     </g>
    </g>
    <g id="line2d_32">
     <path d="M 622.81875 54.656563 
L 632.81875 54.656563 
L 642.81875 54.656563 
" style="fill: none; stroke: #ffa500; stroke-width: 1.5; stroke-linecap: square"/>
    </g>
    <g id="text_19">
     <!-- Validation -->
     <g transform="translate(650.81875 58.156563) scale(0.1 -0.1)">
      <defs>
       <path id="DejaVuSans-56" d="M 1831 0 
L 50 4666 
L 709 4666 
L 2188 738 
L 3669 4666 
L 4325 4666 
L 2547 0 
L 1831 0 
z
" transform="scale(0.015625)"/>
       <path id="DejaVuSans-6c" d="M 603 4863 
L 1178 4863 
L 1178 0 
L 603 0 
L 603 4863 
z
" transform="scale(0.015625)"/>
       <path id="DejaVuSans-74" d="M 1172 4494 
L 1172 3500 
L 2356 3500 
L 2356 3053 
L 1172 3053 
L 1172 1153 
Q 1172 725 1289 603 
Q 1406 481 1766 481 
L 2356 481 
L 2356 0 
L 1766 0 
Q 1100 0 847 248 
Q 594 497 594 1153 
L 594 3053 
L 172 3053 
L 172 3500 
L 594 3500 
L 594 4494 
L 1172 4494 
z
" transform="scale(0.015625)"/>
      </defs>
      <use xlink:href="#DejaVuSans-56"/>
      <use xlink:href="#DejaVuSans-61" x="60.658203"/>
      <use xlink:href="#DejaVuSans-6c" x="121.9375"/>
      <use xlink:href="#DejaVuSans-69" x="149.720703"/>
      <use xlink:href="#DejaVuSans-64" x="177.503906"/>
      <use xlink:href="#DejaVuSans-61" x="240.980469"/>
      <use xlink:href="#DejaVuSans-74" x="302.259766"/>
      <use xlink:href="#DejaVuSans-69" x="341.46875"/>
      <use xlink:href="#DejaVuSans-6f" x="369.251953"/>
      <use xlink:href="#DejaVuSans-6e" x="430.433594"/>
     </g>
    </g>
   </g>
  </g>
 </g>
 <defs>
  <clipPath id="pc6238ca322">
   <rect x="54.12125" y="26.88" width="655.07875" height="363.16"/>
  </clipPath>
 </defs>
</svg>
